G04*
G04 #@! TF.GenerationSoftware,Altium Limited,Altium Designer,21.8.1 (53)*
G04*
G04 Layer_Color=8421504*
%FSLAX25Y25*%
%MOIN*%
G70*
G04*
G04 #@! TF.SameCoordinates,FCDAA400-C0CE-4F93-ADCE-5479437ED816*
G04*
G04*
G04 #@! TF.FilePolarity,Positive*
G04*
G01*
G75*
%ADD19R,0.13386X0.02362*%
%ADD20R,0.07100X0.04400*%
%ADD21R,0.04400X0.07100*%
D19*
X110630Y95500D02*
D03*
Y90500D02*
D03*
Y85500D02*
D03*
Y80500D02*
D03*
X89370D02*
D03*
Y85500D02*
D03*
Y90500D02*
D03*
Y95500D02*
D03*
D20*
X214000Y91900D02*
D03*
Y80100D02*
D03*
X242667Y121900D02*
D03*
Y110100D02*
D03*
X243000Y80100D02*
D03*
Y91900D02*
D03*
X271333Y121900D02*
D03*
Y110100D02*
D03*
X272000Y91900D02*
D03*
Y80100D02*
D03*
X300000Y121900D02*
D03*
Y110100D02*
D03*
Y91900D02*
D03*
Y80100D02*
D03*
X30000Y52050D02*
D03*
Y63850D02*
D03*
Y80000D02*
D03*
Y91800D02*
D03*
X90000Y177900D02*
D03*
Y166100D02*
D03*
X214000Y121900D02*
D03*
Y110100D02*
D03*
X30000Y35900D02*
D03*
Y24100D02*
D03*
D21*
X113100Y178000D02*
D03*
X124900D02*
D03*
X141100D02*
D03*
X152900D02*
D03*
X132000Y96000D02*
D03*
X143800D02*
D03*
M02*
