G04*
G04 #@! TF.GenerationSoftware,Altium Limited,Altium Designer,21.8.1 (53)*
G04*
G04 Layer_Physical_Order=2*
G04 Layer_Color=16711680*
%FSLAX25Y25*%
%MOIN*%
G70*
G04*
G04 #@! TF.SameCoordinates,FCDAA400-C0CE-4F93-ADCE-5479437ED816*
G04*
G04*
G04 #@! TF.FilePolarity,Positive*
G04*
G01*
G75*
%ADD17C,0.00600*%
%ADD31C,0.06378*%
%ADD32O,0.12992X0.07087*%
%ADD33O,0.07874X0.14961*%
%ADD34C,0.07000*%
%ADD35C,0.02500*%
G36*
X347961Y2039D02*
X2039D01*
Y197961D01*
X347961D01*
Y2039D01*
D02*
G37*
%LPC*%
G36*
X34500Y186457D02*
Y178500D01*
X38980D01*
Y181543D01*
X38810Y182832D01*
X38313Y184033D01*
X37521Y185064D01*
X36490Y185856D01*
X35289Y186353D01*
X34500Y186457D01*
D02*
G37*
G36*
X33500D02*
X32711Y186353D01*
X31510Y185856D01*
X30479Y185064D01*
X29688Y184033D01*
X29190Y182832D01*
X29020Y181543D01*
Y178500D01*
X33500D01*
Y186457D01*
D02*
G37*
G36*
X38980Y177500D02*
X34500D01*
Y169543D01*
X35289Y169647D01*
X36490Y170144D01*
X37521Y170936D01*
X38313Y171967D01*
X38810Y173168D01*
X38980Y174457D01*
Y177500D01*
D02*
G37*
G36*
X33500D02*
X29020D01*
Y174457D01*
X29190Y173168D01*
X29688Y171967D01*
X30479Y170936D01*
X31510Y170144D01*
X32711Y169647D01*
X33500Y169543D01*
Y177500D01*
D02*
G37*
G36*
X57622Y186523D02*
X56333Y186353D01*
X55132Y185856D01*
X54101Y185064D01*
X53310Y184033D01*
X52812Y182832D01*
X52642Y181543D01*
Y174457D01*
X52812Y173168D01*
X53310Y171967D01*
X54101Y170936D01*
X55132Y170144D01*
X56333Y169647D01*
X57622Y169477D01*
X58911Y169647D01*
X60112Y170144D01*
X61143Y170936D01*
X61935Y171967D01*
X62432Y173168D01*
X62602Y174457D01*
Y181543D01*
X62432Y182832D01*
X61935Y184033D01*
X61143Y185064D01*
X60112Y185856D01*
X58911Y186353D01*
X57622Y186523D01*
D02*
G37*
G36*
X50732Y164275D02*
X48280D01*
Y160193D01*
X55249D01*
X55159Y160879D01*
X54701Y161984D01*
X53973Y162933D01*
X53023Y163662D01*
X51918Y164119D01*
X50732Y164275D01*
D02*
G37*
G36*
X47280D02*
X44827D01*
X43641Y164119D01*
X42535Y163662D01*
X41587Y162933D01*
X40858Y161984D01*
X40400Y160879D01*
X40310Y160193D01*
X47280D01*
Y164275D01*
D02*
G37*
G36*
X55249Y159193D02*
X48280D01*
Y155110D01*
X50732D01*
X51918Y155267D01*
X53023Y155724D01*
X53973Y156453D01*
X54701Y157402D01*
X55159Y158507D01*
X55249Y159193D01*
D02*
G37*
G36*
X47280D02*
X40310D01*
X40400Y158507D01*
X40858Y157402D01*
X41587Y156453D01*
X42535Y155724D01*
X43641Y155267D01*
X44827Y155110D01*
X47280D01*
Y159193D01*
D02*
G37*
G36*
X17592Y136500D02*
X17500D01*
Y132500D01*
X21500D01*
Y132592D01*
X21193Y133737D01*
X20601Y134763D01*
X19763Y135601D01*
X18737Y136193D01*
X17592Y136500D01*
D02*
G37*
G36*
X27592D02*
X27500D01*
Y132500D01*
X31500D01*
Y132592D01*
X31193Y133737D01*
X30601Y134763D01*
X29763Y135601D01*
X28737Y136193D01*
X27592Y136500D01*
D02*
G37*
G36*
X37592D02*
X37500D01*
Y132500D01*
X41500D01*
Y132592D01*
X41193Y133737D01*
X40601Y134763D01*
X39763Y135601D01*
X38737Y136193D01*
X37592Y136500D01*
D02*
G37*
G36*
X16500D02*
X16408D01*
X15263Y136193D01*
X14237Y135601D01*
X13399Y134763D01*
X12807Y133737D01*
X12500Y132592D01*
Y132500D01*
X16500D01*
Y136500D01*
D02*
G37*
G36*
X26500D02*
X26408D01*
X25263Y136193D01*
X24237Y135601D01*
X23399Y134763D01*
X22807Y133737D01*
X22500Y132592D01*
Y132500D01*
X26500D01*
Y136500D01*
D02*
G37*
G36*
X36500D02*
X36408D01*
X35263Y136193D01*
X34237Y135601D01*
X33399Y134763D01*
X32807Y133737D01*
X32500Y132592D01*
Y132500D01*
X36500D01*
Y136500D01*
D02*
G37*
G36*
X112551Y140189D02*
X111449D01*
X110383Y139903D01*
X109428Y139352D01*
X108648Y138572D01*
X108097Y137617D01*
X107811Y136551D01*
Y135449D01*
X108097Y134383D01*
X108648Y133428D01*
X109428Y132648D01*
X110383Y132097D01*
X111449Y131811D01*
X112551D01*
X113617Y132097D01*
X114572Y132648D01*
X115352Y133428D01*
X115903Y134383D01*
X116189Y135449D01*
Y136551D01*
X115903Y137617D01*
X115352Y138572D01*
X114572Y139352D01*
X113617Y139903D01*
X112551Y140189D01*
D02*
G37*
G36*
X47592Y136500D02*
X46408D01*
X45263Y136193D01*
X44237Y135601D01*
X43399Y134763D01*
X42807Y133737D01*
X42500Y132592D01*
Y131408D01*
X42807Y130263D01*
X43399Y129237D01*
X44237Y128399D01*
X45263Y127807D01*
X46408Y127500D01*
X47592D01*
X48737Y127807D01*
X49763Y128399D01*
X50601Y129237D01*
X51193Y130263D01*
X51500Y131408D01*
Y132592D01*
X51193Y133737D01*
X50601Y134763D01*
X49763Y135601D01*
X48737Y136193D01*
X47592Y136500D01*
D02*
G37*
G36*
X41500Y131500D02*
X37500D01*
Y127500D01*
X37592D01*
X38737Y127807D01*
X39763Y128399D01*
X40601Y129237D01*
X41193Y130263D01*
X41500Y131408D01*
Y131500D01*
D02*
G37*
G36*
X36500D02*
X32500D01*
Y131408D01*
X32807Y130263D01*
X33399Y129237D01*
X34237Y128399D01*
X35263Y127807D01*
X36408Y127500D01*
X36500D01*
Y131500D01*
D02*
G37*
G36*
X31500D02*
X27500D01*
Y127500D01*
X27592D01*
X28737Y127807D01*
X29763Y128399D01*
X30601Y129237D01*
X31193Y130263D01*
X31500Y131408D01*
Y131500D01*
D02*
G37*
G36*
X26500D02*
X22500D01*
Y131408D01*
X22807Y130263D01*
X23399Y129237D01*
X24237Y128399D01*
X25263Y127807D01*
X26408Y127500D01*
X26500D01*
Y131500D01*
D02*
G37*
G36*
X21500D02*
X17500D01*
Y127500D01*
X17592D01*
X18737Y127807D01*
X19763Y128399D01*
X20601Y129237D01*
X21193Y130263D01*
X21500Y131408D01*
Y131500D01*
D02*
G37*
G36*
X16500D02*
X12500D01*
Y131408D01*
X12807Y130263D01*
X13399Y129237D01*
X14237Y128399D01*
X15263Y127807D01*
X16408Y127500D01*
X16500D01*
Y131500D01*
D02*
G37*
G36*
X112551Y130189D02*
X111449D01*
X110383Y129903D01*
X109428Y129352D01*
X108648Y128572D01*
X108097Y127617D01*
X107811Y126551D01*
Y125449D01*
X108097Y124383D01*
X108648Y123428D01*
X109428Y122648D01*
X110383Y122097D01*
X111449Y121811D01*
X112551D01*
X113617Y122097D01*
X114572Y122648D01*
X115352Y123428D01*
X115903Y124383D01*
X116189Y125449D01*
Y126551D01*
X115903Y127617D01*
X115352Y128572D01*
X114572Y129352D01*
X113617Y129903D01*
X112551Y130189D01*
D02*
G37*
G36*
X166551Y126189D02*
X165448D01*
X164383Y125903D01*
X163428Y125352D01*
X162648Y124572D01*
X162097Y123617D01*
X161811Y122552D01*
Y121449D01*
X162097Y120383D01*
X162648Y119428D01*
X163428Y118648D01*
X164383Y118096D01*
X165448Y117811D01*
X166551D01*
X167617Y118096D01*
X168572Y118648D01*
X169352Y119428D01*
X169904Y120383D01*
X170189Y121449D01*
Y122552D01*
X169904Y123617D01*
X169352Y124572D01*
X168572Y125352D01*
X167617Y125903D01*
X166551Y126189D01*
D02*
G37*
G36*
X156552D02*
X155448D01*
X154383Y125903D01*
X153428Y125352D01*
X152648Y124572D01*
X152096Y123617D01*
X151811Y122552D01*
Y121449D01*
X152096Y120383D01*
X152648Y119428D01*
X153428Y118648D01*
X154383Y118096D01*
X155448Y117811D01*
X156552D01*
X157617Y118096D01*
X158572Y118648D01*
X159352Y119428D01*
X159904Y120383D01*
X160189Y121449D01*
Y122552D01*
X159904Y123617D01*
X159352Y124572D01*
X158572Y125352D01*
X157617Y125903D01*
X156552Y126189D01*
D02*
G37*
G36*
X98448Y103250D02*
X97552D01*
X96725Y102908D01*
X96092Y102275D01*
X95750Y101448D01*
Y100552D01*
X96092Y99726D01*
X96675Y99143D01*
Y79703D01*
X96775Y79196D01*
X96951Y78933D01*
X96750Y78448D01*
Y77552D01*
X97092Y76726D01*
X97725Y76092D01*
X98552Y75750D01*
X99448D01*
X100275Y76092D01*
X100908Y76726D01*
X101250Y77552D01*
Y78448D01*
X100908Y79274D01*
X100275Y79908D01*
X99448Y80250D01*
X99328D01*
X99326Y80252D01*
Y99143D01*
X99907Y99726D01*
X100250Y100552D01*
Y101448D01*
X99907Y102275D01*
X99274Y102908D01*
X98448Y103250D01*
D02*
G37*
G36*
X156592Y60500D02*
X155408D01*
X154263Y60193D01*
X153237Y59601D01*
X152399Y58763D01*
X151807Y57737D01*
X151500Y56592D01*
Y55408D01*
X151807Y54263D01*
X152399Y53237D01*
X153237Y52399D01*
X154263Y51807D01*
X155408Y51500D01*
X156592D01*
X157737Y51807D01*
X158763Y52399D01*
X159601Y53237D01*
X160193Y54263D01*
X160500Y55408D01*
Y56592D01*
X160193Y57737D01*
X159601Y58763D01*
X158763Y59601D01*
X157737Y60193D01*
X156592Y60500D01*
D02*
G37*
G36*
X234592Y58500D02*
X233408D01*
X232263Y58193D01*
X231237Y57601D01*
X230399Y56763D01*
X229807Y55737D01*
X229500Y54592D01*
Y53408D01*
X229807Y52263D01*
X230399Y51237D01*
X231237Y50399D01*
X232263Y49807D01*
X233408Y49500D01*
X234592D01*
X235737Y49807D01*
X236763Y50399D01*
X237601Y51237D01*
X238193Y52263D01*
X238500Y53408D01*
Y54592D01*
X238193Y55737D01*
X237601Y56763D01*
X236763Y57601D01*
X235737Y58193D01*
X234592Y58500D01*
D02*
G37*
G36*
X202592D02*
X201408D01*
X200263Y58193D01*
X199237Y57601D01*
X198399Y56763D01*
X197807Y55737D01*
X197500Y54592D01*
Y53408D01*
X197807Y52263D01*
X198399Y51237D01*
X199237Y50399D01*
X200263Y49807D01*
X201408Y49500D01*
X202592D01*
X203737Y49807D01*
X204763Y50399D01*
X205601Y51237D01*
X206193Y52263D01*
X206500Y53408D01*
Y54592D01*
X206193Y55737D01*
X205601Y56763D01*
X204763Y57601D01*
X203737Y58193D01*
X202592Y58500D01*
D02*
G37*
G36*
X121448Y62250D02*
X120552D01*
X119726Y61908D01*
X119093Y61274D01*
X118750Y60448D01*
Y59552D01*
X119093Y58726D01*
X119675Y58144D01*
Y52856D01*
X119093Y52275D01*
X118750Y51448D01*
Y50552D01*
X119093Y49725D01*
X119726Y49093D01*
X120552Y48750D01*
X121448D01*
X122274Y49093D01*
X122907Y49725D01*
X123250Y50552D01*
Y51448D01*
X122907Y52275D01*
X122326Y52856D01*
Y58144D01*
X122907Y58726D01*
X123250Y59552D01*
Y60448D01*
X122907Y61274D01*
X122274Y61908D01*
X121448Y62250D01*
D02*
G37*
G36*
X316592Y57500D02*
X315408D01*
X314263Y57193D01*
X313237Y56601D01*
X312399Y55763D01*
X311807Y54737D01*
X311500Y53592D01*
Y52408D01*
X311807Y51263D01*
X312399Y50237D01*
X313237Y49399D01*
X314263Y48807D01*
X315408Y48500D01*
X316592D01*
X317737Y48807D01*
X318763Y49399D01*
X319601Y50237D01*
X320193Y51263D01*
X320500Y52408D01*
Y53592D01*
X320193Y54737D01*
X319601Y55763D01*
X318763Y56601D01*
X317737Y57193D01*
X316592Y57500D01*
D02*
G37*
G36*
X267592D02*
X266408D01*
X265263Y57193D01*
X264237Y56601D01*
X263399Y55763D01*
X262807Y54737D01*
X262500Y53592D01*
Y52408D01*
X262807Y51263D01*
X263399Y50237D01*
X264237Y49399D01*
X265263Y48807D01*
X266408Y48500D01*
X267592D01*
X268737Y48807D01*
X269763Y49399D01*
X270601Y50237D01*
X271193Y51263D01*
X271500Y52408D01*
Y53592D01*
X271193Y54737D01*
X270601Y55763D01*
X269763Y56601D01*
X268737Y57193D01*
X267592Y57500D01*
D02*
G37*
G36*
X156592Y50500D02*
X156500D01*
Y46500D01*
X160500D01*
Y46592D01*
X160193Y47737D01*
X159601Y48763D01*
X158763Y49601D01*
X157737Y50193D01*
X156592Y50500D01*
D02*
G37*
G36*
X155500D02*
X155408D01*
X154263Y50193D01*
X153237Y49601D01*
X152399Y48763D01*
X151807Y47737D01*
X151500Y46592D01*
Y46500D01*
X155500D01*
Y50500D01*
D02*
G37*
G36*
X234592Y48500D02*
X234500D01*
Y44500D01*
X238500D01*
Y44592D01*
X238193Y45737D01*
X237601Y46763D01*
X236763Y47601D01*
X235737Y48193D01*
X234592Y48500D01*
D02*
G37*
G36*
X202592D02*
X202500D01*
Y44500D01*
X206500D01*
Y44592D01*
X206193Y45737D01*
X205601Y46763D01*
X204763Y47601D01*
X203737Y48193D01*
X202592Y48500D01*
D02*
G37*
G36*
X233500D02*
X233408D01*
X232263Y48193D01*
X231237Y47601D01*
X230399Y46763D01*
X229807Y45737D01*
X229500Y44592D01*
Y44500D01*
X233500D01*
Y48500D01*
D02*
G37*
G36*
X201500D02*
X201408D01*
X200263Y48193D01*
X199237Y47601D01*
X198399Y46763D01*
X197807Y45737D01*
X197500Y44592D01*
Y44500D01*
X201500D01*
Y48500D01*
D02*
G37*
G36*
X316592Y47500D02*
X316500D01*
Y43500D01*
X320500D01*
Y43592D01*
X320193Y44737D01*
X319601Y45763D01*
X318763Y46601D01*
X317737Y47193D01*
X316592Y47500D01*
D02*
G37*
G36*
X267592D02*
X267500D01*
Y43500D01*
X271500D01*
Y43592D01*
X271193Y44737D01*
X270601Y45763D01*
X269763Y46601D01*
X268737Y47193D01*
X267592Y47500D01*
D02*
G37*
G36*
X315500D02*
X315408D01*
X314263Y47193D01*
X313237Y46601D01*
X312399Y45763D01*
X311807Y44737D01*
X311500Y43592D01*
Y43500D01*
X315500D01*
Y47500D01*
D02*
G37*
G36*
X266500D02*
X266408D01*
X265263Y47193D01*
X264237Y46601D01*
X263399Y45763D01*
X262807Y44737D01*
X262500Y43592D01*
Y43500D01*
X266500D01*
Y47500D01*
D02*
G37*
G36*
X160500Y45500D02*
X156500D01*
Y41500D01*
X156592D01*
X157737Y41807D01*
X158763Y42399D01*
X159601Y43237D01*
X160193Y44263D01*
X160500Y45408D01*
Y45500D01*
D02*
G37*
G36*
X155500D02*
X151500D01*
Y45408D01*
X151807Y44263D01*
X152399Y43237D01*
X153237Y42399D01*
X154263Y41807D01*
X155408Y41500D01*
X155500D01*
Y45500D01*
D02*
G37*
G36*
X238500Y43500D02*
X234500D01*
Y39500D01*
X234592D01*
X235737Y39807D01*
X236763Y40399D01*
X237601Y41237D01*
X238193Y42263D01*
X238500Y43408D01*
Y43500D01*
D02*
G37*
G36*
X233500D02*
X229500D01*
Y43408D01*
X229807Y42263D01*
X230399Y41237D01*
X231237Y40399D01*
X232263Y39807D01*
X233408Y39500D01*
X233500D01*
Y43500D01*
D02*
G37*
G36*
X206500D02*
X202500D01*
Y39500D01*
X202592D01*
X203737Y39807D01*
X204763Y40399D01*
X205601Y41237D01*
X206193Y42263D01*
X206500Y43408D01*
Y43500D01*
D02*
G37*
G36*
X201500D02*
X197500D01*
Y43408D01*
X197807Y42263D01*
X198399Y41237D01*
X199237Y40399D01*
X200263Y39807D01*
X201408Y39500D01*
X201500D01*
Y43500D01*
D02*
G37*
G36*
X320500Y42500D02*
X316500D01*
Y38500D01*
X316592D01*
X317737Y38807D01*
X318763Y39399D01*
X319601Y40237D01*
X320193Y41263D01*
X320500Y42408D01*
Y42500D01*
D02*
G37*
G36*
X315500D02*
X311500D01*
Y42408D01*
X311807Y41263D01*
X312399Y40237D01*
X313237Y39399D01*
X314263Y38807D01*
X315408Y38500D01*
X315500D01*
Y42500D01*
D02*
G37*
G36*
X271500D02*
X267500D01*
Y38500D01*
X267592D01*
X268737Y38807D01*
X269763Y39399D01*
X270601Y40237D01*
X271193Y41263D01*
X271500Y42408D01*
Y42500D01*
D02*
G37*
G36*
X266500D02*
X262500D01*
Y42408D01*
X262807Y41263D01*
X263399Y40237D01*
X264237Y39399D01*
X265263Y38807D01*
X266408Y38500D01*
X266500D01*
Y42500D01*
D02*
G37*
G36*
X156592Y40500D02*
X156500D01*
Y36500D01*
X160500D01*
Y36592D01*
X160193Y37737D01*
X159601Y38763D01*
X158763Y39601D01*
X157737Y40193D01*
X156592Y40500D01*
D02*
G37*
G36*
X155500D02*
X155408D01*
X154263Y40193D01*
X153237Y39601D01*
X152399Y38763D01*
X151807Y37737D01*
X151500Y36592D01*
Y36500D01*
X155500D01*
Y40500D01*
D02*
G37*
G36*
X234592Y38500D02*
X234500D01*
Y34500D01*
X238500D01*
Y34592D01*
X238193Y35737D01*
X237601Y36763D01*
X236763Y37601D01*
X235737Y38193D01*
X234592Y38500D01*
D02*
G37*
G36*
X202592D02*
X202500D01*
Y34500D01*
X206500D01*
Y34592D01*
X206193Y35737D01*
X205601Y36763D01*
X204763Y37601D01*
X203737Y38193D01*
X202592Y38500D01*
D02*
G37*
G36*
X233500D02*
X233408D01*
X232263Y38193D01*
X231237Y37601D01*
X230399Y36763D01*
X229807Y35737D01*
X229500Y34592D01*
Y34500D01*
X233500D01*
Y38500D01*
D02*
G37*
G36*
X201500D02*
X201408D01*
X200263Y38193D01*
X199237Y37601D01*
X198399Y36763D01*
X197807Y35737D01*
X197500Y34592D01*
Y34500D01*
X201500D01*
Y38500D01*
D02*
G37*
G36*
X316592Y37500D02*
X316500D01*
Y33500D01*
X320500D01*
Y33592D01*
X320193Y34737D01*
X319601Y35763D01*
X318763Y36601D01*
X317737Y37193D01*
X316592Y37500D01*
D02*
G37*
G36*
X267592D02*
X267500D01*
Y33500D01*
X271500D01*
Y33592D01*
X271193Y34737D01*
X270601Y35763D01*
X269763Y36601D01*
X268737Y37193D01*
X267592Y37500D01*
D02*
G37*
G36*
X315500D02*
X315408D01*
X314263Y37193D01*
X313237Y36601D01*
X312399Y35763D01*
X311807Y34737D01*
X311500Y33592D01*
Y33500D01*
X315500D01*
Y37500D01*
D02*
G37*
G36*
X266500D02*
X266408D01*
X265263Y37193D01*
X264237Y36601D01*
X263399Y35763D01*
X262807Y34737D01*
X262500Y33592D01*
Y33500D01*
X266500D01*
Y37500D01*
D02*
G37*
G36*
X160500Y35500D02*
X156500D01*
Y31500D01*
X156592D01*
X157737Y31807D01*
X158763Y32399D01*
X159601Y33237D01*
X160193Y34263D01*
X160500Y35408D01*
Y35500D01*
D02*
G37*
G36*
X155500D02*
X151500D01*
Y35408D01*
X151807Y34263D01*
X152399Y33237D01*
X153237Y32399D01*
X154263Y31807D01*
X155408Y31500D01*
X155500D01*
Y35500D01*
D02*
G37*
G36*
X238500Y33500D02*
X234500D01*
Y29500D01*
X234592D01*
X235737Y29807D01*
X236763Y30399D01*
X237601Y31237D01*
X238193Y32263D01*
X238500Y33408D01*
Y33500D01*
D02*
G37*
G36*
X233500D02*
X229500D01*
Y33408D01*
X229807Y32263D01*
X230399Y31237D01*
X231237Y30399D01*
X232263Y29807D01*
X233408Y29500D01*
X233500D01*
Y33500D01*
D02*
G37*
G36*
X206500D02*
X202500D01*
Y29500D01*
X202592D01*
X203737Y29807D01*
X204763Y30399D01*
X205601Y31237D01*
X206193Y32263D01*
X206500Y33408D01*
Y33500D01*
D02*
G37*
G36*
X201500D02*
X197500D01*
Y33408D01*
X197807Y32263D01*
X198399Y31237D01*
X199237Y30399D01*
X200263Y29807D01*
X201408Y29500D01*
X201500D01*
Y33500D01*
D02*
G37*
G36*
X320500Y32500D02*
X316500D01*
Y28500D01*
X316592D01*
X317737Y28807D01*
X318763Y29399D01*
X319601Y30237D01*
X320193Y31263D01*
X320500Y32408D01*
Y32500D01*
D02*
G37*
G36*
X315500D02*
X311500D01*
Y32408D01*
X311807Y31263D01*
X312399Y30237D01*
X313237Y29399D01*
X314263Y28807D01*
X315408Y28500D01*
X315500D01*
Y32500D01*
D02*
G37*
G36*
X271500D02*
X267500D01*
Y28500D01*
X267592D01*
X268737Y28807D01*
X269763Y29399D01*
X270601Y30237D01*
X271193Y31263D01*
X271500Y32408D01*
Y32500D01*
D02*
G37*
G36*
X266500D02*
X262500D01*
Y32408D01*
X262807Y31263D01*
X263399Y30237D01*
X264237Y29399D01*
X265263Y28807D01*
X266408Y28500D01*
X266500D01*
Y32500D01*
D02*
G37*
G36*
X156592Y30500D02*
X156500D01*
Y26500D01*
X160500D01*
Y26592D01*
X160193Y27737D01*
X159601Y28763D01*
X158763Y29601D01*
X157737Y30193D01*
X156592Y30500D01*
D02*
G37*
G36*
X155500D02*
X155408D01*
X154263Y30193D01*
X153237Y29601D01*
X152399Y28763D01*
X151807Y27737D01*
X151500Y26592D01*
Y26500D01*
X155500D01*
Y30500D01*
D02*
G37*
G36*
X234592Y28500D02*
X234500D01*
Y24500D01*
X238500D01*
Y24592D01*
X238193Y25737D01*
X237601Y26763D01*
X236763Y27601D01*
X235737Y28193D01*
X234592Y28500D01*
D02*
G37*
G36*
X202592D02*
X202500D01*
Y24500D01*
X206500D01*
Y24592D01*
X206193Y25737D01*
X205601Y26763D01*
X204763Y27601D01*
X203737Y28193D01*
X202592Y28500D01*
D02*
G37*
G36*
X233500D02*
X233408D01*
X232263Y28193D01*
X231237Y27601D01*
X230399Y26763D01*
X229807Y25737D01*
X229500Y24592D01*
Y24500D01*
X233500D01*
Y28500D01*
D02*
G37*
G36*
X201500D02*
X201408D01*
X200263Y28193D01*
X199237Y27601D01*
X198399Y26763D01*
X197807Y25737D01*
X197500Y24592D01*
Y24500D01*
X201500D01*
Y28500D01*
D02*
G37*
G36*
X316592Y27500D02*
X316500D01*
Y23500D01*
X320500D01*
Y23592D01*
X320193Y24737D01*
X319601Y25763D01*
X318763Y26601D01*
X317737Y27193D01*
X316592Y27500D01*
D02*
G37*
G36*
X267592D02*
X267500D01*
Y23500D01*
X271500D01*
Y23592D01*
X271193Y24737D01*
X270601Y25763D01*
X269763Y26601D01*
X268737Y27193D01*
X267592Y27500D01*
D02*
G37*
G36*
X315500D02*
X315408D01*
X314263Y27193D01*
X313237Y26601D01*
X312399Y25763D01*
X311807Y24737D01*
X311500Y23592D01*
Y23500D01*
X315500D01*
Y27500D01*
D02*
G37*
G36*
X266500D02*
X266408D01*
X265263Y27193D01*
X264237Y26601D01*
X263399Y25763D01*
X262807Y24737D01*
X262500Y23592D01*
Y23500D01*
X266500D01*
Y27500D01*
D02*
G37*
G36*
X160500Y25500D02*
X156500D01*
Y21500D01*
X156592D01*
X157737Y21807D01*
X158763Y22399D01*
X159601Y23237D01*
X160193Y24263D01*
X160500Y25408D01*
Y25500D01*
D02*
G37*
G36*
X155500D02*
X151500D01*
Y25408D01*
X151807Y24263D01*
X152399Y23237D01*
X153237Y22399D01*
X154263Y21807D01*
X155408Y21500D01*
X155500D01*
Y25500D01*
D02*
G37*
G36*
X238500Y23500D02*
X234500D01*
Y19500D01*
X234592D01*
X235737Y19807D01*
X236763Y20399D01*
X237601Y21237D01*
X238193Y22263D01*
X238500Y23408D01*
Y23500D01*
D02*
G37*
G36*
X233500D02*
X229500D01*
Y23408D01*
X229807Y22263D01*
X230399Y21237D01*
X231237Y20399D01*
X232263Y19807D01*
X233408Y19500D01*
X233500D01*
Y23500D01*
D02*
G37*
G36*
X206500D02*
X202500D01*
Y19500D01*
X202592D01*
X203737Y19807D01*
X204763Y20399D01*
X205601Y21237D01*
X206193Y22263D01*
X206500Y23408D01*
Y23500D01*
D02*
G37*
G36*
X201500D02*
X197500D01*
Y23408D01*
X197807Y22263D01*
X198399Y21237D01*
X199237Y20399D01*
X200263Y19807D01*
X201408Y19500D01*
X201500D01*
Y23500D01*
D02*
G37*
G36*
X320500Y22500D02*
X316500D01*
Y18500D01*
X316592D01*
X317737Y18807D01*
X318763Y19399D01*
X319601Y20237D01*
X320193Y21263D01*
X320500Y22408D01*
Y22500D01*
D02*
G37*
G36*
X315500D02*
X311500D01*
Y22408D01*
X311807Y21263D01*
X312399Y20237D01*
X313237Y19399D01*
X314263Y18807D01*
X315408Y18500D01*
X315500D01*
Y22500D01*
D02*
G37*
G36*
X271500D02*
X267500D01*
Y18500D01*
X267592D01*
X268737Y18807D01*
X269763Y19399D01*
X270601Y20237D01*
X271193Y21263D01*
X271500Y22408D01*
Y22500D01*
D02*
G37*
G36*
X266500D02*
X262500D01*
Y22408D01*
X262807Y21263D01*
X263399Y20237D01*
X264237Y19399D01*
X265263Y18807D01*
X266408Y18500D01*
X266500D01*
Y22500D01*
D02*
G37*
%LPD*%
D17*
X98000Y79703D02*
X98637Y79067D01*
Y78364D02*
X99000Y78000D01*
X98000Y79703D02*
Y101000D01*
X98637Y78364D02*
Y79067D01*
X121000Y51000D02*
Y60000D01*
D31*
X112000Y126000D02*
D03*
Y136000D02*
D03*
X166000Y122000D02*
D03*
X156000D02*
D03*
D32*
X47780Y159693D02*
D03*
D33*
X34000Y178000D02*
D03*
X57622D02*
D03*
D34*
X37000Y132000D02*
D03*
X47000D02*
D03*
X17000D02*
D03*
X27000D02*
D03*
X156000Y46000D02*
D03*
Y56000D02*
D03*
Y26000D02*
D03*
Y36000D02*
D03*
X316000Y43000D02*
D03*
Y53000D02*
D03*
Y23000D02*
D03*
Y33000D02*
D03*
X267000Y43000D02*
D03*
Y53000D02*
D03*
Y23000D02*
D03*
Y33000D02*
D03*
X234000Y44000D02*
D03*
Y54000D02*
D03*
Y24000D02*
D03*
Y34000D02*
D03*
X202000Y44000D02*
D03*
Y54000D02*
D03*
Y24000D02*
D03*
Y34000D02*
D03*
D35*
X99000Y78000D02*
D03*
X98000Y101000D02*
D03*
X121000Y51000D02*
D03*
Y60000D02*
D03*
X160000Y178000D02*
D03*
X152000Y96000D02*
D03*
X90003Y159169D02*
D03*
X76000Y95500D02*
D03*
X30000Y18000D02*
D03*
X300000Y72000D02*
D03*
X272000D02*
D03*
X243000D02*
D03*
X214000D02*
D03*
M02*
