M48
;Layer_Color=9474304
;FILE_FORMAT=2:5
INCH,LZ
;TYPE=PLATED
T1F00S00C0.01300
T3F00S00C0.04000
T4F00S00C0.04016
%
T01
X003Y0018
X0121Y0051
X0214Y0072
X0243
X0272
X03
X0152Y0096
X0098Y0101
X0099Y0078
X0121Y006
X0076Y00955
X0090003Y0159169
X016Y0178
T03
X0156Y0026
Y0036
Y0046
Y0056
X0202Y0054
Y0044
Y0034
Y0024
X0234
Y0034
Y0044
Y0054
X0267Y0053
Y0043
Y0033
Y0023
X0316
Y0033
Y0043
Y0053
X0047Y0132
X0037
X0027
X0017
T04
X0112Y0126
Y0136
X0156Y0122
X0166
M30
