G04*
G04 #@! TF.GenerationSoftware,Altium Limited,Altium Designer,21.8.1 (53)*
G04*
G04 Layer_Color=8388736*
%FSLAX25Y25*%
%MOIN*%
G70*
G04*
G04 #@! TF.SameCoordinates,28AFC469-8C40-47C5-92FE-A73FC46FB42A*
G04*
G04*
G04 #@! TF.FilePolarity,Negative*
G04*
G01*
G75*
%ADD18R,0.05709X0.03937*%
%ADD19R,0.03937X0.02953*%
%ADD20R,0.03937X0.05709*%
%ADD21R,0.02362X0.02756*%
%ADD23R,0.02756X0.02362*%
%ADD35R,0.03950X0.03950*%
%ADD36R,0.06311X0.05524*%
%ADD37R,0.05524X0.06311*%
%ADD38R,0.02956X0.04137*%
%ADD39O,0.03200X0.09461*%
%ADD40R,0.05524X0.06706*%
%ADD41R,0.07100X0.13000*%
%ADD42R,0.07100X0.04100*%
%ADD43R,0.03950X0.03950*%
%ADD44R,0.02200X0.06000*%
%ADD45R,0.06000X0.02200*%
%ADD46C,0.06800*%
%ADD47C,0.07800*%
%ADD48O,0.10249X0.05524*%
%ADD49C,0.05524*%
%ADD50C,0.07296*%
%ADD51O,0.13792X0.07887*%
%ADD52O,0.08674X0.15761*%
%ADD53C,0.03300*%
D18*
X191000Y154520D02*
D03*
Y162000D02*
D03*
X63000Y260020D02*
D03*
Y267500D02*
D03*
D19*
X191000Y147756D02*
D03*
Y142244D02*
D03*
D20*
X263520Y149000D02*
D03*
X271000D02*
D03*
X53500Y128000D02*
D03*
X60980D02*
D03*
X76500Y137500D02*
D03*
X69020D02*
D03*
X53000Y53000D02*
D03*
X45520D02*
D03*
X30520Y74000D02*
D03*
X38000D02*
D03*
X65480Y278500D02*
D03*
X58000D02*
D03*
D21*
X265563Y159000D02*
D03*
X269500D02*
D03*
X94500Y192500D02*
D03*
X98437D02*
D03*
D23*
X163500Y215531D02*
D03*
Y219468D02*
D03*
X291000Y234968D02*
D03*
Y231031D02*
D03*
X299000Y235000D02*
D03*
Y231063D02*
D03*
X279000Y167063D02*
D03*
Y171000D02*
D03*
X64500Y194000D02*
D03*
Y190063D02*
D03*
X73500Y194000D02*
D03*
Y190063D02*
D03*
X86000Y200563D02*
D03*
Y204500D02*
D03*
X8500Y289563D02*
D03*
Y293500D02*
D03*
Y281000D02*
D03*
Y277063D02*
D03*
X40000Y232000D02*
D03*
Y228063D02*
D03*
X22500Y109500D02*
D03*
Y113437D02*
D03*
D35*
X163500Y228594D02*
D03*
Y234500D02*
D03*
X64500Y182500D02*
D03*
Y176594D02*
D03*
X73500Y182405D02*
D03*
Y176500D02*
D03*
X40000Y219905D02*
D03*
Y214000D02*
D03*
X22500Y94000D02*
D03*
Y99906D02*
D03*
D36*
X271500Y171500D02*
D03*
X262838D02*
D03*
X271499Y164807D02*
D03*
X262838D02*
D03*
D37*
X99500Y198838D02*
D03*
Y207500D02*
D03*
X92807Y198839D02*
D03*
Y207500D02*
D03*
D38*
X50260Y162423D02*
D03*
X54000D02*
D03*
X57740D02*
D03*
Y171724D02*
D03*
X54000D02*
D03*
X50260D02*
D03*
D39*
X63000Y243400D02*
D03*
X68000D02*
D03*
X73000D02*
D03*
X78000D02*
D03*
X83000D02*
D03*
X88000D02*
D03*
X93000D02*
D03*
X98000D02*
D03*
Y220000D02*
D03*
X93000D02*
D03*
X88000D02*
D03*
X83000D02*
D03*
X78000D02*
D03*
X73000D02*
D03*
X68000D02*
D03*
X63000D02*
D03*
D40*
X32405Y270508D02*
D03*
X20595Y296492D02*
D03*
X32405D02*
D03*
X20595Y270508D02*
D03*
D41*
X17900Y137500D02*
D03*
D42*
X43100Y128400D02*
D03*
Y137500D02*
D03*
Y146600D02*
D03*
D43*
X53594Y137500D02*
D03*
X59500D02*
D03*
X53405Y74000D02*
D03*
X47500D02*
D03*
D44*
X241193Y130300D02*
D03*
X238093D02*
D03*
X234893D02*
D03*
X231793D02*
D03*
X228593D02*
D03*
X225493D02*
D03*
X222293D02*
D03*
X219193D02*
D03*
Y162700D02*
D03*
X222293D02*
D03*
X225493D02*
D03*
X228593D02*
D03*
X231793D02*
D03*
X234893D02*
D03*
X238093D02*
D03*
X241193D02*
D03*
D45*
X213993Y135500D02*
D03*
Y138600D02*
D03*
Y141800D02*
D03*
Y144900D02*
D03*
Y148100D02*
D03*
Y151200D02*
D03*
Y154400D02*
D03*
Y157500D02*
D03*
X246393D02*
D03*
Y154400D02*
D03*
Y151200D02*
D03*
Y148100D02*
D03*
Y144900D02*
D03*
Y141800D02*
D03*
Y138600D02*
D03*
Y135500D02*
D03*
D46*
X300000Y30000D02*
D03*
X290000D02*
D03*
X280000D02*
D03*
X270000D02*
D03*
X260000D02*
D03*
X250000D02*
D03*
X124000Y280000D02*
D03*
X134000D02*
D03*
X144000D02*
D03*
X154000D02*
D03*
X164000D02*
D03*
X174000D02*
D03*
X184000D02*
D03*
X194000D02*
D03*
X204000D02*
D03*
X214000D02*
D03*
X300000D02*
D03*
X290000D02*
D03*
X280000D02*
D03*
X270000D02*
D03*
X260000D02*
D03*
X250000D02*
D03*
X240000D02*
D03*
X230000D02*
D03*
X250000Y60000D02*
D03*
X260000D02*
D03*
X270000D02*
D03*
X280000D02*
D03*
X290000D02*
D03*
X300000D02*
D03*
X160000D02*
D03*
X170000D02*
D03*
X180000D02*
D03*
X190000D02*
D03*
X200000D02*
D03*
X210000D02*
D03*
X220000D02*
D03*
X230000D02*
D03*
X160000Y30000D02*
D03*
X170000D02*
D03*
X180000D02*
D03*
X190000D02*
D03*
X200000D02*
D03*
X210000D02*
D03*
X220000D02*
D03*
X230000D02*
D03*
X300000Y250000D02*
D03*
X290000D02*
D03*
X280000D02*
D03*
X270000D02*
D03*
X260000D02*
D03*
X250000D02*
D03*
X240000D02*
D03*
X230000D02*
D03*
X214000D02*
D03*
X204000D02*
D03*
X194000D02*
D03*
X184000D02*
D03*
X174000D02*
D03*
X164000D02*
D03*
X154000D02*
D03*
X144000D02*
D03*
X134000D02*
D03*
X124000D02*
D03*
D47*
X114000Y60000D02*
D03*
X104000D02*
D03*
X134000D02*
D03*
X124000D02*
D03*
X19500Y240000D02*
D03*
Y250000D02*
D03*
Y220000D02*
D03*
Y230000D02*
D03*
X51500Y101500D02*
D03*
X41500D02*
D03*
X71500D02*
D03*
X61500D02*
D03*
X87000Y32000D02*
D03*
Y42000D02*
D03*
Y12000D02*
D03*
Y22000D02*
D03*
X199000Y184000D02*
D03*
X189000D02*
D03*
X199000Y194000D02*
D03*
X189000D02*
D03*
X199000Y204000D02*
D03*
X189000D02*
D03*
D48*
X16875Y175855D02*
D03*
X35575D02*
D03*
Y205146D02*
D03*
X16875D02*
D03*
D49*
X39125Y196721D02*
D03*
X34386Y193571D02*
D03*
Y187273D02*
D03*
X39125Y190421D02*
D03*
Y184123D02*
D03*
D50*
X10000Y100000D02*
D03*
Y90000D02*
D03*
Y80000D02*
D03*
D51*
X46780Y8693D02*
D03*
D52*
X33000Y27000D02*
D03*
X56622D02*
D03*
D53*
X54000Y158250D02*
D03*
X106000Y231750D02*
D03*
Y238250D02*
D03*
X119000Y267000D02*
D03*
X109000D02*
D03*
X112000Y259000D02*
D03*
X121000Y261000D02*
D03*
X179000Y181000D02*
D03*
X185298Y175702D02*
D03*
X117000Y184000D02*
D03*
X106000D02*
D03*
X86000Y197000D02*
D03*
X88000Y194000D02*
D03*
X205500Y98448D02*
D03*
X204000Y151900D02*
D03*
Y157000D02*
D03*
X190697Y166697D02*
D03*
X204000Y106000D02*
D03*
X194000Y98000D02*
D03*
X196550Y106000D02*
D03*
X230000Y40000D02*
D03*
X223000Y47000D02*
D03*
X209100Y144900D02*
D03*
X251152Y141252D02*
D03*
X269000Y137000D02*
D03*
Y119000D02*
D03*
X216000Y181000D02*
D03*
X210000D02*
D03*
X181000Y204000D02*
D03*
X168468Y215531D02*
D03*
X83150Y137324D02*
D03*
X262838Y176338D02*
D03*
X275500Y149000D02*
D03*
X273000Y159000D02*
D03*
X251400Y147950D02*
D03*
X275307Y161000D02*
D03*
X279000Y163500D02*
D03*
X53500Y267500D02*
D03*
X8500Y297500D02*
D03*
X38492Y296492D02*
D03*
X48000Y185500D02*
D03*
Y193000D02*
D03*
X99500Y212500D02*
D03*
X91000Y192500D02*
D03*
X63000Y213500D02*
D03*
X40000Y237000D02*
D03*
X48500Y128500D02*
D03*
X22500Y118000D02*
D03*
X67000Y128000D02*
D03*
X25000Y74000D02*
D03*
X39000Y53000D02*
D03*
M02*
