M48
;Layer_Color=9474304
;FILE_FORMAT=2:5
INCH,LZ
;TYPE=PLATED
T1F00S00C0.01300
T2F00S00C0.03150
T5F00S00C0.04000
T6F00S00C0.04331
%
T01
X0039Y0053
X0223Y0047
X023Y004
X0269Y0119
Y0137
X02755Y0149
X0275307Y0161
X0273Y0159
X0279Y01635
X0262838Y0176338
X02514Y014795
X0251152Y0141252
X0216Y0181
X021
X0204Y0157
Y01519
X02091Y01449
X0190697Y0166697
X0185298Y0175702
X0179Y0181
X0181Y0204
X0117Y0184
X0106
X0091Y01925
X0088Y0194
X0086Y0197
X008315Y0137324
X0067Y0128
X019655Y0106
X0204
X02055Y0098448
X0194Y0098
X00485Y01285
X0054Y015825
X0048Y01855
Y0193
X00225Y0118
X0025Y0074
X004Y0237
X00535Y02675
X0038492Y0296492
X00085Y02975
X0109Y0267
X0119
X0121Y0261
X0112Y0259
X0106Y023825
Y023175
X00995Y02125
X0063Y02135
X0168468Y0215531
T02
X0034386Y0187273
Y0193571
X0039125Y0196721
Y0190421
Y0184123
T05
X0087Y0012
Y0022
Y0032
Y0042
X0104Y006
X0114
X0124
X0134
X00715Y01015
X00615
X00515
X00415
X00195Y022
Y023
Y024
Y025
T06
X016Y003
X017
X018
X019
X02
X021
X022
X023
X025
X026
X027
X028
X029
X03
Y006
X029
X028
X027
X026
X025
X023
X022
X021
X02
X019
X018
X017
X016
X0189Y0184
X0199
Y0194
X0189
Y0204
X0199
X001Y01
Y009
Y008
X0124Y025
X0134
X0144
X0154
X0164
X0174
X0184
X0194
X0204
Y028
X0194
X0184
X0174
X0164
X0154
X0144
X0134
X0124
X0214
X023
X024
X025
X026
X027
X028
X029
X03
Y025
X029
X028
X027
X026
X025
X024
X023
X0214
M30
