G04*
G04 #@! TF.GenerationSoftware,Altium Limited,Altium Designer,21.8.1 (53)*
G04*
G04 Layer_Physical_Order=1*
G04 Layer_Color=255*
%FSLAX25Y25*%
%MOIN*%
G70*
G04*
G04 #@! TF.SameCoordinates,28AFC469-8C40-47C5-92FE-A73FC46FB42A*
G04*
G04*
G04 #@! TF.FilePolarity,Positive*
G04*
G01*
G75*
%ADD11C,0.00600*%
%ADD14C,0.01500*%
%ADD18R,0.05709X0.03937*%
%ADD19R,0.03937X0.02953*%
%ADD20R,0.03937X0.05709*%
%ADD21R,0.02362X0.02756*%
%ADD22R,0.03150X0.03150*%
%ADD23R,0.02756X0.02362*%
%ADD24R,0.05511X0.04724*%
%ADD25R,0.04724X0.05511*%
%ADD26R,0.02756X0.03937*%
%ADD27O,0.02400X0.08661*%
%ADD28R,0.04724X0.05906*%
%ADD29R,0.06300X0.12200*%
%ADD30R,0.06300X0.03300*%
%ADD31R,0.03150X0.03150*%
%ADD32R,0.02000X0.05800*%
%ADD33R,0.05800X0.02000*%
%ADD34C,0.02000*%
%ADD54C,0.06000*%
%ADD55C,0.07000*%
%ADD56O,0.09449X0.04724*%
%ADD57C,0.04724*%
%ADD58C,0.06496*%
%ADD59O,0.12992X0.07087*%
%ADD60O,0.07874X0.14961*%
%ADD61C,0.02500*%
D11*
X203983Y154450D02*
G03*
X204024Y154450I17J2550D01*
G01*
X38612Y197234D02*
X38923Y196923D01*
X39125Y196721D01*
X29600Y180900D02*
Y192500D01*
Y180900D02*
X30983Y179517D01*
X29600Y192500D02*
X30672Y193571D01*
X54000Y158250D02*
Y162423D01*
X50260Y171724D02*
Y176240D01*
X57740Y171724D02*
Y182260D01*
X98084Y231750D02*
X106000D01*
X90500Y224166D02*
X98084Y231750D01*
X106000Y238250D02*
X109000Y241250D01*
Y267000D01*
X119000D02*
X278000D01*
X281000Y264000D01*
X112000Y259000D02*
X117000Y254000D01*
Y184000D02*
Y254000D01*
X289000Y264000D02*
X295000Y258000D01*
X281000Y264000D02*
X289000D01*
X295352Y231063D02*
X299000D01*
X295000Y231415D02*
Y258000D01*
Y231415D02*
X295352Y231063D01*
X285000Y231383D02*
Y257000D01*
X122524Y259483D02*
X282517D01*
X285000Y257000D01*
X115450Y261550D02*
Y271450D01*
X117000Y273000D01*
X115450Y261550D02*
X120000Y257000D01*
X90500Y215834D02*
Y224166D01*
X89035Y214369D02*
X90500Y215834D01*
X81964Y214369D02*
X89035D01*
X80500Y215834D02*
X81964Y214369D01*
X79036Y225631D02*
X80500Y224166D01*
Y215834D02*
Y224166D01*
X70500Y225631D02*
X79036D01*
X68000Y223131D02*
X70500Y225631D01*
X68000Y220000D02*
Y223131D01*
X64500Y194000D02*
X64697D01*
X121000Y261000D02*
X121007D01*
X122524Y259483D01*
X120000Y257000D02*
X143081D01*
X182117Y257883D02*
X184000Y256000D01*
X159352Y257883D02*
X182117D01*
X159000Y214788D02*
Y257532D01*
X159352Y257883D01*
X285000Y231383D02*
X285351Y231031D01*
X291000D01*
X280000Y249818D02*
Y250000D01*
X282667Y191802D02*
Y247151D01*
X280000Y249818D02*
X282667Y247151D01*
Y191802D02*
X290600Y183869D01*
X290881Y234968D02*
X291000D01*
X290000Y235850D02*
X290881Y234968D01*
X290000Y235850D02*
Y250000D01*
X117000Y273000D02*
X305648D01*
X306000Y272649D01*
Y144949D02*
Y272649D01*
X117000Y273000D02*
Y284648D01*
X116648Y285000D02*
X117000Y284648D01*
X143081Y257000D02*
X149700Y250381D01*
X154000Y213000D02*
X172600Y194400D01*
X185298Y175702D02*
X204000Y157000D01*
X179000Y181000D02*
Y190263D01*
X172600Y141400D02*
Y194400D01*
X171000Y140000D02*
Y193000D01*
X152000Y212000D02*
X171000Y193000D01*
Y140000D02*
X194000Y117000D01*
X172600Y141400D02*
X196550Y117450D01*
X155600Y213663D02*
X179000Y190263D01*
X94394Y184000D02*
X106000D01*
X84394Y194000D02*
X94394Y184000D01*
X73500Y194000D02*
X84394D01*
X86000Y197000D02*
Y200563D01*
X88000Y194000D02*
X88362D01*
X87500Y194500D02*
X88000Y194000D01*
X88362D02*
X92807Y198445D01*
X209552Y98448D02*
X239869Y68131D01*
X205500Y98448D02*
X209552D01*
X152000Y212000D02*
Y224000D01*
X124000Y250000D02*
X125033Y248967D01*
X127033D02*
X152000Y224000D01*
X125033Y248967D02*
X127033D01*
X134000Y250000D02*
X154000Y230000D01*
X154811Y245700D02*
X157200Y243311D01*
X154000Y213000D02*
Y230000D01*
X144000Y250000D02*
X155600Y238400D01*
X159000Y214788D02*
X179788Y194000D01*
X155600Y213663D02*
Y238400D01*
X157200Y214325D02*
Y243311D01*
Y214325D02*
X182325Y189200D01*
X179788Y194000D02*
X189000D01*
X182325Y189200D02*
X190988D01*
X204000Y149000D02*
Y151900D01*
Y149000D02*
X204900Y148100D01*
X190697Y163669D02*
Y166697D01*
X211393Y154450D02*
X213993Y154400D01*
X204024Y154450D02*
X211393D01*
X193554Y154450D02*
X203983D01*
X190697Y163669D02*
X191000Y162000D01*
Y154520D02*
X193554Y154450D01*
X204900Y148100D02*
X213993D01*
X196550Y106000D02*
Y117450D01*
X204000Y106000D02*
X207000D01*
X243000Y70000D01*
X194000Y98000D02*
Y117000D01*
X302081Y40000D02*
X309300Y47219D01*
X230000Y40000D02*
X302081D01*
X220700Y49300D02*
X223000Y47000D01*
X194651Y49300D02*
X220700D01*
X271000Y122900D02*
X283951D01*
X235717D02*
X271000D01*
X309300Y47219D02*
Y84600D01*
X271000Y122900D02*
X309300Y84600D01*
X194300Y49652D02*
Y62700D01*
Y49652D02*
X194651Y49300D01*
X192700Y64300D02*
X194300Y62700D01*
X184300Y64300D02*
X192700D01*
X180000Y60000D02*
X184300Y64300D01*
X231793Y126824D02*
X235717Y122900D01*
X231793Y126824D02*
Y130300D01*
X283951Y122900D02*
X306000Y144949D01*
X282626Y126100D02*
X292200Y135675D01*
X283288Y124500D02*
X299000Y140212D01*
X238154Y124500D02*
X283288D01*
X239654Y126100D02*
X282626D01*
X235593Y127061D02*
X238154Y124500D01*
X292200Y135675D02*
Y184531D01*
X299000Y140212D02*
Y231063D01*
X58000Y284648D02*
X58351Y285000D01*
X58000Y278500D02*
Y284648D01*
X58351Y285000D02*
X116648D01*
X52000Y278500D02*
X58000D01*
X194200Y199200D02*
X199000Y204000D01*
X194200Y192412D02*
Y199200D01*
X190988Y189200D02*
X194200Y192412D01*
X152219Y245700D02*
X154811D01*
X149700Y248219D02*
X152219Y245700D01*
X149700Y248219D02*
Y250381D01*
X103648Y198838D02*
X104000Y199189D01*
X99500Y198838D02*
X103648D01*
X104000Y199189D02*
Y214500D01*
X103000Y215500D02*
X104000Y214500D01*
X239869Y56131D02*
Y68131D01*
Y56131D02*
X245000Y51000D01*
X291000D01*
X300000Y60000D01*
X209100Y144900D02*
X213993D01*
X164000Y235000D02*
Y241000D01*
X163500Y234500D02*
X164000Y235000D01*
X243000Y60919D02*
Y70000D01*
Y60919D02*
X249919Y54000D01*
X284000D01*
X290000Y60000D01*
X184000Y250000D02*
Y256000D01*
X219193Y121807D02*
X270000Y71000D01*
X214042Y117983D02*
Y135476D01*
Y117983D02*
X258124Y73901D01*
X219193Y121807D02*
Y130300D01*
X270000Y60000D02*
Y71000D01*
X208600Y137337D02*
X209863Y138600D01*
X208600Y113400D02*
X250000Y72000D01*
X208600Y113400D02*
Y137337D01*
X258124Y63051D02*
Y73901D01*
X222993Y126007D02*
X280000Y69000D01*
Y60000D02*
Y69000D01*
X284499Y132850D02*
X287500Y135852D01*
X257676Y138600D02*
X261826Y134450D01*
X246393Y135500D02*
X258513D01*
X261163Y132850D01*
X261826Y134450D02*
X278149D01*
X246941Y141252D02*
X251152D01*
X246393Y141800D02*
X246941Y141252D01*
X261163Y132850D02*
X284499D01*
X278149Y134450D02*
X283600Y139901D01*
X246393Y138600D02*
X257676D01*
X283600Y139901D02*
Y183400D01*
X241193Y130300D02*
X284563D01*
X290600Y136337D01*
X287500Y135852D02*
Y183500D01*
X229293Y127061D02*
X282354Y74000D01*
X229293Y127061D02*
Y129600D01*
X282354Y74000D02*
X299648D01*
X226193Y126962D02*
X282154Y71000D01*
X226193Y126962D02*
Y129600D01*
X282154Y71000D02*
X289649D01*
X290000Y60000D02*
Y70648D01*
X289649Y71000D02*
X290000Y70648D01*
X299648Y74000D02*
X300000Y73649D01*
Y60000D02*
Y73649D01*
X290600Y136337D02*
Y183869D01*
X291000Y185731D02*
X292200Y184531D01*
X209863Y138600D02*
X213993D01*
X202222Y181000D02*
X210000D01*
X199000Y184000D02*
X199223D01*
X202222Y181000D01*
X213450Y158043D02*
Y194000D01*
Y158043D02*
X213993Y157500D01*
X219193Y164600D02*
Y229807D01*
Y162700D02*
Y164600D01*
X216000Y167793D02*
X219193Y164600D01*
X216000Y167793D02*
Y181000D01*
X209697Y234303D02*
X213747Y230254D01*
Y194000D02*
Y230254D01*
X199000Y194000D02*
X213747D01*
X181000Y204000D02*
X189000D01*
X299000Y235000D02*
X299119D01*
X300000Y235881D01*
Y250000D01*
X235593Y127061D02*
Y129600D01*
X234893Y130300D02*
X235593Y129600D01*
X291000Y185731D02*
Y231031D01*
X238793Y126962D02*
X239654Y126100D01*
X238793Y126962D02*
Y129600D01*
X238093Y130300D02*
X238793Y129600D01*
X280000Y191000D02*
X287500Y183500D01*
X260000Y243352D02*
X260351Y243000D01*
X272000D01*
X260000Y243352D02*
Y250000D01*
X272000Y243000D02*
X275000Y240000D01*
Y192000D02*
Y240000D01*
Y192000D02*
X283600Y183400D01*
X280000Y191000D02*
Y240000D01*
X270000Y250000D02*
X280000Y240000D01*
X163500Y215531D02*
X168468D01*
X163500Y219468D02*
Y228594D01*
X164000Y241000D02*
Y250000D01*
Y241000D02*
X165500Y239500D01*
X187500D01*
X192696Y234303D01*
X174352Y242000D02*
X191000D01*
X174000Y242352D02*
X174352Y242000D01*
X174000Y242352D02*
Y250000D01*
X184352Y244000D02*
X192000D01*
X184000Y244352D02*
X184352Y244000D01*
X184000Y244352D02*
Y250000D01*
X192000Y244000D02*
X197000Y239000D01*
X191000Y242000D02*
X197097Y235904D01*
X192696Y234303D02*
X209697D01*
X197097Y235904D02*
X213096D01*
X219193Y229807D01*
X197000Y239000D02*
X215000D01*
X197263Y241000D02*
X219000D01*
X194000Y244263D02*
X197263Y241000D01*
X194000Y244263D02*
Y250000D01*
X215000Y239000D02*
X222293Y231707D01*
X219000Y241000D02*
X224793Y235207D01*
X222293Y162700D02*
Y231707D01*
X204000Y243352D02*
Y250000D01*
Y243352D02*
X204351Y243000D01*
X228593Y162700D02*
Y234407D01*
X204351Y243000D02*
X220000D01*
X224793Y163400D02*
Y235207D01*
X220000Y243000D02*
X228593Y234407D01*
X224793Y163400D02*
X225493Y162700D01*
X214000Y250000D02*
X214900Y249100D01*
X217900D01*
X231793Y235207D01*
X230000Y250000D02*
X234893Y245107D01*
X231793Y162700D02*
Y235207D01*
X234893Y162700D02*
Y245107D01*
X238793Y218056D02*
X240000Y219263D01*
X238093Y162700D02*
X238793Y163400D01*
X240000Y219263D02*
Y250000D01*
X238793Y163400D02*
Y218056D01*
X241193Y218193D02*
X250000Y227000D01*
X241193Y162700D02*
Y218193D01*
X250000Y227000D02*
Y250000D01*
X82974Y137500D02*
X83150Y137324D01*
X76500Y137500D02*
X82974D01*
X250000Y60000D02*
Y72000D01*
X258124Y63051D02*
X260000Y61176D01*
Y60000D02*
Y61176D01*
X222993Y126007D02*
Y129600D01*
X222293Y130300D02*
X222993Y129600D01*
X225493Y130300D02*
X226193Y129600D01*
X228593Y130300D02*
X229293Y129600D01*
X191000Y147756D02*
Y154520D01*
X270612Y178888D02*
X271500Y178000D01*
Y171500D02*
Y178000D01*
X258783Y177283D02*
X260388Y178888D01*
X270612D01*
X262838Y171500D02*
Y176338D01*
X258783Y168599D02*
X258793Y168589D01*
X258783Y168599D02*
Y177283D01*
X258793Y168000D02*
Y168589D01*
X248293Y157500D02*
X258793Y168000D01*
X246393Y157500D02*
X248293D01*
X261160Y154400D02*
X265563Y158803D01*
Y159000D01*
X246393Y154400D02*
X261160D01*
X262838Y160662D02*
X263422Y160078D01*
X262838Y160662D02*
Y164807D01*
X264682Y160078D02*
X265563Y159197D01*
X263422Y160078D02*
X264682D01*
X265563Y159000D02*
Y159197D01*
X278500Y171500D02*
X279000Y171000D01*
X271500Y171500D02*
X278500D01*
X271000Y149000D02*
X275500D01*
X269500Y159000D02*
X273000D01*
X246543Y147950D02*
X251400D01*
X246393Y148100D02*
X246543Y147950D01*
X275307Y161000D02*
Y161393D01*
X271893Y164807D02*
X275307Y161393D01*
X271499Y164807D02*
X271893D01*
X279000Y163500D02*
Y167063D01*
X54500Y230000D02*
X85500D01*
X88000Y227500D01*
X54000Y227237D02*
X54663Y227900D01*
X48000Y223500D02*
X54500Y230000D01*
X54663Y227900D02*
X80331D01*
X83000Y225231D01*
X73500Y182405D02*
Y190063D01*
X64500Y182500D02*
Y190063D01*
Y203882D02*
X68000Y207382D01*
X64500Y194000D02*
Y203882D01*
X68000Y207382D02*
Y220000D01*
X73000Y194500D02*
Y220000D01*
Y194500D02*
X73500Y194000D01*
X65480Y277614D02*
X78000Y265094D01*
Y243400D02*
Y265094D01*
X65480Y277614D02*
Y278500D01*
X53500Y267500D02*
X63000D01*
X20595Y271098D02*
Y276905D01*
X48500Y275000D02*
X52000Y278500D01*
X25087Y275000D02*
X48500D01*
X23247Y273161D02*
X25087Y275000D01*
X20595Y270508D02*
Y271098D01*
X22657Y273161D01*
X23247D01*
X16500Y281000D02*
X20595Y276905D01*
X8500Y281000D02*
X16500D01*
X8500Y293500D02*
Y297500D01*
Y281000D02*
Y289563D01*
X38492Y296492D02*
X38500Y296500D01*
X32405Y296492D02*
X38492D01*
X50260Y176240D02*
Y183240D01*
X48000Y185500D02*
X50260Y183240D01*
X48000Y193000D02*
Y223500D01*
X54000Y192944D02*
Y227237D01*
X88000Y220000D02*
Y227500D01*
X40589Y189950D02*
X51006D01*
X39597D02*
X40589D01*
X41539Y189000D02*
X51000D01*
X40589Y189950D02*
X41539Y189000D01*
X39125Y190421D02*
X39597Y189950D01*
X51006D02*
X54000Y192944D01*
X51000Y189000D02*
X57740Y182260D01*
X83000Y220000D02*
Y225231D01*
X99500Y207500D02*
Y212500D01*
X98437Y192500D02*
X100648D01*
X101000Y192851D02*
Y197338D01*
X100648Y192500D02*
X101000Y192851D01*
X92807Y198445D02*
Y198839D01*
X99500Y198838D02*
X101000Y197338D01*
X87000Y207500D02*
X92807D01*
X86000Y206500D02*
X87000Y207500D01*
X86000Y204500D02*
Y206500D01*
X91000Y192500D02*
X94500D01*
X98000Y216382D02*
Y220000D01*
Y216382D02*
X98500Y215882D01*
Y215851D02*
X98852Y215500D01*
X103000D01*
X98500Y215851D02*
Y215882D01*
X93000Y207693D02*
Y220000D01*
X92807Y207500D02*
X93000Y207693D01*
X63000Y213500D02*
Y220000D01*
X30983Y179517D02*
X46983D01*
X50260Y176240D01*
X30672Y193571D02*
X34386D01*
X40000Y237000D02*
Y237500D01*
Y232000D02*
Y237000D01*
Y219905D02*
Y228063D01*
X33852Y214000D02*
X40000D01*
X33500Y214352D02*
Y219000D01*
Y214352D02*
X33852Y214000D01*
X32500Y220000D02*
X33500Y219000D01*
X19500Y220000D02*
X32500D01*
X40000Y214000D02*
X44500Y209500D01*
Y202500D02*
Y209500D01*
X39125Y197125D02*
X44500Y202500D01*
X39125Y196721D02*
Y197125D01*
X43100Y128400D02*
X43200Y128500D01*
X48500D01*
X39125Y183623D02*
X39187Y183561D01*
X60980Y128000D02*
X67000D01*
X22500Y99906D02*
Y109500D01*
Y113437D02*
Y118000D01*
X59500Y137500D02*
X69020D01*
X38000Y74000D02*
X47500D01*
X25000D02*
X30520D01*
X39000Y53000D02*
X45520D01*
D14*
X53000Y52114D02*
Y53000D01*
D18*
X191000Y154520D02*
D03*
Y162000D02*
D03*
X63000Y260020D02*
D03*
Y267500D02*
D03*
D19*
X191000Y147756D02*
D03*
Y142244D02*
D03*
D20*
X263520Y149000D02*
D03*
X271000D02*
D03*
X53500Y128000D02*
D03*
X60980D02*
D03*
X76500Y137500D02*
D03*
X69020D02*
D03*
X53000Y53000D02*
D03*
X45520D02*
D03*
X30520Y74000D02*
D03*
X38000D02*
D03*
X65480Y278500D02*
D03*
X58000D02*
D03*
D21*
X265563Y159000D02*
D03*
X269500D02*
D03*
X94500Y192500D02*
D03*
X98437D02*
D03*
D22*
X163500Y228594D02*
D03*
Y234500D02*
D03*
X64500Y182500D02*
D03*
Y176594D02*
D03*
X73500Y182405D02*
D03*
Y176500D02*
D03*
X40000Y219905D02*
D03*
Y214000D02*
D03*
X22500Y94000D02*
D03*
Y99906D02*
D03*
D23*
X163500Y215531D02*
D03*
Y219468D02*
D03*
X291000Y234968D02*
D03*
Y231031D02*
D03*
X299000Y235000D02*
D03*
Y231063D02*
D03*
X279000Y167063D02*
D03*
Y171000D02*
D03*
X64500Y194000D02*
D03*
Y190063D02*
D03*
X73500Y194000D02*
D03*
Y190063D02*
D03*
X86000Y200563D02*
D03*
Y204500D02*
D03*
X8500Y289563D02*
D03*
Y293500D02*
D03*
Y281000D02*
D03*
Y277063D02*
D03*
X40000Y232000D02*
D03*
Y228063D02*
D03*
X22500Y109500D02*
D03*
Y113437D02*
D03*
D24*
X271500Y171500D02*
D03*
X262838D02*
D03*
X271499Y164807D02*
D03*
X262838D02*
D03*
D25*
X99500Y198838D02*
D03*
Y207500D02*
D03*
X92807Y198839D02*
D03*
Y207500D02*
D03*
D26*
X50260Y162423D02*
D03*
X54000D02*
D03*
X57740D02*
D03*
Y171724D02*
D03*
X54000D02*
D03*
X50260D02*
D03*
D27*
X63000Y243400D02*
D03*
X68000D02*
D03*
X73000D02*
D03*
X78000D02*
D03*
X83000D02*
D03*
X88000D02*
D03*
X93000D02*
D03*
X98000D02*
D03*
Y220000D02*
D03*
X93000D02*
D03*
X88000D02*
D03*
X83000D02*
D03*
X78000D02*
D03*
X73000D02*
D03*
X68000D02*
D03*
X63000D02*
D03*
D28*
X32405Y270508D02*
D03*
X20595Y296492D02*
D03*
X32405D02*
D03*
X20595Y270508D02*
D03*
D29*
X17900Y137500D02*
D03*
D30*
X43100Y128400D02*
D03*
Y137500D02*
D03*
Y146600D02*
D03*
D31*
X53594Y137500D02*
D03*
X59500D02*
D03*
X53405Y74000D02*
D03*
X47500D02*
D03*
D32*
X241193Y130300D02*
D03*
X238093D02*
D03*
X234893D02*
D03*
X231793D02*
D03*
X228593D02*
D03*
X225493D02*
D03*
X222293D02*
D03*
X219193D02*
D03*
Y162700D02*
D03*
X222293D02*
D03*
X225493D02*
D03*
X228593D02*
D03*
X231793D02*
D03*
X234893D02*
D03*
X238093D02*
D03*
X241193D02*
D03*
D33*
X213993Y135500D02*
D03*
Y138600D02*
D03*
Y141800D02*
D03*
Y144900D02*
D03*
Y148100D02*
D03*
Y151200D02*
D03*
Y154400D02*
D03*
Y157500D02*
D03*
X246393D02*
D03*
Y154400D02*
D03*
Y151200D02*
D03*
Y148100D02*
D03*
Y144900D02*
D03*
Y141800D02*
D03*
Y138600D02*
D03*
Y135500D02*
D03*
D34*
X5500Y155500D02*
X25500Y175500D01*
Y197234D02*
X38612D01*
X25500Y175500D02*
Y197234D01*
X63328Y155000D02*
X64500Y156172D01*
X53000Y155000D02*
X63328D01*
X44600Y146600D02*
X53000Y155000D01*
X73500Y176500D02*
X77000Y173000D01*
X73453Y176547D02*
X73500Y176500D01*
X54000Y169290D02*
Y171724D01*
X51710Y167000D02*
X54000Y169290D01*
X46000Y167000D02*
X51710D01*
X87000Y42000D02*
X87957Y41043D01*
X90628D02*
X90672Y41000D01*
X223142D02*
X230000Y47858D01*
X87957Y41043D02*
X90628D01*
X90672Y41000D02*
X223142D01*
X71622Y42000D02*
X87000D01*
X63000Y243400D02*
Y260020D01*
Y236172D02*
X64172Y235000D01*
X63000Y236172D02*
Y243400D01*
X64172Y235000D02*
X111328D01*
X112500Y174172D02*
Y233828D01*
X111328Y235000D02*
X112500Y233828D01*
X111328Y173000D02*
X112500Y174172D01*
X77000Y173000D02*
X111328D01*
X176000Y171000D02*
X189000Y184000D01*
X176000Y143416D02*
Y171000D01*
X200000Y60720D02*
Y133244D01*
X191969Y141276D02*
X200000Y133244D01*
Y60000D02*
Y60720D01*
X177172Y142244D02*
X191000D01*
X176000Y143416D02*
X177172Y142244D01*
X208000Y68000D02*
X235828D01*
X238172Y44000D02*
X302828D01*
X235828Y68000D02*
X237000Y66828D01*
Y45172D02*
X238172Y44000D01*
X237000Y45172D02*
Y66828D01*
X249954Y144800D02*
X250121D01*
X249854Y144900D02*
X249954Y144800D01*
X246393Y144900D02*
X249854D01*
X255027Y144502D02*
X262529Y137000D01*
X250419Y144502D02*
X255027D01*
X262529Y137000D02*
X269000D01*
X250121Y144800D02*
X250419Y144502D01*
X269000Y119000D02*
X270000D01*
X307000Y82000D01*
Y48172D02*
Y82000D01*
X302828Y44000D02*
X307000Y48172D01*
X200000Y60000D02*
X208000Y68000D01*
X196117Y64603D02*
X200000Y60720D01*
X196117Y64603D02*
Y68883D01*
X134000Y72000D02*
X193000D01*
X92172D02*
X134000D01*
Y60000D02*
Y72000D01*
X44600Y146600D02*
X78470D01*
X43100D02*
X44600D01*
X193000Y72000D02*
X196117Y68883D01*
X91000Y73172D02*
Y134070D01*
Y73172D02*
X92172Y72000D01*
X78470Y146600D02*
X91000Y134070D01*
X188828Y50000D02*
X190000Y51172D01*
X93000Y50000D02*
X188828D01*
X190000Y51172D02*
Y60000D01*
X41500Y101500D02*
X93000Y50000D01*
X230000Y47858D02*
Y60000D01*
X238000Y150028D02*
X239172Y151200D01*
X238000Y148000D02*
Y150028D01*
X239172Y151200D02*
X246393D01*
X238000Y148000D02*
X241100Y144900D01*
X246393D01*
X258000Y149000D02*
X263520D01*
X255800Y151200D02*
X258000Y149000D01*
X246393Y151200D02*
X255800D01*
X64500Y176594D02*
X64547Y176547D01*
X73453D01*
X64500Y156172D02*
Y176594D01*
X8500Y271000D02*
X19480Y260020D01*
X63000D01*
X8500Y271000D02*
Y277063D01*
X5500Y104500D02*
Y155500D01*
X43100Y164100D02*
X46000Y167000D01*
X43100Y146600D02*
Y164100D01*
X53547Y128047D02*
Y137453D01*
X53500Y128000D02*
X53547Y128047D01*
Y137453D02*
X53594Y137500D01*
X43100D02*
X53594D01*
X17900D02*
X43100D01*
X28586Y146600D02*
X43100D01*
X25186Y150000D02*
X28586Y146600D01*
X11000Y148828D02*
X12172Y150000D01*
X11000Y129500D02*
Y148828D01*
X12172Y150000D02*
X25186D01*
X11000Y129500D02*
X17000Y123500D01*
X5500Y104500D02*
X10000Y100000D01*
X17000Y97000D02*
Y123500D01*
X10000Y90000D02*
X17000Y97000D01*
X10000Y90000D02*
X18500D01*
X22500Y94000D01*
X41500Y115114D02*
X53500Y127114D01*
Y128000D01*
X41500Y101500D02*
Y115114D01*
X56622Y28954D02*
Y30543D01*
Y48492D01*
X10860Y76305D02*
Y79140D01*
Y76305D02*
X56622Y30543D01*
X10000Y80000D02*
X10860Y79140D01*
X56622Y28954D02*
X59336Y31667D01*
X61289D01*
X56622Y27000D02*
Y28954D01*
X61289Y31667D02*
X71622Y42000D01*
X53203Y53203D02*
Y73797D01*
X53000Y53000D02*
X53203Y53203D01*
Y73797D02*
X53405Y74000D01*
X53000Y52114D02*
X56622Y48492D01*
D54*
X300000Y30000D02*
D03*
X290000D02*
D03*
X280000D02*
D03*
X270000D02*
D03*
X260000D02*
D03*
X250000D02*
D03*
X124000Y280000D02*
D03*
X134000D02*
D03*
X144000D02*
D03*
X154000D02*
D03*
X164000D02*
D03*
X174000D02*
D03*
X184000D02*
D03*
X194000D02*
D03*
X204000D02*
D03*
X214000D02*
D03*
X300000D02*
D03*
X290000D02*
D03*
X280000D02*
D03*
X270000D02*
D03*
X260000D02*
D03*
X250000D02*
D03*
X240000D02*
D03*
X230000D02*
D03*
X250000Y60000D02*
D03*
X260000D02*
D03*
X270000D02*
D03*
X280000D02*
D03*
X290000D02*
D03*
X300000D02*
D03*
X160000D02*
D03*
X170000D02*
D03*
X180000D02*
D03*
X190000D02*
D03*
X200000D02*
D03*
X210000D02*
D03*
X220000D02*
D03*
X230000D02*
D03*
X160000Y30000D02*
D03*
X170000D02*
D03*
X180000D02*
D03*
X190000D02*
D03*
X200000D02*
D03*
X210000D02*
D03*
X220000D02*
D03*
X230000D02*
D03*
X300000Y250000D02*
D03*
X290000D02*
D03*
X280000D02*
D03*
X270000D02*
D03*
X260000D02*
D03*
X250000D02*
D03*
X240000D02*
D03*
X230000D02*
D03*
X214000D02*
D03*
X204000D02*
D03*
X194000D02*
D03*
X184000D02*
D03*
X174000D02*
D03*
X164000D02*
D03*
X154000D02*
D03*
X144000D02*
D03*
X134000D02*
D03*
X124000D02*
D03*
D55*
X114000Y60000D02*
D03*
X104000D02*
D03*
X134000D02*
D03*
X124000D02*
D03*
X19500Y240000D02*
D03*
Y250000D02*
D03*
Y220000D02*
D03*
Y230000D02*
D03*
X51500Y101500D02*
D03*
X41500D02*
D03*
X71500D02*
D03*
X61500D02*
D03*
X87000Y32000D02*
D03*
Y42000D02*
D03*
Y12000D02*
D03*
Y22000D02*
D03*
X199000Y184000D02*
D03*
X189000D02*
D03*
X199000Y194000D02*
D03*
X189000D02*
D03*
X199000Y204000D02*
D03*
X189000D02*
D03*
D56*
X16875Y175855D02*
D03*
X35575D02*
D03*
Y205146D02*
D03*
X16875D02*
D03*
D57*
X39125Y196721D02*
D03*
X34386Y193571D02*
D03*
Y187273D02*
D03*
X39125Y190421D02*
D03*
Y184123D02*
D03*
D58*
X10000Y100000D02*
D03*
Y90000D02*
D03*
Y80000D02*
D03*
D59*
X46780Y8693D02*
D03*
D60*
X33000Y27000D02*
D03*
X56622D02*
D03*
D61*
X54000Y158250D02*
D03*
X106000Y231750D02*
D03*
Y238250D02*
D03*
X119000Y267000D02*
D03*
X109000D02*
D03*
X112000Y259000D02*
D03*
X121000Y261000D02*
D03*
X179000Y181000D02*
D03*
X185298Y175702D02*
D03*
X117000Y184000D02*
D03*
X106000D02*
D03*
X86000Y197000D02*
D03*
X88000Y194000D02*
D03*
X205500Y98448D02*
D03*
X204000Y151900D02*
D03*
Y157000D02*
D03*
X190697Y166697D02*
D03*
X204000Y106000D02*
D03*
X194000Y98000D02*
D03*
X196550Y106000D02*
D03*
X230000Y40000D02*
D03*
X223000Y47000D02*
D03*
X209100Y144900D02*
D03*
X251152Y141252D02*
D03*
X269000Y137000D02*
D03*
Y119000D02*
D03*
X216000Y181000D02*
D03*
X210000D02*
D03*
X181000Y204000D02*
D03*
X168468Y215531D02*
D03*
X83150Y137324D02*
D03*
X262838Y176338D02*
D03*
X275500Y149000D02*
D03*
X273000Y159000D02*
D03*
X251400Y147950D02*
D03*
X275307Y161000D02*
D03*
X279000Y163500D02*
D03*
X53500Y267500D02*
D03*
X8500Y297500D02*
D03*
X38492Y296492D02*
D03*
X48000Y185500D02*
D03*
Y193000D02*
D03*
X99500Y212500D02*
D03*
X91000Y192500D02*
D03*
X63000Y213500D02*
D03*
X40000Y237000D02*
D03*
X48500Y128500D02*
D03*
X22500Y118000D02*
D03*
X67000Y128000D02*
D03*
X25000Y74000D02*
D03*
X39000Y53000D02*
D03*
M02*
