G04*
G04 #@! TF.GenerationSoftware,Altium Limited,Altium Designer,21.8.1 (53)*
G04*
G04 Layer_Color=65535*
%FSLAX25Y25*%
%MOIN*%
G70*
G04*
G04 #@! TF.SameCoordinates,28AFC469-8C40-47C5-92FE-A73FC46FB42A*
G04*
G04*
G04 #@! TF.FilePolarity,Positive*
G04*
G01*
G75*
%ADD10C,0.00394*%
%ADD11C,0.00600*%
%ADD12C,0.01000*%
%ADD13C,0.01575*%
%ADD14C,0.01500*%
%ADD15C,0.00800*%
%ADD16C,0.00900*%
%ADD17C,0.00500*%
G36*
X142842Y156775D02*
X143135D01*
Y154727D01*
X142842D01*
Y154435D01*
X141087D01*
Y154727D01*
X140795D01*
Y156190D01*
X140503D01*
Y156483D01*
X140795D01*
Y156775D01*
X141087D01*
Y157068D01*
X142842D01*
Y156775D01*
D02*
G37*
G36*
X137870D02*
X138163D01*
Y154727D01*
X137870D01*
Y154435D01*
X132605D01*
Y149170D01*
X130558D01*
Y149462D01*
X130265D01*
Y151803D01*
X129680D01*
Y152095D01*
X128510D01*
Y151803D01*
X127925D01*
Y152095D01*
X127632D01*
Y154435D01*
X127340D01*
Y154727D01*
X127048D01*
Y154435D01*
X125293D01*
Y154727D01*
X125000D01*
Y155020D01*
X124707D01*
Y155605D01*
X125000D01*
Y156190D01*
X124707D01*
Y156483D01*
X125000D01*
Y157068D01*
X127340D01*
Y156775D01*
X127632D01*
Y154727D01*
X128217D01*
Y154435D01*
X132020D01*
Y154727D01*
X132605D01*
Y156775D01*
X132897D01*
Y157068D01*
X137870D01*
Y156775D01*
D02*
G37*
G36*
X148400Y156483D02*
X148693D01*
Y156190D01*
X148400D01*
Y152972D01*
X148693D01*
Y152680D01*
Y152387D01*
X148400D01*
Y152095D01*
X145767D01*
Y156775D01*
X146060D01*
Y157068D01*
X148400D01*
Y156483D01*
D02*
G37*
G36*
X145767Y149462D02*
X146060D01*
Y149170D01*
X148400D01*
Y148878D01*
X148693D01*
Y148293D01*
X148400D01*
Y145075D01*
X148693D01*
Y144490D01*
X148400D01*
Y144197D01*
X146060D01*
Y144490D01*
X145767D01*
Y146537D01*
X145475D01*
Y146830D01*
X144597D01*
Y146537D01*
X144012D01*
Y146830D01*
X143135D01*
Y149170D01*
X138163D01*
Y147123D01*
X137870D01*
Y146830D01*
X137577D01*
Y146537D01*
X136993D01*
Y146830D01*
X135238D01*
Y151803D01*
X135530D01*
Y152095D01*
X145767D01*
Y149462D01*
D02*
G37*
G36*
X135238Y144197D02*
X137870D01*
Y143905D01*
X138163D01*
Y142735D01*
Y142443D01*
Y138933D01*
X140503D01*
Y139225D01*
X140795D01*
Y144197D01*
X143135D01*
Y139225D01*
X143428D01*
Y138933D01*
X145183D01*
Y138640D01*
X145475D01*
Y138933D01*
X145767D01*
Y141272D01*
X146060D01*
Y141565D01*
X148108D01*
Y141272D01*
X148693D01*
Y140688D01*
X148400D01*
Y133960D01*
X148693D01*
Y133668D01*
X151032D01*
Y131035D01*
X153373D01*
Y131327D01*
X153665D01*
Y133668D01*
X151032D01*
Y136300D01*
X152787D01*
Y136592D01*
X153373D01*
Y136007D01*
X153665D01*
Y133668D01*
X166535D01*
Y133960D01*
X166827D01*
Y134545D01*
X166535D01*
Y136007D01*
X166827D01*
Y136300D01*
X167120D01*
Y136592D01*
X167705D01*
Y136300D01*
X168290D01*
Y136592D01*
X168582D01*
Y136300D01*
X169167D01*
Y133960D01*
X168875D01*
Y133668D01*
X166827D01*
Y133082D01*
X166535D01*
Y131035D01*
X161563D01*
Y130743D01*
X161270D01*
Y128695D01*
X166535D01*
Y128988D01*
X166827D01*
Y129865D01*
X166535D01*
Y130743D01*
X166827D01*
Y131035D01*
X168875D01*
Y130743D01*
X169167D01*
Y123430D01*
X168875D01*
Y123137D01*
X166827D01*
Y122260D01*
X166535D01*
Y121090D01*
X166827D01*
Y120798D01*
X167120D01*
Y120505D01*
X167998D01*
Y120798D01*
X168582D01*
Y120505D01*
X168875D01*
Y120212D01*
X169167D01*
Y115533D01*
X166827D01*
Y115825D01*
X166535D01*
Y116995D01*
X166827D01*
Y117288D01*
X166535D01*
Y118165D01*
X164195D01*
Y115533D01*
X166827D01*
Y114655D01*
X166535D01*
Y111145D01*
X166827D01*
Y110267D01*
X168875D01*
Y109975D01*
X169167D01*
Y107928D01*
X168875D01*
Y107635D01*
X166827D01*
Y108220D01*
X166535D01*
Y110267D01*
X164195D01*
Y112315D01*
X163902D01*
Y112900D01*
X161563D01*
Y113192D01*
X161270D01*
Y118165D01*
X158930D01*
Y111437D01*
X158637D01*
Y110853D01*
X158930D01*
Y110560D01*
X159222D01*
Y110267D01*
X160392D01*
Y110560D01*
X160685D01*
Y110267D01*
X161270D01*
Y107928D01*
X160977D01*
Y107635D01*
X158930D01*
Y107343D01*
X158637D01*
Y106757D01*
X158930D01*
Y105002D01*
X161270D01*
Y100030D01*
X158930D01*
Y102077D01*
X158637D01*
Y102370D01*
X158053D01*
Y102663D01*
X157760D01*
Y102370D01*
X154543D01*
Y102663D01*
X153957D01*
Y102370D01*
X153665D01*
Y100030D01*
X158930D01*
Y94765D01*
X160977D01*
Y94472D01*
X161270D01*
Y92133D01*
X159222D01*
Y92425D01*
X158930D01*
Y92717D01*
X158637D01*
Y93303D01*
X158930D01*
Y94472D01*
X158053D01*
Y94765D01*
X153957D01*
Y94472D01*
X153665D01*
Y92425D01*
X153373D01*
Y92133D01*
X151325D01*
Y92425D01*
X151032D01*
Y96520D01*
X150740D01*
Y96812D01*
X151032D01*
Y97105D01*
X153373D01*
Y97398D01*
X153665D01*
Y100030D01*
X148693D01*
Y100322D01*
X148400D01*
Y101200D01*
X148693D01*
Y101785D01*
X148400D01*
Y102370D01*
X141087D01*
Y102663D01*
X140795D01*
Y105002D01*
X132897D01*
Y105295D01*
X132605D01*
Y109975D01*
X132897D01*
Y110267D01*
X135238D01*
Y107928D01*
X135530D01*
Y107635D01*
X137870D01*
Y107928D01*
X138163D01*
Y110267D01*
X135238D01*
Y112608D01*
X134945D01*
Y112900D01*
X130558D01*
Y112608D01*
X130265D01*
Y107928D01*
X129973D01*
Y107635D01*
X127925D01*
Y107928D01*
X127632D01*
Y110267D01*
X127048D01*
Y110560D01*
X126755D01*
Y110267D01*
X125293D01*
Y110560D01*
X125000D01*
Y110853D01*
X124707D01*
Y111437D01*
X125000D01*
Y114655D01*
X124707D01*
Y115240D01*
X125000D01*
Y115533D01*
X127340D01*
Y115240D01*
X127632D01*
Y112900D01*
X127925D01*
Y112608D01*
X128510D01*
Y112900D01*
X130265D01*
Y115240D01*
X130558D01*
Y115533D01*
X132605D01*
Y115825D01*
X132897D01*
Y116410D01*
X132605D01*
Y118165D01*
X130558D01*
Y118457D01*
X130265D01*
Y120212D01*
Y120505D01*
X127632D01*
Y123137D01*
X125000D01*
Y128110D01*
X124707D01*
Y128695D01*
X120027D01*
Y128110D01*
X119735D01*
Y126355D01*
X120027D01*
Y126063D01*
X122075D01*
Y125770D01*
X122368D01*
Y123137D01*
X124707D01*
Y122845D01*
X125000D01*
Y119920D01*
Y119627D01*
Y118457D01*
X124707D01*
Y118165D01*
X120027D01*
Y118457D01*
X119735D01*
Y120505D01*
X117103D01*
Y131035D01*
X112130D01*
Y128695D01*
X114178D01*
Y128402D01*
X114470D01*
Y127817D01*
X114762D01*
Y127525D01*
X114470D01*
Y126940D01*
X114762D01*
Y126355D01*
X114470D01*
Y126063D01*
X112130D01*
Y128402D01*
X111837D01*
Y128695D01*
X106865D01*
Y127525D01*
X106572D01*
Y127233D01*
X106865D01*
Y126355D01*
X106572D01*
Y126063D01*
X104233D01*
Y128402D01*
X104525D01*
Y128695D01*
X106572D01*
Y129280D01*
X106865D01*
Y129865D01*
X106572D01*
Y130743D01*
X106865D01*
Y131035D01*
X109205D01*
Y133668D01*
X104525D01*
Y133960D01*
X104233D01*
Y136300D01*
X104817D01*
Y136592D01*
X105110D01*
Y136300D01*
X108327D01*
Y136592D01*
X108913D01*
Y136300D01*
X109205D01*
Y133668D01*
X111837D01*
Y133960D01*
X112130D01*
Y136300D01*
X112423D01*
Y136592D01*
X113007D01*
Y136300D01*
X116225D01*
Y136592D01*
X116810D01*
Y136300D01*
X117103D01*
Y133668D01*
X119735D01*
Y131327D01*
X120027D01*
Y131035D01*
X122075D01*
Y131327D01*
X122368D01*
Y133668D01*
X119735D01*
Y135423D01*
Y135715D01*
Y136007D01*
X120027D01*
Y136592D01*
X120613D01*
Y136300D01*
X122368D01*
Y133668D01*
X127340D01*
Y133960D01*
X127632D01*
Y136300D01*
X125293D01*
Y136592D01*
X125000D01*
Y136885D01*
X124707D01*
Y137470D01*
X125000D01*
Y140688D01*
X124707D01*
Y141272D01*
X125293D01*
Y141565D01*
X127340D01*
Y141272D01*
X127632D01*
Y136592D01*
X127925D01*
Y136300D01*
X129973D01*
Y136592D01*
X130265D01*
Y144197D01*
X127632D01*
Y146537D01*
X127925D01*
Y146830D01*
X129680D01*
Y146537D01*
X130265D01*
Y144197D01*
X132605D01*
Y146245D01*
X132897D01*
Y146537D01*
X133190D01*
Y146830D01*
X135238D01*
Y144197D01*
D02*
G37*
G36*
X168875Y156775D02*
X169167D01*
Y139225D01*
X168875D01*
Y138933D01*
X151032D01*
Y156775D01*
X151325D01*
Y157068D01*
X168875D01*
Y156775D01*
D02*
G37*
G36*
X122075D02*
X122368D01*
Y138933D01*
X104525D01*
Y139225D01*
X104233D01*
Y156775D01*
X104525D01*
Y157068D01*
X122075D01*
Y156775D01*
D02*
G37*
G36*
X112130Y120798D02*
X111837D01*
Y120505D01*
X109497D01*
Y120798D01*
X109205D01*
Y123430D01*
Y123723D01*
Y125770D01*
X109497D01*
Y126063D01*
X112130D01*
Y120798D01*
D02*
G37*
G36*
X117103Y115533D02*
X122368D01*
Y115240D01*
X122660D01*
Y114655D01*
X122368D01*
Y112900D01*
X117103D01*
Y115533D01*
X114762D01*
Y115825D01*
X114470D01*
Y116702D01*
X114762D01*
Y116995D01*
X114470D01*
Y118165D01*
X112130D01*
Y120505D01*
X117103D01*
Y115533D01*
D02*
G37*
G36*
X106572Y122845D02*
X106865D01*
Y121967D01*
X106572D01*
Y121382D01*
X106865D01*
Y120798D01*
X107158D01*
Y120505D01*
X109205D01*
Y118165D01*
X107158D01*
Y117873D01*
X106865D01*
Y117288D01*
X106572D01*
Y116995D01*
X106865D01*
Y113192D01*
X106572D01*
Y112900D01*
X106280D01*
Y112608D01*
X105695D01*
Y112900D01*
X105110D01*
Y112608D01*
X104817D01*
Y112900D01*
X104233D01*
Y123137D01*
X106572D01*
Y122845D01*
D02*
G37*
G36*
X166535Y106173D02*
X166827D01*
Y105587D01*
X166535D01*
Y105002D01*
X164195D01*
Y107050D01*
X163902D01*
Y107343D01*
X164195D01*
Y107635D01*
X166535D01*
Y106173D01*
D02*
G37*
G36*
X168582Y102370D02*
X168875D01*
Y102077D01*
X169167D01*
Y92425D01*
X168875D01*
Y92133D01*
X166827D01*
Y92425D01*
X166535D01*
Y93303D01*
X166827D01*
Y94180D01*
X166535D01*
Y94472D01*
X165950D01*
Y94765D01*
X161270D01*
Y99738D01*
X161563D01*
Y100030D01*
X163902D01*
Y100322D01*
X164195D01*
Y102370D01*
X164488D01*
Y102663D01*
X165073D01*
Y102370D01*
X167998D01*
Y102663D01*
X168582D01*
Y102370D01*
D02*
G37*
G36*
X130265Y102663D02*
X129680D01*
Y102370D01*
X128510D01*
Y102663D01*
X127925D01*
Y102370D01*
X127632D01*
Y101785D01*
Y101493D01*
Y100030D01*
X129973D01*
Y99738D01*
X130265D01*
Y97398D01*
X130558D01*
Y97105D01*
X132313D01*
Y97398D01*
X132605D01*
Y97690D01*
X132897D01*
Y97983D01*
X132605D01*
Y102077D01*
X132897D01*
Y102370D01*
X133483D01*
Y102663D01*
X134067D01*
Y102370D01*
X136993D01*
Y102663D01*
X137577D01*
Y102370D01*
X137870D01*
Y102077D01*
X138163D01*
Y100030D01*
X145767D01*
Y97398D01*
X145475D01*
Y97105D01*
X138163D01*
Y99738D01*
X137870D01*
Y100030D01*
X135530D01*
Y99738D01*
X135238D01*
Y97398D01*
X135530D01*
Y97105D01*
X138163D01*
Y95057D01*
X137870D01*
Y94765D01*
X137577D01*
Y94472D01*
X136993D01*
Y94765D01*
X135530D01*
Y94472D01*
X135238D01*
Y92133D01*
X125000D01*
Y92717D01*
X124707D01*
Y93010D01*
X125000D01*
Y94180D01*
Y94472D01*
Y96228D01*
X124707D01*
Y96812D01*
X125000D01*
Y97105D01*
X127340D01*
Y97398D01*
X127632D01*
Y100030D01*
X125000D01*
Y100322D01*
X124707D01*
Y100908D01*
X125000D01*
Y104125D01*
X124707D01*
Y104710D01*
X125000D01*
Y105002D01*
X130265D01*
Y102663D01*
D02*
G37*
G36*
X148108Y94472D02*
X148400D01*
Y94180D01*
X148693D01*
Y93595D01*
X148400D01*
Y93010D01*
X148693D01*
Y92717D01*
X148400D01*
Y92133D01*
X146060D01*
Y92425D01*
X145767D01*
Y94472D01*
X146060D01*
Y94765D01*
X148108D01*
Y94472D01*
D02*
G37*
G36*
X142842D02*
X143135D01*
Y92425D01*
X142842D01*
Y92133D01*
X141087D01*
Y92425D01*
X140795D01*
Y92717D01*
X140503D01*
Y93010D01*
X140795D01*
Y94472D01*
X141087D01*
Y94765D01*
X142842D01*
Y94472D01*
D02*
G37*
G36*
X122368Y92425D02*
X122075D01*
Y92133D01*
X104525D01*
Y92425D01*
X104233D01*
Y109975D01*
X104525D01*
Y110267D01*
X122368D01*
Y92425D01*
D02*
G37*
%LPC*%
G36*
X145475Y136592D02*
X144890D01*
Y136300D01*
X143135D01*
Y135715D01*
Y135423D01*
Y133668D01*
X145767D01*
Y131327D01*
X146060D01*
Y131035D01*
X148400D01*
Y133668D01*
X145767D01*
Y136300D01*
X145475D01*
Y136592D01*
D02*
G37*
G36*
X135238Y133668D02*
X130265D01*
Y131035D01*
X135238D01*
Y133668D01*
D02*
G37*
G36*
X151032Y131035D02*
X148693D01*
Y130743D01*
X148400D01*
Y128988D01*
X148693D01*
Y128695D01*
X148985D01*
Y128402D01*
X149277D01*
Y128695D01*
X150740D01*
Y128988D01*
X151032D01*
Y131035D01*
D02*
G37*
G36*
X130265D02*
X127632D01*
Y129865D01*
Y129572D01*
Y128695D01*
X127925D01*
Y128402D01*
X128510D01*
Y128695D01*
X130265D01*
Y131035D01*
D02*
G37*
G36*
X135238Y144197D02*
X132897D01*
Y143905D01*
X132605D01*
Y139225D01*
X132897D01*
Y138933D01*
X135238D01*
Y136592D01*
X135530D01*
Y136300D01*
X138163D01*
Y126063D01*
X135238D01*
Y128695D01*
X133190D01*
Y128402D01*
X132897D01*
Y128110D01*
X132605D01*
Y126063D01*
X135238D01*
Y123430D01*
X135530D01*
Y123137D01*
X138163D01*
Y120505D01*
X140503D01*
Y120798D01*
X140795D01*
Y122260D01*
X140503D01*
Y122845D01*
X140795D01*
Y123137D01*
X142842D01*
Y123430D01*
X143135D01*
Y125770D01*
X142842D01*
Y126063D01*
X140795D01*
Y126355D01*
X140503D01*
Y126940D01*
X140795D01*
Y136007D01*
X140503D01*
Y136300D01*
X138455D01*
Y136592D01*
X138163D01*
Y138933D01*
X135238D01*
Y144197D01*
D02*
G37*
G36*
X156005Y128695D02*
X153957D01*
Y128402D01*
X153665D01*
Y126063D01*
X156298D01*
Y123137D01*
X158637D01*
Y122845D01*
X158930D01*
Y121967D01*
X158637D01*
Y121382D01*
X158930D01*
Y120798D01*
X159222D01*
Y120505D01*
X163902D01*
Y121090D01*
X164195D01*
Y122260D01*
X163902D01*
Y122845D01*
X164195D01*
Y123137D01*
X166535D01*
Y124892D01*
X166827D01*
Y125478D01*
X166535D01*
Y125770D01*
X166243D01*
Y126063D01*
X156298D01*
Y128402D01*
X156005D01*
Y128695D01*
D02*
G37*
G36*
X122368Y123137D02*
X120027D01*
Y122845D01*
X119735D01*
Y120505D01*
X122075D01*
Y120798D01*
X122368D01*
Y123137D01*
D02*
G37*
G36*
X142550Y120798D02*
X142257D01*
Y120505D01*
X140795D01*
Y118165D01*
X142842D01*
Y118457D01*
X143135D01*
Y120505D01*
X142550D01*
Y120798D01*
D02*
G37*
G36*
X132605Y126063D02*
X130558D01*
Y125770D01*
X130265D01*
Y120505D01*
X132605D01*
Y118165D01*
X135238D01*
Y120505D01*
X134945D01*
Y120798D01*
X134360D01*
Y120505D01*
X132605D01*
Y126063D01*
D02*
G37*
G36*
X150740D02*
X148693D01*
Y125770D01*
X148400D01*
Y119043D01*
X148693D01*
Y118457D01*
X148400D01*
Y118165D01*
X146060D01*
Y117873D01*
X145767D01*
Y115533D01*
X151032D01*
Y117873D01*
X151325D01*
Y118165D01*
X156298D01*
Y123137D01*
X151325D01*
Y123430D01*
X151032D01*
Y125770D01*
X150740D01*
Y126063D01*
D02*
G37*
G36*
X138163Y115533D02*
X135530D01*
Y115240D01*
X135238D01*
Y112900D01*
X138163D01*
Y115533D01*
D02*
G37*
G36*
X156005Y112900D02*
X148985D01*
Y112608D01*
X148693D01*
Y112315D01*
X148400D01*
Y105295D01*
X148693D01*
Y105002D01*
X156005D01*
Y105295D01*
X156298D01*
Y112608D01*
X156005D01*
Y112900D01*
D02*
G37*
G36*
X140503Y118165D02*
X138163D01*
Y115533D01*
X140795D01*
Y113192D01*
X140503D01*
Y112900D01*
X138455D01*
Y112608D01*
X138163D01*
Y110267D01*
X140503D01*
Y109975D01*
X140795D01*
Y107050D01*
Y106757D01*
Y105002D01*
X145767D01*
Y115533D01*
X140795D01*
Y117873D01*
X140503D01*
Y118165D01*
D02*
G37*
%LPD*%
G36*
X153080Y110267D02*
X153373D01*
Y109975D01*
X153665D01*
Y107928D01*
X153373D01*
Y107635D01*
X151325D01*
Y107928D01*
X151032D01*
Y108220D01*
X150740D01*
Y108512D01*
X151032D01*
Y110267D01*
X152787D01*
Y110560D01*
X153080D01*
Y110267D01*
D02*
G37*
%LPC*%
G36*
X165950Y154727D02*
X165365D01*
Y154435D01*
X154543D01*
Y154727D01*
X153957D01*
Y154435D01*
X153665D01*
Y152387D01*
Y152095D01*
Y141565D01*
X166535D01*
Y141858D01*
X166827D01*
Y142443D01*
X166535D01*
Y153265D01*
X166827D01*
Y153850D01*
X166535D01*
Y154435D01*
X165950D01*
Y154727D01*
D02*
G37*
%LPD*%
G36*
X163902Y151803D02*
X164195D01*
Y144490D01*
X163902D01*
Y144197D01*
X156298D01*
Y148000D01*
Y148293D01*
Y151803D01*
X156590D01*
Y152095D01*
X163902D01*
Y151803D01*
D02*
G37*
%LPC*%
G36*
X119442Y154727D02*
X118858D01*
Y154435D01*
X108035D01*
Y154727D01*
X107450D01*
Y154435D01*
X106865D01*
Y153850D01*
X106572D01*
Y153265D01*
X106865D01*
Y142443D01*
X106572D01*
Y141858D01*
X106865D01*
Y141565D01*
X119735D01*
Y147415D01*
Y147707D01*
Y154435D01*
X119442D01*
Y154727D01*
D02*
G37*
%LPD*%
G36*
X116810Y151803D02*
X117103D01*
Y144197D01*
X109497D01*
Y144490D01*
X109205D01*
Y151803D01*
X109497D01*
Y152095D01*
X116810D01*
Y151803D01*
D02*
G37*
%LPC*%
G36*
X119735Y107635D02*
X106865D01*
Y107343D01*
X106572D01*
Y106757D01*
X106865D01*
Y95935D01*
X106572D01*
Y95350D01*
X106865D01*
Y94765D01*
X107450D01*
Y94472D01*
X108035D01*
Y94765D01*
X118858D01*
Y94472D01*
X119442D01*
Y94765D01*
X119735D01*
Y96520D01*
Y96812D01*
Y107635D01*
D02*
G37*
%LPD*%
G36*
X117103Y97983D02*
Y97690D01*
Y97398D01*
X116810D01*
Y97105D01*
X109497D01*
Y97398D01*
X109205D01*
Y104710D01*
X109497D01*
Y105002D01*
X117103D01*
Y97983D01*
D02*
G37*
D10*
X258865Y164350D02*
G03*
X258865Y164350I-197J0D01*
G01*
X92547Y211670D02*
G03*
X92547Y211670I-197J0D01*
G01*
D11*
X47407Y161200D02*
G03*
X47407Y161200I-707J0D01*
G01*
X16306Y270400D02*
G03*
X16306Y270400I-806J0D01*
G01*
X40813Y123000D02*
G03*
X40813Y123000I-707J0D01*
G01*
X186800Y152760D02*
Y163760D01*
X195200Y152760D02*
Y163760D01*
X194300Y141100D02*
Y149000D01*
X187700Y141000D02*
Y148900D01*
X261760Y153200D02*
X272760D01*
X261760Y144800D02*
X272760D01*
X264231Y161700D02*
X271232D01*
X264231Y156300D02*
X271232D01*
X160200Y227547D02*
Y235447D01*
X166800Y227647D02*
Y235547D01*
X166200Y213800D02*
Y220800D01*
X160800Y213800D02*
Y220800D01*
X288300Y229700D02*
Y236700D01*
X293700Y229700D02*
Y236700D01*
X296300Y229731D02*
Y236732D01*
X301700Y229731D02*
Y236732D01*
X276300Y165732D02*
Y172731D01*
X281700Y165732D02*
Y172731D01*
X61800Y188732D02*
Y195731D01*
X67200Y188732D02*
Y195731D01*
X67800Y175647D02*
Y183547D01*
X61200Y175547D02*
Y183447D01*
X70800Y188732D02*
Y195731D01*
X76200Y188732D02*
Y195731D01*
X76800Y175553D02*
Y183453D01*
X70200Y175453D02*
Y183353D01*
X83300Y199232D02*
Y206231D01*
X88700Y199232D02*
Y206231D01*
X93168Y195200D02*
X100169D01*
X93168Y189800D02*
X100169D01*
X58800Y258260D02*
Y269260D01*
X67200Y258260D02*
Y269260D01*
X23000Y301000D02*
X30000D01*
X23000Y266000D02*
X30000D01*
X28500Y276500D02*
X29800D01*
X28500Y290500D02*
X29800D01*
X22400D02*
X23800D01*
X22400Y276500D02*
X23800D01*
X25200Y281800D02*
X26800D01*
X26000Y280200D02*
Y281800D01*
X36500Y273500D02*
Y293500D01*
X16500Y273500D02*
Y293500D01*
X28500Y276500D02*
Y290500D01*
X23800Y276500D02*
Y290500D01*
X23842Y283502D02*
X25242D01*
X26842Y283452D02*
X28442D01*
X5800Y288231D02*
Y295232D01*
X11200Y288231D02*
Y295232D01*
X5800Y275731D02*
Y282732D01*
X11200Y275731D02*
Y282732D01*
X37300Y226731D02*
Y233732D01*
X42700Y226731D02*
Y233732D01*
X43300Y213053D02*
Y220953D01*
X36700Y212953D02*
Y220853D01*
X23200Y150700D02*
X37800D01*
X23200Y124300D02*
Y150700D01*
Y124300D02*
X37800D01*
Y150700D01*
X19200Y92953D02*
Y100853D01*
X25800Y93053D02*
Y100953D01*
X25200Y108168D02*
Y115168D01*
X19800Y108168D02*
Y115168D01*
X51740Y132200D02*
X62740D01*
X51740Y123800D02*
X62740D01*
X52547Y140800D02*
X60447D01*
X52647Y134200D02*
X60547D01*
X67260Y133300D02*
X78260D01*
X67260Y141700D02*
X78260D01*
X46553Y70700D02*
X54453D01*
X46453Y77300D02*
X54353D01*
X43760Y48800D02*
X54760D01*
X43760Y57200D02*
X54760D01*
X28760Y78200D02*
X39760D01*
X28760Y69800D02*
X39760D01*
X215000Y131500D02*
X217000D01*
X215000D02*
Y133500D01*
X245223Y131545D02*
Y133545D01*
X243223Y131545D02*
X245223D01*
X243394Y161601D02*
X245394D01*
Y159601D02*
Y161601D01*
X214500Y162000D02*
X216500D01*
X214500Y160000D02*
Y162000D01*
X56240Y274300D02*
X67240D01*
X56240Y282700D02*
X67240D01*
D12*
X59400Y220465D02*
G03*
X59400Y220465I-1000J0D01*
G01*
X5898Y107500D02*
G03*
X5898Y107500I-394J0D01*
G01*
X253518Y135500D02*
G03*
X253518Y135500I-1118J0D01*
G01*
X245000Y25000D02*
Y30000D01*
Y25000D02*
X255000D01*
Y35000D01*
X305000D01*
Y25000D02*
Y35000D01*
X255000Y25000D02*
X305000D01*
X245000Y35000D02*
X255000D01*
X245000Y30000D02*
Y35000D01*
X121750Y66500D02*
X126250D01*
X124000Y65473D02*
Y66500D01*
X122750Y68000D02*
X125250D01*
X123750Y69500D02*
X124477D01*
X111750Y66500D02*
X116250D01*
X114000Y65473D02*
Y66500D01*
X112750Y68000D02*
X115250D01*
X113750Y69500D02*
X114477D01*
X101750Y66500D02*
X106250D01*
X104000Y65473D02*
Y66500D01*
X102750Y68000D02*
X105250D01*
X103750Y69500D02*
X104477D01*
X129000Y285000D02*
X219000D01*
X119000Y275000D02*
X209000D01*
X119000D02*
Y285000D01*
X209000D01*
X129000Y275000D02*
Y285000D01*
Y275000D02*
X219000D01*
Y285000D01*
X295000Y275000D02*
Y285000D01*
X225000Y275000D02*
X305000D01*
Y285000D01*
X225000D02*
X305000D01*
X225000Y275000D02*
Y285000D01*
X245000Y60000D02*
Y65000D01*
X255000D01*
Y55000D02*
X305000D01*
Y65000D01*
X255000D02*
X305000D01*
X255000Y55000D02*
Y65000D01*
X245000Y55000D02*
X255000D01*
X245000D02*
Y60000D01*
X165000Y55000D02*
Y65000D01*
X155000D02*
X235000D01*
X155000Y55000D02*
Y65000D01*
Y55000D02*
X235000D01*
Y65000D01*
X165000Y25000D02*
Y35000D01*
X155000D02*
X235000D01*
X155000Y25000D02*
Y35000D01*
Y25000D02*
X235000D01*
Y35000D01*
X161800Y225247D02*
X165200D01*
X295000Y245000D02*
Y255000D01*
X225000Y245000D02*
X305000D01*
Y255000D01*
X225000D02*
X305000D01*
X225000Y245000D02*
Y255000D01*
X119000Y245000D02*
X209000D01*
X129000Y255000D02*
X219000D01*
Y245000D02*
Y255000D01*
X129000Y245000D02*
X219000D01*
X209000D02*
Y255000D01*
X119000D02*
X209000D01*
X119000Y245000D02*
Y255000D01*
X62800Y185847D02*
X66200D01*
X71800Y185753D02*
X75200D01*
X2714Y175020D02*
Y205825D01*
Y175020D02*
X10700D01*
X23400Y175100D02*
X28800D01*
X2714Y205825D02*
X10500D01*
X11625Y189373D02*
X14525D01*
X11325D02*
X11625D01*
X10525Y190173D02*
X11325Y189373D01*
X10525Y190173D02*
Y191572D01*
X10125Y191972D02*
X10525Y191572D01*
X6825Y191972D02*
X10125D01*
X6425Y191572D02*
X6825Y191972D01*
X6425Y189772D02*
Y191572D01*
X5825Y189172D02*
X6425Y189772D01*
X3325Y189172D02*
X5825D01*
X8525Y175020D02*
Y183872D01*
X9425Y184773D01*
X13125D01*
X14525Y186172D01*
Y193572D01*
X13625Y194473D02*
X14525Y193572D01*
X9225Y194473D02*
X13625D01*
X8225Y195473D02*
X9225Y194473D01*
X8225Y195473D02*
Y205673D01*
X23400Y205800D02*
X29200D01*
X39525Y178714D02*
Y180875D01*
Y199968D02*
Y202286D01*
X26000Y227750D02*
Y232250D01*
X24973Y230000D02*
X26000D01*
X27500Y228750D02*
Y231250D01*
X29000Y229523D02*
Y230250D01*
X26000Y237750D02*
Y242250D01*
X24973Y240000D02*
X26000D01*
X27500Y238750D02*
Y241250D01*
X29000Y239523D02*
Y240250D01*
X26000Y247750D02*
Y252250D01*
X24973Y250000D02*
X26000D01*
X27500Y248750D02*
Y251250D01*
X29000Y249523D02*
Y250250D01*
X38300Y223253D02*
X41700D01*
X15000Y74000D02*
Y105000D01*
X4500Y74000D02*
X15000D01*
X4500Y105000D02*
X15000D01*
X4500Y74000D02*
Y105000D01*
X20800Y103253D02*
X24200D01*
X62847Y135800D02*
Y139200D01*
X44153Y72300D02*
Y75700D01*
X71023Y92000D02*
X71750D01*
X70250Y93500D02*
X72750D01*
X71500Y95000D02*
Y96027D01*
X69250Y95000D02*
X73750D01*
X61023Y92000D02*
X61750D01*
X60250Y93500D02*
X62750D01*
X61500Y95000D02*
Y96027D01*
X59250Y95000D02*
X63750D01*
X51023Y92000D02*
X51750D01*
X50250Y93500D02*
X52750D01*
X51500Y95000D02*
Y96027D01*
X49250Y95000D02*
X53750D01*
X33091Y27000D02*
X33122D01*
X77500Y11750D02*
Y12477D01*
X79000Y10750D02*
Y13250D01*
X80500Y12000D02*
X81527D01*
X80500Y9750D02*
Y14250D01*
X77500Y21750D02*
Y22477D01*
X79000Y20750D02*
Y23250D01*
X80500Y22000D02*
X81527D01*
X80500Y19750D02*
Y24250D01*
X77500Y31750D02*
Y32477D01*
X79000Y30750D02*
Y33250D01*
X80500Y32000D02*
X81527D01*
X80500Y29750D02*
Y34250D01*
X184000Y209000D02*
X204000D01*
X184000Y179000D02*
Y209000D01*
X194000Y189000D02*
X204000D01*
X194000Y179000D02*
Y189000D01*
X204000Y181500D02*
Y209000D01*
X201500Y179000D02*
X204000Y181500D01*
X184000Y179000D02*
X201500D01*
X206002Y186000D02*
Y187999D01*
Y187000D01*
X212000D01*
Y186000D01*
Y187999D01*
X207002Y194997D02*
X206002Y193997D01*
Y191998D01*
X207002Y190998D01*
X211000D01*
X212000Y191998D01*
Y193997D01*
X211000Y194997D01*
X207002Y200995D02*
X206002Y199996D01*
Y197996D01*
X207002Y196996D01*
X208001D01*
X209001Y197996D01*
Y199996D01*
X210001Y200995D01*
X211000D01*
X212000Y199996D01*
Y197996D01*
X211000Y196996D01*
X212000Y202994D02*
X206002D01*
Y205994D01*
X207002Y206993D01*
X209001D01*
X210001Y205994D01*
Y202994D01*
X7335Y212000D02*
X10667D01*
X11333Y212666D01*
Y213999D01*
X10667Y214666D01*
X7335D01*
X8001Y218665D02*
X7335Y217998D01*
Y216665D01*
X8001Y215999D01*
X8668D01*
X9334Y216665D01*
Y217998D01*
X10001Y218665D01*
X10667D01*
X11333Y217998D01*
Y216665D01*
X10667Y215999D01*
X7335Y219997D02*
X11333D01*
Y221997D01*
X10667Y222663D01*
X10001D01*
X9334Y221997D01*
Y219997D01*
Y221997D01*
X8668Y222663D01*
X8001D01*
X7335Y221997D01*
Y219997D01*
X12000Y223996D02*
Y226662D01*
X7335Y227995D02*
Y230661D01*
Y229328D01*
X11333D01*
Y231994D02*
X7335D01*
Y233993D01*
X8001Y234659D01*
X9334D01*
X10001Y233993D01*
Y231994D01*
X119000Y80998D02*
Y76999D01*
X120999Y75000D01*
X122999Y76999D01*
Y80998D01*
X128997Y79998D02*
X127997Y80998D01*
X125998D01*
X124998Y79998D01*
Y75999D01*
X125998Y75000D01*
X127997D01*
X128997Y75999D01*
X134995Y79998D02*
X133995Y80998D01*
X131996D01*
X130996Y79998D01*
Y75999D01*
X131996Y75000D01*
X133995D01*
X134995Y75999D01*
X136994Y74000D02*
X140993D01*
X142992Y80998D02*
X146991D01*
X144992D01*
Y75000D01*
X148990D02*
Y80998D01*
X151989D01*
X152989Y79998D01*
Y77999D01*
X151989Y76999D01*
X148990D01*
X57000Y113998D02*
X57833Y114831D01*
X59499D01*
X60332Y113998D01*
Y113165D01*
X59499Y112332D01*
X58666D01*
X59499D01*
X60332Y111499D01*
Y110666D01*
X59499Y109833D01*
X57833D01*
X57000Y110666D01*
X61998Y114831D02*
Y111499D01*
X63665Y109833D01*
X65331Y111499D01*
Y114831D01*
X66997Y113998D02*
X67830Y114831D01*
X69496D01*
X70329Y113998D01*
Y113165D01*
X69496Y112332D01*
X68663D01*
X69496D01*
X70329Y111499D01*
Y110666D01*
X69496Y109833D01*
X67830D01*
X66997Y110666D01*
X71995Y109000D02*
X75327D01*
X76994Y114831D02*
X80326D01*
X78660D01*
Y109833D01*
X81992D02*
Y114831D01*
X84491D01*
X85324Y113998D01*
Y112332D01*
X84491Y111499D01*
X81992D01*
X96169Y9332D02*
Y7666D01*
Y8499D01*
X100334D01*
X101167Y7666D01*
Y6833D01*
X100334Y6000D01*
X101167Y10998D02*
X97835D01*
X96169Y12664D01*
X97835Y14331D01*
X101167D01*
X98668D01*
Y10998D01*
X97002Y19329D02*
X96169Y18496D01*
Y16830D01*
X97002Y15997D01*
X100334D01*
X101167Y16830D01*
Y18496D01*
X100334Y19329D01*
X96169Y20995D02*
X101167D01*
X99501D01*
X96169Y24327D01*
X98668Y21828D01*
X101167Y24327D01*
X102000Y25993D02*
Y29326D01*
X96169Y30992D02*
Y34324D01*
Y32658D01*
X101167D01*
Y35990D02*
X96169D01*
Y38489D01*
X97002Y39323D01*
X98668D01*
X99501Y38489D01*
Y35990D01*
X309002Y115699D02*
X308003Y114699D01*
Y112700D01*
X309002Y111700D01*
X313001D01*
X314001Y112700D01*
Y114699D01*
X313001Y115699D01*
X308003Y117698D02*
X313001D01*
X314001Y118698D01*
Y120697D01*
X313001Y121697D01*
X308003D01*
Y129694D02*
X314001D01*
Y132693D01*
X313001Y133693D01*
X312001D01*
X311002Y132693D01*
Y129694D01*
Y132693D01*
X310002Y133693D01*
X309002D01*
X308003Y132693D01*
Y129694D01*
X314001Y136692D02*
Y138691D01*
X313001Y139691D01*
X311002D01*
X310002Y138691D01*
Y136692D01*
X311002Y135692D01*
X313001D01*
X314001Y136692D01*
X310002Y141690D02*
X313001D01*
X314001Y142690D01*
Y145689D01*
X310002D01*
X314001Y147688D02*
Y149688D01*
Y148688D01*
X308003D01*
Y147688D01*
Y156685D02*
X314001D01*
Y153686D01*
X313001Y152687D01*
X311002D01*
X310002Y153686D01*
Y156685D01*
X314001Y161684D02*
Y159685D01*
X313001Y158685D01*
X311002D01*
X310002Y159685D01*
Y161684D01*
X311002Y162683D01*
X312001D01*
Y158685D01*
X310002Y164683D02*
X314001D01*
X312001D01*
X311002Y165682D01*
X310002Y166682D01*
Y167682D01*
X315000Y171681D02*
X314001Y172680D01*
X313001D01*
Y171681D01*
X314001D01*
Y172680D01*
X315000Y171681D01*
X316000Y170681D01*
X308003Y186676D02*
Y182677D01*
X314001D01*
Y186676D01*
X311002Y182677D02*
Y184676D01*
X309002Y192674D02*
X308003Y191674D01*
Y189675D01*
X309002Y188675D01*
X313001D01*
X314001Y189675D01*
Y191674D01*
X313001Y192674D01*
X308003Y198672D02*
Y194673D01*
X314001D01*
Y198672D01*
X311002Y194673D02*
Y196672D01*
X308003Y204670D02*
Y200671D01*
X314001D01*
Y204670D01*
X311002Y200671D02*
Y202671D01*
X134469Y162100D02*
X139467D01*
Y164599D01*
X138634Y165432D01*
X137801D01*
X136968D01*
X136135Y164599D01*
Y162100D01*
Y167098D02*
X139467D01*
X137801D01*
X136968Y167931D01*
X136135Y168764D01*
Y169598D01*
X134469Y175429D02*
X139467D01*
Y172930D01*
X138634Y172097D01*
X136968D01*
X136135Y172930D01*
Y175429D01*
X135302Y177095D02*
X134469Y177928D01*
Y179594D01*
X135302Y180427D01*
X136135D01*
X136968Y179594D01*
Y178761D01*
Y179594D01*
X137801Y180427D01*
X138634D01*
X139467Y179594D01*
Y177928D01*
X138634Y177095D01*
X140300Y182094D02*
Y185426D01*
X135302Y187092D02*
X134469Y187925D01*
Y189591D01*
X135302Y190424D01*
X138634D01*
X139467Y189591D01*
Y187925D01*
X138634Y187092D01*
X135302D01*
Y192090D02*
X134469Y192923D01*
Y194589D01*
X135302Y195422D01*
X136135D01*
X136968Y194589D01*
Y193756D01*
Y194589D01*
X137801Y195422D01*
X138634D01*
X139467Y194589D01*
Y192923D01*
X138634Y192090D01*
X136968Y197089D02*
Y200421D01*
X135302Y202087D02*
X134469Y202920D01*
Y204586D01*
X135302Y205419D01*
X138634D01*
X139467Y204586D01*
Y202920D01*
X138634Y202087D01*
X135302D01*
X139467Y210418D02*
Y207085D01*
X136135Y210418D01*
X135302D01*
X134469Y209585D01*
Y207919D01*
X135302Y207085D01*
X136968Y212084D02*
Y215416D01*
X139467Y220414D02*
Y217082D01*
X136135Y220414D01*
X135302D01*
X134469Y219581D01*
Y217915D01*
X135302Y217082D01*
Y222081D02*
X134469Y222914D01*
Y224580D01*
X135302Y225413D01*
X138634D01*
X139467Y224580D01*
Y222914D01*
X138634Y222081D01*
X135302D01*
X139467Y230411D02*
Y227079D01*
X136135Y230411D01*
X135302D01*
X134469Y229578D01*
Y227912D01*
X135302Y227079D01*
X139467Y235410D02*
Y232077D01*
X136135Y235410D01*
X135302D01*
X134469Y234577D01*
Y232910D01*
X135302Y232077D01*
X115200Y11498D02*
X119199D01*
X117199D01*
Y5500D01*
X121198D02*
Y9499D01*
X123197Y11498D01*
X125197Y9499D01*
Y5500D01*
Y8499D01*
X121198D01*
X127196Y11498D02*
Y5500D01*
Y8499D01*
X131195D01*
Y11498D01*
Y5500D01*
X137193Y11498D02*
X133194D01*
Y5500D01*
X137193D01*
X133194Y8499D02*
X135194D01*
X139192Y5500D02*
Y11498D01*
X142191D01*
X143191Y10498D01*
Y8499D01*
X142191Y7499D01*
X139192D01*
X141192D02*
X143191Y5500D01*
X151188Y11498D02*
Y6500D01*
X152188Y5500D01*
X154187D01*
X155187Y6500D01*
Y11498D01*
X161185D02*
X159186D01*
X160185D01*
Y6500D01*
X159186Y5500D01*
X158186D01*
X157186Y6500D01*
X167183Y11498D02*
X165184D01*
X166183D01*
Y6500D01*
X165184Y5500D01*
X164184D01*
X163184Y6500D01*
X169183Y5500D02*
Y9499D01*
X171182Y11498D01*
X173181Y9499D01*
Y5500D01*
Y8499D01*
X169183D01*
X175181Y11498D02*
X177180D01*
X176180D01*
Y5500D01*
X175181D01*
X177180D01*
X180179D02*
Y11498D01*
X184178Y5500D01*
Y11498D01*
X186177D02*
Y5500D01*
X188176Y7499D01*
X190176Y5500D01*
Y11498D01*
X192175Y5500D02*
Y9499D01*
X194175Y11498D01*
X196174Y9499D01*
Y5500D01*
Y8499D01*
X192175D01*
X198173Y11498D02*
Y5500D01*
X202172D01*
X204171D02*
Y9499D01*
X206171Y11498D01*
X208170Y9499D01*
Y5500D01*
Y8499D01*
X204171D01*
X53499Y302998D02*
X52499Y303998D01*
X50500D01*
X49500Y302998D01*
Y299000D01*
X50500Y298000D01*
X52499D01*
X53499Y299000D01*
Y300999D01*
X51499D01*
X58497Y303998D02*
X56498D01*
X55498Y302998D01*
Y299000D01*
X56498Y298000D01*
X58497D01*
X59497Y299000D01*
Y302998D01*
X58497Y303998D01*
X61496D02*
Y298000D01*
X65495D01*
X67494Y303998D02*
Y298000D01*
X70493D01*
X71493Y299000D01*
Y302998D01*
X70493Y303998D01*
X67494D01*
X77491D02*
X73492D01*
Y298000D01*
X77491D01*
X73492Y300999D02*
X75492D01*
X79490Y298000D02*
Y303998D01*
X83489Y298000D01*
Y303998D01*
X91486Y298000D02*
Y301999D01*
X93486Y303998D01*
X95485Y301999D01*
Y298000D01*
Y300999D01*
X91486D01*
X97484Y298000D02*
Y303998D01*
X100484D01*
X101483Y302998D01*
Y300999D01*
X100484Y299999D01*
X97484D01*
X99484D02*
X101483Y298000D01*
X103482Y303998D02*
Y298000D01*
X106482D01*
X107481Y299000D01*
Y302998D01*
X106482Y303998D01*
X103482D01*
X109481D02*
Y299000D01*
X110480Y298000D01*
X112480D01*
X113479Y299000D01*
Y303998D01*
X115479D02*
X117478D01*
X116478D01*
Y298000D01*
X115479D01*
X117478D01*
X120477D02*
Y303998D01*
X124476Y298000D01*
Y303998D01*
X129474D02*
X127475D01*
X126475Y302998D01*
Y299000D01*
X127475Y298000D01*
X129474D01*
X130474Y299000D01*
Y302998D01*
X129474Y303998D01*
X138471D02*
Y299000D01*
X139471Y298000D01*
X141470D01*
X142470Y299000D01*
Y303998D01*
X144469Y298000D02*
Y303998D01*
X148468Y298000D01*
Y303998D01*
X153466D02*
X151467D01*
X150467Y302998D01*
Y299000D01*
X151467Y298000D01*
X153466D01*
X154466Y299000D01*
Y302998D01*
X153466Y303998D01*
X126402Y166399D02*
Y162400D01*
X132400D01*
Y166399D01*
X129401Y162400D02*
Y164399D01*
X127402Y172397D02*
X126402Y171397D01*
Y169398D01*
X127402Y168398D01*
X131400D01*
X132400Y169398D01*
Y171397D01*
X131400Y172397D01*
X126402Y178395D02*
Y174396D01*
X132400D01*
Y178395D01*
X129401Y174396D02*
Y176395D01*
X132400Y180394D02*
X126402D01*
X132400Y184393D01*
X126402D01*
Y196389D02*
Y192390D01*
X129401D01*
X128401Y194390D01*
Y195389D01*
X129401Y196389D01*
X131400D01*
X132400Y195389D01*
Y193390D01*
X131400Y192390D01*
X126402Y198388D02*
Y202387D01*
X127402D01*
X131400Y198388D01*
X132400D01*
X127402Y204386D02*
X126402Y205386D01*
Y207385D01*
X127402Y208385D01*
X128401D01*
X129401Y207385D01*
Y206386D01*
Y207385D01*
X130401Y208385D01*
X131400D01*
X132400Y207385D01*
Y205386D01*
X131400Y204386D01*
X127402Y210384D02*
X126402Y211384D01*
Y213384D01*
X127402Y214383D01*
X131400D01*
X132400Y213384D01*
Y211384D01*
X131400Y210384D01*
X127402D01*
X266001Y173668D02*
X266667D01*
X268000Y175001D01*
X266667Y176333D01*
X266001D01*
X268000Y175001D02*
X269999D01*
Y180332D02*
Y177666D01*
X267334Y180332D01*
X266667D01*
X266001Y179666D01*
Y178333D01*
X266667Y177666D01*
X103001Y201334D02*
X103667D01*
X105000Y202667D01*
X103667Y204000D01*
X103001D01*
X105000Y202667D02*
X106999D01*
Y205333D02*
Y206666D01*
Y205999D01*
X103001D01*
X103667Y205333D01*
X212000Y174698D02*
Y169700D01*
X213000Y168700D01*
X214999D01*
X215999Y169700D01*
Y174698D01*
X221997Y168700D02*
X217998D01*
X221997Y172699D01*
Y173698D01*
X220997Y174698D01*
X218998D01*
X217998Y173698D01*
X53501Y237034D02*
X56833D01*
X57499Y237701D01*
Y239034D01*
X56833Y239700D01*
X53501D01*
X57499Y241033D02*
Y242366D01*
Y241699D01*
X53501D01*
X54167Y241033D01*
X98003Y80999D02*
X102001D01*
X100002D01*
Y75001D01*
X104001D02*
Y80999D01*
X107000D01*
X107999Y79999D01*
Y78000D01*
X107000Y77000D01*
X104001D01*
X112998Y75001D02*
Y80999D01*
X109999Y78000D01*
X113997D01*
X35800Y114799D02*
X38466D01*
X37133D01*
Y110800D01*
X39799D02*
Y114799D01*
X41798D01*
X42465Y114132D01*
Y112799D01*
X41798Y112133D01*
X39799D01*
X43797Y114132D02*
X44464Y114799D01*
X45797D01*
X46463Y114132D01*
Y113466D01*
X45797Y112799D01*
X45130D01*
X45797D01*
X46463Y112133D01*
Y111467D01*
X45797Y110800D01*
X44464D01*
X43797Y111467D01*
X7001Y243668D02*
Y246334D01*
Y245001D01*
X10999D01*
Y247667D02*
X7001D01*
Y249667D01*
X7667Y250333D01*
X9000D01*
X9666Y249667D01*
Y247667D01*
X10999Y254332D02*
Y251666D01*
X8333Y254332D01*
X7667D01*
X7001Y253665D01*
Y252332D01*
X7667Y251666D01*
X78000Y57798D02*
X81999D01*
X79999D01*
Y51800D01*
X83998D02*
Y57798D01*
X86997D01*
X87997Y56798D01*
Y54799D01*
X86997Y53799D01*
X83998D01*
X89996Y51800D02*
X91996D01*
X90996D01*
Y57798D01*
X89996Y56798D01*
X39667Y279334D02*
X39001Y278668D01*
Y277335D01*
X39667Y276668D01*
X40334D01*
X41000Y277335D01*
Y278668D01*
X41666Y279334D01*
X42333D01*
X42999Y278668D01*
Y277335D01*
X42333Y276668D01*
X39001Y280667D02*
X42999D01*
X41666Y282000D01*
X42999Y283333D01*
X39001D01*
X42999Y287332D02*
Y284666D01*
X40334Y287332D01*
X39667D01*
X39001Y286665D01*
Y285332D01*
X39667Y284666D01*
X6167Y66001D02*
X5501Y65334D01*
Y64001D01*
X6167Y63335D01*
X6833D01*
X7500Y64001D01*
Y65334D01*
X8167Y66001D01*
X8833D01*
X9499Y65334D01*
Y64001D01*
X8833Y63335D01*
X5501Y67334D02*
X9499D01*
X8167Y68666D01*
X9499Y69999D01*
X5501D01*
X9499Y71332D02*
Y72665D01*
Y71999D01*
X5501D01*
X6167Y71332D01*
X82499Y186502D02*
X78501D01*
Y188501D01*
X79167Y189167D01*
X80500D01*
X81166Y188501D01*
Y186502D01*
Y187835D02*
X82499Y189167D01*
Y190500D02*
Y191833D01*
Y191167D01*
X78501D01*
X79167Y190500D01*
Y193833D02*
X78501Y194499D01*
Y195832D01*
X79167Y196498D01*
X81833D01*
X82499Y195832D01*
Y194499D01*
X81833Y193833D01*
X79167D01*
X61499Y196168D02*
X57501D01*
Y198167D01*
X58167Y198834D01*
X59500D01*
X60166Y198167D01*
Y196168D01*
Y197501D02*
X61499Y198834D01*
X60833Y200167D02*
X61499Y200833D01*
Y202166D01*
X60833Y202832D01*
X58167D01*
X57501Y202166D01*
Y200833D01*
X58167Y200167D01*
X58834D01*
X59500Y200833D01*
Y202832D01*
X292999Y219668D02*
X289001D01*
Y221667D01*
X289667Y222334D01*
X291000D01*
X291666Y221667D01*
Y219668D01*
Y221001D02*
X292999Y222334D01*
X289667Y223667D02*
X289001Y224333D01*
Y225666D01*
X289667Y226332D01*
X290334D01*
X291000Y225666D01*
X291666Y226332D01*
X292333D01*
X292999Y225666D01*
Y224333D01*
X292333Y223667D01*
X291666D01*
X291000Y224333D01*
X290334Y223667D01*
X289667D01*
X291000Y224333D02*
Y225666D01*
X301499Y221168D02*
X297501D01*
Y223167D01*
X298167Y223834D01*
X299500D01*
X300166Y223167D01*
Y221168D01*
Y222501D02*
X301499Y223834D01*
X297501Y225167D02*
Y227832D01*
X298167D01*
X300833Y225167D01*
X301499D01*
X173999Y206668D02*
X170001D01*
Y208667D01*
X170667Y209334D01*
X172000D01*
X172667Y208667D01*
Y206668D01*
Y208001D02*
X173999Y209334D01*
X170001Y213332D02*
X170667Y211999D01*
X172000Y210666D01*
X173333D01*
X173999Y211333D01*
Y212666D01*
X173333Y213332D01*
X172667D01*
X172000Y212666D01*
Y210666D01*
X9999Y265668D02*
X6001D01*
Y267667D01*
X6667Y268334D01*
X8000D01*
X8666Y267667D01*
Y265668D01*
Y267001D02*
X9999Y268334D01*
X6001Y272332D02*
Y269667D01*
X8000D01*
X7333Y270999D01*
Y271666D01*
X8000Y272332D01*
X9333D01*
X9999Y271666D01*
Y270333D01*
X9333Y269667D01*
X17499Y109168D02*
X13501D01*
Y111167D01*
X14167Y111834D01*
X15500D01*
X16166Y111167D01*
Y109168D01*
Y110501D02*
X17499Y111834D01*
Y115166D02*
X13501D01*
X15500Y113166D01*
Y115832D01*
X48999Y226731D02*
X45001D01*
Y228730D01*
X45667Y229397D01*
X47000D01*
X47666Y228730D01*
Y226731D01*
Y228064D02*
X48999Y229397D01*
X45667Y230729D02*
X45001Y231396D01*
Y232729D01*
X45667Y233395D01*
X46334D01*
X47000Y232729D01*
Y232062D01*
Y232729D01*
X47666Y233395D01*
X48333D01*
X48999Y232729D01*
Y231396D01*
X48333Y230729D01*
X68000Y145000D02*
Y148999D01*
X69999D01*
X70666Y148332D01*
Y146999D01*
X69999Y146333D01*
X68000D01*
X69333D02*
X70666Y145000D01*
X74664D02*
X71999D01*
X74664Y147666D01*
Y148332D01*
X73998Y148999D01*
X72665D01*
X71999Y148332D01*
X29500Y81500D02*
Y85499D01*
X31499D01*
X32166Y84832D01*
Y83499D01*
X31499Y82833D01*
X29500D01*
X30833D02*
X32166Y81500D01*
X33499D02*
X34832D01*
X34165D01*
Y85499D01*
X33499Y84832D01*
X15400Y154000D02*
Y159998D01*
X18399D01*
X19399Y158998D01*
Y156999D01*
X18399Y155999D01*
X15400D01*
X25397Y158998D02*
X24397Y159998D01*
X22398D01*
X21398Y158998D01*
Y157999D01*
X22398Y156999D01*
X24397D01*
X25397Y155999D01*
Y155000D01*
X24397Y154000D01*
X22398D01*
X21398Y155000D01*
X27396Y154000D02*
X29395D01*
X28396D01*
Y159998D01*
X27396Y158998D01*
X3500Y48000D02*
Y51999D01*
X5499D01*
X6166Y51332D01*
Y49999D01*
X5499Y49333D01*
X3500D01*
X7499Y48000D02*
X8832D01*
X8165D01*
Y51999D01*
X7499Y51332D01*
X79501Y169169D02*
X83499D01*
Y171835D01*
X79501Y175833D02*
Y173168D01*
X83499D01*
Y175833D01*
X81500Y173168D02*
Y174501D01*
X79501Y177166D02*
X83499D01*
Y179166D01*
X82833Y179832D01*
X80167D01*
X79501Y179166D01*
Y177166D01*
Y181165D02*
Y183831D01*
X80167D01*
X82833Y181165D01*
X83499D01*
X65501Y158169D02*
X69499D01*
Y160835D01*
X65501Y164833D02*
Y162168D01*
X69499D01*
Y164833D01*
X67500Y162168D02*
Y163501D01*
X65501Y166166D02*
X69499D01*
Y168166D01*
X68833Y168832D01*
X66167D01*
X65501Y168166D01*
Y166166D01*
Y172831D02*
X66167Y171498D01*
X67500Y170165D01*
X68833D01*
X69499Y170832D01*
Y172164D01*
X68833Y172831D01*
X68166D01*
X67500Y172164D01*
Y170165D01*
X172001Y218169D02*
X175999D01*
Y220835D01*
X172001Y224834D02*
Y222168D01*
X175999D01*
Y224834D01*
X174000Y222168D02*
Y223501D01*
X172001Y226167D02*
X175999D01*
Y228166D01*
X175333Y228832D01*
X172667D01*
X172001Y228166D01*
Y226167D01*
Y232831D02*
Y230165D01*
X174000D01*
X173334Y231498D01*
Y232165D01*
X174000Y232831D01*
X175333D01*
X175999Y232165D01*
Y230832D01*
X175333Y230165D01*
X28001Y92669D02*
X31999D01*
Y95335D01*
X28001Y99334D02*
Y96668D01*
X31999D01*
Y99334D01*
X30000Y96668D02*
Y98001D01*
X28001Y100666D02*
X31999D01*
Y102666D01*
X31333Y103332D01*
X28667D01*
X28001Y102666D01*
Y100666D01*
X31999Y106665D02*
X28001D01*
X30000Y104665D01*
Y107331D01*
X45501Y207169D02*
X49499D01*
Y209835D01*
X45501Y213834D02*
Y211168D01*
X49499D01*
Y213834D01*
X47500Y211168D02*
Y212501D01*
X45501Y215166D02*
X49499D01*
Y217166D01*
X48833Y217832D01*
X46167D01*
X45501Y217166D01*
Y215166D01*
X46167Y219165D02*
X45501Y219832D01*
Y221164D01*
X46167Y221831D01*
X46834D01*
X47500Y221164D01*
Y220498D01*
Y221164D01*
X48166Y221831D01*
X48833D01*
X49499Y221164D01*
Y219832D01*
X48833Y219165D01*
X49169Y148999D02*
Y145001D01*
X51835D01*
X55834Y148999D02*
X53168D01*
Y145001D01*
X55834D01*
X53168Y147000D02*
X54501D01*
X57166Y148999D02*
Y145001D01*
X59166D01*
X59832Y145667D01*
Y148333D01*
X59166Y148999D01*
X57166D01*
X63831Y145001D02*
X61165D01*
X63831Y147667D01*
Y148333D01*
X63165Y148999D01*
X61832D01*
X61165Y148333D01*
X44700Y84599D02*
Y80600D01*
X47366D01*
X51364Y84599D02*
X48699D01*
Y80600D01*
X51364D01*
X48699Y82599D02*
X50032D01*
X52697Y84599D02*
Y80600D01*
X54697D01*
X55363Y81266D01*
Y83932D01*
X54697Y84599D01*
X52697D01*
X56696Y80600D02*
X58029D01*
X57363D01*
Y84599D01*
X56696Y83932D01*
X147001Y57001D02*
Y55002D01*
Y56001D01*
X151999D01*
X152999Y55002D01*
Y54002D01*
X151999Y53002D01*
X152999Y59000D02*
Y61000D01*
Y60000D01*
X147001D01*
X148001Y59000D01*
Y63999D02*
X147001Y64999D01*
Y66998D01*
X148001Y67998D01*
X151999D01*
X152999Y66998D01*
Y64999D01*
X151999Y63999D01*
X148001D01*
X308001Y278000D02*
Y276001D01*
Y277001D01*
X312999D01*
X313999Y276001D01*
Y275001D01*
X312999Y274002D01*
Y280000D02*
X313999Y280999D01*
Y282999D01*
X312999Y283998D01*
X309001D01*
X308001Y282999D01*
Y280999D01*
X309001Y280000D01*
X310000D01*
X311000Y280999D01*
Y283998D01*
X109501Y279500D02*
Y277501D01*
Y278501D01*
X114499D01*
X115499Y277501D01*
Y276501D01*
X114499Y275502D01*
X110501Y281500D02*
X109501Y282499D01*
Y284499D01*
X110501Y285498D01*
X111500D01*
X112500Y284499D01*
X113500Y285498D01*
X114499D01*
X115499Y284499D01*
Y282499D01*
X114499Y281500D01*
X113500D01*
X112500Y282499D01*
X111500Y281500D01*
X110501D01*
X112500Y282499D02*
Y284499D01*
X308501Y29000D02*
Y27001D01*
Y28001D01*
X313499D01*
X314499Y27001D01*
Y26001D01*
X313499Y25002D01*
X308501Y31000D02*
Y34998D01*
X309501D01*
X313499Y31000D01*
X314499D01*
X188499Y218498D02*
X186499D01*
X187499D01*
Y213500D01*
X186499Y212500D01*
X185500D01*
X184500Y213500D01*
X194497Y218498D02*
X192497Y217498D01*
X190498Y215499D01*
Y213500D01*
X191498Y212500D01*
X193497D01*
X194497Y213500D01*
Y214499D01*
X193497Y215499D01*
X190498D01*
X111001Y248334D02*
Y247001D01*
Y247667D01*
X114333D01*
X114999Y247001D01*
Y246334D01*
X114333Y245668D01*
X111001Y252332D02*
Y249667D01*
X113000D01*
X112334Y250999D01*
Y251666D01*
X113000Y252332D01*
X114333D01*
X114999Y251666D01*
Y250333D01*
X114333Y249667D01*
X307501Y58500D02*
Y56501D01*
Y57501D01*
X312499D01*
X313499Y56501D01*
Y55501D01*
X312499Y54502D01*
X313499Y63499D02*
X307501D01*
X310500Y60500D01*
Y64498D01*
X308501Y248500D02*
Y246501D01*
Y247501D01*
X313499D01*
X314499Y246501D01*
Y245501D01*
X313499Y244502D01*
X309501Y250500D02*
X308501Y251499D01*
Y253499D01*
X309501Y254498D01*
X310500D01*
X311500Y253499D01*
Y252499D01*
Y253499D01*
X312500Y254498D01*
X313499D01*
X314499Y253499D01*
Y251499D01*
X313499Y250500D01*
X146001Y30000D02*
Y28001D01*
Y29001D01*
X150999D01*
X151999Y28001D01*
Y27001D01*
X150999Y26002D01*
X151999Y35998D02*
Y32000D01*
X148000Y35998D01*
X147001D01*
X146001Y34999D01*
Y32999D01*
X147001Y32000D01*
X4001Y168000D02*
Y166001D01*
Y167000D01*
X8999D01*
X9999Y166001D01*
Y165001D01*
X8999Y164001D01*
X9999Y169999D02*
Y171999D01*
Y170999D01*
X4001D01*
X5001Y169999D01*
X179001Y144001D02*
Y141335D01*
X181000D01*
Y142668D01*
Y141335D01*
X182999D01*
X179001Y145334D02*
X182999D01*
Y147333D01*
X182333Y147999D01*
X181666D01*
X181000Y147333D01*
Y145334D01*
Y147333D01*
X180333Y147999D01*
X179667D01*
X179001Y147333D01*
Y145334D01*
X182999Y149332D02*
Y150665D01*
Y149999D01*
X179001D01*
X179667Y149332D01*
X35001Y161001D02*
X40999D01*
Y164000D01*
X39999Y165000D01*
X36001D01*
X35001Y164000D01*
Y161001D01*
X40999Y166999D02*
Y168999D01*
Y167999D01*
X35001D01*
X36001Y166999D01*
X266834Y142833D02*
X266167Y143499D01*
X264834D01*
X264168Y142833D01*
Y140167D01*
X264834Y139501D01*
X266167D01*
X266834Y140167D01*
X268167Y139501D02*
X269500D01*
X268833D01*
Y143499D01*
X268167Y142833D01*
X271499Y139501D02*
X272832D01*
X272165D01*
Y143499D01*
X271499Y142833D01*
X180667Y159667D02*
X180001Y159001D01*
Y157668D01*
X180667Y157002D01*
X183333D01*
X183999Y157668D01*
Y159001D01*
X183333Y159667D01*
X183999Y161000D02*
Y162333D01*
Y161667D01*
X180001D01*
X180667Y161000D01*
Y164333D02*
X180001Y164999D01*
Y166332D01*
X180667Y166998D01*
X183333D01*
X183999Y166332D01*
Y164999D01*
X183333Y164333D01*
X180667D01*
X10165Y300833D02*
X9499Y300166D01*
Y298833D01*
X10165Y298167D01*
X12831D01*
X13498Y298833D01*
Y300166D01*
X12831Y300833D01*
Y302166D02*
X13498Y302832D01*
Y304165D01*
X12831Y304831D01*
X10165D01*
X9499Y304165D01*
Y302832D01*
X10165Y302166D01*
X10832D01*
X11498Y302832D01*
Y304831D01*
X59566Y289332D02*
X58899Y289999D01*
X57566D01*
X56900Y289332D01*
Y286666D01*
X57566Y286000D01*
X58899D01*
X59566Y286666D01*
X60899Y289332D02*
X61565Y289999D01*
X62898D01*
X63564Y289332D01*
Y288666D01*
X62898Y287999D01*
X63564Y287333D01*
Y286666D01*
X62898Y286000D01*
X61565D01*
X60899Y286666D01*
Y287333D01*
X61565Y287999D01*
X60899Y288666D01*
Y289332D01*
X61565Y287999D02*
X62898D01*
X277167Y176833D02*
X276501Y176167D01*
Y174834D01*
X277167Y174168D01*
X279833D01*
X280499Y174834D01*
Y176167D01*
X279833Y176833D01*
X276501Y178166D02*
Y180832D01*
X277167D01*
X279833Y178166D01*
X280499D01*
X260167Y157834D02*
X259501Y157167D01*
Y155834D01*
X260167Y155168D01*
X262833D01*
X263499Y155834D01*
Y157167D01*
X262833Y157834D01*
X259501Y161832D02*
X260167Y160499D01*
X261500Y159167D01*
X262833D01*
X263499Y159833D01*
Y161166D01*
X262833Y161832D01*
X262166D01*
X261500Y161166D01*
Y159167D01*
X95834Y187833D02*
X95167Y188499D01*
X93834D01*
X93168Y187833D01*
Y185167D01*
X93834Y184501D01*
X95167D01*
X95834Y185167D01*
X99832Y188499D02*
X97167D01*
Y186500D01*
X98499Y187167D01*
X99166D01*
X99832Y186500D01*
Y185167D01*
X99166Y184501D01*
X97833D01*
X97167Y185167D01*
X82667Y210334D02*
X82001Y209667D01*
Y208334D01*
X82667Y207668D01*
X85333D01*
X85999Y208334D01*
Y209667D01*
X85333Y210334D01*
X85999Y213666D02*
X82001D01*
X84000Y211666D01*
Y214332D01*
X53167Y257834D02*
X52501Y257167D01*
Y255834D01*
X53167Y255168D01*
X55833D01*
X56499Y255834D01*
Y257167D01*
X55833Y257834D01*
X53167Y259167D02*
X52501Y259833D01*
Y261166D01*
X53167Y261832D01*
X53834D01*
X54500Y261166D01*
Y260499D01*
Y261166D01*
X55166Y261832D01*
X55833D01*
X56499Y261166D01*
Y259833D01*
X55833Y259167D01*
X60500Y121499D02*
X59501Y122499D01*
X57501D01*
X56502Y121499D01*
Y117501D01*
X57501Y116501D01*
X59501D01*
X60500Y117501D01*
X66498Y116501D02*
X62500D01*
X66498Y120500D01*
Y121499D01*
X65499Y122499D01*
X63499D01*
X62500Y121499D01*
X48499Y65498D02*
X47499Y66498D01*
X45500D01*
X44500Y65498D01*
Y61500D01*
X45500Y60500D01*
X47499D01*
X48499Y61500D01*
X50498Y60500D02*
X52497D01*
X51498D01*
Y66498D01*
X50498Y65498D01*
D13*
X67610Y26900D02*
G03*
X67610Y26900I-787J0D01*
G01*
D14*
X129500Y65500D02*
X140000D01*
Y54500D02*
Y65500D01*
X98000D02*
X99500D01*
X98000Y54500D02*
Y65500D01*
Y54500D02*
X140000D01*
X25000Y214000D02*
Y224500D01*
X14000Y214000D02*
X25000D01*
Y254500D02*
Y256000D01*
X14000D02*
X25000D01*
X14000Y214000D02*
Y256000D01*
X35500Y107000D02*
X77500D01*
Y96000D02*
Y107000D01*
X76000Y96000D02*
X77500D01*
X35500D02*
Y107000D01*
Y96000D02*
X46000D01*
X92500Y6000D02*
Y48000D01*
X81500Y6000D02*
X92500D01*
X81500D02*
Y7500D01*
Y48000D02*
X92500D01*
X81500Y37500D02*
Y48000D01*
D15*
X60100Y164100D02*
Y170006D01*
X47800Y163995D02*
Y169900D01*
D16*
X60444Y226365D02*
Y237265D01*
X100562D01*
Y226365D02*
Y237265D01*
X60444Y226365D02*
X100562D01*
D17*
X54722Y9284D02*
X59469D01*
Y18300D01*
X2776Y9284D02*
Y44717D01*
X59469D01*
Y36500D02*
Y44717D01*
X2776Y9284D02*
X38012D01*
X158501Y17499D02*
X158001Y16999D01*
Y16000D01*
X158501Y15500D01*
X160500D01*
X161000Y16000D01*
Y16999D01*
X160500Y17499D01*
X159501D01*
Y16500D01*
X161000Y18499D02*
X158001D01*
X161000Y20498D01*
X158001D01*
Y21498D02*
X161000D01*
Y22998D01*
X160500Y23497D01*
X158501D01*
X158001Y22998D01*
Y21498D01*
X199001Y17499D02*
X198501Y16999D01*
Y16000D01*
X199001Y15500D01*
X201000D01*
X201500Y16000D01*
Y16999D01*
X201000Y17499D01*
X200001D01*
Y16500D01*
X201500Y18499D02*
X198501D01*
X201500Y20498D01*
X198501D01*
Y21498D02*
X201500D01*
Y22998D01*
X201000Y23497D01*
X199001D01*
X198501Y22998D01*
Y21498D01*
X288473Y238228D02*
X288461Y240227D01*
X288467Y239228D01*
X291466Y239245D01*
X288456Y241227D02*
X291443Y243244D01*
X288444Y243226D02*
X291454Y241245D01*
X299501Y17999D02*
X299001Y17500D01*
Y16500D01*
X299501Y16000D01*
X301500D01*
X302000Y16500D01*
Y17500D01*
X301500Y17999D01*
X300500D01*
Y17000D01*
X302000Y18999D02*
X299001D01*
X302000Y20998D01*
X299001D01*
Y21998D02*
X302000D01*
Y23498D01*
X301500Y23997D01*
X299501D01*
X299001Y23498D01*
Y21998D01*
X289001Y17499D02*
X288501Y16999D01*
Y16000D01*
X289001Y15500D01*
X291000D01*
X291500Y16000D01*
Y16999D01*
X291000Y17499D01*
X290001D01*
Y16500D01*
X291500Y18499D02*
X288501D01*
X291500Y20498D01*
X288501D01*
Y21498D02*
X291500D01*
Y22998D01*
X291000Y23497D01*
X289001D01*
X288501Y22998D01*
Y21498D01*
X278001Y17499D02*
X277501Y16999D01*
Y16000D01*
X278001Y15500D01*
X280000D01*
X280500Y16000D01*
Y16999D01*
X280000Y17499D01*
X279000D01*
Y16500D01*
X280500Y18499D02*
X277501D01*
X280500Y20498D01*
X277501D01*
Y21498D02*
X280500D01*
Y22998D01*
X280000Y23497D01*
X278001D01*
X277501Y22998D01*
Y21498D01*
X268501Y17499D02*
X268001Y16999D01*
Y16000D01*
X268501Y15500D01*
X270500D01*
X271000Y16000D01*
Y16999D01*
X270500Y17499D01*
X269500D01*
Y16500D01*
X271000Y18499D02*
X268001D01*
X271000Y20498D01*
X268001D01*
Y21498D02*
X271000D01*
Y22998D01*
X270500Y23497D01*
X268501D01*
X268001Y22998D01*
Y21498D01*
X248501Y17499D02*
X248001Y16999D01*
Y16000D01*
X248501Y15500D01*
X250500D01*
X251000Y16000D01*
Y16999D01*
X250500Y17499D01*
X249500D01*
Y16500D01*
X251000Y18499D02*
X248001D01*
X251000Y20498D01*
X248001D01*
Y21498D02*
X251000D01*
Y22998D01*
X250500Y23497D01*
X248501D01*
X248001Y22998D01*
Y21498D01*
X258501Y17499D02*
X258001Y16999D01*
Y16000D01*
X258501Y15500D01*
X260500D01*
X261000Y16000D01*
Y16999D01*
X260500Y17499D01*
X259501D01*
Y16500D01*
X261000Y18499D02*
X258001D01*
X261000Y20498D01*
X258001D01*
Y21498D02*
X261000D01*
Y22998D01*
X260500Y23497D01*
X258501D01*
X258001Y22998D01*
Y21498D01*
X213001Y241021D02*
X212505Y241525D01*
X212514Y242525D01*
X213018Y243020D01*
X213517Y243016D01*
X214013Y242512D01*
X214517Y243008D01*
X215017Y243004D01*
X215512Y242499D01*
X215504Y241500D01*
X215000Y241004D01*
X214500Y241008D01*
X214005Y241512D01*
X213501Y241017D01*
X213001Y241021D01*
X214005Y241512D02*
X214013Y242512D01*
X203001Y237944D02*
X202490Y238432D01*
X202468Y239431D01*
X201957Y239920D01*
X204932Y240987D02*
X205421Y241498D01*
X205398Y242497D01*
X204887Y242986D01*
X202889Y242941D01*
X202400Y242430D01*
X202423Y241430D01*
X202934Y240942D01*
X203433Y240953D01*
X203922Y241464D01*
X203888Y242963D01*
X193501Y235500D02*
X193001Y236000D01*
Y237000D01*
X192501Y237499D01*
X196000Y238499D02*
Y239499D01*
Y238999D01*
X193001D01*
X193501Y238499D01*
Y240998D02*
X193001Y241498D01*
Y242498D01*
X193501Y242998D01*
X195500D01*
X196000Y242498D01*
Y241498D01*
X195500Y240998D01*
X193501D01*
X183001Y236500D02*
X182501Y237000D01*
Y238000D01*
X182001Y238499D01*
X185500Y239499D02*
Y240499D01*
Y239999D01*
X182501D01*
X183001Y239499D01*
X185500Y241998D02*
Y242998D01*
Y242498D01*
X182501D01*
X183001Y241998D01*
X175000Y238500D02*
Y239500D01*
Y239000D01*
X172001D01*
X172501Y238500D01*
X175000Y242999D02*
Y240999D01*
X173001Y242999D01*
X172501D01*
X172001Y242499D01*
Y241499D01*
X172501Y240999D01*
X165000Y238500D02*
Y239500D01*
Y239000D01*
X162001D01*
X162501Y238500D01*
Y240999D02*
X162001Y241499D01*
Y242499D01*
X162501Y242999D01*
X163001D01*
X163500Y242499D01*
Y241999D01*
Y242499D01*
X164000Y242999D01*
X164500D01*
X165000Y242499D01*
Y241499D01*
X164500Y240999D01*
X152494Y237491D02*
X151996Y236989D01*
X151999Y235989D01*
X152501Y235491D01*
X154500Y235498D01*
X154998Y236000D01*
X154995Y237000D01*
X154493Y237498D01*
X153493Y237494D01*
X153497Y236494D01*
X154989Y238499D02*
X151990Y238488D01*
X154982Y240498D01*
X151983Y240488D01*
X151980Y241487D02*
X154979Y241498D01*
X154973Y242998D01*
X154472Y243496D01*
X152472Y243489D01*
X151974Y242987D01*
X151980Y241487D01*
X145000Y232500D02*
X143002Y232561D01*
X142033Y233590D01*
X143062Y234559D01*
X145061Y234498D01*
X143562Y234544D01*
X143501Y232545D01*
X145091Y235498D02*
X142093Y235589D01*
X142139Y237087D01*
X142653Y237572D01*
X143653Y237542D01*
X144137Y237027D01*
X144092Y235528D01*
X144122Y236527D02*
X145151Y237496D01*
X142245Y240585D02*
X142184Y238586D01*
X145182Y238495D01*
X145242Y240494D01*
X143683Y238541D02*
X143713Y239540D01*
X142335Y243582D02*
X142275Y241584D01*
X143774Y241538D01*
X143804Y242538D01*
X143774Y241538D01*
X145273Y241493D01*
X133501Y237499D02*
X133001Y237000D01*
Y236000D01*
X133501Y235500D01*
X134001D01*
X134501Y236000D01*
Y237000D01*
X135000Y237499D01*
X135500D01*
X136000Y237000D01*
Y236000D01*
X135500Y235500D01*
X133001Y238499D02*
X136000D01*
Y239999D01*
X135500Y240498D01*
X133501D01*
X133001Y239999D01*
Y238499D01*
X136000Y241498D02*
X134001D01*
X133001Y242498D01*
X134001Y243497D01*
X136000D01*
X134501D01*
Y241498D01*
X123001Y237499D02*
X122501Y237000D01*
Y236000D01*
X123001Y235500D01*
X123501D01*
X124001Y236000D01*
Y237000D01*
X124500Y237499D01*
X125000D01*
X125500Y237000D01*
Y236000D01*
X125000Y235500D01*
X123001Y240498D02*
X122501Y239999D01*
Y238999D01*
X123001Y238499D01*
X125000D01*
X125500Y238999D01*
Y239999D01*
X125000Y240498D01*
X122501Y241498D02*
X125500D01*
Y243497D01*
X298501Y288999D02*
X298001Y288499D01*
Y287500D01*
X298501Y287000D01*
X300500D01*
X301000Y287500D01*
Y288499D01*
X300500Y288999D01*
X299500D01*
Y288000D01*
X301000Y289999D02*
X298001D01*
X301000Y291998D01*
X298001D01*
Y292998D02*
X301000D01*
Y294498D01*
X300500Y294997D01*
X298501D01*
X298001Y294498D01*
Y292998D01*
X288501Y288499D02*
X288001Y288000D01*
Y287000D01*
X288501Y286500D01*
X290500D01*
X291000Y287000D01*
Y288000D01*
X290500Y288499D01*
X289500D01*
Y287500D01*
X291000Y289499D02*
X288001D01*
X291000Y291498D01*
X288001D01*
Y292498D02*
X291000D01*
Y293998D01*
X290500Y294497D01*
X288501D01*
X288001Y293998D01*
Y292498D01*
X278501Y288499D02*
X278001Y288000D01*
Y287000D01*
X278501Y286500D01*
X280500D01*
X281000Y287000D01*
Y288000D01*
X280500Y288499D01*
X279501D01*
Y287500D01*
X281000Y289499D02*
X278001D01*
X281000Y291498D01*
X278001D01*
Y292498D02*
X281000D01*
Y293998D01*
X280500Y294497D01*
X278501D01*
X278001Y293998D01*
Y292498D01*
X268001Y288499D02*
X267501Y288000D01*
Y287000D01*
X268001Y286500D01*
X270000D01*
X270500Y287000D01*
Y288000D01*
X270000Y288499D01*
X269001D01*
Y287500D01*
X270500Y289499D02*
X267501D01*
X270500Y291498D01*
X267501D01*
Y292498D02*
X270500D01*
Y293998D01*
X270000Y294497D01*
X268001D01*
X267501Y293998D01*
Y292498D01*
X258501Y288499D02*
X258001Y288000D01*
Y287000D01*
X258501Y286500D01*
X260500D01*
X261000Y287000D01*
Y288000D01*
X260500Y288499D01*
X259501D01*
Y287500D01*
X261000Y289499D02*
X258001D01*
X261000Y291498D01*
X258001D01*
Y292498D02*
X261000D01*
Y293998D01*
X260500Y294497D01*
X258501D01*
X258001Y293998D01*
Y292498D01*
X248501Y288499D02*
X248001Y288000D01*
Y287000D01*
X248501Y286500D01*
X250500D01*
X251000Y287000D01*
Y288000D01*
X250500Y288499D01*
X249500D01*
Y287500D01*
X251000Y289499D02*
X248001D01*
X251000Y291498D01*
X248001D01*
Y292498D02*
X251000D01*
Y293998D01*
X250500Y294497D01*
X248501D01*
X248001Y293998D01*
Y292498D01*
X239001Y288499D02*
X238501Y288000D01*
Y287000D01*
X239001Y286500D01*
X241000D01*
X241500Y287000D01*
Y288000D01*
X241000Y288499D01*
X240001D01*
Y287500D01*
X241500Y289499D02*
X238501D01*
X241500Y291498D01*
X238501D01*
Y292498D02*
X241500D01*
Y293998D01*
X241000Y294497D01*
X239001D01*
X238501Y293998D01*
Y292498D01*
X228001Y288499D02*
X227501Y288000D01*
Y287000D01*
X228001Y286500D01*
X230000D01*
X230500Y287000D01*
Y288000D01*
X230000Y288499D01*
X229000D01*
Y287500D01*
X230500Y289499D02*
X227501D01*
X230500Y291498D01*
X227501D01*
Y292498D02*
X230500D01*
Y293998D01*
X230000Y294497D01*
X228001D01*
X227501Y293998D01*
Y292498D01*
X257000Y66000D02*
X255586Y67414D01*
Y68827D01*
X257000D01*
X258414Y67414D01*
X257353Y68474D01*
X255940Y67060D01*
X259121Y68121D02*
X259827Y68827D01*
X259474Y68474D01*
X257353Y70595D01*
Y69888D01*
X249000Y66000D02*
X247586Y67414D01*
Y68827D01*
X249000D01*
X250414Y67414D01*
X249353Y68474D01*
X247940Y67060D01*
X249353Y69888D02*
Y70595D01*
X250060Y71302D01*
X250767Y71302D01*
X252181Y69888D01*
X252181Y69181D01*
X251474Y68474D01*
X250767D01*
X249353Y69888D01*
X269000Y66000D02*
X267586Y67414D01*
Y68827D01*
X269000D01*
X270414Y67414D01*
X269353Y68474D01*
X267940Y67060D01*
X272534Y69534D02*
X271121Y68121D01*
Y70948D01*
X270767Y71302D01*
X270060Y71302D01*
X269353Y70595D01*
Y69888D01*
X279000Y66000D02*
X277586Y67414D01*
Y68827D01*
X279000D01*
X280414Y67414D01*
X279353Y68474D01*
X277940Y67060D01*
X279353Y69888D02*
Y70595D01*
X280060Y71302D01*
X280767Y71302D01*
X281121Y70948D01*
Y70241D01*
X280767Y69888D01*
X281121Y70241D01*
X281827Y70241D01*
X282181Y69888D01*
X282181Y69181D01*
X281474Y68474D01*
X280767D01*
X289000Y66000D02*
X287586Y67414D01*
Y68827D01*
X289000D01*
X290414Y67414D01*
X289353Y68474D01*
X287940Y67060D01*
X292181Y69181D02*
X290060Y71302D01*
X290060Y69181D01*
X291474Y70595D01*
X299000Y66000D02*
X297586Y67414D01*
Y68827D01*
X299000D01*
X300414Y67414D01*
X299353Y68474D01*
X297940Y67060D01*
X300414Y71655D02*
X299000Y70241D01*
X300060Y69181D01*
X300414Y70241D01*
X300767Y70595D01*
X301474D01*
X302181Y69888D01*
X302181Y69181D01*
X301474Y68474D01*
X300767D01*
X160000Y68707D02*
X157879Y70828D01*
X161414Y70121D01*
X159293Y72241D01*
X161767Y74009D02*
X161060Y74009D01*
X160353Y73302D01*
Y72595D01*
X161767Y71181D01*
X162474D01*
X163181Y71888D01*
X163181Y72595D01*
X169000Y67839D02*
X166879Y69959D01*
X170414Y69252D01*
X168293Y71373D01*
X170767Y73140D02*
X170060Y73140D01*
X169353Y72433D01*
Y71726D01*
X170767Y70313D01*
X171474D01*
X172181Y71020D01*
X172181Y71726D01*
X180000Y68707D02*
X177879Y70828D01*
X178940Y71888D01*
X179647Y71888D01*
X180353Y71181D01*
X180353Y70474D01*
X179293Y69414D01*
X180000Y70121D02*
X181414Y70121D01*
Y74362D02*
X180000Y72948D01*
X182121Y70828D01*
X183534Y72241D01*
X181060Y71888D02*
X181767Y72595D01*
X183888Y76129D02*
X183181D01*
X182474Y75423D01*
Y74716D01*
X182827Y74362D01*
X183534Y74362D01*
X184241Y75069D01*
X184948Y75069D01*
X185302Y74716D01*
X185302Y74009D01*
X184595Y73302D01*
X183888D01*
X185655Y78603D02*
X184241Y77190D01*
X186362Y75069D01*
X187776Y76483D01*
X185302Y76129D02*
X186009Y76836D01*
X186362Y79310D02*
X187776Y80724D01*
X187069Y80017D01*
X189189Y77896D01*
X188233Y70474D02*
Y71181D01*
X188940Y71888D01*
X189647Y71888D01*
X190000Y71535D01*
Y70828D01*
X189647Y70474D01*
X190000Y70828D01*
X190707Y70828D01*
X191060Y70474D01*
X191060Y69767D01*
X190353Y69061D01*
X189647D01*
X190707Y72241D02*
X192827Y71535D01*
X192121Y73655D01*
X192474Y74716D02*
Y75423D01*
X193181Y76129D01*
X193888D01*
X194241Y75776D01*
Y75069D01*
X193888Y74716D01*
X194241Y75069D01*
X194948Y75069D01*
X195302Y74716D01*
X195302Y74009D01*
X194595Y73302D01*
X193888D01*
X199293Y72241D02*
X197879Y70828D01*
X198940Y69767D01*
X199293Y70828D01*
X199647Y71181D01*
X200353D01*
X201060Y70474D01*
X201060Y69767D01*
X200353Y69061D01*
X199647D01*
X200707Y72241D02*
X202828Y71535D01*
X202121Y73655D01*
X209647Y71888D02*
X208940Y71888D01*
X208233Y71181D01*
Y70474D01*
X209647Y69061D01*
X210353D01*
X211060Y69767D01*
X211060Y70474D01*
X210353Y71181D01*
X209647Y70474D01*
X212121Y70828D02*
X210000Y72948D01*
X213534Y72241D01*
X211414Y74362D01*
X212121Y75069D02*
X214241Y72948D01*
X215302Y74009D01*
X215302Y74716D01*
X213888Y76129D01*
X213181D01*
X212121Y75069D01*
X219647Y71888D02*
X218940Y71888D01*
X218233Y71181D01*
Y70474D01*
X219647Y69061D01*
X220353D01*
X221060Y69767D01*
X221060Y70474D01*
X220353Y71181D01*
X219647Y70474D01*
X222121Y70828D02*
X220000Y72948D01*
X223534Y72241D01*
X221414Y74362D01*
X222121Y75069D02*
X224241Y72948D01*
X225302Y74009D01*
X225302Y74716D01*
X223888Y76129D01*
X223181D01*
X222121Y75069D01*
X227879Y70828D02*
X229293Y69414D01*
X230707D01*
X230707Y70828D01*
X229293Y72241D01*
X232121Y70828D02*
X232827Y71535D01*
X232474Y71181D01*
X231060Y72595D01*
X230707Y72241D01*
X233888Y72595D02*
X232474Y74009D01*
X233534Y75069D01*
X234241D01*
X235302Y74009D01*
X169001Y17499D02*
X168501Y16999D01*
Y16000D01*
X169001Y15500D01*
X171000D01*
X171500Y16000D01*
Y16999D01*
X171000Y17499D01*
X170001D01*
Y16500D01*
X171500Y18499D02*
X168501D01*
X171500Y20498D01*
X168501D01*
Y21498D02*
X171500D01*
Y22998D01*
X171000Y23497D01*
X169001D01*
X168501Y22998D01*
Y21498D01*
X179001Y17499D02*
X178501Y16999D01*
Y16000D01*
X179001Y15500D01*
X181000D01*
X181500Y16000D01*
Y16999D01*
X181000Y17499D01*
X180000D01*
Y16500D01*
X181500Y18499D02*
X178501D01*
X181500Y20498D01*
X178501D01*
Y21498D02*
X181500D01*
Y22998D01*
X181000Y23497D01*
X179001D01*
X178501Y22998D01*
Y21498D01*
X189001Y17499D02*
X188501Y16999D01*
Y16000D01*
X189001Y15500D01*
X191000D01*
X191500Y16000D01*
Y16999D01*
X191000Y17499D01*
X190000D01*
Y16500D01*
X191500Y18499D02*
X188501D01*
X191500Y20498D01*
X188501D01*
Y21498D02*
X191500D01*
Y22998D01*
X191000Y23497D01*
X189001D01*
X188501Y22998D01*
Y21498D01*
X209001Y17499D02*
X208501Y16999D01*
Y16000D01*
X209001Y15500D01*
X211000D01*
X211500Y16000D01*
Y16999D01*
X211000Y17499D01*
X210000D01*
Y16500D01*
X211500Y18499D02*
X208501D01*
X211500Y20498D01*
X208501D01*
Y21498D02*
X211500D01*
Y22998D01*
X211000Y23497D01*
X209001D01*
X208501Y22998D01*
Y21498D01*
X218501Y17499D02*
X218001Y16999D01*
Y16000D01*
X218501Y15500D01*
X220500D01*
X221000Y16000D01*
Y16999D01*
X220500Y17499D01*
X219500D01*
Y16500D01*
X221000Y18499D02*
X218001D01*
X221000Y20498D01*
X218001D01*
Y21498D02*
X221000D01*
Y22998D01*
X220500Y23497D01*
X218501D01*
X218001Y22998D01*
Y21498D01*
X229001Y17499D02*
X228501Y16999D01*
Y16000D01*
X229001Y15500D01*
X231000D01*
X231500Y16000D01*
Y16999D01*
X231000Y17499D01*
X230000D01*
Y16500D01*
X231500Y18499D02*
X228501D01*
X231500Y20498D01*
X228501D01*
Y21498D02*
X231500D01*
Y22998D01*
X231000Y23497D01*
X229001D01*
X228501Y22998D01*
Y21498D01*
X301519Y238518D02*
X298522Y238628D01*
X298577Y240126D01*
X299095Y240608D01*
X300094Y240571D01*
X300575Y240053D01*
X300520Y238555D01*
X300556Y239554D02*
X301592Y240516D01*
X298632Y241625D02*
X301702Y243513D01*
X298705Y243623D02*
X301629Y241515D01*
X280982Y242999D02*
X281000Y241000D01*
X278983Y242981D01*
X278483Y242977D01*
X277988Y242473D01*
X277997Y241473D01*
X278501Y240978D01*
X268501Y238022D02*
X268005Y238526D01*
X268014Y239526D01*
X267519Y240030D01*
X268527Y241021D02*
X268032Y241525D01*
X268040Y242525D01*
X268544Y243020D01*
X269044Y243016D01*
X269540Y242511D01*
X269535Y242012D01*
X269540Y242511D01*
X270044Y243007D01*
X270544Y243003D01*
X271039Y242498D01*
X271030Y241499D01*
X270526Y241003D01*
X261500Y242499D02*
X258501D01*
X260000Y241000D01*
Y242999D01*
X249002Y237927D02*
X248488Y238411D01*
X248458Y239411D01*
X247944Y239896D01*
X248355Y242908D02*
X248414Y240910D01*
X249913Y240954D01*
X249384Y241938D01*
X249369Y242438D01*
X249854Y242952D01*
X250853Y242982D01*
X251368Y242497D01*
X251397Y241497D01*
X250912Y240983D01*
X238501Y238000D02*
X238001Y238500D01*
Y239499D01*
X237501Y239999D01*
X238001Y242998D02*
X238501Y241999D01*
X239500Y240999D01*
X240500D01*
X241000Y241499D01*
Y242498D01*
X240500Y242998D01*
X240000D01*
X239500Y242498D01*
Y240999D01*
X228001Y241000D02*
Y242999D01*
X228501D01*
X230500Y241000D01*
X231000D01*
X122501Y288499D02*
X122001Y288000D01*
Y287000D01*
X122501Y286500D01*
X124500D01*
X125000Y287000D01*
Y288000D01*
X124500Y288499D01*
X123501D01*
Y287500D01*
X125000Y289499D02*
X122001D01*
X125000Y291498D01*
X122001D01*
Y292498D02*
X125000D01*
Y293998D01*
X124500Y294497D01*
X122501D01*
X122001Y293998D01*
Y292498D01*
X133001Y288499D02*
X132501Y288000D01*
Y287000D01*
X133001Y286500D01*
X135000D01*
X135500Y287000D01*
Y288000D01*
X135000Y288499D01*
X134001D01*
Y287500D01*
X135500Y289499D02*
X132501D01*
X135500Y291498D01*
X132501D01*
Y292498D02*
X135500D01*
Y293998D01*
X135000Y294497D01*
X133001D01*
X132501Y293998D01*
Y292498D01*
X143001Y288499D02*
X142501Y288000D01*
Y287000D01*
X143001Y286500D01*
X145000D01*
X145500Y287000D01*
Y288000D01*
X145000Y288499D01*
X144000D01*
Y287500D01*
X145500Y289499D02*
X142501D01*
X145500Y291498D01*
X142501D01*
Y292498D02*
X145500D01*
Y293998D01*
X145000Y294497D01*
X143001D01*
X142501Y293998D01*
Y292498D01*
X152501Y288499D02*
X152001Y288000D01*
Y287000D01*
X152501Y286500D01*
X154500D01*
X155000Y287000D01*
Y288000D01*
X154500Y288499D01*
X153500D01*
Y287500D01*
X155000Y289499D02*
X152001D01*
X155000Y291498D01*
X152001D01*
Y292498D02*
X155000D01*
Y293998D01*
X154500Y294497D01*
X152501D01*
X152001Y293998D01*
Y292498D01*
X162501Y288499D02*
X162001Y288000D01*
Y287000D01*
X162501Y286500D01*
X164500D01*
X165000Y287000D01*
Y288000D01*
X164500Y288499D01*
X163500D01*
Y287500D01*
X165000Y289499D02*
X162001D01*
X165000Y291498D01*
X162001D01*
Y292498D02*
X165000D01*
Y293998D01*
X164500Y294497D01*
X162501D01*
X162001Y293998D01*
Y292498D01*
X172501Y288499D02*
X172001Y288000D01*
Y287000D01*
X172501Y286500D01*
X174500D01*
X175000Y287000D01*
Y288000D01*
X174500Y288499D01*
X173501D01*
Y287500D01*
X175000Y289499D02*
X172001D01*
X175000Y291498D01*
X172001D01*
Y292498D02*
X175000D01*
Y293998D01*
X174500Y294497D01*
X172501D01*
X172001Y293998D01*
Y292498D01*
X182501Y288499D02*
X182001Y288000D01*
Y287000D01*
X182501Y286500D01*
X184500D01*
X185000Y287000D01*
Y288000D01*
X184500Y288499D01*
X183501D01*
Y287500D01*
X185000Y289499D02*
X182001D01*
X185000Y291498D01*
X182001D01*
Y292498D02*
X185000D01*
Y293998D01*
X184500Y294497D01*
X182501D01*
X182001Y293998D01*
Y292498D01*
X192501Y288499D02*
X192001Y288000D01*
Y287000D01*
X192501Y286500D01*
X194500D01*
X195000Y287000D01*
Y288000D01*
X194500Y288499D01*
X193500D01*
Y287500D01*
X195000Y289499D02*
X192001D01*
X195000Y291498D01*
X192001D01*
Y292498D02*
X195000D01*
Y293998D01*
X194500Y294497D01*
X192501D01*
X192001Y293998D01*
Y292498D01*
X202501Y288499D02*
X202001Y288000D01*
Y287000D01*
X202501Y286500D01*
X204500D01*
X205000Y287000D01*
Y288000D01*
X204500Y288499D01*
X203501D01*
Y287500D01*
X205000Y289499D02*
X202001D01*
X205000Y291498D01*
X202001D01*
Y292498D02*
X205000D01*
Y293998D01*
X204500Y294497D01*
X202501D01*
X202001Y293998D01*
Y292498D01*
X213001Y288499D02*
X212501Y288000D01*
Y287000D01*
X213001Y286500D01*
X215000D01*
X215500Y287000D01*
Y288000D01*
X215000Y288499D01*
X214001D01*
Y287500D01*
X215500Y289499D02*
X212501D01*
X215500Y291498D01*
X212501D01*
Y292498D02*
X215500D01*
Y293998D01*
X215000Y294497D01*
X213001D01*
X212501Y293998D01*
Y292498D01*
M02*
