G04*
G04 #@! TF.GenerationSoftware,Altium Limited,Altium Designer,21.8.1 (53)*
G04*
G04 Layer_Physical_Order=1*
G04 Layer_Color=255*
%FSLAX25Y25*%
%MOIN*%
G70*
G04*
G04 #@! TF.SameCoordinates,EC8DCCC1-7592-430C-AF42-B363D8801F71*
G04*
G04*
G04 #@! TF.FilePolarity,Positive*
G04*
G01*
G75*
%ADD10C,0.00600*%
%ADD11C,0.02000*%
%ADD12C,0.01500*%
%ADD19R,0.03300X0.06300*%
%ADD20R,0.12200X0.06300*%
%ADD21R,0.03937X0.05709*%
%ADD22R,0.03150X0.03150*%
%ADD23R,0.02362X0.02756*%
%ADD24R,0.10433X0.02362*%
%ADD25R,0.05709X0.03937*%
%ADD26R,0.02362X0.13386*%
%ADD27R,0.03150X0.03150*%
%ADD28R,0.02756X0.02362*%
%ADD41C,0.07000*%
%ADD42C,0.06378*%
%ADD43O,0.12992X0.07087*%
%ADD44O,0.07874X0.14961*%
%ADD45C,0.02500*%
D10*
X25352Y61000D02*
X64335D01*
X25000Y61352D02*
X25352Y61000D01*
X25000Y61352D02*
Y89000D01*
X16000Y98000D02*
X25000Y89000D01*
X135000Y61352D02*
Y103969D01*
X134649Y61000D02*
X135000Y61352D01*
X4000Y78000D02*
Y130000D01*
X6000Y132000D01*
X140648Y3000D02*
X176648D01*
X177000Y3351D02*
Y6000D01*
X176648Y3000D02*
X177000Y3351D01*
X66000Y3000D02*
X140648D01*
X4352D02*
X66000D01*
Y16000D01*
X4000Y24000D02*
Y78000D01*
Y3351D02*
Y24000D01*
X16000D01*
X141000Y3351D02*
Y35649D01*
X140648Y3000D02*
X141000Y3351D01*
X140648Y36000D02*
X141000Y35649D01*
X4000Y3351D02*
X4352Y3000D01*
X4000Y78000D02*
X16000D01*
X65119Y36000D02*
X71000D01*
X64335D02*
X65119D01*
X66000Y35119D01*
Y16000D02*
Y35119D01*
X6000Y132000D02*
X87146D01*
X91260Y127000D02*
Y127886D01*
X87146Y132000D02*
X91260Y127886D01*
X66000Y16000D02*
X76000D01*
X56000D02*
X66000D01*
X16000Y24000D02*
Y34000D01*
Y14000D02*
Y24000D01*
Y78000D02*
Y88000D01*
Y68000D02*
Y78000D01*
X132937Y36000D02*
X140648D01*
X141000Y36351D01*
Y46352D01*
X132937Y46000D02*
X140648D01*
X141000Y46352D02*
Y55000D01*
X140648Y46000D02*
X141000Y46352D01*
X140000Y56000D02*
X141000Y55000D01*
X132937Y56000D02*
X140000D01*
X71000Y36000D02*
X72000Y37000D01*
Y43000D01*
X71481Y43519D02*
X72000Y43000D01*
X55833Y43519D02*
X71481D01*
X55000Y44352D02*
Y48000D01*
Y44352D02*
X55833Y43519D01*
X55519Y48519D02*
X72167D01*
X55000Y48000D02*
X55519Y48519D01*
X72167D02*
X73000Y49352D01*
Y55648D01*
X64335Y56000D02*
X72649D01*
X73000Y55648D01*
X45000Y17000D02*
X46000Y16000D01*
X45000Y17000D02*
Y39000D01*
X47000Y41000D02*
X64335D01*
X45000Y39000D02*
X47000Y41000D01*
X53000Y51000D02*
X64335D01*
X46000Y44000D02*
X53000Y51000D01*
X16000Y44000D02*
X46000D01*
X76000Y46352D02*
Y51351D01*
Y41352D02*
Y46352D01*
X64335Y46000D02*
X75648D01*
X76000Y46352D01*
Y41352D02*
X76351Y41000D01*
X86665D01*
X76351Y51000D02*
X86665D01*
X76000Y51351D02*
Y60000D01*
Y51351D02*
X76351Y51000D01*
X76000Y60000D02*
X77000Y61000D01*
X86665D01*
X134649D01*
X134968Y104000D02*
X135000Y103969D01*
X134968Y104000D02*
X135000Y104032D01*
Y119000D01*
X118905Y36000D02*
X129000D01*
X86665D02*
X113000D01*
X118905Y46000D02*
X129000D01*
X86665D02*
X113000D01*
X118905Y56000D02*
X129000D01*
X86665D02*
X113000D01*
X208000Y119000D02*
X231000D01*
X181000Y135000D02*
X192000D01*
X208000Y119000D01*
X176648D02*
X177000Y119351D01*
X145000Y119000D02*
X176648D01*
X177000Y119351D02*
Y131000D01*
X181000Y135000D01*
X240352Y75000D02*
X249165D01*
X240000Y75352D02*
X240352Y75000D01*
X240000Y75352D02*
Y80352D01*
Y85352D01*
X226835Y80000D02*
X239649D01*
X240000Y80352D01*
X240352Y85000D02*
X249165D01*
X240000Y85352D02*
Y95000D01*
Y85352D02*
X240352Y85000D01*
X240000Y95000D02*
X249165D01*
X240000Y106000D02*
X244000D01*
X255119Y117119D01*
X258119D02*
X259000Y118000D01*
X255119Y117119D02*
X258119D01*
X236649Y168000D02*
X237519Y167130D01*
Y150481D02*
Y167130D01*
Y150481D02*
X242000Y146000D01*
X230351Y168000D02*
X236649D01*
X230000Y159370D02*
Y167648D01*
X230351Y168000D01*
X238366Y189000D02*
X244480Y195114D01*
X238366Y189000D02*
X248649D01*
X237858D02*
X238366D01*
X235000Y186142D02*
X237858Y189000D01*
X249000Y153000D02*
Y188648D01*
X248649Y189000D02*
X249000Y188648D01*
X235000Y180630D02*
Y186142D01*
X214000Y85000D02*
X226835D01*
X193000Y64000D02*
X214000Y85000D01*
X217000Y95000D02*
X226835D01*
X193000Y118000D02*
X194000D01*
X217000Y95000D01*
X249000Y65351D02*
Y69835D01*
X249352Y65000D02*
X258648D01*
X249000Y69835D02*
X249165Y70000D01*
X249000Y65351D02*
X249352Y65000D01*
X259000Y31352D02*
Y64648D01*
X258648Y65000D02*
X259000Y64648D01*
X219352Y31000D02*
X258648D01*
X259000Y31352D01*
X219000Y23000D02*
Y30648D01*
X219352Y31000D01*
X218000Y48000D02*
Y54649D01*
X218352Y55000D02*
X229000D01*
X218000Y54649D02*
X218352Y55000D01*
X229000D02*
X234000Y60000D01*
Y71870D01*
X226835Y75000D02*
X230870D01*
X234000Y71870D01*
X241000Y119000D02*
X257803D01*
X258803Y118000D01*
X259000D01*
X215000Y70000D02*
X226835D01*
X216000Y90000D02*
X226835D01*
X257937Y119000D02*
X258000Y118937D01*
X231000Y119000D02*
Y136648D01*
X230648Y137000D02*
X231000Y136648D01*
X203351Y137000D02*
X230648D01*
X203000Y137352D02*
Y153000D01*
Y137352D02*
X203351Y137000D01*
X269740Y100000D02*
X277000D01*
X298000Y45351D02*
Y67000D01*
X277351Y45000D02*
X297649D01*
X298000Y45351D01*
X277000Y44649D02*
X277351Y45000D01*
X277000Y23000D02*
Y44649D01*
X285000Y70000D02*
X288000Y67000D01*
X271953Y70000D02*
X285000D01*
X317969Y68000D02*
X324000D01*
X313150Y67000D02*
X314032Y67881D01*
X298000Y67000D02*
X313150D01*
X314032Y67881D02*
Y68000D01*
X295000Y80000D02*
X302000D01*
X293969Y90000D02*
X302000D01*
X249165Y70000D02*
X266047D01*
X272953Y80000D02*
X291063D01*
X249165D02*
X267047D01*
X272953Y90000D02*
X290032D01*
X249165D02*
X267047D01*
X235000Y142351D02*
Y159370D01*
X234648Y142000D02*
X235000Y142351D01*
X215352Y142000D02*
X234648D01*
X215000Y142351D02*
Y151000D01*
Y142351D02*
X215352Y142000D01*
X213000Y153000D02*
X215000Y151000D01*
X203000Y153000D02*
X213000D01*
X244480Y196000D02*
X252000D01*
X244480Y195114D02*
Y196000D01*
X255968Y189032D02*
Y195968D01*
X229480Y196000D02*
X237000D01*
X229819Y180811D02*
Y195661D01*
D11*
X125000Y147500D02*
X150500D01*
X199162Y199162D02*
X200000Y200000D01*
X150500Y147500D02*
X199162Y196162D01*
Y199162D01*
X86500Y66000D02*
X87819D01*
X64335D02*
X86500D01*
X54000Y87000D02*
X86828D01*
X87819Y66000D02*
X88000Y66181D01*
Y85828D01*
X86828Y87000D02*
X88000Y85828D01*
X47000Y66172D02*
X48172Y65000D01*
X52828D01*
X54000Y66172D01*
X47000D02*
Y80000D01*
X54000Y66172D02*
Y87000D01*
X32172Y64828D02*
X33828D01*
X39000Y70000D01*
Y84000D01*
X31000Y66000D02*
Y91828D01*
Y66000D02*
X32172Y64828D01*
X41828Y85172D02*
X47000Y80000D01*
X40172Y85172D02*
X41828D01*
X39000Y84000D02*
X40172Y85172D01*
X83000Y104343D02*
X92657Y114000D01*
X114828D01*
X116000Y109172D02*
Y112828D01*
X114828Y114000D02*
X116000Y112828D01*
X97172Y108000D02*
X114828D01*
X116000Y109172D01*
X96000Y106828D02*
X97172Y108000D01*
X108228Y127000D02*
X131032Y104197D01*
X74172Y99000D02*
X81828D01*
X83000Y100172D01*
Y104343D01*
X96000Y103172D02*
Y106828D01*
X73000Y100172D02*
Y112828D01*
Y100172D02*
X74172Y99000D01*
X69172Y114000D02*
X71828D01*
X73000Y112828D01*
X68000D02*
X69172Y114000D01*
X64172Y99000D02*
X66828D01*
X68000Y100172D02*
Y112828D01*
X66828Y99000D02*
X68000Y100172D01*
X53000D02*
Y117000D01*
X54172Y118172D01*
X55828D02*
X63000Y111000D01*
X47172Y99000D02*
X51828D01*
X54172Y118172D02*
X55828D01*
X51828Y99000D02*
X53000Y100172D01*
X40172Y120172D02*
X41828D01*
X34000Y99172D02*
Y125828D01*
X46000Y100172D02*
X47172Y99000D01*
X39000Y99172D02*
Y119000D01*
X46000Y100172D02*
Y116000D01*
X35172Y127000D02*
X83609D01*
X39000Y119000D02*
X40172Y120172D01*
X41828D02*
X46000Y116000D01*
X35172Y98000D02*
X37828D01*
X39000Y99172D01*
X34000D02*
X35172Y98000D01*
X34000Y125828D02*
X35172Y127000D01*
X63000Y100172D02*
X64172Y99000D01*
X63000Y100172D02*
Y111000D01*
X83609Y127000D02*
X88463Y122146D01*
X95228Y123317D02*
Y123974D01*
X96400Y125146D01*
X97772D01*
X98740Y126114D01*
Y127000D01*
X94057Y122146D02*
X95228Y123317D01*
X88463Y122146D02*
X94057D01*
X92172Y95172D02*
X93828D01*
X120828Y74000D02*
X122000Y75172D01*
X127172Y94172D02*
X130000Y91343D01*
X114828Y80000D02*
X116000Y81172D01*
X130000Y67172D02*
Y91343D01*
X99000Y72828D02*
X100172Y74000D01*
X116000Y81172D02*
Y83000D01*
X122000Y97000D02*
Y100828D01*
X100172Y66000D02*
X128828D01*
X97172Y102000D02*
X120828D01*
X116000Y83000D02*
X119172Y86172D01*
X125172Y93828D02*
X126828D01*
X128828Y66000D02*
X130000Y67172D01*
X110000Y95000D02*
X111172Y93828D01*
X119172Y86172D02*
X120828D01*
X100172Y74000D02*
X120828D01*
X93828Y95172D02*
X95000Y94000D01*
X120828Y102000D02*
X122000Y100828D01*
X126828Y93828D02*
X127172Y94172D01*
X122000Y75172D02*
Y85000D01*
X103172Y80000D02*
X114828D01*
X32172Y93000D02*
X90000D01*
X122000Y97000D02*
X125172Y93828D01*
X102000Y81172D02*
X103172Y80000D01*
X96172Y86828D02*
X97828D01*
X120828Y86172D02*
X122000Y85000D01*
X96000Y103172D02*
X97172Y102000D01*
X99000Y67172D02*
Y72828D01*
Y67172D02*
X100172Y66000D01*
X102000Y81172D02*
Y83000D01*
X111172Y92172D01*
Y93828D01*
X106000Y95000D02*
X110000D01*
X97828Y86828D02*
X106000Y95000D01*
X95000Y88000D02*
X96172Y86828D01*
X95000Y88000D02*
Y94000D01*
X90000Y93000D02*
X92172Y95172D01*
X31000Y91828D02*
X32172Y93000D01*
X104500Y127000D02*
X108228D01*
X104500D02*
X125000Y147500D01*
X98740Y127000D02*
X104500D01*
X131032Y104000D02*
Y104197D01*
X240000Y153858D02*
X269000Y124858D01*
Y115172D02*
Y124858D01*
X267828Y114000D02*
X269000Y115172D01*
X259260Y114000D02*
X267828D01*
X238828Y171937D02*
X240000Y170765D01*
Y153858D02*
Y170765D01*
X225181Y174172D02*
X227416Y171937D01*
X225181Y174172D02*
Y181638D01*
X227416Y171937D02*
X238828D01*
X224819Y182000D02*
X225181Y181638D01*
X204000Y182000D02*
X209520D01*
X226835Y100000D02*
X249000D01*
X262260D01*
X259260Y114000D02*
X259378Y113882D01*
X259197Y114063D02*
X259260Y114000D01*
X259378Y113685D02*
Y113882D01*
X259000Y114063D02*
X259197D01*
X259378Y113685D02*
X262260Y110803D01*
Y100000D02*
Y110803D01*
X255937Y196000D02*
X255968Y195968D01*
Y189032D02*
X256000Y189000D01*
X229819Y180811D02*
X230000Y180630D01*
X229480Y196000D02*
X229819Y195661D01*
X217000Y190114D02*
X222000Y195114D01*
Y196000D01*
X217000Y182000D02*
Y190114D01*
X218886Y200000D02*
X222000Y196886D01*
X200000Y200000D02*
X218886D01*
X222000Y196000D02*
Y196886D01*
X217000Y182000D02*
X224819D01*
X225000Y149000D02*
Y159370D01*
X157000Y160000D02*
Y166520D01*
X144000Y187000D02*
Y193520D01*
X110950Y169050D02*
Y176350D01*
X110900Y176400D02*
X110950Y176350D01*
Y169050D02*
X111000Y169000D01*
X91424Y172096D02*
X98904D01*
X91000Y172520D02*
X91424Y172096D01*
X98904D02*
X99000Y172000D01*
X79000Y182000D02*
Y187520D01*
X157000Y174000D02*
Y195095D01*
X129100Y174900D02*
Y176400D01*
X123200Y169000D02*
X129100Y174900D01*
X115000Y170172D02*
Y186828D01*
X116172Y169000D02*
X123200D01*
X115000Y170172D02*
X116172Y169000D01*
X106000Y189000D02*
X112828D01*
X115000Y186828D01*
X100094Y194905D02*
X106000Y189000D01*
X91000Y194905D02*
X100094D01*
X189500Y200500D02*
X190000Y200000D01*
X157000Y201000D02*
X157500Y200500D01*
X189500D01*
X144000Y201000D02*
X157000D01*
X120000Y201600D02*
X120600Y201000D01*
X144000D01*
X120000Y176400D02*
Y201600D01*
X91000Y180000D02*
Y189000D01*
X79047Y194953D02*
X90953D01*
X79000Y195000D02*
X79047Y194953D01*
X90953D02*
X91000Y194905D01*
X56250Y148250D02*
Y194250D01*
X57000Y195000D02*
X79000D01*
D12*
X55500Y147500D02*
X56250Y148250D01*
Y194250D02*
X57000Y195000D01*
D19*
X129100Y176400D02*
D03*
X120000D02*
D03*
X110900D02*
D03*
D20*
X120000Y201600D02*
D03*
D21*
X91260Y127000D02*
D03*
X98740D02*
D03*
X209520Y182000D02*
D03*
X217000D02*
D03*
X269740Y100000D02*
D03*
X262260D02*
D03*
X222000Y196000D02*
D03*
X229480D02*
D03*
X237000D02*
D03*
X244480D02*
D03*
D22*
X113000Y56000D02*
D03*
X118905D02*
D03*
X113000Y36000D02*
D03*
X118905D02*
D03*
X113000Y46000D02*
D03*
X118905D02*
D03*
X267047Y90000D02*
D03*
X272953D02*
D03*
X267047Y80000D02*
D03*
X272953D02*
D03*
X266047Y70000D02*
D03*
X271953D02*
D03*
D23*
X129000Y56000D02*
D03*
X132937D02*
D03*
X129000Y36000D02*
D03*
X132937D02*
D03*
X129000Y46000D02*
D03*
X132937D02*
D03*
X291063Y80000D02*
D03*
X295000D02*
D03*
X252000Y196000D02*
D03*
X255937D02*
D03*
X131032Y104000D02*
D03*
X134968D02*
D03*
X290032Y90000D02*
D03*
X293969D02*
D03*
X314032Y68000D02*
D03*
X317969D02*
D03*
D24*
X226835Y100000D02*
D03*
Y95000D02*
D03*
Y90000D02*
D03*
Y85000D02*
D03*
Y80000D02*
D03*
Y75000D02*
D03*
Y70000D02*
D03*
X249165D02*
D03*
Y75000D02*
D03*
Y80000D02*
D03*
Y85000D02*
D03*
Y90000D02*
D03*
Y95000D02*
D03*
X249000Y100000D02*
D03*
X64335Y66000D02*
D03*
Y61000D02*
D03*
Y56000D02*
D03*
Y51000D02*
D03*
Y46000D02*
D03*
Y41000D02*
D03*
Y36000D02*
D03*
X86665D02*
D03*
Y41000D02*
D03*
Y46000D02*
D03*
Y51000D02*
D03*
Y56000D02*
D03*
Y61000D02*
D03*
X86500Y66000D02*
D03*
D25*
X91000Y172520D02*
D03*
Y180000D02*
D03*
X79000Y195000D02*
D03*
Y187520D02*
D03*
X144000Y201000D02*
D03*
Y193520D02*
D03*
X157000Y166520D02*
D03*
Y174000D02*
D03*
D26*
X225000Y180630D02*
D03*
X230000D02*
D03*
X235000D02*
D03*
X240000D02*
D03*
Y159370D02*
D03*
X235000D02*
D03*
X230000D02*
D03*
X225000D02*
D03*
D27*
X91000Y194905D02*
D03*
Y189000D02*
D03*
X157000Y201000D02*
D03*
Y195095D02*
D03*
D28*
X259000Y114063D02*
D03*
Y118000D02*
D03*
D41*
X16000Y88000D02*
D03*
Y98000D02*
D03*
Y68000D02*
D03*
Y78000D02*
D03*
X287000Y23000D02*
D03*
X277000D02*
D03*
X307000D02*
D03*
X297000D02*
D03*
X228000Y48000D02*
D03*
X218000D02*
D03*
X248000D02*
D03*
X238000D02*
D03*
X193000Y153000D02*
D03*
X203000D02*
D03*
X173000D02*
D03*
X183000D02*
D03*
X115000Y147500D02*
D03*
X125000D02*
D03*
X95000D02*
D03*
X105000D02*
D03*
X45500D02*
D03*
X55500D02*
D03*
X25500D02*
D03*
X35500D02*
D03*
X16000Y34000D02*
D03*
Y44000D02*
D03*
Y14000D02*
D03*
Y24000D02*
D03*
X193000Y108000D02*
D03*
Y118000D02*
D03*
Y88000D02*
D03*
Y98000D02*
D03*
X56000Y16000D02*
D03*
X46000D02*
D03*
X76000D02*
D03*
X66000D02*
D03*
X193000Y54000D02*
D03*
Y64000D02*
D03*
Y34000D02*
D03*
Y44000D02*
D03*
X229000Y23000D02*
D03*
X219000D02*
D03*
X249000D02*
D03*
X239000D02*
D03*
D42*
X200000Y200000D02*
D03*
X190000D02*
D03*
X145000Y119000D02*
D03*
X135000D02*
D03*
X231000D02*
D03*
X241000D02*
D03*
X298000Y67000D02*
D03*
X288000D02*
D03*
D43*
X47157Y176693D02*
D03*
D44*
X33378Y195000D02*
D03*
X57000D02*
D03*
D45*
X177000Y6000D02*
D03*
X240000Y95000D02*
D03*
Y106000D02*
D03*
X242000Y146000D02*
D03*
X249000Y153000D02*
D03*
X204000Y182000D02*
D03*
X215000Y70000D02*
D03*
X216000Y90000D02*
D03*
X277000Y100000D02*
D03*
X324000Y68000D02*
D03*
X302000Y80000D02*
D03*
Y90000D02*
D03*
X256000Y189000D02*
D03*
X225000Y149000D02*
D03*
X99000Y172000D02*
D03*
X157000Y160000D02*
D03*
X144000Y187000D02*
D03*
X111000Y169000D02*
D03*
X79000Y182000D02*
D03*
M02*
