G04*
G04 #@! TF.GenerationSoftware,Altium Limited,Altium Designer,21.8.1 (53)*
G04*
G04 Layer_Color=8421504*
%FSLAX25Y25*%
%MOIN*%
G70*
G04*
G04 #@! TF.SameCoordinates,EC8DCCC1-7592-430C-AF42-B363D8801F71*
G04*
G04*
G04 #@! TF.FilePolarity,Positive*
G04*
G01*
G75*
%ADD19R,0.03300X0.06300*%
%ADD20R,0.12200X0.06300*%
%ADD21R,0.03937X0.05709*%
%ADD22R,0.03150X0.03150*%
%ADD23R,0.02362X0.02756*%
%ADD24R,0.10433X0.02362*%
%ADD25R,0.05709X0.03937*%
%ADD26R,0.02362X0.13386*%
%ADD27R,0.03150X0.03150*%
%ADD28R,0.02756X0.02362*%
D19*
X129100Y176400D02*
D03*
X120000D02*
D03*
X110900D02*
D03*
D20*
X120000Y201600D02*
D03*
D21*
X91260Y127000D02*
D03*
X98740D02*
D03*
X209520Y182000D02*
D03*
X217000D02*
D03*
X269740Y100000D02*
D03*
X262260D02*
D03*
X222000Y196000D02*
D03*
X229480D02*
D03*
X237000D02*
D03*
X244480D02*
D03*
D22*
X113000Y56000D02*
D03*
X118905D02*
D03*
X113000Y36000D02*
D03*
X118905D02*
D03*
X113000Y46000D02*
D03*
X118905D02*
D03*
X267047Y90000D02*
D03*
X272953D02*
D03*
X267047Y80000D02*
D03*
X272953D02*
D03*
X266047Y70000D02*
D03*
X271953D02*
D03*
D23*
X129000Y56000D02*
D03*
X132937D02*
D03*
X129000Y36000D02*
D03*
X132937D02*
D03*
X129000Y46000D02*
D03*
X132937D02*
D03*
X291063Y80000D02*
D03*
X295000D02*
D03*
X252000Y196000D02*
D03*
X255937D02*
D03*
X131032Y104000D02*
D03*
X134968D02*
D03*
X290032Y90000D02*
D03*
X293969D02*
D03*
X314032Y68000D02*
D03*
X317969D02*
D03*
D24*
X226835Y100000D02*
D03*
Y95000D02*
D03*
Y90000D02*
D03*
Y85000D02*
D03*
Y80000D02*
D03*
Y75000D02*
D03*
Y70000D02*
D03*
X249165D02*
D03*
Y75000D02*
D03*
Y80000D02*
D03*
Y85000D02*
D03*
Y90000D02*
D03*
Y95000D02*
D03*
X249000Y100000D02*
D03*
X64335Y66000D02*
D03*
Y61000D02*
D03*
Y56000D02*
D03*
Y51000D02*
D03*
Y46000D02*
D03*
Y41000D02*
D03*
Y36000D02*
D03*
X86665D02*
D03*
Y41000D02*
D03*
Y46000D02*
D03*
Y51000D02*
D03*
Y56000D02*
D03*
Y61000D02*
D03*
X86500Y66000D02*
D03*
D25*
X91000Y172520D02*
D03*
Y180000D02*
D03*
X79000Y195000D02*
D03*
Y187520D02*
D03*
X144000Y201000D02*
D03*
Y193520D02*
D03*
X157000Y166520D02*
D03*
Y174000D02*
D03*
D26*
X225000Y180630D02*
D03*
X230000D02*
D03*
X235000D02*
D03*
X240000D02*
D03*
Y159370D02*
D03*
X235000D02*
D03*
X230000D02*
D03*
X225000D02*
D03*
D27*
X91000Y194905D02*
D03*
Y189000D02*
D03*
X157000Y201000D02*
D03*
Y195095D02*
D03*
D28*
X259000Y114063D02*
D03*
Y118000D02*
D03*
M02*
