G04*
G04 #@! TF.GenerationSoftware,Altium Limited,Altium Designer,21.8.1 (53)*
G04*
G04 Layer_Physical_Order=2*
G04 Layer_Color=16711680*
%FSLAX25Y25*%
%MOIN*%
G70*
G04*
G04 #@! TF.SameCoordinates,EC8DCCC1-7592-430C-AF42-B363D8801F71*
G04*
G04*
G04 #@! TF.FilePolarity,Positive*
G04*
G01*
G75*
%ADD10C,0.00600*%
%ADD41C,0.07000*%
%ADD42C,0.06378*%
%ADD43O,0.12992X0.07087*%
%ADD44O,0.07874X0.14961*%
%ADD45C,0.02500*%
G36*
X347961Y2039D02*
X170000D01*
Y134000D01*
X2039D01*
Y214961D01*
X347961D01*
Y2039D01*
D02*
G37*
%LPC*%
G36*
X200552Y204189D02*
X199449D01*
X198383Y203904D01*
X197428Y203352D01*
X196648Y202572D01*
X196097Y201617D01*
X195811Y200552D01*
Y199449D01*
X196097Y198383D01*
X196648Y197428D01*
X197428Y196648D01*
X198383Y196097D01*
X199449Y195811D01*
X200552D01*
X201617Y196097D01*
X202572Y196648D01*
X203352Y197428D01*
X203904Y198383D01*
X204189Y199449D01*
Y200552D01*
X203904Y201617D01*
X203352Y202572D01*
X202572Y203352D01*
X201617Y203904D01*
X200552Y204189D01*
D02*
G37*
G36*
X190551D02*
X189448D01*
X188383Y203904D01*
X187428Y203352D01*
X186648Y202572D01*
X186097Y201617D01*
X185811Y200552D01*
Y199449D01*
X186097Y198383D01*
X186648Y197428D01*
X187428Y196648D01*
X188383Y196097D01*
X189448Y195811D01*
X190551D01*
X191617Y196097D01*
X192572Y196648D01*
X193352Y197428D01*
X193904Y198383D01*
X194189Y199449D01*
Y200552D01*
X193904Y201617D01*
X193352Y202572D01*
X192572Y203352D01*
X191617Y203904D01*
X190551Y204189D01*
D02*
G37*
G36*
X33878Y203457D02*
Y195500D01*
X38358D01*
Y198543D01*
X38188Y199832D01*
X37690Y201033D01*
X36899Y202064D01*
X35868Y202856D01*
X34667Y203353D01*
X33878Y203457D01*
D02*
G37*
G36*
X32878D02*
X32089Y203353D01*
X30888Y202856D01*
X29857Y202064D01*
X29065Y201033D01*
X28568Y199832D01*
X28398Y198543D01*
Y195500D01*
X32878D01*
Y203457D01*
D02*
G37*
G36*
X38358Y194500D02*
X33878D01*
Y186543D01*
X34667Y186647D01*
X35868Y187144D01*
X36899Y187936D01*
X37690Y188967D01*
X38188Y190168D01*
X38358Y191457D01*
Y194500D01*
D02*
G37*
G36*
X32878D02*
X28398D01*
Y191457D01*
X28568Y190168D01*
X29065Y188967D01*
X29857Y187936D01*
X30888Y187144D01*
X32089Y186647D01*
X32878Y186543D01*
Y194500D01*
D02*
G37*
G36*
X57000Y203523D02*
X55711Y203353D01*
X54510Y202856D01*
X53479Y202064D01*
X52688Y201033D01*
X52190Y199832D01*
X52020Y198543D01*
Y191457D01*
X52190Y190168D01*
X52688Y188967D01*
X53479Y187936D01*
X54510Y187144D01*
X55711Y186647D01*
X57000Y186477D01*
X58289Y186647D01*
X59490Y187144D01*
X60521Y187936D01*
X61313Y188967D01*
X61810Y190168D01*
X61980Y191457D01*
Y198543D01*
X61810Y199832D01*
X61313Y201033D01*
X60521Y202064D01*
X59490Y202856D01*
X58289Y203353D01*
X57000Y203523D01*
D02*
G37*
G36*
X50110Y181275D02*
X47657D01*
Y177193D01*
X54627D01*
X54537Y177879D01*
X54079Y178984D01*
X53351Y179933D01*
X52402Y180661D01*
X51296Y181119D01*
X50110Y181275D01*
D02*
G37*
G36*
X46657D02*
X44205D01*
X43019Y181119D01*
X41914Y180661D01*
X40964Y179933D01*
X40236Y178984D01*
X39778Y177879D01*
X39688Y177193D01*
X46657D01*
Y181275D01*
D02*
G37*
G36*
X54627Y176193D02*
X47657D01*
Y172110D01*
X50110D01*
X51296Y172267D01*
X52402Y172724D01*
X53351Y173453D01*
X54079Y174402D01*
X54537Y175507D01*
X54627Y176193D01*
D02*
G37*
G36*
X46657D02*
X39688D01*
X39778Y175507D01*
X40236Y174402D01*
X40964Y173453D01*
X41914Y172724D01*
X43019Y172267D01*
X44205Y172110D01*
X46657D01*
Y176193D01*
D02*
G37*
G36*
X203592Y157500D02*
X202408D01*
X201263Y157193D01*
X200237Y156601D01*
X199399Y155763D01*
X198807Y154737D01*
X198500Y153592D01*
Y152408D01*
X198807Y151263D01*
X199399Y150237D01*
X200237Y149399D01*
X201263Y148807D01*
X202408Y148500D01*
X203592D01*
X204737Y148807D01*
X205763Y149399D01*
X206601Y150237D01*
X207193Y151263D01*
X207500Y152408D01*
Y153592D01*
X207193Y154737D01*
X206601Y155763D01*
X205763Y156601D01*
X204737Y157193D01*
X203592Y157500D01*
D02*
G37*
G36*
X249448Y155250D02*
X248552D01*
X247726Y154908D01*
X247093Y154274D01*
X246750Y153448D01*
Y152624D01*
X242375Y148250D01*
X241552D01*
X240725Y147907D01*
X240092Y147274D01*
X239750Y146448D01*
Y145552D01*
X240092Y144726D01*
X240725Y144093D01*
X241552Y143750D01*
X242448D01*
X243274Y144093D01*
X243907Y144726D01*
X244250Y145552D01*
Y146376D01*
X248624Y150750D01*
X249448D01*
X250274Y151093D01*
X250907Y151725D01*
X251250Y152552D01*
Y153448D01*
X250907Y154274D01*
X250274Y154908D01*
X249448Y155250D01*
D02*
G37*
G36*
X125592Y152000D02*
X124408D01*
X123263Y151693D01*
X122237Y151101D01*
X121399Y150263D01*
X120807Y149237D01*
X120500Y148092D01*
Y146908D01*
X120807Y145763D01*
X121399Y144737D01*
X122237Y143899D01*
X123263Y143307D01*
X124408Y143000D01*
X125592D01*
X126737Y143307D01*
X127763Y143899D01*
X128601Y144737D01*
X129193Y145763D01*
X129500Y146908D01*
Y148092D01*
X129193Y149237D01*
X128601Y150263D01*
X127763Y151101D01*
X126737Y151693D01*
X125592Y152000D01*
D02*
G37*
G36*
X56092D02*
X54908D01*
X53763Y151693D01*
X52737Y151101D01*
X51899Y150263D01*
X51307Y149237D01*
X51000Y148092D01*
Y146908D01*
X51307Y145763D01*
X51899Y144737D01*
X52737Y143899D01*
X53763Y143307D01*
X54908Y143000D01*
X56092D01*
X57237Y143307D01*
X58263Y143899D01*
X59101Y144737D01*
X59693Y145763D01*
X60000Y146908D01*
Y148092D01*
X59693Y149237D01*
X59101Y150263D01*
X58263Y151101D01*
X57237Y151693D01*
X56092Y152000D01*
D02*
G37*
G36*
X241551Y123189D02*
X240448D01*
X239383Y122904D01*
X238428Y122352D01*
X237648Y121572D01*
X237097Y120617D01*
X236811Y119552D01*
Y118448D01*
X237097Y117383D01*
X237648Y116428D01*
X238428Y115648D01*
X239383Y115096D01*
X240448Y114811D01*
X241551D01*
X242617Y115096D01*
X243572Y115648D01*
X244352Y116428D01*
X244903Y117383D01*
X245189Y118448D01*
Y119552D01*
X244903Y120617D01*
X244352Y121572D01*
X243572Y122352D01*
X242617Y122904D01*
X241551Y123189D01*
D02*
G37*
G36*
X231552D02*
X230449D01*
X229383Y122904D01*
X228428Y122352D01*
X227648Y121572D01*
X227097Y120617D01*
X226811Y119552D01*
Y118448D01*
X227097Y117383D01*
X227648Y116428D01*
X228428Y115648D01*
X229383Y115096D01*
X230449Y114811D01*
X231552D01*
X232617Y115096D01*
X233572Y115648D01*
X234352Y116428D01*
X234904Y117383D01*
X235189Y118448D01*
Y119552D01*
X234904Y120617D01*
X234352Y121572D01*
X233572Y122352D01*
X232617Y122904D01*
X231552Y123189D01*
D02*
G37*
G36*
X193592Y122500D02*
X192408D01*
X191263Y122193D01*
X190237Y121601D01*
X189399Y120763D01*
X188807Y119737D01*
X188500Y118592D01*
Y117408D01*
X188807Y116263D01*
X189399Y115237D01*
X190237Y114399D01*
X191263Y113807D01*
X192408Y113500D01*
X193592D01*
X194737Y113807D01*
X195763Y114399D01*
X196601Y115237D01*
X197193Y116263D01*
X197500Y117408D01*
Y118592D01*
X197193Y119737D01*
X196601Y120763D01*
X195763Y121601D01*
X194737Y122193D01*
X193592Y122500D01*
D02*
G37*
G36*
X240448Y108250D02*
X239552D01*
X238725Y107907D01*
X238092Y107274D01*
X237750Y106448D01*
Y105552D01*
X238092Y104726D01*
X238674Y104144D01*
Y96856D01*
X238092Y96275D01*
X237750Y95448D01*
Y94552D01*
X238092Y93726D01*
X238725Y93093D01*
X239552Y92750D01*
X240448D01*
X241274Y93093D01*
X241908Y93726D01*
X242250Y94552D01*
Y95448D01*
X241908Y96275D01*
X241325Y96856D01*
Y104144D01*
X241908Y104726D01*
X242250Y105552D01*
Y106448D01*
X241908Y107274D01*
X241274Y107907D01*
X240448Y108250D01*
D02*
G37*
G36*
X298552Y71189D02*
X297448D01*
X296383Y70903D01*
X295428Y70352D01*
X294648Y69572D01*
X294096Y68617D01*
X293811Y67551D01*
Y66448D01*
X294096Y65383D01*
X294648Y64428D01*
X295428Y63648D01*
X296383Y63096D01*
X297448Y62811D01*
X298552D01*
X299617Y63096D01*
X300572Y63648D01*
X301352Y64428D01*
X301904Y65383D01*
X302189Y66448D01*
Y67551D01*
X301904Y68617D01*
X301352Y69572D01*
X300572Y70352D01*
X299617Y70903D01*
X298552Y71189D01*
D02*
G37*
G36*
X288551D02*
X287449D01*
X286383Y70903D01*
X285428Y70352D01*
X284648Y69572D01*
X284097Y68617D01*
X283811Y67551D01*
Y66448D01*
X284097Y65383D01*
X284648Y64428D01*
X285428Y63648D01*
X286383Y63096D01*
X287449Y62811D01*
X288551D01*
X289617Y63096D01*
X290572Y63648D01*
X291352Y64428D01*
X291903Y65383D01*
X292189Y66448D01*
Y67551D01*
X291903Y68617D01*
X291352Y69572D01*
X290572Y70352D01*
X289617Y70903D01*
X288551Y71189D01*
D02*
G37*
G36*
X193592Y68500D02*
X192408D01*
X191263Y68193D01*
X190237Y67601D01*
X189399Y66763D01*
X188807Y65737D01*
X188500Y64592D01*
Y63408D01*
X188807Y62263D01*
X189399Y61237D01*
X190237Y60399D01*
X191263Y59807D01*
X192408Y59500D01*
X193592D01*
X194737Y59807D01*
X195763Y60399D01*
X196601Y61237D01*
X197193Y62263D01*
X197500Y63408D01*
Y64592D01*
X197193Y65737D01*
X196601Y66763D01*
X195763Y67601D01*
X194737Y68193D01*
X193592Y68500D01*
D02*
G37*
G36*
X218592Y52500D02*
X217408D01*
X216263Y52193D01*
X215237Y51601D01*
X214399Y50763D01*
X213807Y49737D01*
X213500Y48592D01*
Y47408D01*
X213807Y46263D01*
X214399Y45237D01*
X215237Y44399D01*
X216263Y43807D01*
X217408Y43500D01*
X218592D01*
X219737Y43807D01*
X220763Y44399D01*
X221601Y45237D01*
X222193Y46263D01*
X222500Y47408D01*
Y48592D01*
X222193Y49737D01*
X221601Y50763D01*
X220763Y51601D01*
X219737Y52193D01*
X218592Y52500D01*
D02*
G37*
G36*
X277592Y27500D02*
X276408D01*
X275263Y27193D01*
X274237Y26601D01*
X273399Y25763D01*
X272807Y24737D01*
X272500Y23592D01*
Y22408D01*
X272807Y21263D01*
X273399Y20237D01*
X274237Y19399D01*
X275263Y18807D01*
X276408Y18500D01*
X277592D01*
X278737Y18807D01*
X279763Y19399D01*
X280601Y20237D01*
X281193Y21263D01*
X281500Y22408D01*
Y23592D01*
X281193Y24737D01*
X280601Y25763D01*
X279763Y26601D01*
X278737Y27193D01*
X277592Y27500D01*
D02*
G37*
G36*
X219592D02*
X218408D01*
X217263Y27193D01*
X216237Y26601D01*
X215399Y25763D01*
X214807Y24737D01*
X214500Y23592D01*
Y22408D01*
X214807Y21263D01*
X215399Y20237D01*
X216237Y19399D01*
X217263Y18807D01*
X218408Y18500D01*
X219592D01*
X220737Y18807D01*
X221763Y19399D01*
X222601Y20237D01*
X223193Y21263D01*
X223500Y22408D01*
Y23592D01*
X223193Y24737D01*
X222601Y25763D01*
X221763Y26601D01*
X220737Y27193D01*
X219592Y27500D01*
D02*
G37*
%LPD*%
D10*
X240000Y95000D02*
Y106000D01*
X242000Y146000D02*
X249000Y153000D01*
D41*
X16000Y88000D02*
D03*
Y98000D02*
D03*
Y68000D02*
D03*
Y78000D02*
D03*
X287000Y23000D02*
D03*
X277000D02*
D03*
X307000D02*
D03*
X297000D02*
D03*
X228000Y48000D02*
D03*
X218000D02*
D03*
X248000D02*
D03*
X238000D02*
D03*
X193000Y153000D02*
D03*
X203000D02*
D03*
X173000D02*
D03*
X183000D02*
D03*
X115000Y147500D02*
D03*
X125000D02*
D03*
X95000D02*
D03*
X105000D02*
D03*
X45500D02*
D03*
X55500D02*
D03*
X25500D02*
D03*
X35500D02*
D03*
X16000Y34000D02*
D03*
Y44000D02*
D03*
Y14000D02*
D03*
Y24000D02*
D03*
X193000Y108000D02*
D03*
Y118000D02*
D03*
Y88000D02*
D03*
Y98000D02*
D03*
X56000Y16000D02*
D03*
X46000D02*
D03*
X76000D02*
D03*
X66000D02*
D03*
X193000Y54000D02*
D03*
Y64000D02*
D03*
Y34000D02*
D03*
Y44000D02*
D03*
X229000Y23000D02*
D03*
X219000D02*
D03*
X249000D02*
D03*
X239000D02*
D03*
D42*
X200000Y200000D02*
D03*
X190000D02*
D03*
X145000Y119000D02*
D03*
X135000D02*
D03*
X231000D02*
D03*
X241000D02*
D03*
X298000Y67000D02*
D03*
X288000D02*
D03*
D43*
X47157Y176693D02*
D03*
D44*
X33378Y195000D02*
D03*
X57000D02*
D03*
D45*
X177000Y6000D02*
D03*
X240000Y95000D02*
D03*
Y106000D02*
D03*
X242000Y146000D02*
D03*
X249000Y153000D02*
D03*
X204000Y182000D02*
D03*
X215000Y70000D02*
D03*
X216000Y90000D02*
D03*
X277000Y100000D02*
D03*
X324000Y68000D02*
D03*
X302000Y80000D02*
D03*
Y90000D02*
D03*
X256000Y189000D02*
D03*
X225000Y149000D02*
D03*
X99000Y172000D02*
D03*
X157000Y160000D02*
D03*
X144000Y187000D02*
D03*
X111000Y169000D02*
D03*
X79000Y182000D02*
D03*
M02*
