M48
;Layer_Color=9474304
;FILE_FORMAT=2:5
INCH,LZ
;TYPE=PLATED
T1F00S00C0.01300
T3F00S00C0.04000
T4F00S00C0.04016
%
T01
X0177Y0006
X0215Y007
X0216Y009
X024Y0095
Y0106
X0242Y0146
X0249Y0153
X0225Y0149
X0256Y0189
X0277Y01
X0302Y009
Y008
X0324Y0068
X0204Y0182
X0144Y0187
X0157Y016
X0111Y0169
X0099Y0172
X0079Y0182
T03
X0016Y0014
Y0024
Y0034
Y0044
X0046Y0016
X0056
X0066
X0076
X0193Y0034
Y0044
Y0054
X0218Y0048
X0228
X0238
X0248
X0249Y0023
X0239
X0229
X0219
X0277
X0287
X0297
X0307
X0193Y0064
Y0088
Y0098
Y0108
Y0118
Y0153
X0203
X0183
X0173
X0125Y01475
X0115
X0105
X0095
X00555
X00455
X00355
X00255
X0016Y0098
Y0088
Y0078
Y0068
T04
X0231Y0119
X0241
X0288Y0067
X0298
X0145Y0119
X0135
X019Y02
X02
M30
