G04*
G04 #@! TF.GenerationSoftware,Altium Limited,Altium Designer,22.3.1 (43)*
G04*
G04 Layer_Physical_Order=1*
G04 Layer_Color=255*
%FSLAX25Y25*%
%MOIN*%
G70*
G04*
G04 #@! TF.SameCoordinates,7998B177-6A3A-43FF-968B-635B49023C71*
G04*
G04*
G04 #@! TF.FilePolarity,Positive*
G04*
G01*
G75*
%ADD10C,0.00600*%
%ADD14C,0.01500*%
%ADD15R,0.06200X0.04750*%
G04:AMPARAMS|DCode=16|XSize=48.82mil|YSize=23.23mil|CornerRadius=5.81mil|HoleSize=0mil|Usage=FLASHONLY|Rotation=90.000|XOffset=0mil|YOffset=0mil|HoleType=Round|Shape=RoundedRectangle|*
%AMROUNDEDRECTD16*
21,1,0.04882,0.01161,0,0,90.0*
21,1,0.03720,0.02323,0,0,90.0*
1,1,0.01161,0.00581,0.01860*
1,1,0.01161,0.00581,-0.01860*
1,1,0.01161,-0.00581,-0.01860*
1,1,0.01161,-0.00581,0.01860*
%
%ADD16ROUNDEDRECTD16*%
%ADD17R,0.04400X0.07100*%
%ADD18R,0.03150X0.03150*%
%ADD19R,0.05906X0.04724*%
%ADD20R,0.07100X0.04400*%
%ADD21R,0.06300X0.05500*%
%ADD22R,0.05500X0.06300*%
G04:AMPARAMS|DCode=23|XSize=57.87mil|YSize=11.02mil|CornerRadius=1.38mil|HoleSize=0mil|Usage=FLASHONLY|Rotation=0.000|XOffset=0mil|YOffset=0mil|HoleType=Round|Shape=RoundedRectangle|*
%AMROUNDEDRECTD23*
21,1,0.05787,0.00827,0,0,0.0*
21,1,0.05512,0.01102,0,0,0.0*
1,1,0.00276,0.02756,-0.00413*
1,1,0.00276,-0.02756,-0.00413*
1,1,0.00276,-0.02756,0.00413*
1,1,0.00276,0.02756,0.00413*
%
%ADD23ROUNDEDRECTD23*%
G04:AMPARAMS|DCode=24|XSize=63.39mil|YSize=23.23mil|CornerRadius=2.9mil|HoleSize=0mil|Usage=FLASHONLY|Rotation=0.000|XOffset=0mil|YOffset=0mil|HoleType=Round|Shape=RoundedRectangle|*
%AMROUNDEDRECTD24*
21,1,0.06339,0.01742,0,0,0.0*
21,1,0.05758,0.02323,0,0,0.0*
1,1,0.00581,0.02879,-0.00871*
1,1,0.00581,-0.02879,-0.00871*
1,1,0.00581,-0.02879,0.00871*
1,1,0.00581,0.02879,0.00871*
%
%ADD24ROUNDEDRECTD24*%
%ADD44C,0.02000*%
%ADD45C,0.06000*%
%ADD46C,0.07000*%
%ADD47R,0.05504X0.05504*%
%ADD48C,0.05504*%
%ADD49C,0.05543*%
%ADD50C,0.06496*%
%ADD51C,0.03543*%
%ADD52R,0.05504X0.05504*%
%ADD53C,0.02500*%
D10*
X189364Y209913D02*
Y210715D01*
X189500Y210852D01*
Y251648D01*
X189000Y209550D02*
X189364Y209913D01*
X151900Y163700D02*
X152100Y163500D01*
X163500D01*
X42500Y320000D02*
X51535D01*
X58000Y265500D02*
X60607Y262893D01*
Y228244D02*
X62852Y226000D01*
X60607Y228244D02*
Y262893D01*
X62852Y226000D02*
X148500D01*
X150000Y224500D01*
Y220000D02*
Y224500D01*
X64737Y220000D02*
X138200D01*
X43500Y241237D02*
X64737Y220000D01*
X43500Y241237D02*
Y256500D01*
X55000Y276000D02*
Y287000D01*
Y276000D02*
X58000Y273000D01*
X46630Y295370D02*
Y313500D01*
Y295370D02*
X50500Y291500D01*
X43440Y280326D02*
X68465Y305350D01*
Y316063D01*
X49193D02*
X51535D01*
X46630Y313500D02*
X49193Y316063D01*
X40000Y273253D02*
Y282554D01*
X45000Y287554D02*
Y314730D01*
X40014Y269486D02*
Y273239D01*
X40000Y282554D02*
X45000Y287554D01*
X40000Y273253D02*
X40014Y273239D01*
X43440Y279047D02*
Y280326D01*
X40014Y269486D02*
X43500Y266000D01*
Y263550D02*
Y266000D01*
X45000Y314730D02*
X48184Y317914D01*
X51418D02*
X51535Y318032D01*
X48184Y317914D02*
X51418D01*
X16019Y344300D02*
X114200D01*
X126000Y332500D01*
X129000Y279351D02*
Y335000D01*
X5000Y333281D02*
X16019Y344300D01*
X129000Y335000D02*
X134000Y340000D01*
X128648Y279000D02*
X129000Y279351D01*
X133100Y331900D02*
X142100D01*
X133000Y332000D02*
X133100Y331900D01*
X142100D02*
X142200Y331800D01*
X5000Y95500D02*
Y333281D01*
Y95500D02*
X10500Y90000D01*
X50000D01*
X81100Y330400D02*
X83500Y328000D01*
X81100Y330400D02*
Y334800D01*
X80900Y335000D02*
X81100Y334800D01*
X100312Y279000D02*
X128648D01*
X126200Y172800D02*
X136300D01*
X136500Y173000D01*
X122900Y176100D02*
X126200Y172800D01*
X206107Y157744D02*
Y185392D01*
X189000Y202500D02*
X206107Y185392D01*
Y157744D02*
X222851Y141000D01*
X282800Y206900D02*
Y263600D01*
X281100Y265300D02*
X282800Y263600D01*
X281900Y206000D02*
X282800Y206900D01*
X240000Y206000D02*
X281900D01*
X215900D02*
X240000D01*
X248500Y78457D02*
Y139500D01*
X239912Y69868D02*
X248500Y78457D01*
X247000Y141000D02*
X248500Y139500D01*
X222851Y141000D02*
X247000D01*
X209498Y136000D02*
X240000D01*
X208992Y135494D02*
X209498Y136000D01*
X188175Y252000D02*
X189148D01*
X189500Y251648D01*
X183600Y255850D02*
X184325D01*
X188175Y252000D01*
X177500Y275500D02*
X194278Y258722D01*
X208722Y315278D02*
X259500Y264500D01*
X208722Y259074D02*
Y315278D01*
X207740Y316260D02*
X208722Y315278D01*
X194278Y258722D02*
X208371D01*
X208722Y259074D01*
X99500Y275500D02*
X177500D01*
X91500Y287811D02*
Y323000D01*
Y287811D02*
X100312Y279000D01*
X88500Y286500D02*
Y321000D01*
Y286500D02*
X99500Y275500D01*
X68465Y321969D02*
X87532D01*
X88500Y321000D01*
X188000Y320000D02*
X209700D01*
X174508D02*
X188000D01*
X187000Y340000D02*
X188000Y339000D01*
Y320000D02*
Y339000D01*
X134000Y340000D02*
X187000D01*
X68465Y323937D02*
X90563D01*
X91500Y323000D01*
X266500Y267500D02*
X271085D01*
X273285Y265300D02*
X274400D01*
X271085Y267500D02*
X273285Y265300D01*
X174508Y316260D02*
X207740D01*
X209700Y320000D02*
X274400Y255300D01*
X152825Y255850D02*
X154900Y253775D01*
X152100Y255850D02*
X152825D01*
X154900Y251925D02*
Y253775D01*
Y251925D02*
X163675Y243150D01*
X164400D01*
X121325Y255850D02*
X123400Y253775D01*
Y251925D02*
Y253775D01*
Y251925D02*
X132175Y243150D01*
X120600Y255850D02*
X121325D01*
X132175Y243150D02*
X132900D01*
X89925Y255750D02*
X92000Y253675D01*
Y251825D02*
Y253675D01*
Y251825D02*
X100675Y243150D01*
X89200Y255750D02*
X89925D01*
X100675Y243150D02*
X101400D01*
X183500Y243050D02*
X183600Y243150D01*
X183500Y235000D02*
Y243050D01*
X152100Y243150D02*
X152500Y242750D01*
Y236000D02*
Y242750D01*
X120000Y234500D02*
Y242450D01*
X120550Y243000D01*
X89000Y234500D02*
Y242850D01*
X89200Y243050D01*
X149700Y243350D02*
X149800Y243250D01*
X195700Y282100D02*
Y302000D01*
Y282100D02*
X196300Y281500D01*
X165400Y282200D02*
Y290000D01*
X165600Y290200D01*
X155424Y331800D02*
X163484Y323740D01*
X165492D01*
X142200Y331800D02*
X155424D01*
X174538Y323770D02*
X182470D01*
X174508Y323740D02*
X174538Y323770D01*
X182470D02*
X182500Y323800D01*
X155500Y319900D02*
X165392D01*
X165492Y320000D01*
X155400Y319800D02*
X155500Y319900D01*
X132700Y178300D02*
Y184000D01*
X150000Y220000D02*
X150200Y219800D01*
X16800Y215300D02*
Y225200D01*
Y215300D02*
X16900Y215200D01*
X23600Y250800D02*
Y259900D01*
X24000Y260300D01*
X39650Y287405D02*
X39700Y287355D01*
X39650Y287405D02*
Y295950D01*
X39600Y296000D02*
X39650Y295950D01*
X42500Y324000D02*
X42531Y323969D01*
X51504D02*
X51535Y323937D01*
X42531Y323969D02*
X51504D01*
X111800Y286900D02*
X111900Y287000D01*
X120600D01*
X196300Y262600D02*
Y269700D01*
X171900Y183650D02*
X172000Y183750D01*
X171900Y174400D02*
Y183650D01*
X220800Y111100D02*
Y120000D01*
X221000Y120200D01*
X143625Y175300D02*
X152075Y183750D01*
X143500Y175300D02*
X143625D01*
X152075Y183750D02*
X152800D01*
X123251Y196700D02*
X132700D01*
X122900Y196349D02*
X123251Y196700D01*
X122900Y176100D02*
Y196349D01*
X145905Y190000D02*
Y196695D01*
X138200Y204400D02*
X145905Y196695D01*
X138200Y204400D02*
Y220000D01*
X182900Y172000D02*
X183000Y172100D01*
Y196098D01*
X172000Y196450D02*
X182649D01*
X183000Y196098D01*
X182900Y160200D02*
X195748D01*
X196100Y159848D01*
Y125712D02*
Y159848D01*
Y125712D02*
X217612Y104200D01*
X231248D02*
X231600Y104551D01*
Y114400D01*
X217612Y104200D02*
X231248D01*
X206909Y104600D02*
X211641Y99869D01*
X184770Y104600D02*
X206909D01*
X211641Y99869D02*
X239912D01*
X167719Y87550D02*
X184770Y104600D01*
X233200Y116000D02*
X246048D01*
X231600Y114400D02*
X233200Y116000D01*
X246048D02*
X246400Y115648D01*
Y86357D02*
Y115648D01*
X239912Y79869D02*
X246400Y86357D01*
X215700Y222900D02*
X233100D01*
X240000Y216000D01*
X215600Y206300D02*
X215900Y206000D01*
X268100Y255300D02*
X274400D01*
X267300Y254500D02*
X268100Y255300D01*
X267300Y218000D02*
Y254500D01*
X265300Y216000D02*
X267300Y218000D01*
X240000Y216000D02*
X265300D01*
X274400Y265300D02*
X281100D01*
X275000Y157400D02*
X280700D01*
X274400Y156800D02*
X275000Y157400D01*
X280700D02*
X281100Y157800D01*
Y179500D01*
X245100Y181100D02*
X279500D01*
X240000Y176000D02*
X245100Y181100D01*
X279500D02*
X281100Y179500D01*
X247737Y166000D02*
X258537Y176800D01*
X274400D01*
X240000Y166000D02*
X247737D01*
X240000Y156000D02*
X250800Y166800D01*
X274400D01*
X240400Y146400D02*
X274000D01*
X274400Y146800D01*
X240000Y146000D02*
X240400Y146400D01*
X208992Y135494D02*
X209200Y135287D01*
Y120200D02*
Y135287D01*
X68396Y318100D02*
X68465Y318032D01*
X61847Y318100D02*
X68396D01*
X59800Y320147D02*
Y326849D01*
X63200Y320000D02*
X68465D01*
X58249Y328400D02*
X59800Y326849D01*
X21200Y328400D02*
X58249D01*
X59800Y320147D02*
X61847Y318100D01*
X62800Y320400D02*
X63200Y320000D01*
X14500Y321700D02*
X21200Y328400D01*
X99700Y287200D02*
Y307700D01*
Y287200D02*
X100000Y286900D01*
X187000Y103000D02*
X191732Y98269D01*
X233774D01*
X236474Y95569D02*
X241693D01*
X233774Y98269D02*
X236474Y95569D01*
X241693D02*
X244212Y98087D01*
Y101650D01*
X239912Y105950D02*
X244212Y101650D01*
X239912Y105950D02*
Y109869D01*
X172621Y90189D02*
X185432Y103000D01*
X172621Y50121D02*
Y90189D01*
X161500Y39000D02*
X172621Y50121D01*
X185432Y103000D02*
X187000D01*
X167719Y55219D02*
Y87550D01*
X184491Y96300D02*
X233480D01*
X151500Y39000D02*
X167719Y55219D01*
X233480Y96300D02*
X239912Y89868D01*
X214568Y59869D02*
X239912D01*
X206300Y51600D02*
X214568Y59869D01*
X50000Y70000D02*
X50300Y69700D01*
X93900D01*
X94200Y69400D01*
X270000Y50000D02*
X276700Y56700D01*
Y64349D01*
X266452Y64700D02*
X276348D01*
X276700Y64349D01*
X239912Y49869D02*
X251621D01*
X266452Y64700D01*
X239912Y39869D02*
X249868D01*
X270000Y60000D01*
X34100Y57600D02*
Y64100D01*
X50000Y80000D01*
X22300Y57600D02*
X22400Y57500D01*
Y33700D02*
Y57500D01*
X21856Y58044D02*
Y82872D01*
Y58044D02*
X22300Y57600D01*
X22400Y21900D02*
X37900D01*
D14*
X38100Y21700D01*
D15*
X172000Y196450D02*
D03*
X152800D02*
D03*
X172000Y183750D02*
D03*
X152800D02*
D03*
X132700Y196700D02*
D03*
X113500D02*
D03*
X132700Y184000D02*
D03*
X113500D02*
D03*
X183600Y255850D02*
D03*
X164400D02*
D03*
X183600Y243150D02*
D03*
X164400D02*
D03*
X152100Y255850D02*
D03*
X132900D02*
D03*
X152100Y243150D02*
D03*
X132900D02*
D03*
X120600Y255850D02*
D03*
X101400D02*
D03*
X120600Y243150D02*
D03*
X101400D02*
D03*
X89200Y255750D02*
D03*
X70000D02*
D03*
X89200Y243050D02*
D03*
X70000D02*
D03*
D16*
X39700Y287355D02*
D03*
X43440Y279047D02*
D03*
X35960D02*
D03*
D17*
X150000Y220000D02*
D03*
X138200D02*
D03*
X24000Y260300D02*
D03*
X35800D02*
D03*
X140100Y163700D02*
D03*
X151900D02*
D03*
X80900Y335000D02*
D03*
X69100D02*
D03*
X215600Y206300D02*
D03*
X203800D02*
D03*
X221000Y120200D02*
D03*
X209200D02*
D03*
X38100Y21700D02*
D03*
X49900D02*
D03*
X100000Y286900D02*
D03*
X111800D02*
D03*
X34100Y57600D02*
D03*
X22300D02*
D03*
X203900Y222900D02*
D03*
X215700D02*
D03*
D18*
X145905Y190000D02*
D03*
X140000D02*
D03*
D19*
X183008Y135494D02*
D03*
X208992Y147306D02*
D03*
Y135494D02*
D03*
X183008Y147306D02*
D03*
D20*
X16900Y215200D02*
D03*
Y203400D02*
D03*
X196300Y281500D02*
D03*
Y269700D02*
D03*
X165600Y302000D02*
D03*
Y290200D02*
D03*
X182900Y172000D02*
D03*
Y160200D02*
D03*
X22400Y21900D02*
D03*
Y33700D02*
D03*
D21*
X17100Y173300D02*
D03*
Y185100D02*
D03*
X99700Y319500D02*
D03*
Y307700D02*
D03*
D22*
X183900Y302000D02*
D03*
X195700D02*
D03*
D23*
X51535Y323937D02*
D03*
Y321969D02*
D03*
Y320000D02*
D03*
Y318032D02*
D03*
Y316063D02*
D03*
X68465D02*
D03*
Y318032D02*
D03*
Y320000D02*
D03*
Y321969D02*
D03*
Y323937D02*
D03*
D24*
X165492Y323740D02*
D03*
Y320000D02*
D03*
Y316260D02*
D03*
X174508D02*
D03*
Y320000D02*
D03*
Y323740D02*
D03*
D44*
X64650Y335000D02*
X69100D01*
X8800Y333828D02*
X9972Y335000D01*
X8800Y307400D02*
Y333828D01*
X9972Y335000D02*
X64650D01*
X62100Y332450D02*
X64650Y335000D01*
X69100Y336350D02*
Y340861D01*
Y335000D02*
Y336350D01*
Y340861D02*
X70239Y342000D01*
X99500Y319700D02*
Y340828D01*
X70239Y342000D02*
X98328D01*
X99500Y340828D01*
X95500Y270000D02*
X130828D01*
X132500Y291000D02*
X153250D01*
X164250Y302000D01*
X100100Y319500D02*
X126450Y293150D01*
X164250Y302000D02*
X165600D01*
X99700Y319500D02*
X100100D01*
X274400Y275300D02*
X282528D01*
X287000Y199400D02*
Y270828D01*
X282528Y275300D02*
X287000Y270828D01*
X274400Y186800D02*
X287000Y199400D01*
X173275Y264000D02*
X183753D01*
X203850Y243903D01*
X165125Y255850D02*
X173275Y264000D01*
X203850Y206350D02*
Y243903D01*
X164400Y255850D02*
X165125D01*
X107000Y140000D02*
Y190200D01*
X112775Y196700D02*
X113500D01*
X111400Y195325D02*
X112775Y196700D01*
X111400Y194600D02*
Y195325D01*
X107000Y190200D02*
X111400Y194600D01*
X163375Y206300D02*
X203800D01*
X152800Y196450D02*
X153525D01*
X163375Y206300D01*
X203800D02*
X203850Y206350D01*
X107000Y140000D02*
X117750D01*
X50000D02*
X107000D01*
Y52200D02*
Y140000D01*
X94200Y39400D02*
X107000Y52200D01*
X140050Y162300D02*
Y189950D01*
X140100Y162350D02*
X141300Y161150D01*
X142650D01*
X156494Y147306D01*
X140100Y162350D02*
Y163700D01*
X156494Y147306D02*
X183008D01*
X117750Y140000D02*
X140050Y162300D01*
X69828Y269000D02*
X70000Y268828D01*
X55500Y269000D02*
X69828D01*
X35800Y260300D02*
X46800D01*
X55500Y269000D01*
X163228Y270000D02*
X164400Y268828D01*
X130828Y270000D02*
X163228D01*
X164400Y255850D02*
Y268828D01*
X130828Y270000D02*
X132000Y268828D01*
Y256750D02*
Y268828D01*
Y256750D02*
X132900Y255850D01*
X101400D02*
Y264100D01*
X95500Y270000D02*
X96497Y269003D01*
X101400Y264100D01*
X71172Y270000D02*
X95500D01*
X70000Y268828D02*
X71172Y270000D01*
X70000Y255750D02*
Y268828D01*
X17100Y173300D02*
X17500D01*
X35800Y191600D01*
Y260300D01*
X35880Y260380D02*
Y278966D01*
X165492Y302108D02*
X165600Y302000D01*
X165492Y302108D02*
Y316260D01*
X165600Y302000D02*
X183900D01*
X140000Y190000D02*
X140050Y189950D01*
X284028Y186800D02*
X285900Y184928D01*
Y95900D02*
Y184928D01*
X274400Y186800D02*
X284028D01*
X270000Y80000D02*
X285900Y95900D01*
X62100Y321100D02*
X62800Y320400D01*
X62100Y321100D02*
Y332450D01*
X8800Y307400D02*
X14500Y301700D01*
X99500Y319700D02*
X99700Y319500D01*
X35960Y279047D02*
Y280326D01*
X14500Y301700D02*
X14586D01*
X35960Y280326D01*
X35800Y260300D02*
X35880Y260380D01*
Y278966D02*
X35960Y279047D01*
X216200Y31572D02*
X278528D01*
X279700Y32743D02*
Y70300D01*
X270000Y80000D02*
X279700Y70300D01*
X278528Y31572D02*
X279700Y32743D01*
X216200Y31572D02*
Y31700D01*
X206300Y41600D02*
X216200Y31700D01*
X204828Y31200D02*
X206300Y32672D01*
X149300Y31200D02*
X204828D01*
X206300Y32672D02*
Y41600D01*
X141500Y39000D02*
X149300Y31200D01*
X141300Y39200D02*
X141500Y39000D01*
X94200Y39400D02*
X94400Y39200D01*
X141300D01*
X76500Y21700D02*
X94200Y39400D01*
X49900Y21700D02*
X76500D01*
X16900Y203400D02*
X17100Y203200D01*
Y185100D02*
Y203200D01*
X17000Y147700D02*
X42300D01*
X50000Y140000D01*
X17000Y147700D02*
Y173200D01*
X17100Y173300D01*
D45*
X274400Y146800D02*
D03*
Y156800D02*
D03*
Y166800D02*
D03*
Y176800D02*
D03*
Y186800D02*
D03*
Y196800D02*
D03*
Y285300D02*
D03*
Y275300D02*
D03*
Y265300D02*
D03*
Y255300D02*
D03*
Y245300D02*
D03*
Y235300D02*
D03*
X270000Y90000D02*
D03*
Y80000D02*
D03*
Y70000D02*
D03*
Y60000D02*
D03*
Y50000D02*
D03*
Y40000D02*
D03*
X239912Y39869D02*
D03*
Y49869D02*
D03*
Y59869D02*
D03*
Y69868D02*
D03*
Y79869D02*
D03*
Y89868D02*
D03*
Y99869D02*
D03*
Y109869D02*
D03*
X240000Y216000D02*
D03*
Y206000D02*
D03*
Y196000D02*
D03*
Y186000D02*
D03*
Y176000D02*
D03*
Y166000D02*
D03*
Y156000D02*
D03*
Y146000D02*
D03*
Y136000D02*
D03*
Y126000D02*
D03*
X50000Y40000D02*
D03*
Y50000D02*
D03*
Y60000D02*
D03*
Y70000D02*
D03*
Y80000D02*
D03*
Y90000D02*
D03*
Y110000D02*
D03*
Y120000D02*
D03*
Y130000D02*
D03*
Y140000D02*
D03*
Y150000D02*
D03*
Y160000D02*
D03*
Y170000D02*
D03*
Y180000D02*
D03*
D46*
X142200Y311800D02*
D03*
Y301800D02*
D03*
Y331800D02*
D03*
Y321800D02*
D03*
X17000Y127700D02*
D03*
Y117700D02*
D03*
Y147700D02*
D03*
Y137700D02*
D03*
D47*
X94200Y39400D02*
D03*
D48*
Y49400D02*
D03*
Y59400D02*
D03*
Y69400D02*
D03*
X151500Y39000D02*
D03*
X161500D02*
D03*
X171500D02*
D03*
D49*
X184491Y96300D02*
D03*
X158900D02*
D03*
D50*
X206300Y61600D02*
D03*
Y51600D02*
D03*
Y41600D02*
D03*
X14500Y321700D02*
D03*
Y311700D02*
D03*
Y301700D02*
D03*
D51*
X21856Y82872D02*
D03*
X16344D02*
D03*
D52*
X141500Y39000D02*
D03*
D53*
X163500Y163500D02*
D03*
X42500Y320000D02*
D03*
X58000Y265500D02*
D03*
Y273000D02*
D03*
X55000Y287000D02*
D03*
X50500Y291500D02*
D03*
X43500Y256500D02*
D03*
Y263550D02*
D03*
X126000Y332500D02*
D03*
X133000Y332000D02*
D03*
X83500Y328000D02*
D03*
X132500Y291000D02*
D03*
X126450Y293150D02*
D03*
X136500Y173000D02*
D03*
X189000Y202500D02*
D03*
Y209550D02*
D03*
X266500Y267500D02*
D03*
X259500Y264500D02*
D03*
X183500Y235000D02*
D03*
X152500Y236000D02*
D03*
X120000Y234500D02*
D03*
X89000D02*
D03*
X165400Y282200D02*
D03*
X182500Y323800D02*
D03*
X155400Y319800D02*
D03*
X120600Y287000D02*
D03*
X39600Y296000D02*
D03*
X42500Y324000D02*
D03*
X23600Y250800D02*
D03*
X16800Y225200D02*
D03*
X196300Y262600D02*
D03*
X220800Y111100D02*
D03*
X143500Y175300D02*
D03*
X132700Y178300D02*
D03*
X171900Y174400D02*
D03*
M02*
