M48
;Layer_Color=9474304
;FILE_FORMAT=2:5
INCH,LZ
;TYPE=PLATED
T1F00S00C0.01300
T2F00S00C0.02165
T3F00S00C0.03504
T4F00S00C0.03543
T5F00S00C0.04000
T6F00S00C0.04331
%
T01
X02208Y01111
X01635Y01635
X01719Y01744
X01435Y01753
X01365Y0173
X01327Y01783
X0189Y02025
Y020955
X00168Y02252
X00236Y02508
X00435Y02565
Y026355
X0055Y0287
X00505Y02915
X00396Y0296
X00425Y032
Y0324
X00835Y0328
X0126Y03325
X0133Y0332
X01554Y03198
X01825Y03238
X01654Y02822
X01325Y0291
X012645Y029315
X01206Y0287
X012Y02345
X0089
X0058Y02655
Y0273
X01525Y0236
X01835Y0235
X01963Y02626
X02595Y02645
X02665Y02675
T02
X0016344Y0082872
X0021856
T03
X00942Y00394
Y00494
X01415Y0039
X01515
X01615
X01715
X00942Y00594
Y00694
T04
X01589Y00963
X0184491
T05
X0017Y01177
Y01277
Y01377
Y01477
X01422Y03018
Y03118
Y03218
Y03318
T06
X005Y004
Y005
X02063Y00516
Y00416
X0239912Y0039869
Y0049869
X027Y005
Y004
Y006
Y007
Y008
Y009
X0239912Y0089868
Y0079869
Y0069868
Y0059869
Y0099869
Y0109869
X024Y0126
Y0136
Y0146
Y0156
Y0166
Y0176
Y0186
Y0196
Y0206
X02744Y01968
Y01868
Y01768
Y01668
Y01568
Y01468
X02063Y00616
X005Y006
Y007
Y008
Y009
Y011
Y012
Y013
Y014
Y015
Y016
Y017
Y018
X00145Y03017
Y03117
Y03217
X02744Y02853
Y02753
Y02653
Y02553
Y02453
Y02353
X024Y0216
M30
