G04*
G04 #@! TF.GenerationSoftware,Altium Limited,Altium Designer,22.3.1 (43)*
G04*
G04 Layer_Physical_Order=4*
G04 Layer_Color=16711680*
%FSLAX25Y25*%
%MOIN*%
G70*
G04*
G04 #@! TF.SameCoordinates,7998B177-6A3A-43FF-968B-635B49023C71*
G04*
G04*
G04 #@! TF.FilePolarity,Positive*
G04*
G01*
G75*
%ADD10C,0.00600*%
%ADD44C,0.02000*%
%ADD45C,0.06000*%
%ADD46C,0.07000*%
%ADD47R,0.05504X0.05504*%
%ADD48C,0.05504*%
%ADD49C,0.05543*%
%ADD50C,0.06496*%
%ADD51C,0.03543*%
%ADD52R,0.05504X0.05504*%
%ADD53C,0.02500*%
D10*
X58000Y265500D02*
Y273000D01*
X50500Y291500D02*
X55000Y287000D01*
X43500Y256500D02*
Y263550D01*
X126000Y332500D02*
X126250Y332250D01*
X132750D02*
X133000Y332000D01*
X126250Y332250D02*
X132750D01*
X136500Y173000D02*
X136864Y173363D01*
Y174499D02*
X137665Y175300D01*
X143500D01*
X136864Y173363D02*
Y174499D01*
X189000Y202500D02*
Y209550D01*
X259500Y264500D02*
X263500D01*
X266500Y267500D01*
D44*
X126450Y293150D02*
X126546Y293054D01*
X130310D02*
X132365Y291000D01*
X126546Y293054D02*
X130310D01*
X132365Y291000D02*
X132500D01*
D45*
X274400Y146800D02*
D03*
Y156800D02*
D03*
Y166800D02*
D03*
Y176800D02*
D03*
Y186800D02*
D03*
Y196800D02*
D03*
Y285300D02*
D03*
Y275300D02*
D03*
Y265300D02*
D03*
Y255300D02*
D03*
Y245300D02*
D03*
Y235300D02*
D03*
X270000Y90000D02*
D03*
Y80000D02*
D03*
Y70000D02*
D03*
Y60000D02*
D03*
Y50000D02*
D03*
Y40000D02*
D03*
X239912Y39869D02*
D03*
Y49869D02*
D03*
Y59869D02*
D03*
Y69868D02*
D03*
Y79869D02*
D03*
Y89868D02*
D03*
Y99869D02*
D03*
Y109869D02*
D03*
X240000Y216000D02*
D03*
Y206000D02*
D03*
Y196000D02*
D03*
Y186000D02*
D03*
Y176000D02*
D03*
Y166000D02*
D03*
Y156000D02*
D03*
Y146000D02*
D03*
Y136000D02*
D03*
Y126000D02*
D03*
X50000Y40000D02*
D03*
Y50000D02*
D03*
Y60000D02*
D03*
Y70000D02*
D03*
Y80000D02*
D03*
Y90000D02*
D03*
Y110000D02*
D03*
Y120000D02*
D03*
Y130000D02*
D03*
Y140000D02*
D03*
Y150000D02*
D03*
Y160000D02*
D03*
Y170000D02*
D03*
Y180000D02*
D03*
D46*
X142200Y311800D02*
D03*
Y301800D02*
D03*
Y331800D02*
D03*
Y321800D02*
D03*
X17000Y127700D02*
D03*
Y117700D02*
D03*
Y147700D02*
D03*
Y137700D02*
D03*
D47*
X94200Y39400D02*
D03*
D48*
Y49400D02*
D03*
Y59400D02*
D03*
Y69400D02*
D03*
X151500Y39000D02*
D03*
X161500D02*
D03*
X171500D02*
D03*
D49*
X184491Y96300D02*
D03*
X158900D02*
D03*
D50*
X206300Y61600D02*
D03*
Y51600D02*
D03*
Y41600D02*
D03*
X14500Y321700D02*
D03*
Y311700D02*
D03*
Y301700D02*
D03*
D51*
X21856Y82872D02*
D03*
X16344D02*
D03*
D52*
X141500Y39000D02*
D03*
D53*
X163500Y163500D02*
D03*
X42500Y320000D02*
D03*
X58000Y265500D02*
D03*
Y273000D02*
D03*
X55000Y287000D02*
D03*
X50500Y291500D02*
D03*
X43500Y256500D02*
D03*
Y263550D02*
D03*
X126000Y332500D02*
D03*
X133000Y332000D02*
D03*
X83500Y328000D02*
D03*
X132500Y291000D02*
D03*
X126450Y293150D02*
D03*
X136500Y173000D02*
D03*
X189000Y202500D02*
D03*
Y209550D02*
D03*
X266500Y267500D02*
D03*
X259500Y264500D02*
D03*
X183500Y235000D02*
D03*
X152500Y236000D02*
D03*
X120000Y234500D02*
D03*
X89000D02*
D03*
X165400Y282200D02*
D03*
X182500Y323800D02*
D03*
X155400Y319800D02*
D03*
X120600Y287000D02*
D03*
X39600Y296000D02*
D03*
X42500Y324000D02*
D03*
X23600Y250800D02*
D03*
X16800Y225200D02*
D03*
X196300Y262600D02*
D03*
X220800Y111100D02*
D03*
X143500Y175300D02*
D03*
X132700Y178300D02*
D03*
X171900Y174400D02*
D03*
M02*
