G04*
G04 #@! TF.GenerationSoftware,Altium Limited,Altium Designer,22.3.1 (43)*
G04*
G04 Layer_Physical_Order=3*
G04 Layer_Color=128*
%FSLAX25Y25*%
%MOIN*%
G70*
G04*
G04 #@! TF.SameCoordinates,7998B177-6A3A-43FF-968B-635B49023C71*
G04*
G04*
G04 #@! TF.FilePolarity,Negative*
G04*
G01*
G75*
%ADD43C,0.03300*%
%ADD45C,0.06000*%
%ADD48C,0.05504*%
%ADD49C,0.05543*%
%ADD54C,0.04000*%
%ADD55C,0.06331*%
%ADD56C,0.04165*%
D43*
X43500Y256500D02*
D03*
Y263550D02*
D03*
X126000Y332500D02*
D03*
X133000Y332000D02*
D03*
X132500Y291000D02*
D03*
X126450Y293150D02*
D03*
X136500Y173000D02*
D03*
X189000Y202500D02*
D03*
Y209550D02*
D03*
X266500Y267500D02*
D03*
X259500Y264500D02*
D03*
X143500Y175300D02*
D03*
D45*
X142200Y331800D02*
D03*
X17000Y147700D02*
D03*
D48*
X94200Y39400D02*
D03*
Y59400D02*
D03*
Y69400D02*
D03*
X141500Y39000D02*
D03*
X151500D02*
D03*
X161500D02*
D03*
D49*
X184491Y96300D02*
D03*
D54*
X0Y0D02*
Y350000D01*
X300000D01*
Y0D02*
Y350000D01*
X0Y0D02*
X300000D01*
D55*
X274400Y146800D02*
D03*
Y156800D02*
D03*
Y166800D02*
D03*
Y176800D02*
D03*
Y186800D02*
D03*
Y275300D02*
D03*
Y265300D02*
D03*
Y255300D02*
D03*
Y245300D02*
D03*
Y235300D02*
D03*
X270000Y90000D02*
D03*
Y80000D02*
D03*
Y60000D02*
D03*
Y50000D02*
D03*
Y40000D02*
D03*
X239912Y39869D02*
D03*
Y49869D02*
D03*
Y59869D02*
D03*
Y69868D02*
D03*
Y79869D02*
D03*
Y89868D02*
D03*
Y99869D02*
D03*
Y109869D02*
D03*
X240000Y216000D02*
D03*
Y206000D02*
D03*
Y196000D02*
D03*
Y186000D02*
D03*
Y176000D02*
D03*
Y166000D02*
D03*
Y156000D02*
D03*
Y146000D02*
D03*
Y136000D02*
D03*
Y126000D02*
D03*
X50000Y40000D02*
D03*
Y50000D02*
D03*
Y60000D02*
D03*
Y70000D02*
D03*
Y80000D02*
D03*
Y90000D02*
D03*
Y110000D02*
D03*
Y140000D02*
D03*
Y150000D02*
D03*
Y160000D02*
D03*
Y170000D02*
D03*
Y180000D02*
D03*
X206300Y51600D02*
D03*
Y41600D02*
D03*
X14500Y321700D02*
D03*
Y301700D02*
D03*
D56*
X21856Y82872D02*
D03*
M02*
