G04*
G04 #@! TF.GenerationSoftware,Altium Limited,Altium Designer,22.3.1 (43)*
G04*
G04 Layer_Color=65535*
%FSLAX25Y25*%
%MOIN*%
G70*
G04*
G04 #@! TF.SameCoordinates,7998B177-6A3A-43FF-968B-635B49023C71*
G04*
G04*
G04 #@! TF.FilePolarity,Positive*
G04*
G01*
G75*
%ADD10C,0.00600*%
%ADD11C,0.00787*%
%ADD12C,0.00500*%
%ADD13C,0.01000*%
%ADD14C,0.01500*%
D10*
X153654Y200950D02*
G03*
X153654Y200950I-854J0D01*
G01*
X114354Y201200D02*
G03*
X114354Y201200I-854J0D01*
G01*
X165254Y260350D02*
G03*
X165254Y260350I-854J0D01*
G01*
X133754D02*
G03*
X133754Y260350I-854J0D01*
G01*
X102254D02*
G03*
X102254Y260350I-854J0D01*
G01*
X70854Y260250D02*
G03*
X70854Y260250I-854J0D01*
G01*
X183706Y152400D02*
G03*
X183706Y152400I-806J0D01*
G01*
X157400Y198100D02*
X167400D01*
X171900Y188100D02*
Y192100D01*
X157400Y182100D02*
X167400D01*
X152900Y188100D02*
Y192100D01*
X163400Y182100D02*
X171800Y190850D01*
X118100Y198350D02*
X128100D01*
X132600Y188350D02*
Y192350D01*
X118100Y182350D02*
X128100D01*
X113600Y188350D02*
Y192350D01*
X124100Y182350D02*
X132500Y191100D01*
X169000Y257500D02*
X179000D01*
X183500Y247500D02*
Y251500D01*
X169000Y241500D02*
X179000D01*
X164500Y247500D02*
Y251500D01*
X175000Y241500D02*
X183400Y250250D01*
X142100Y216500D02*
X146100D01*
X142100Y223500D02*
X146100D01*
X137500Y257500D02*
X147500D01*
X152000Y247500D02*
Y251500D01*
X137500Y241500D02*
X147500D01*
X133000Y247500D02*
Y251500D01*
X143500Y241500D02*
X151900Y250250D01*
X106000Y257500D02*
X116000D01*
X120500Y247500D02*
Y251500D01*
X106000Y241500D02*
X116000D01*
X101500Y247500D02*
Y251500D01*
X112000Y241500D02*
X120400Y250250D01*
X74600Y257400D02*
X84600D01*
X89100Y247400D02*
Y251400D01*
X74600Y241400D02*
X84600D01*
X70100Y247400D02*
Y251400D01*
X80600Y241400D02*
X89000Y250150D01*
X27900Y263800D02*
X31900D01*
X27900Y256800D02*
X31900D01*
X144000Y167200D02*
X148000D01*
X144000Y160200D02*
X148000D01*
X73000Y331500D02*
X77000D01*
X73000Y338500D02*
X77000D01*
X207700Y202800D02*
X211700D01*
X207700Y209800D02*
X211700D01*
X213500Y137900D02*
Y144900D01*
X178500Y137900D02*
Y144900D01*
X189000Y138100D02*
Y139400D01*
X203000Y138100D02*
Y139400D01*
Y144100D02*
Y145500D01*
X189000Y144100D02*
Y145500D01*
X194300Y141100D02*
Y142700D01*
X192700Y141900D02*
X194300D01*
X186000Y131400D02*
X206000D01*
X186000Y151400D02*
X206000D01*
X189000Y139400D02*
X203000D01*
X189000Y144100D02*
X203000D01*
X196002Y142658D02*
Y144058D01*
X195952Y139458D02*
Y141058D01*
X213200Y123700D02*
X217000D01*
X213200Y116700D02*
X217000D01*
X20400Y207300D02*
Y211300D01*
X13400Y207300D02*
Y211300D01*
X42000Y25200D02*
X46000D01*
X42000Y18200D02*
X46000D01*
X14100Y189100D02*
X20100D01*
X199700Y299000D02*
Y305000D01*
X199800Y273600D02*
Y277600D01*
X192800Y273600D02*
Y277600D01*
X169100Y294100D02*
Y298100D01*
X162100Y294100D02*
Y298100D01*
X96700Y303700D02*
X102700D01*
X103900Y290400D02*
X107900D01*
X103900Y283400D02*
X107900D01*
X26200Y54100D02*
X30200D01*
X26200Y61100D02*
X30200D01*
X186400Y164100D02*
Y168100D01*
X179400Y164100D02*
Y168100D01*
X18900Y25800D02*
Y29800D01*
X25900Y25800D02*
Y29800D01*
X207800Y226400D02*
X211800D01*
X207800Y219400D02*
X211800D01*
D11*
X35960Y273358D02*
G03*
X35960Y273358I-394J0D01*
G01*
X136457Y190000D02*
G03*
X136457Y190000I-394J0D01*
G01*
X86050Y39400D02*
G03*
X86050Y39400I-394J0D01*
G01*
X46614Y324921D02*
G03*
X46614Y324921I-394J0D01*
G01*
X160945Y323740D02*
G03*
X160945Y323740I-394J0D01*
G01*
X141894Y47543D02*
G03*
X141894Y47543I-394J0D01*
G01*
D12*
X195317Y96300D02*
G03*
X195317Y96300I-23622J0D01*
G01*
X26974Y81100D02*
G03*
X26974Y81100I-7874J0D01*
G01*
X45836Y280641D02*
Y285759D01*
X42259D02*
X45836D01*
X33564D02*
X37141D01*
X33564Y280641D02*
Y285759D01*
X89594Y35187D02*
X98806D01*
X89594D02*
Y73613D01*
X98806D01*
Y35187D02*
Y73613D01*
X191695Y113800D02*
Y118800D01*
X189195Y116300D02*
X194195D01*
X151695Y113800D02*
Y118800D01*
X54094Y325905D02*
X65905D01*
X54094Y314094D02*
X65905D01*
X166457Y326138D02*
X173543D01*
X166457Y313862D02*
X173543D01*
X137287Y34394D02*
Y43606D01*
X175713D01*
Y34394D02*
Y43606D01*
X137287Y34394D02*
X175713D01*
X260999Y157999D02*
X260500Y158499D01*
X259500D01*
X259000Y157999D01*
Y157499D01*
X259500Y157000D01*
X260500D01*
X260999Y156500D01*
Y156000D01*
X260500Y155500D01*
X259500D01*
X259000Y156000D01*
X263998Y157999D02*
X263498Y158499D01*
X262499D01*
X261999Y157999D01*
Y156000D01*
X262499Y155500D01*
X263498D01*
X263998Y156000D01*
X264998Y158499D02*
Y155500D01*
Y156500D01*
X266997Y158499D01*
X265498Y157000D01*
X266997Y155500D01*
X263499Y147499D02*
X263000Y147999D01*
X262000D01*
X261500Y147499D01*
Y146999D01*
X262000Y146500D01*
X263000D01*
X263499Y146000D01*
Y145500D01*
X263000Y145000D01*
X262000D01*
X261500Y145500D01*
X266498Y147499D02*
X265999Y147999D01*
X264999D01*
X264499Y147499D01*
Y146999D01*
X264999Y146500D01*
X265999D01*
X266498Y146000D01*
Y145500D01*
X265999Y145000D01*
X264999D01*
X264499Y145500D01*
X257500Y165500D02*
Y168499D01*
X258500Y167499D01*
X259499Y168499D01*
Y165500D01*
X261999Y168499D02*
X260999D01*
X260499Y167999D01*
Y166000D01*
X260999Y165500D01*
X261999D01*
X262498Y166000D01*
Y167999D01*
X261999Y168499D01*
X265497Y167999D02*
X264998Y168499D01*
X263998D01*
X263498Y167999D01*
Y167499D01*
X263998Y166999D01*
X264998D01*
X265497Y166500D01*
Y166000D01*
X264998Y165500D01*
X263998D01*
X263498Y166000D01*
X266497Y168499D02*
X267497D01*
X266997D01*
Y165500D01*
X266497D01*
X267497D01*
X256500Y175500D02*
Y178499D01*
X257500Y177499D01*
X258499Y178499D01*
Y175500D01*
X259499Y178499D02*
X260499D01*
X259999D01*
Y175500D01*
X259499D01*
X260499D01*
X263998Y177999D02*
X263498Y178499D01*
X262498D01*
X261998Y177999D01*
Y177499D01*
X262498Y176999D01*
X263498D01*
X263998Y176500D01*
Y176000D01*
X263498Y175500D01*
X262498D01*
X261998Y176000D01*
X266497Y178499D02*
X265497D01*
X264997Y177999D01*
Y176000D01*
X265497Y175500D01*
X266497D01*
X266997Y176000D01*
Y177999D01*
X266497Y178499D01*
X259000Y188499D02*
Y186500D01*
X260000Y185500D01*
X260999Y186500D01*
Y188499D01*
X263998Y187999D02*
X263498Y188499D01*
X262499D01*
X261999Y187999D01*
Y186000D01*
X262499Y185500D01*
X263498D01*
X263998Y186000D01*
X266997Y187999D02*
X266498Y188499D01*
X265498D01*
X264998Y187999D01*
Y186000D01*
X265498Y185500D01*
X266498D01*
X266997Y186000D01*
X260999Y197499D02*
X260500Y197999D01*
X259500D01*
X259000Y197499D01*
Y195500D01*
X259500Y195000D01*
X260500D01*
X260999Y195500D01*
Y196500D01*
X260000D01*
X261999Y195000D02*
Y197999D01*
X263998Y195000D01*
Y197999D01*
X264998D02*
Y195000D01*
X266498D01*
X266997Y195500D01*
Y197499D01*
X266498Y197999D01*
X264998D01*
X261499Y285999D02*
X260999Y286499D01*
X260000D01*
X259500Y285999D01*
Y284000D01*
X260000Y283500D01*
X260999D01*
X261499Y284000D01*
Y284999D01*
X260500D01*
X262499Y283500D02*
Y286499D01*
X264498Y283500D01*
Y286499D01*
X265498D02*
Y283500D01*
X266998D01*
X267497Y284000D01*
Y285999D01*
X266998Y286499D01*
X265498D01*
X259500Y276499D02*
Y274500D01*
X260500Y273500D01*
X261499Y274500D01*
Y276499D01*
X264498Y275999D02*
X263999Y276499D01*
X262999D01*
X262499Y275999D01*
Y274000D01*
X262999Y273500D01*
X263999D01*
X264498Y274000D01*
X267497Y275999D02*
X266998Y276499D01*
X265998D01*
X265498Y275999D01*
Y274000D01*
X265998Y273500D01*
X266998D01*
X267497Y274000D01*
X260999Y265999D02*
X260500Y266499D01*
X259500D01*
X259000Y265999D01*
Y265499D01*
X259500Y265000D01*
X260500D01*
X260999Y264500D01*
Y264000D01*
X260500Y263500D01*
X259500D01*
X259000Y264000D01*
X261999Y266499D02*
Y263500D01*
X263498D01*
X263998Y264000D01*
Y265999D01*
X263498Y266499D01*
X261999D01*
X264998Y263500D02*
Y265499D01*
X265998Y266499D01*
X266997Y265499D01*
Y263500D01*
Y265000D01*
X264998D01*
X261999Y255999D02*
X261500Y256499D01*
X260500D01*
X260000Y255999D01*
Y255499D01*
X260500Y254999D01*
X261500D01*
X261999Y254500D01*
Y254000D01*
X261500Y253500D01*
X260500D01*
X260000Y254000D01*
X264998Y255999D02*
X264498Y256499D01*
X263499D01*
X262999Y255999D01*
Y254000D01*
X263499Y253500D01*
X264498D01*
X264998Y254000D01*
X265998Y256499D02*
Y253500D01*
X267997D01*
X261000Y233500D02*
Y236499D01*
X262999Y233500D01*
Y236499D01*
X265998Y235999D02*
X265498Y236499D01*
X264499D01*
X263999Y235999D01*
Y234000D01*
X264499Y233500D01*
X265498D01*
X265998Y234000D01*
X261000Y244000D02*
Y246999D01*
X262999Y244000D01*
Y246999D01*
X265998Y246499D02*
X265498Y246999D01*
X264499D01*
X263999Y246499D01*
Y244500D01*
X264499Y244000D01*
X265498D01*
X265998Y244500D01*
X258500Y88000D02*
Y90999D01*
X260499Y88000D01*
Y90999D01*
X263498Y90499D02*
X262999Y90999D01*
X261999D01*
X261499Y90499D01*
Y88500D01*
X261999Y88000D01*
X262999D01*
X263498Y88500D01*
X255500Y81499D02*
Y79500D01*
X256500Y78500D01*
X257499Y79500D01*
Y81499D01*
X260498Y80999D02*
X259998Y81499D01*
X258999D01*
X258499Y80999D01*
Y79000D01*
X258999Y78500D01*
X259998D01*
X260498Y79000D01*
X263497Y80999D02*
X262998Y81499D01*
X261998D01*
X261498Y80999D01*
Y79000D01*
X261998Y78500D01*
X262998D01*
X263497Y79000D01*
X257499Y70999D02*
X256999Y71499D01*
X256000D01*
X255500Y70999D01*
Y69000D01*
X256000Y68500D01*
X256999D01*
X257499Y69000D01*
Y69999D01*
X256500D01*
X258499Y68500D02*
Y71499D01*
X260498Y68500D01*
Y71499D01*
X261498D02*
Y68500D01*
X262998D01*
X263497Y69000D01*
Y70999D01*
X262998Y71499D01*
X261498D01*
X249500Y60999D02*
Y58000D01*
X250999D01*
X251499Y58500D01*
Y59000D01*
X250999Y59500D01*
X249500D01*
X250999D01*
X251499Y59999D01*
Y60499D01*
X250999Y60999D01*
X249500D01*
X252499D02*
X254498D01*
X253499D01*
Y58000D01*
X255498Y57500D02*
X257497D01*
X258497Y60999D02*
X260496D01*
X259497D01*
Y58000D01*
X261496Y60999D02*
X263495Y58000D01*
Y60999D02*
X261496Y58000D01*
X258500Y38500D02*
Y41499D01*
X260499Y38500D01*
Y41499D01*
X263498Y40999D02*
X262999Y41499D01*
X261999D01*
X261499Y40999D01*
Y39000D01*
X261999Y38500D01*
X262999D01*
X263498Y39000D01*
X250000Y50499D02*
Y47500D01*
X251500D01*
X251999Y48000D01*
Y48500D01*
X251500Y49000D01*
X250000D01*
X251500D01*
X251999Y49499D01*
Y49999D01*
X251500Y50499D01*
X250000D01*
X252999D02*
X254998D01*
X253999D01*
Y47500D01*
X255998Y47000D02*
X257997D01*
X258997Y47500D02*
Y50499D01*
X260497D01*
X260996Y49999D01*
Y49000D01*
X260497Y48500D01*
X258997D01*
X259997D02*
X260996Y47500D01*
X261996Y50499D02*
X263996Y47500D01*
Y50499D02*
X261996Y47500D01*
X219500Y37500D02*
Y39499D01*
X220500Y40499D01*
X221499Y39499D01*
Y37500D01*
Y39000D01*
X219500D01*
X222499Y37000D02*
X224498D01*
X225498Y37500D02*
Y40499D01*
X226998D01*
X227497Y39999D01*
Y39000D01*
X226998Y38500D01*
X225498D01*
X226498D02*
X227497Y37500D01*
X228497Y40499D02*
X230496Y37500D01*
Y40499D02*
X228497Y37500D01*
X231496Y39999D02*
X231996Y40499D01*
X232996D01*
X233495Y39999D01*
Y38000D01*
X232996Y37500D01*
X231996D01*
X231496Y38000D01*
Y39999D01*
X220000Y48000D02*
Y49999D01*
X221000Y50999D01*
X221999Y49999D01*
Y48000D01*
Y49499D01*
X220000D01*
X222999Y47500D02*
X224998D01*
X225998Y50999D02*
X227997D01*
X226998D01*
Y48000D01*
X228997Y50999D02*
X230996Y48000D01*
Y50999D02*
X228997Y48000D01*
X231996D02*
X232996D01*
X232496D01*
Y50999D01*
X231996Y50499D01*
X222000Y60499D02*
Y57500D01*
X223499D01*
X223999Y58000D01*
Y59999D01*
X223499Y60499D01*
X222000D01*
X224999D02*
Y57500D01*
Y59000D01*
X226998D01*
Y60499D01*
Y57500D01*
X227998Y60499D02*
X229997D01*
X228998D01*
Y57500D01*
X232996D02*
X230997D01*
X232996Y59499D01*
Y59999D01*
X232497Y60499D01*
X231497D01*
X230997Y59999D01*
X214000Y68500D02*
Y70499D01*
X215000Y71499D01*
X215999Y70499D01*
Y68500D01*
Y69999D01*
X214000D01*
X216999Y71499D02*
Y68500D01*
X218498D01*
X218998Y69000D01*
Y70999D01*
X218498Y71499D01*
X216999D01*
X219998Y68000D02*
X221997D01*
X222997Y71499D02*
Y68500D01*
X224996D01*
X227995Y71499D02*
X225996D01*
Y68500D01*
X227995D01*
X225996Y69999D02*
X226996D01*
X228995Y71499D02*
Y68500D01*
X230495D01*
X230995Y69000D01*
Y70999D01*
X230495Y71499D01*
X228995D01*
X231994Y70999D02*
X232494Y71499D01*
X233494D01*
X233994Y70999D01*
Y70499D01*
X233494Y69999D01*
X232994D01*
X233494D01*
X233994Y69500D01*
Y69000D01*
X233494Y68500D01*
X232494D01*
X231994Y69000D01*
X224000Y80999D02*
Y78000D01*
Y79500D01*
X225999D01*
Y80999D01*
Y78000D01*
X226999Y80999D02*
Y78000D01*
X228499D01*
X228998Y78500D01*
Y79000D01*
X228499Y79500D01*
X226999D01*
X228499D01*
X228998Y79999D01*
Y80499D01*
X228499Y80999D01*
X226999D01*
X231498Y78000D02*
Y80999D01*
X229998Y79500D01*
X231997D01*
X222081Y90998D02*
X222000Y88000D01*
X223499Y87959D01*
X224012Y88446D01*
X224026Y88945D01*
X223539Y89459D01*
X222041Y89499D01*
X223539Y89459D01*
X224053Y89945D01*
X224066Y90444D01*
X223580Y90957D01*
X222081Y90998D01*
X225079Y90917D02*
X225011Y88419D01*
X225498Y87906D01*
X226497Y87879D01*
X227010Y88365D01*
X227078Y90863D01*
X228077Y90836D02*
X230076Y90782D01*
X230062Y90282D01*
X228009Y88338D01*
X227996Y87838D01*
X229995Y87784D01*
X233073Y90701D02*
X231075Y90755D01*
X231034Y89256D01*
X232047Y89728D01*
X232547Y89715D01*
X233033Y89202D01*
X233006Y88203D01*
X232493Y87716D01*
X231493Y87743D01*
X231007Y88257D01*
X219500Y100999D02*
X221499D01*
X220500D01*
Y98000D01*
X222499D02*
Y100999D01*
X223998D01*
X224498Y100499D01*
Y99499D01*
X223998Y99000D01*
X222499D01*
X223499D02*
X224498Y98000D01*
X225498Y100999D02*
X226498D01*
X225998D01*
Y98000D01*
X225498D01*
X226498D01*
X229997Y100499D02*
X229497Y100999D01*
X228497D01*
X227997Y100499D01*
Y98500D01*
X228497Y98000D01*
X229497D01*
X229997Y98500D01*
Y99499D01*
X228997D01*
X232996Y100999D02*
X231996Y100499D01*
X230996Y99499D01*
Y98500D01*
X231496Y98000D01*
X232496D01*
X232996Y98500D01*
Y99000D01*
X232496Y99499D01*
X230996D01*
X221999Y110499D02*
X220000D01*
Y107500D01*
X221999D01*
X220000Y109000D02*
X221000D01*
X224998Y109999D02*
X224499Y110499D01*
X223499D01*
X222999Y109999D01*
Y108000D01*
X223499Y107500D01*
X224499D01*
X224998Y108000D01*
X225998Y110499D02*
Y107500D01*
Y109000D01*
X227997D01*
Y110499D01*
Y107500D01*
X230497Y110499D02*
X229497D01*
X228997Y109999D01*
Y108000D01*
X229497Y107500D01*
X230497D01*
X230996Y108000D01*
Y109999D01*
X230497Y110499D01*
X231996D02*
X233996D01*
Y109999D01*
X231996Y108000D01*
Y107500D01*
X230096Y126997D02*
X230615Y127478D01*
X231614Y127439D01*
X232094Y126920D01*
X232075Y126421D01*
X231556Y125941D01*
X232036Y125422D01*
X232017Y124923D01*
X231498Y124442D01*
X230500Y124481D01*
X230019Y124999D01*
X230038Y125499D01*
X230557Y125979D01*
X230077Y126498D01*
X230096Y126997D01*
X230557Y125979D02*
X231556Y125941D01*
X223000Y134000D02*
X223075Y136998D01*
X224574Y136960D01*
X225061Y136448D01*
X225036Y135449D01*
X224524Y134962D01*
X223025Y134999D01*
X226073Y136923D02*
X225998Y133925D01*
X227497Y133887D01*
X228009Y134374D01*
X228022Y134874D01*
X227535Y135386D01*
X226036Y135424D01*
X227535Y135386D01*
X228047Y135873D01*
X228059Y136373D01*
X227572Y136885D01*
X226073Y136923D01*
X229009Y134350D02*
X229496Y133837D01*
X230495Y133812D01*
X231007Y134299D01*
X231058Y136298D01*
X230570Y136810D01*
X229571Y136835D01*
X229059Y136348D01*
X229046Y135848D01*
X229533Y135336D01*
X231032Y135299D01*
X232057Y136273D02*
X232569Y136760D01*
X233568Y136735D01*
X234081Y137222D01*
X221999Y146999D02*
X221499Y147499D01*
X220500D01*
X220000Y146999D01*
Y146499D01*
X220500Y146000D01*
X221499D01*
X221999Y145500D01*
Y145000D01*
X221499Y144500D01*
X220500D01*
X220000Y145000D01*
X224998Y146999D02*
X224499Y147499D01*
X223499D01*
X222999Y146999D01*
Y146499D01*
X223499Y146000D01*
X224499D01*
X224998Y145500D01*
Y145000D01*
X224499Y144500D01*
X223499D01*
X222999Y145000D01*
X225998Y144500D02*
X226998D01*
X226498D01*
Y147499D01*
X225998Y146999D01*
X228497D02*
X228997Y147499D01*
X229997D01*
X230497Y146999D01*
Y145000D01*
X229997Y144500D01*
X228997D01*
X228497Y145000D01*
Y146999D01*
X231496D02*
X231996Y147499D01*
X232996D01*
X233496Y147999D01*
X216000Y154500D02*
X216067Y157498D01*
X217044Y156477D01*
X218066Y157454D01*
X217999Y154456D01*
X220564Y157398D02*
X219565Y157421D01*
X219054Y156932D01*
X219009Y154933D01*
X219498Y154422D01*
X220497Y154400D01*
X221008Y154889D01*
X221053Y156887D01*
X220564Y157398D01*
X224051Y156821D02*
X223562Y157332D01*
X222563Y157354D01*
X222052Y156865D01*
X222041Y156366D01*
X222530Y155855D01*
X223529Y155833D01*
X224018Y155322D01*
X224007Y154822D01*
X223496Y154333D01*
X222496Y154356D01*
X222008Y154867D01*
X225061Y157298D02*
X226061Y157276D01*
X225561Y157287D01*
X225495Y154289D01*
X224995Y154300D01*
X225994Y154278D01*
X227493Y154245D02*
X228493Y154222D01*
X227993Y154234D01*
X228060Y157232D01*
X227549Y156743D01*
X229992Y154189D02*
X230991Y154167D01*
X230492Y154178D01*
X230558Y157176D01*
X230047Y156688D01*
X232546Y156632D02*
X233057Y157121D01*
X234056Y157098D01*
X234567Y157587D01*
X217000Y165000D02*
X217079Y167998D01*
X218052Y166972D01*
X219078Y167945D01*
X218999Y164947D01*
X220077Y167919D02*
X221076Y167893D01*
X220577Y167906D01*
X220498Y164908D01*
X219998Y164921D01*
X220997Y164895D01*
X224561Y167301D02*
X224074Y167814D01*
X223075Y167840D01*
X222562Y167354D01*
X222549Y166854D01*
X223035Y166341D01*
X224035Y166315D01*
X224521Y165802D01*
X224508Y165302D01*
X223995Y164816D01*
X222996Y164842D01*
X222510Y165355D01*
X227072Y167735D02*
X226073Y167761D01*
X225560Y167275D01*
X225507Y165276D01*
X225994Y164763D01*
X226993Y164737D01*
X227506Y165224D01*
X227559Y167222D01*
X227072Y167735D01*
X228492Y164698D02*
X229492Y164671D01*
X228992Y164684D01*
X229071Y167682D01*
X228558Y167196D01*
X232989Y164579D02*
X230991Y164632D01*
X233042Y166578D01*
X233055Y167078D01*
X232569Y167590D01*
X231569Y167617D01*
X231056Y167130D01*
X221066Y176944D02*
X220580Y177457D01*
X219581Y177484D01*
X219068Y176998D01*
X219054Y176499D01*
X219540Y175986D01*
X220539Y175959D01*
X221026Y175445D01*
X221012Y174946D01*
X220499Y174460D01*
X219500Y174486D01*
X219014Y175000D01*
X224064Y176863D02*
X223578Y177376D01*
X222579Y177403D01*
X222065Y176917D01*
X222011Y174919D01*
X222498Y174406D01*
X223497Y174379D01*
X224010Y174865D01*
X225077Y177336D02*
X224996Y174338D01*
X225023Y175337D01*
X227076Y177282D01*
X225536Y175823D01*
X226994Y174284D01*
X227994Y174257D02*
X228993Y174230D01*
X228493Y174243D01*
X228574Y177241D01*
X228061Y176755D01*
X230560Y176688D02*
X231073Y177174D01*
X232072Y177147D01*
X232558Y176634D01*
X232545Y176134D01*
X232032Y175648D01*
X231532Y175661D01*
X232032Y175648D01*
X232518Y175135D01*
X232504Y174635D01*
X231991Y174149D01*
X230992Y174176D01*
X230506Y174689D01*
X227061Y186948D02*
X226574Y187460D01*
X225575Y187486D01*
X225063Y186998D01*
X225012Y185000D01*
X225500Y184487D01*
X226499Y184462D01*
X227011Y184950D01*
X227036Y185949D01*
X226037Y185974D01*
X227998Y184425D02*
X228073Y187423D01*
X229997Y184375D01*
X230072Y187373D01*
X231071Y187348D02*
X230996Y184350D01*
X232495Y184312D01*
X233007Y184799D01*
X233057Y186798D01*
X232570Y187310D01*
X231071Y187348D01*
X222500Y194500D02*
X222539Y196499D01*
X223558Y197479D01*
X224538Y196460D01*
X224499Y194461D01*
X224529Y195960D01*
X222530Y195999D01*
X225499Y194441D02*
X225557Y197439D01*
X227057Y197410D01*
X227547Y196900D01*
X227527Y195901D01*
X227017Y195411D01*
X225518Y195440D01*
X226518Y195421D02*
X227497Y194402D01*
X230555Y197341D02*
X228556Y197380D01*
X228497Y194382D01*
X230496Y194343D01*
X228526Y195881D02*
X229526Y195861D01*
X233553Y197282D02*
X231554Y197321D01*
X231525Y195822D01*
X232524Y195802D01*
X231525Y195822D01*
X231495Y194323D01*
X226452Y207036D02*
X225943Y207526D01*
X224944Y207508D01*
X224453Y206999D01*
X224463Y206499D01*
X224972Y206009D01*
X225971Y206027D01*
X226480Y205537D01*
X226490Y205037D01*
X225999Y204528D01*
X225000Y204509D01*
X224491Y205000D01*
X227442Y207555D02*
X227499Y204556D01*
X228998Y204584D01*
X229488Y205093D01*
X229451Y207092D01*
X228942Y207583D01*
X227442Y207555D01*
X230497Y204612D02*
X230460Y206611D01*
X231440Y207629D01*
X232459Y206648D01*
X232496Y204649D01*
X232468Y206149D01*
X230469Y206111D01*
X226550Y216958D02*
X226060Y217468D01*
X225061Y217488D01*
X224551Y216999D01*
X224541Y216499D01*
X225030Y215989D01*
X226030Y215969D01*
X226519Y215459D01*
X226509Y214959D01*
X225999Y214469D01*
X225000Y214490D01*
X224510Y215000D01*
X229548Y216897D02*
X229059Y217407D01*
X228059Y217427D01*
X227549Y216937D01*
X227509Y214938D01*
X227998Y214429D01*
X228998Y214408D01*
X229507Y214898D01*
X230558Y217376D02*
X230497Y214378D01*
X232496Y214337D01*
X57000Y39000D02*
Y40999D01*
X58000Y41999D01*
X58999Y40999D01*
Y39000D01*
Y40499D01*
X57000D01*
X61998Y41999D02*
X59999D01*
Y40499D01*
X60999Y40999D01*
X61499D01*
X61998Y40499D01*
Y39500D01*
X61499Y39000D01*
X60499D01*
X59999Y39500D01*
X56500Y48500D02*
Y50499D01*
X57500Y51499D01*
X58499Y50499D01*
Y48500D01*
Y49999D01*
X56500D01*
X60999Y48500D02*
Y51499D01*
X59499Y49999D01*
X61498D01*
X57500Y58500D02*
Y60499D01*
X58500Y61499D01*
X59499Y60499D01*
Y58500D01*
Y60000D01*
X57500D01*
X60499Y60999D02*
X60999Y61499D01*
X61999D01*
X62498Y60999D01*
Y60499D01*
X61999Y60000D01*
X61499D01*
X61999D01*
X62498Y59500D01*
Y59000D01*
X61999Y58500D01*
X60999D01*
X60499Y59000D01*
X57500Y68500D02*
Y70499D01*
X58500Y71499D01*
X59499Y70499D01*
Y68500D01*
Y69999D01*
X57500D01*
X62498Y68500D02*
X60499D01*
X62498Y70499D01*
Y70999D01*
X61999Y71499D01*
X60999D01*
X60499Y70999D01*
X63498Y68000D02*
X65497D01*
X66497Y68500D02*
Y71499D01*
X67497Y70499D01*
X68496Y71499D01*
Y68500D01*
X71495Y69000D02*
Y70999D01*
X70996Y71499D01*
X69996D01*
X69496Y70999D01*
Y69000D01*
X69996Y68500D01*
X70996D01*
X70496Y69500D02*
X71495Y68500D01*
X70996D02*
X71495Y69000D01*
X72495Y71499D02*
X74494D01*
Y70999D01*
X72495Y69000D01*
Y68500D01*
X57000Y88000D02*
Y89999D01*
X58000Y90999D01*
X58999Y89999D01*
Y88000D01*
Y89499D01*
X57000D01*
X59999Y90499D02*
X60499Y90999D01*
X61499D01*
X61998Y90499D01*
Y88500D01*
X61499Y88000D01*
X60499D01*
X59999Y88500D01*
Y90499D01*
X62998Y87500D02*
X64997D01*
X65997Y90999D02*
Y88000D01*
X67497D01*
X67996Y88500D01*
Y90499D01*
X67497Y90999D01*
X65997D01*
X68996Y88000D02*
Y89999D01*
X69996Y90999D01*
X70995Y89999D01*
Y88000D01*
Y89499D01*
X68996D01*
X73994Y90499D02*
X73495Y90999D01*
X72495D01*
X71995Y90499D01*
Y88500D01*
X72495Y88000D01*
X73495D01*
X73994Y88500D01*
X57000Y79000D02*
Y80999D01*
X58000Y81999D01*
X58999Y80999D01*
Y79000D01*
Y80500D01*
X57000D01*
X59999Y79000D02*
X60999D01*
X60499D01*
Y81999D01*
X59999Y81499D01*
X62498Y78500D02*
X64498D01*
X65497Y79000D02*
Y81999D01*
X66497Y80999D01*
X67497Y81999D01*
Y79000D01*
X68496Y81999D02*
X69496D01*
X68996D01*
Y79000D01*
X68496D01*
X69496D01*
X72995Y81499D02*
X72495Y81999D01*
X71495D01*
X70995Y81499D01*
Y79500D01*
X71495Y79000D01*
X72495D01*
X72995Y79500D01*
X57000Y111999D02*
Y110000D01*
X58000Y109000D01*
X58999Y110000D01*
Y111999D01*
X59999Y109000D02*
X60999D01*
X60499D01*
Y110999D01*
X59999D01*
X62498Y109000D02*
Y110999D01*
X63998D01*
X64498Y110500D01*
Y109000D01*
X58586Y120928D02*
X58103Y121445D01*
X57104Y121480D01*
X56587Y120998D01*
X56517Y119000D01*
X56999Y118482D01*
X57999Y118448D01*
X58516Y118930D01*
X58551Y119929D01*
X57551Y119964D01*
X59497Y118395D02*
X59602Y121392D01*
X61495Y118325D01*
X61600Y121323D01*
X62599Y121288D02*
X62494Y118290D01*
X63993Y118238D01*
X64510Y118720D01*
X64580Y120718D01*
X64098Y121235D01*
X62599Y121288D01*
X58499Y130499D02*
X57999Y130999D01*
X57000D01*
X56500Y130499D01*
Y128500D01*
X57000Y128000D01*
X57999D01*
X58499Y128500D01*
Y129499D01*
X57500D01*
X59499Y128000D02*
Y130999D01*
X61498Y128000D01*
Y130999D01*
X62498D02*
Y128000D01*
X63998D01*
X64497Y128500D01*
Y130499D01*
X63998Y130999D01*
X62498D01*
X58999Y140999D02*
X57000D01*
Y139499D01*
X58000Y139999D01*
X58499D01*
X58999Y139499D01*
Y138500D01*
X58499Y138000D01*
X57500D01*
X57000Y138500D01*
X59999Y139999D02*
X60999Y138000D01*
X61998Y139999D01*
X56594Y150497D02*
X57112Y150978D01*
X58111Y150941D01*
X58592Y150422D01*
X58573Y149923D01*
X58055Y149442D01*
X57555Y149461D01*
X58055Y149442D01*
X58535Y148924D01*
X58517Y148424D01*
X57999Y147944D01*
X56999Y147981D01*
X56519Y148500D01*
X59572Y149885D02*
X60496Y147850D01*
X61570Y149810D01*
X62588Y150272D02*
X63106Y150753D01*
X64105Y150715D01*
X64586Y150197D01*
X64567Y149697D01*
X64049Y149217D01*
X63549Y149235D01*
X64049Y149217D01*
X64529Y148698D01*
X64511Y148199D01*
X63992Y147718D01*
X62993Y147756D01*
X62513Y148274D01*
X56500Y158500D02*
Y161499D01*
X57999D01*
X58499Y160999D01*
Y160000D01*
X57999Y159500D01*
X56500D01*
X57500D02*
X58499Y158500D01*
X61498Y161499D02*
X59499D01*
Y158500D01*
X61498D01*
X59499Y160000D02*
X60499D01*
X64497Y160999D02*
X63998Y161499D01*
X62998D01*
X62498Y160999D01*
Y160499D01*
X62998Y160000D01*
X63998D01*
X64497Y159500D01*
Y159000D01*
X63998Y158500D01*
X62998D01*
X62498Y159000D01*
X67496Y161499D02*
X65497D01*
Y158500D01*
X67496D01*
X65497Y160000D02*
X66497D01*
X68496Y161499D02*
X70495D01*
X69496D01*
Y158500D01*
X57000Y168500D02*
Y171499D01*
X58999Y168500D01*
Y171499D01*
X61998Y170999D02*
X61499Y171499D01*
X60499D01*
X59999Y170999D01*
Y169000D01*
X60499Y168500D01*
X61499D01*
X61998Y169000D01*
X57500Y179000D02*
Y181999D01*
X59499Y179000D01*
Y181999D01*
X62498Y181499D02*
X61999Y181999D01*
X60999D01*
X60499Y181499D01*
Y179500D01*
X60999Y179000D01*
X61999D01*
X62498Y179500D01*
D13*
X211189Y34100D02*
G03*
X211189Y34100I-394J0D01*
G01*
X19389Y294200D02*
G03*
X19389Y294200I-394J0D01*
G01*
X269400Y141800D02*
X274400D01*
X269400D02*
Y151800D01*
X279400D02*
Y201800D01*
X269400D02*
X279400D01*
X269400Y151800D02*
Y201800D01*
Y151800D02*
X279400D01*
Y141800D02*
Y151800D01*
X274400Y141800D02*
X279400D01*
X135700Y319550D02*
Y324050D01*
Y321800D02*
X136727D01*
X134200Y320550D02*
Y323050D01*
X132700Y321550D02*
Y322277D01*
X135700Y309550D02*
Y314050D01*
Y311800D02*
X136727D01*
X134200Y310550D02*
Y313050D01*
X132700Y311550D02*
Y312277D01*
X135700Y299550D02*
Y304050D01*
Y301800D02*
X136727D01*
X134200Y300550D02*
Y303050D01*
X132700Y301550D02*
Y302277D01*
X10500Y135450D02*
Y139950D01*
Y137700D02*
X11527D01*
X9000Y136450D02*
Y138950D01*
X7500Y137450D02*
Y138177D01*
X10500Y125450D02*
Y129950D01*
Y127700D02*
X11527D01*
X9000Y126450D02*
Y128950D01*
X7500Y127450D02*
Y128177D01*
X10500Y115450D02*
Y119950D01*
Y117700D02*
X11527D01*
X9000Y116450D02*
Y118950D01*
X7500Y117450D02*
Y118177D01*
X274400Y230300D02*
X279400D01*
Y240300D01*
X269400D02*
X279400D01*
X269400D02*
Y290300D01*
X279400D01*
Y240300D02*
Y290300D01*
X269400Y230300D02*
Y240300D01*
Y230300D02*
X274400D01*
X270000Y35000D02*
X275000D01*
Y45000D01*
X265000D02*
X275000D01*
X265000D02*
Y95000D01*
X275000D01*
Y45000D02*
Y95000D01*
X265000Y35000D02*
Y45000D01*
Y35000D02*
X270000D01*
X234912Y34868D02*
X244912D01*
X234912D02*
Y114868D01*
X244912D01*
Y34868D02*
Y114868D01*
X234912Y104868D02*
X244912D01*
X245000Y121000D02*
Y211000D01*
X235000Y131000D02*
Y221000D01*
X245000D01*
Y131000D02*
Y221000D01*
X235000Y211000D02*
X245000D01*
X235000Y121000D02*
Y211000D01*
Y121000D02*
X245000D01*
X45000Y95000D02*
X50000D01*
X45000Y85000D02*
Y95000D01*
Y85000D02*
X55000D01*
Y35000D02*
Y85000D01*
X45000Y35000D02*
X55000D01*
X45000D02*
Y85000D01*
X55000D02*
Y95000D01*
X50000D02*
X55000D01*
X45000Y105000D02*
X55000D01*
X45000D02*
Y185000D01*
X55000D01*
Y105000D02*
Y185000D01*
X45000Y175000D02*
X55000D01*
X22600Y170700D02*
Y187700D01*
X11600Y170700D02*
Y187700D01*
X181300Y296500D02*
X198300D01*
X181300Y307500D02*
X198300D01*
X94200Y305100D02*
Y322100D01*
X105200Y305100D02*
Y322100D01*
X211800Y36600D02*
Y67600D01*
X201300Y36600D02*
X211800D01*
X201300Y67600D02*
X211800D01*
X201300Y36600D02*
Y67600D01*
X20000Y296700D02*
Y327700D01*
X9500Y296700D02*
X20000D01*
X9500Y327700D02*
X20000D01*
X9500Y296700D02*
Y327700D01*
X81502Y38000D02*
X84834D01*
X86500Y39666D01*
X84834Y41332D01*
X81502D01*
X82335Y51329D02*
X81502Y50496D01*
Y48830D01*
X82335Y47997D01*
X85667D01*
X86500Y48830D01*
Y50496D01*
X85667Y51329D01*
X84001D01*
Y49663D01*
X81502Y57994D02*
X86500D01*
Y60493D01*
X85667Y61326D01*
X82335D01*
X81502Y60493D01*
Y57994D01*
X86500Y67990D02*
X83168D01*
X81502Y69656D01*
X83168Y71323D01*
X86500D01*
X84001D01*
Y67990D01*
X198000Y13498D02*
X201999D01*
X199999D01*
Y7500D01*
X207997Y12498D02*
X206997Y13498D01*
X204998D01*
X203998Y12498D01*
Y11499D01*
X204998Y10499D01*
X206997D01*
X207997Y9499D01*
Y8500D01*
X206997Y7500D01*
X204998D01*
X203998Y8500D01*
X209996Y13498D02*
Y8500D01*
X210996Y7500D01*
X212995D01*
X213995Y8500D01*
Y13498D01*
X48500Y279499D02*
Y275500D01*
Y277499D01*
X51166D01*
Y279499D01*
Y275500D01*
X53165Y278166D02*
X54498D01*
X55164Y277499D01*
Y275500D01*
X53165D01*
X52499Y276166D01*
X53165Y276833D01*
X55164D01*
X56497Y275500D02*
X57830D01*
X57164D01*
Y279499D01*
X56497D01*
X59830Y275500D02*
X61163D01*
X60496D01*
Y279499D01*
X59830D01*
X69826D02*
X67161D01*
Y275500D01*
X69826D01*
X67161Y277499D02*
X68494D01*
X71826Y275500D02*
Y278832D01*
Y277499D01*
X71159D01*
X72492D01*
X71826D01*
Y278832D01*
X72492Y279499D01*
X75158Y275500D02*
Y278832D01*
Y277499D01*
X74492D01*
X75824D01*
X75158D01*
Y278832D01*
X75824Y279499D01*
X79823Y275500D02*
X78490D01*
X77824Y276166D01*
Y277499D01*
X78490Y278166D01*
X79823D01*
X80490Y277499D01*
Y276833D01*
X77824D01*
X84488Y278166D02*
X82489D01*
X81823Y277499D01*
Y276166D01*
X82489Y275500D01*
X84488D01*
X86488Y278832D02*
Y278166D01*
X85821D01*
X87154D01*
X86488D01*
Y276166D01*
X87154Y275500D01*
X159002Y176999D02*
Y171001D01*
X162001D01*
X163000Y172001D01*
Y175999D01*
X162001Y176999D01*
X159002D01*
X168998Y171001D02*
X165000D01*
X168998Y175000D01*
Y175999D01*
X167999Y176999D01*
X165999D01*
X165000Y175999D01*
X112501Y176999D02*
Y171001D01*
X115500D01*
X116500Y172001D01*
Y175999D01*
X115500Y176999D01*
X112501D01*
X118499Y171001D02*
X120499D01*
X119499D01*
Y176999D01*
X118499Y175999D01*
X38500Y217831D02*
X42165D01*
X40333D01*
Y212333D01*
X44915Y215998D02*
X46747D01*
X47664Y215082D01*
Y212333D01*
X44915D01*
X43998Y213249D01*
X44915Y214165D01*
X47664D01*
X49496Y217831D02*
Y212333D01*
Y215082D01*
X50413Y215998D01*
X52246D01*
X53162Y215082D01*
Y212333D01*
X57744D02*
X55911D01*
X54995Y213249D01*
Y215082D01*
X55911Y215998D01*
X57744D01*
X58660Y215082D01*
Y214165D01*
X54995D01*
X60493Y215998D02*
Y212333D01*
Y214165D01*
X61409Y215082D01*
X62326Y215998D01*
X63242D01*
X71489Y217831D02*
Y213249D01*
X72406Y212333D01*
X74238D01*
X75155Y213249D01*
Y217831D01*
X76987Y210500D02*
X77904D01*
X78820Y211416D01*
Y215998D01*
X82486Y210500D02*
X83402D01*
X84319Y211416D01*
Y215998D01*
X88900D02*
X90733D01*
X91650Y215082D01*
Y212333D01*
X88900D01*
X87984Y213249D01*
X88900Y214165D01*
X91650D01*
X93482Y212333D02*
X95315D01*
X94399D01*
Y215998D01*
X93482D01*
X98064Y212333D02*
Y215998D01*
X100813D01*
X101730Y215082D01*
Y212333D01*
X103562Y215998D02*
Y213249D01*
X104479Y212333D01*
X105395Y213249D01*
X106311Y212333D01*
X107228Y213249D01*
Y215998D01*
X109977D02*
X111810D01*
X112726Y215082D01*
Y212333D01*
X109977D01*
X109061Y213249D01*
X109977Y214165D01*
X112726D01*
X114559Y212333D02*
X116392D01*
X115475D01*
Y217831D01*
X114559D01*
X120057Y215998D02*
X121890D01*
X122806Y215082D01*
Y212333D01*
X120057D01*
X119141Y213249D01*
X120057Y214165D01*
X122806D01*
X34500Y13498D02*
Y7500D01*
X37499D01*
X38499Y8499D01*
Y9499D01*
Y10499D01*
X37499Y11498D01*
X34500D01*
X40498D02*
Y7500D01*
Y9499D01*
X41498Y10499D01*
X42497Y11498D01*
X43497D01*
X50495Y13498D02*
Y7500D01*
X47496D01*
X46496Y8499D01*
Y10499D01*
X47496Y11498D01*
X50495D01*
X55493Y7500D02*
Y13498D01*
X52494Y10499D01*
X56493D01*
X58492Y6500D02*
X62491D01*
X64490Y12498D02*
X65490Y13498D01*
X67489D01*
X68489Y12498D01*
Y8499D01*
X67489Y7500D01*
X65490D01*
X64490Y8499D01*
Y12498D01*
X73487Y7500D02*
Y13498D01*
X70488Y10499D01*
X74487D01*
X76486Y6500D02*
X80485D01*
X82485Y12498D02*
X83484Y13498D01*
X85483D01*
X86483Y12498D01*
Y8499D01*
X85483Y7500D01*
X83484D01*
X82485Y8499D01*
Y12498D01*
X88482Y7500D02*
X90482D01*
X89482D01*
Y13498D01*
X88482Y12498D01*
X93481Y6500D02*
X97480D01*
X103478Y7500D02*
X99479D01*
X103478Y11498D01*
Y12498D01*
X102478Y13498D01*
X100479D01*
X99479Y12498D01*
X105477D02*
X106477Y13498D01*
X108476D01*
X109476Y12498D01*
Y8499D01*
X108476Y7500D01*
X106477D01*
X105477Y8499D01*
Y12498D01*
X115474Y7500D02*
X111475D01*
X115474Y11498D01*
Y12498D01*
X114474Y13498D01*
X112475D01*
X111475Y12498D01*
X121472Y7500D02*
X117473D01*
X121472Y11498D01*
Y12498D01*
X120472Y13498D01*
X118473D01*
X117473Y12498D01*
X254001Y206499D02*
X252002D01*
X253001D01*
Y201501D01*
X252002Y200501D01*
X251002D01*
X250002Y201501D01*
X256000Y200501D02*
X258000D01*
X257000D01*
Y206499D01*
X256000Y205499D01*
X260999D02*
X261999Y206499D01*
X263998D01*
X264998Y205499D01*
Y201501D01*
X263998Y200501D01*
X261999D01*
X260999Y201501D01*
Y205499D01*
X261000Y218498D02*
Y212500D01*
X263999D01*
X264999Y213500D01*
Y217498D01*
X263999Y218498D01*
X261000D01*
X270997Y217498D02*
X269997Y218498D01*
X267998D01*
X266998Y217498D01*
Y216499D01*
X267998Y215499D01*
X269997D01*
X270997Y214499D01*
Y213500D01*
X269997Y212500D01*
X267998D01*
X266998Y213500D01*
X272996Y217498D02*
X273996Y218498D01*
X275995D01*
X276995Y217498D01*
Y216499D01*
X275995Y215499D01*
X274995D01*
X275995D01*
X276995Y214499D01*
Y213500D01*
X275995Y212500D01*
X273996D01*
X272996Y213500D01*
X282993Y212500D02*
X278994D01*
X282993Y216499D01*
Y217498D01*
X281993Y218498D01*
X279994D01*
X278994Y217498D01*
X284992D02*
X285992Y218498D01*
X287991D01*
X288991Y217498D01*
Y216499D01*
X287991Y215499D01*
X286992D01*
X287991D01*
X288991Y214499D01*
Y213500D01*
X287991Y212500D01*
X285992D01*
X284992Y213500D01*
X290990Y212500D02*
X292990D01*
X291990D01*
Y218498D01*
X290990Y217498D01*
X29501Y292499D02*
Y287501D01*
X30501Y286501D01*
X32500D01*
X33500Y287501D01*
Y292499D01*
X35499Y286501D02*
X37499D01*
X36499D01*
Y292499D01*
X35499Y291499D01*
X22002Y297000D02*
X26001D01*
X28000Y298999D01*
X26001Y300999D01*
X22002D01*
X23002Y312995D02*
X22002Y311995D01*
Y309996D01*
X23002Y308996D01*
X27000D01*
X28000Y309996D01*
Y311995D01*
X27000Y312995D01*
X25001D01*
Y310996D01*
X23002Y324991D02*
X22002Y323991D01*
Y321992D01*
X23002Y320992D01*
X24001D01*
X25001Y321992D01*
Y323991D01*
X26001Y324991D01*
X27000D01*
X28000Y323991D01*
Y321992D01*
X27000Y320992D01*
X237999Y318998D02*
X236999Y319998D01*
X235000D01*
X234000Y318998D01*
Y317999D01*
X235000Y316999D01*
X236999D01*
X237999Y315999D01*
Y315000D01*
X236999Y314000D01*
X235000D01*
X234000Y315000D01*
X239998Y319998D02*
Y314000D01*
Y316999D01*
X243997D01*
Y319998D01*
Y314000D01*
X245996Y319998D02*
X247995D01*
X246996D01*
Y314000D01*
X245996D01*
X247995D01*
X254993Y319998D02*
X250994D01*
Y314000D01*
X254993D01*
X250994Y316999D02*
X252994D01*
X256993Y319998D02*
Y314000D01*
X260991D01*
X262991Y319998D02*
Y314000D01*
X265990D01*
X266989Y315000D01*
Y318998D01*
X265990Y319998D01*
X262991D01*
X122167Y298504D02*
Y301170D01*
Y299837D01*
X126166D01*
Y302503D02*
X122167D01*
Y304502D01*
X122834Y305169D01*
X124167D01*
X124833Y304502D01*
Y302503D01*
X126166Y306502D02*
Y307835D01*
Y307168D01*
X122167D01*
X122834Y306502D01*
X126833Y309834D02*
Y312500D01*
X122167Y313833D02*
X126166D01*
Y315832D01*
X125500Y316498D01*
X122834D01*
X122167Y315832D01*
Y313833D01*
X126166Y317831D02*
X123500D01*
X122167Y319164D01*
X123500Y320497D01*
X126166D01*
X124167D01*
Y317831D01*
X122834Y324496D02*
X122167Y323829D01*
Y322497D01*
X122834Y321830D01*
X125500D01*
X126166Y322497D01*
Y323829D01*
X125500Y324496D01*
X256000Y20998D02*
Y15000D01*
Y17999D01*
X259999D01*
Y20998D01*
Y15000D01*
X265997Y19998D02*
X264997Y20998D01*
X262998D01*
X261998Y19998D01*
Y16000D01*
X262998Y15000D01*
X264997D01*
X265997Y16000D01*
X267996Y17999D02*
X271995D01*
X273994Y19998D02*
X274994Y20998D01*
X276993D01*
X277993Y19998D01*
Y16000D01*
X276993Y15000D01*
X274994D01*
X273994Y16000D01*
Y19998D01*
X283991Y20998D02*
X279992D01*
Y17999D01*
X281992Y18999D01*
X282991D01*
X283991Y17999D01*
Y16000D01*
X282991Y15000D01*
X280992D01*
X279992Y16000D01*
X113502Y82500D02*
X119500D01*
Y85499D01*
X118500Y86499D01*
X117501D01*
X116501Y85499D01*
Y82500D01*
Y85499D01*
X115501Y86499D01*
X114502D01*
X113502Y85499D01*
Y82500D01*
X115501Y88498D02*
X118500D01*
X119500Y89498D01*
Y92497D01*
X115501D01*
Y94496D02*
Y98495D01*
X119500Y94496D01*
Y98495D01*
X115501Y100494D02*
Y104493D01*
X119500Y100494D01*
Y104493D01*
Y109491D02*
Y107492D01*
X118500Y106492D01*
X116501D01*
X115501Y107492D01*
Y109491D01*
X116501Y110491D01*
X117501D01*
Y106492D01*
X115501Y112490D02*
X119500D01*
X117501D01*
X116501Y113490D01*
X115501Y114490D01*
Y115489D01*
X138500Y32499D02*
Y30499D01*
X139500Y29500D01*
X140499Y30499D01*
Y32499D01*
X144498D02*
X146497D01*
X145498D01*
Y29500D01*
X147497Y31499D02*
Y29500D01*
Y30499D01*
X147997Y30999D01*
X148497Y31499D01*
X148997D01*
X150496Y29500D02*
X151496D01*
X150996D01*
Y31499D01*
X150496D01*
X153995Y28500D02*
X154495D01*
X154995Y29000D01*
Y31499D01*
X153495D01*
X152995Y30999D01*
Y30000D01*
X153495Y29500D01*
X154995D01*
X160993Y32499D02*
X158993D01*
Y29500D01*
X160993D01*
X158993Y30999D02*
X159993D01*
X163992Y31499D02*
X162492D01*
X161992Y30999D01*
Y30000D01*
X162492Y29500D01*
X163992D01*
X164991Y32499D02*
Y29500D01*
Y30999D01*
X165491Y31499D01*
X166491D01*
X166991Y30999D01*
Y29500D01*
X168490D02*
X169490D01*
X169990Y30000D01*
Y30999D01*
X169490Y31499D01*
X168490D01*
X167991Y30999D01*
Y30000D01*
X168490Y29500D01*
X175988Y31999D02*
X175488Y32499D01*
X174488D01*
X173988Y31999D01*
Y30000D01*
X174488Y29500D01*
X175488D01*
X175988Y30000D01*
Y30999D01*
X174988D01*
X194501Y38000D02*
X197167D01*
X198500Y39333D01*
X197167Y40666D01*
X194501D01*
Y49996D02*
X198500D01*
Y51995D01*
X197834Y52662D01*
X195168D01*
X194501Y51995D01*
Y49996D01*
X195168Y64658D02*
X194501Y63992D01*
Y62659D01*
X195168Y61992D01*
X197834D01*
X198500Y62659D01*
Y63992D01*
X197834Y64658D01*
X196501D01*
Y63325D01*
X9002Y233999D02*
X8002Y232999D01*
Y231000D01*
X9002Y230000D01*
X13000D01*
X14000Y231000D01*
Y232999D01*
X13000Y233999D01*
X8002Y235998D02*
X13000D01*
X14000Y236998D01*
Y238997D01*
X13000Y239997D01*
X8002D01*
Y247994D02*
X14000D01*
Y250993D01*
X13000Y251993D01*
X12001D01*
X11001Y250993D01*
Y247994D01*
Y250993D01*
X10001Y251993D01*
X9002D01*
X8002Y250993D01*
Y247994D01*
X14000Y254992D02*
Y256991D01*
X13000Y257991D01*
X11001D01*
X10001Y256991D01*
Y254992D01*
X11001Y253992D01*
X13000D01*
X14000Y254992D01*
X10001Y259990D02*
X13000D01*
X14000Y260990D01*
Y263989D01*
X10001D01*
X14000Y265988D02*
Y267988D01*
Y266988D01*
X8002D01*
Y265988D01*
Y274985D02*
X14000D01*
Y271986D01*
X13000Y270987D01*
X11001D01*
X10001Y271986D01*
Y274985D01*
X14000Y279984D02*
Y277984D01*
X13000Y276985D01*
X11001D01*
X10001Y277984D01*
Y279984D01*
X11001Y280983D01*
X12001D01*
Y276985D01*
X10001Y282983D02*
X14000D01*
X12001D01*
X11001Y283982D01*
X10001Y284982D01*
Y285982D01*
X266000Y221000D02*
Y226998D01*
X268999D01*
X269999Y225998D01*
Y223999D01*
X268999Y222999D01*
X266000D01*
X267999D02*
X269999Y221000D01*
X271998Y226998D02*
X275997D01*
X273997D01*
Y221000D01*
X281995Y225998D02*
X280995Y226998D01*
X278996D01*
X277996Y225998D01*
Y222000D01*
X278996Y221000D01*
X280995D01*
X281995Y222000D01*
X256999Y137498D02*
X255999Y138498D01*
X254000D01*
X253000Y137498D01*
Y136499D01*
X254000Y135499D01*
X255999D01*
X256999Y134499D01*
Y133500D01*
X255999Y132500D01*
X254000D01*
X253000Y133500D01*
X258998Y138498D02*
Y132500D01*
X261997D01*
X262997Y133500D01*
Y137498D01*
X261997Y138498D01*
X258998D01*
X274993Y137498D02*
X273993Y138498D01*
X271994D01*
X270994Y137498D01*
Y133500D01*
X271994Y132500D01*
X273993D01*
X274993Y133500D01*
X277992Y136499D02*
X279991D01*
X280991Y135499D01*
Y132500D01*
X277992D01*
X276992Y133500D01*
X277992Y134499D01*
X280991D01*
X282990Y136499D02*
Y132500D01*
Y134499D01*
X283990Y135499D01*
X284990Y136499D01*
X285989D01*
X292987Y138498D02*
Y132500D01*
X289988D01*
X288988Y133500D01*
Y135499D01*
X289988Y136499D01*
X292987D01*
X100001Y166500D02*
X104000D01*
X102001D01*
Y169166D01*
X100001D01*
X104000D01*
Y172498D02*
Y171165D01*
X103333Y170499D01*
X102001D01*
X101334Y171165D01*
Y172498D01*
X102001Y173164D01*
X102667D01*
Y170499D01*
X101334Y175164D02*
Y176497D01*
X102001Y177163D01*
X104000D01*
Y175164D01*
X103333Y174497D01*
X102667Y175164D01*
Y177163D01*
X101334Y178496D02*
X104000D01*
X102667D01*
X102001Y179163D01*
X101334Y179829D01*
Y180496D01*
X100668Y183161D02*
X101334D01*
Y182495D01*
Y183828D01*
Y183161D01*
X103333D01*
X104000Y183828D01*
X100001Y185827D02*
X104000D01*
Y187826D01*
X103333Y188493D01*
X102667D01*
X102001D01*
X101334Y187826D01*
Y185827D01*
X104000Y191825D02*
Y190492D01*
X103333Y189826D01*
X102001D01*
X101334Y190492D01*
Y191825D01*
X102001Y192492D01*
X102667D01*
Y189826D01*
X101334Y194491D02*
Y195824D01*
X102001Y196490D01*
X104000D01*
Y194491D01*
X103333Y193825D01*
X102667Y194491D01*
Y196490D01*
X100668Y198490D02*
X101334D01*
Y197823D01*
Y199156D01*
Y198490D01*
X103333D01*
X104000Y199156D01*
X153666Y230165D02*
X152999Y230832D01*
X151666D01*
X151000Y230165D01*
Y229499D01*
X151666Y228832D01*
X152999D01*
X153666Y228166D01*
Y227499D01*
X152999Y226833D01*
X151666D01*
X151000Y227499D01*
X155665Y230165D02*
Y229499D01*
X154999D01*
X156332D01*
X155665D01*
Y227499D01*
X156332Y226833D01*
X158331Y229499D02*
Y226833D01*
Y228166D01*
X158997Y228832D01*
X159664Y229499D01*
X160330D01*
X162330Y226833D02*
X163663D01*
X162996D01*
Y229499D01*
X162330D01*
X165662Y225500D02*
Y229499D01*
X167661D01*
X168328Y228832D01*
Y227499D01*
X167661Y226833D01*
X165662D01*
X173659Y230832D02*
Y226833D01*
X176325D01*
X180324Y230832D02*
X177658D01*
Y226833D01*
X180324D01*
X177658Y228832D02*
X178991D01*
X181657Y230832D02*
Y226833D01*
X183656D01*
X184323Y227499D01*
Y230165D01*
X183656Y230832D01*
X181657D01*
X186322Y231498D02*
Y230165D01*
X185655Y229499D01*
X188321Y226833D02*
X190321D01*
X190987Y227499D01*
X190321Y228166D01*
X188988D01*
X188321Y228832D01*
X188988Y229499D01*
X190987D01*
X52000Y301500D02*
Y305499D01*
X53999Y307498D01*
X55999Y305499D01*
Y301500D01*
Y304499D01*
X52000D01*
X57998Y307498D02*
Y301500D01*
X60997D01*
X61997Y302500D01*
Y306498D01*
X60997Y307498D01*
X57998D01*
X67995Y306498D02*
X66995Y307498D01*
X64996D01*
X63996Y306498D01*
Y302500D01*
X64996Y301500D01*
X66995D01*
X67995Y302500D01*
X159000Y343998D02*
Y338000D01*
X161999D01*
X162999Y339000D01*
Y342998D01*
X161999Y343998D01*
X159000D01*
X164998Y338000D02*
Y341999D01*
X166997Y343998D01*
X168997Y341999D01*
Y338000D01*
Y340999D01*
X164998D01*
X174995Y342998D02*
X173995Y343998D01*
X171996D01*
X170996Y342998D01*
Y339000D01*
X171996Y338000D01*
X173995D01*
X174995Y339000D01*
X29501Y295000D02*
Y297666D01*
Y296333D01*
X33500D01*
X29501Y301664D02*
Y298999D01*
X33500D01*
Y301664D01*
X31501Y298999D02*
Y300332D01*
X33500Y302997D02*
X29501D01*
X30834Y304330D01*
X29501Y305663D01*
X33500D01*
Y306996D02*
X29501D01*
Y308996D01*
X30168Y309662D01*
X31501D01*
X32167Y308996D01*
Y306996D01*
X29501Y313661D02*
X30168Y312328D01*
X31501Y310995D01*
X32834D01*
X33500Y311661D01*
Y312994D01*
X32834Y313661D01*
X32167D01*
X31501Y312994D01*
Y310995D01*
X30168Y314994D02*
X29501Y315660D01*
Y316993D01*
X30168Y317659D01*
X32834D01*
X33500Y316993D01*
Y315660D01*
X32834Y314994D01*
X30168D01*
Y318992D02*
X29501Y319659D01*
Y320992D01*
X30168Y321658D01*
X32834D01*
X33500Y320992D01*
Y319659D01*
X32834Y318992D01*
X30168D01*
Y322991D02*
X29501Y323657D01*
Y324990D01*
X30168Y325657D01*
X32834D01*
X33500Y324990D01*
Y323657D01*
X32834Y322991D01*
X30168D01*
X11167Y34500D02*
X7168D01*
X8501Y35833D01*
X7168Y37166D01*
X11167D01*
Y38499D02*
Y39832D01*
Y39165D01*
X8501D01*
Y38499D01*
Y44497D02*
Y42497D01*
X9168Y41831D01*
X10501D01*
X11167Y42497D01*
Y44497D01*
X8501Y45830D02*
X11167D01*
X9834D01*
X9168Y46496D01*
X8501Y47163D01*
Y47829D01*
X11167Y50495D02*
Y51828D01*
X10501Y52494D01*
X9168D01*
X8501Y51828D01*
Y50495D01*
X9168Y49828D01*
X10501D01*
X11167Y50495D01*
X12500Y53827D02*
X8501D01*
Y55826D01*
X9168Y56493D01*
X10501D01*
X11167Y55826D01*
Y53827D01*
X7168Y57826D02*
X11167D01*
X9168D01*
X8501Y58492D01*
Y59825D01*
X9168Y60492D01*
X11167D01*
Y62491D02*
Y63824D01*
X10501Y64490D01*
X9168D01*
X8501Y63824D01*
Y62491D01*
X9168Y61825D01*
X10501D01*
X11167Y62491D01*
Y65823D02*
X8501D01*
Y67823D01*
X9168Y68489D01*
X11167D01*
Y71821D02*
Y70488D01*
X10501Y69822D01*
X9168D01*
X8501Y70488D01*
Y71821D01*
X9168Y72488D01*
X9834D01*
Y69822D01*
X254500Y27999D02*
Y24000D01*
X256499D01*
X257166Y24667D01*
Y25333D01*
X256499Y25999D01*
X254500D01*
X256499D01*
X257166Y26666D01*
Y27332D01*
X256499Y27999D01*
X254500D01*
X258499Y24000D02*
X259832D01*
X259165D01*
Y27999D01*
X258499D01*
X261831Y26666D02*
Y24667D01*
X262497Y24000D01*
X264497D01*
Y26666D01*
X267829Y24000D02*
X266496D01*
X265830Y24667D01*
Y25999D01*
X266496Y26666D01*
X267829D01*
X268495Y25999D01*
Y25333D01*
X265830D01*
X270495Y27332D02*
Y26666D01*
X269828D01*
X271161D01*
X270495D01*
Y24667D01*
X271161Y24000D01*
X273827D02*
X275160D01*
X275827Y24667D01*
Y25999D01*
X275160Y26666D01*
X273827D01*
X273161Y25999D01*
Y24667D01*
X273827Y24000D01*
X277826D02*
X279159D01*
X279825Y24667D01*
Y25999D01*
X279159Y26666D01*
X277826D01*
X277159Y25999D01*
Y24667D01*
X277826Y24000D01*
X281824Y27332D02*
Y26666D01*
X281158D01*
X282491D01*
X281824D01*
Y24667D01*
X282491Y24000D01*
X284490Y27999D02*
Y24000D01*
Y25999D01*
X285157Y26666D01*
X286490D01*
X287156Y25999D01*
Y24000D01*
X135000Y135500D02*
Y139499D01*
X136999D01*
X137666Y138832D01*
Y137499D01*
X136999Y136833D01*
X135000D01*
X138999Y138166D02*
Y136167D01*
X139665Y135500D01*
X141665D01*
Y138166D01*
X142997Y135500D02*
X144997D01*
X145663Y136167D01*
X144997Y136833D01*
X143664D01*
X142997Y137499D01*
X143664Y138166D01*
X145663D01*
X146996Y139499D02*
Y135500D01*
Y137499D01*
X147663Y138166D01*
X148995D01*
X149662Y137499D01*
Y135500D01*
X154994Y139499D02*
Y135500D01*
X156993D01*
X157659Y136167D01*
Y136833D01*
X156993Y137499D01*
X154994D01*
X156993D01*
X157659Y138166D01*
Y138832D01*
X156993Y139499D01*
X154994D01*
X158992Y138166D02*
Y136167D01*
X159659Y135500D01*
X161658D01*
Y138166D01*
X163657Y138832D02*
Y138166D01*
X162991D01*
X164324D01*
X163657D01*
Y136167D01*
X164324Y135500D01*
X166990Y138832D02*
Y138166D01*
X166323D01*
X167656D01*
X166990D01*
Y136167D01*
X167656Y135500D01*
X170322D02*
X171655D01*
X172321Y136167D01*
Y137499D01*
X171655Y138166D01*
X170322D01*
X169656Y137499D01*
Y136167D01*
X170322Y135500D01*
X173654D02*
Y138166D01*
X175654D01*
X176320Y137499D01*
Y135500D01*
X126000Y18999D02*
Y15666D01*
X126666Y15000D01*
X127999D01*
X128666Y15666D01*
Y18999D01*
X129999Y15000D02*
X131332D01*
X130665D01*
Y18999D01*
X129999D01*
X133997Y18332D02*
Y17666D01*
X133331D01*
X134664D01*
X133997D01*
Y15666D01*
X134664Y15000D01*
X136663Y17666D02*
Y15000D01*
Y16333D01*
X137330Y16999D01*
X137996Y17666D01*
X138663D01*
X141328D02*
X142661D01*
X143328Y16999D01*
Y15000D01*
X141328D01*
X140662Y15666D01*
X141328Y16333D01*
X143328D01*
X144661Y15000D02*
X146660D01*
X147326Y15666D01*
X146660Y16333D01*
X145327D01*
X144661Y16999D01*
X145327Y17666D01*
X147326D01*
X149326Y15000D02*
X150659D01*
X151325Y15666D01*
Y16999D01*
X150659Y17666D01*
X149326D01*
X148659Y16999D01*
Y15666D01*
X149326Y15000D01*
X152658D02*
Y17666D01*
X154657D01*
X155324Y16999D01*
Y15000D01*
X156657D02*
X157990D01*
X157323D01*
Y17666D01*
X156657D01*
X162655D02*
X160655D01*
X159989Y16999D01*
Y15666D01*
X160655Y15000D01*
X162655D01*
X170652Y18332D02*
X169986Y18999D01*
X168653D01*
X167987Y18332D01*
Y17666D01*
X168653Y16999D01*
X169986D01*
X170652Y16333D01*
Y15666D01*
X169986Y15000D01*
X168653D01*
X167987Y15666D01*
X173985Y15000D02*
X172652D01*
X171985Y15666D01*
Y16999D01*
X172652Y17666D01*
X173985D01*
X174651Y16999D01*
Y16333D01*
X171985D01*
X175984Y15000D02*
Y17666D01*
X177983D01*
X178650Y16999D01*
Y15000D01*
X179983D02*
X181982D01*
X182648Y15666D01*
X181982Y16333D01*
X180649D01*
X179983Y16999D01*
X180649Y17666D01*
X182648D01*
X184648Y15000D02*
X185981D01*
X186647Y15666D01*
Y16999D01*
X185981Y17666D01*
X184648D01*
X183981Y16999D01*
Y15666D01*
X184648Y15000D01*
X187980Y17666D02*
Y15000D01*
Y16333D01*
X188646Y16999D01*
X189313Y17666D01*
X189979D01*
X74666Y31332D02*
X73999Y31999D01*
X72666D01*
X72000Y31332D01*
Y28666D01*
X72666Y28000D01*
X73999D01*
X74666Y28666D01*
Y29999D01*
X73333D01*
X76665Y30666D02*
X77998D01*
X78664Y29999D01*
Y28000D01*
X76665D01*
X75999Y28666D01*
X76665Y29333D01*
X78664D01*
X79997Y28000D02*
X81997D01*
X82663Y28666D01*
X81997Y29333D01*
X80664D01*
X79997Y29999D01*
X80664Y30666D01*
X82663D01*
X90661Y31332D02*
X89994Y31999D01*
X88661D01*
X87995Y31332D01*
Y30666D01*
X88661Y29999D01*
X89994D01*
X90661Y29333D01*
Y28666D01*
X89994Y28000D01*
X88661D01*
X87995Y28666D01*
X93993Y28000D02*
X92660D01*
X91994Y28666D01*
Y29999D01*
X92660Y30666D01*
X93993D01*
X94659Y29999D01*
Y29333D01*
X91994D01*
X95992Y28000D02*
Y30666D01*
X97992D01*
X98658Y29999D01*
Y28000D01*
X99991D02*
X101990D01*
X102657Y28666D01*
X101990Y29333D01*
X100657D01*
X99991Y29999D01*
X100657Y30666D01*
X102657D01*
X104656Y28000D02*
X105989D01*
X106656Y28666D01*
Y29999D01*
X105989Y30666D01*
X104656D01*
X103990Y29999D01*
Y28666D01*
X104656Y28000D01*
X107988Y30666D02*
Y28000D01*
Y29333D01*
X108655Y29999D01*
X109321Y30666D01*
X109988D01*
X115986Y28000D02*
Y31999D01*
X117319Y30666D01*
X118652Y31999D01*
Y28000D01*
X122650Y28666D02*
Y31332D01*
X121984Y31999D01*
X120651D01*
X119984Y31332D01*
Y28666D01*
X120651Y28000D01*
X121984D01*
X121317Y29333D02*
X122650Y28000D01*
X121984D02*
X122650Y28666D01*
X123983Y31999D02*
X126649D01*
Y31332D01*
X123983Y28666D01*
Y28000D01*
X193000Y26998D02*
Y22000D01*
X195499D01*
X196332Y22833D01*
Y26165D01*
X195499Y26998D01*
X193000D01*
X197998D02*
Y22000D01*
Y24499D01*
X201331D01*
Y26998D01*
Y22000D01*
X202997Y26998D02*
X206329D01*
X204663D01*
Y22000D01*
X207995D02*
X209661D01*
X208828D01*
Y26998D01*
X207995Y26165D01*
X212160Y22000D02*
X213827D01*
X212994D01*
Y26998D01*
X212160Y26165D01*
X216326Y22000D02*
X219658Y25332D01*
X224656Y22000D02*
X221324D01*
X224656Y25332D01*
Y26165D01*
X223823Y26998D01*
X222157D01*
X221324Y26165D01*
X229655Y22000D02*
X226323D01*
X229655Y25332D01*
Y26165D01*
X228822Y26998D01*
X227156D01*
X226323Y26165D01*
X193000Y324500D02*
Y328499D01*
X194999Y330498D01*
X196999Y328499D01*
Y324500D01*
Y327499D01*
X193000D01*
X198998Y328499D02*
Y324500D01*
Y326499D01*
X199998Y327499D01*
X200997Y328499D01*
X201997D01*
X208995Y330498D02*
Y324500D01*
X205996D01*
X204996Y325500D01*
Y327499D01*
X205996Y328499D01*
X208995D01*
X210994D02*
Y325500D01*
X211994Y324500D01*
X214993D01*
Y328499D01*
X216992Y324500D02*
X218992D01*
X217992D01*
Y328499D01*
X216992D01*
X221991Y324500D02*
Y328499D01*
X224990D01*
X225989Y327499D01*
Y324500D01*
X228988D02*
X230988D01*
X231987Y325500D01*
Y327499D01*
X230988Y328499D01*
X228988D01*
X227989Y327499D01*
Y325500D01*
X228988Y324500D01*
X239985Y330498D02*
Y325500D01*
X240985Y324500D01*
X242984D01*
X243984Y325500D01*
Y330498D01*
X245983Y324500D02*
Y328499D01*
X248982D01*
X249982Y327499D01*
Y324500D01*
X252981D02*
X254980D01*
X255980Y325500D01*
Y327499D01*
X254980Y328499D01*
X252981D01*
X251981Y327499D01*
Y325500D01*
X252981Y324500D01*
X267976Y329498D02*
X266976Y330498D01*
X264977D01*
X263977Y329498D01*
Y328499D01*
X264977Y327499D01*
X266976D01*
X267976Y326499D01*
Y325500D01*
X266976Y324500D01*
X264977D01*
X263977Y325500D01*
X272974Y324500D02*
X270975D01*
X269975Y325500D01*
Y327499D01*
X270975Y328499D01*
X272974D01*
X273974Y327499D01*
Y326499D01*
X269975D01*
X275973Y324500D02*
Y328499D01*
X278972D01*
X279972Y327499D01*
Y324500D01*
X281971D02*
X284970D01*
X285970Y325500D01*
X284970Y326499D01*
X282971D01*
X281971Y327499D01*
X282971Y328499D01*
X285970D01*
X288969Y324500D02*
X290968D01*
X291968Y325500D01*
Y327499D01*
X290968Y328499D01*
X288969D01*
X287969Y327499D01*
Y325500D01*
X288969Y324500D01*
X293967Y328499D02*
Y324500D01*
Y326499D01*
X294967Y327499D01*
X295967Y328499D01*
X296966D01*
X197499Y340498D02*
X193500D01*
Y334500D01*
X197499D01*
X193500Y337499D02*
X195499D01*
X203497Y339498D02*
X202497Y340498D01*
X200498D01*
X199498Y339498D01*
Y335500D01*
X200498Y334500D01*
X202497D01*
X203497Y335500D01*
X209495Y340498D02*
X205496D01*
Y334500D01*
X209495D01*
X205496Y337499D02*
X207495D01*
X211494Y334500D02*
Y340498D01*
X215493Y334500D01*
Y340498D01*
X227489D02*
X223490D01*
Y337499D01*
X225490Y338499D01*
X226489D01*
X227489Y337499D01*
Y335500D01*
X226489Y334500D01*
X224490D01*
X223490Y335500D01*
X229488Y340498D02*
X233487D01*
Y339498D01*
X229488Y335500D01*
Y334500D01*
X235486Y339498D02*
X236486Y340498D01*
X238485D01*
X239485Y339498D01*
Y338499D01*
X238485Y337499D01*
X237486D01*
X238485D01*
X239485Y336499D01*
Y335500D01*
X238485Y334500D01*
X236486D01*
X235486Y335500D01*
X241484Y339498D02*
X242484Y340498D01*
X244483D01*
X245483Y339498D01*
Y335500D01*
X244483Y334500D01*
X242484D01*
X241484Y335500D01*
Y339498D01*
X30833Y139329D02*
Y136663D01*
Y137996D01*
X26834D01*
Y135330D02*
X30833D01*
Y133331D01*
X30166Y132665D01*
X28833D01*
X28167Y133331D01*
Y135330D01*
X26834Y128666D02*
Y131332D01*
X29500Y128666D01*
X30166D01*
X30833Y129332D01*
Y130665D01*
X30166Y131332D01*
X26167Y127333D02*
Y124667D01*
X30833Y123334D02*
X28167D01*
X26834Y122001D01*
X28167Y120668D01*
X30833D01*
X30166Y116670D02*
X30833Y117336D01*
Y118669D01*
X30166Y119335D01*
X27500D01*
X26834Y118669D01*
Y117336D01*
X27500Y116670D01*
X30166Y112671D02*
X30833Y113337D01*
Y114670D01*
X30166Y115337D01*
X27500D01*
X26834Y114670D01*
Y113337D01*
X27500Y112671D01*
X168502Y239999D02*
Y234001D01*
X171501D01*
X172500Y235001D01*
Y238999D01*
X171501Y239999D01*
X168502D01*
X178498D02*
X176499Y238999D01*
X174500Y237000D01*
Y235001D01*
X175499Y234001D01*
X177499D01*
X178498Y235001D01*
Y236000D01*
X177499Y237000D01*
X174500D01*
X155002Y213001D02*
Y218999D01*
X158001D01*
X159000Y217999D01*
Y216000D01*
X158001Y215000D01*
X155002D01*
X157001D02*
X159000Y213001D01*
X164998Y218999D02*
X162999Y217999D01*
X161000Y216000D01*
Y214001D01*
X161999Y213001D01*
X163999D01*
X164998Y214001D01*
Y215000D01*
X163999Y216000D01*
X161000D01*
X136502Y239999D02*
Y234001D01*
X139501D01*
X140500Y235001D01*
Y238999D01*
X139501Y239999D01*
X136502D01*
X146498D02*
X142500D01*
Y237000D01*
X144499Y238000D01*
X145499D01*
X146498Y237000D01*
Y235001D01*
X145499Y234001D01*
X143499D01*
X142500Y235001D01*
X105002Y237999D02*
Y232001D01*
X108001D01*
X109000Y233001D01*
Y236999D01*
X108001Y237999D01*
X105002D01*
X113999Y232001D02*
Y237999D01*
X111000Y235000D01*
X114998D01*
X72502Y236499D02*
Y230501D01*
X75501D01*
X76500Y231501D01*
Y235499D01*
X75501Y236499D01*
X72502D01*
X78500Y235499D02*
X79499Y236499D01*
X81499D01*
X82498Y235499D01*
Y234500D01*
X81499Y233500D01*
X80499D01*
X81499D01*
X82498Y232500D01*
Y231501D01*
X81499Y230501D01*
X79499D01*
X78500Y231501D01*
X22500Y271999D02*
X21500Y272999D01*
X19501D01*
X18501Y271999D01*
Y268001D01*
X19501Y267001D01*
X21500D01*
X22500Y268001D01*
X24499Y267001D02*
X26499D01*
X25499D01*
Y272999D01*
X24499Y271999D01*
X140000Y155199D02*
X139001Y156199D01*
X137001D01*
X136002Y155199D01*
Y151201D01*
X137001Y150201D01*
X139001D01*
X140000Y151201D01*
X145998Y156199D02*
X142000D01*
Y153200D01*
X143999Y154200D01*
X144999D01*
X145998Y153200D01*
Y151201D01*
X144999Y150201D01*
X142999D01*
X142000Y151201D01*
X131201Y205401D02*
Y209400D01*
X133201Y211399D01*
X135200Y209400D01*
Y205401D01*
Y208400D01*
X131201D01*
X137199Y205401D02*
X139199D01*
X138199D01*
Y211399D01*
X137199Y210399D01*
X88500Y337299D02*
X87501Y338299D01*
X85501D01*
X84502Y337299D01*
Y333301D01*
X85501Y332301D01*
X87501D01*
X88500Y333301D01*
X94498Y332301D02*
X90500D01*
X94498Y336300D01*
Y337299D01*
X93499Y338299D01*
X91499D01*
X90500Y337299D01*
X201602Y196301D02*
Y202299D01*
X204601D01*
X205600Y201299D01*
Y199300D01*
X204601Y198300D01*
X201602D01*
X203601D02*
X205600Y196301D01*
X207600Y197301D02*
X208599Y196301D01*
X210599D01*
X211598Y197301D01*
Y201299D01*
X210599Y202299D01*
X208599D01*
X207600Y201299D01*
Y200300D01*
X208599Y199300D01*
X211598D01*
X167301Y145499D02*
X166301Y146499D01*
X164302D01*
X163302Y145499D01*
Y144500D01*
X164302Y143500D01*
X166301D01*
X167301Y142500D01*
Y141501D01*
X166301Y140501D01*
X164302D01*
X163302Y141501D01*
X169300Y146499D02*
Y140501D01*
X171300Y142500D01*
X173299Y140501D01*
Y146499D01*
X175298Y140501D02*
X177298D01*
X176298D01*
Y146499D01*
X175298Y145499D01*
X190302Y122501D02*
Y128499D01*
X193301D01*
X194301Y127499D01*
Y125500D01*
X193301Y124500D01*
X190302D01*
X192302D02*
X194301Y122501D01*
X196300D02*
X198300D01*
X197300D01*
Y128499D01*
X196300Y127499D01*
X201299D02*
X202299Y128499D01*
X204298D01*
X205298Y127499D01*
Y123501D01*
X204298Y122501D01*
X202299D01*
X201299Y123501D01*
Y127499D01*
X11899Y205202D02*
X5901D01*
Y208201D01*
X6901Y209200D01*
X8900D01*
X9900Y208201D01*
Y205202D01*
Y207201D02*
X11899Y209200D01*
X6901Y211200D02*
X5901Y212199D01*
Y214199D01*
X6901Y215198D01*
X7900D01*
X8900Y214199D01*
X9900Y215198D01*
X10899D01*
X11899Y214199D01*
Y212199D01*
X10899Y211200D01*
X9900D01*
X8900Y212199D01*
X7900Y211200D01*
X6901D01*
X8900Y212199D02*
Y214199D01*
X32002Y26501D02*
Y32499D01*
X35001D01*
X36000Y31499D01*
Y29500D01*
X35001Y28500D01*
X32002D01*
X34001D02*
X36000Y26501D01*
X41998Y32499D02*
X38000D01*
Y29500D01*
X39999Y30500D01*
X40999D01*
X41998Y29500D01*
Y27501D01*
X40999Y26501D01*
X38999D01*
X38000Y27501D01*
X32092Y83325D02*
X28760D01*
X30426Y81659D02*
Y84991D01*
X10045Y83325D02*
X6713D01*
X160800Y336198D02*
Y331200D01*
X161800Y330200D01*
X163799D01*
X164799Y331200D01*
Y336198D01*
X166798Y335198D02*
X167798Y336198D01*
X169797D01*
X170797Y335198D01*
Y334199D01*
X169797Y333199D01*
X168797D01*
X169797D01*
X170797Y332199D01*
Y331200D01*
X169797Y330200D01*
X167798D01*
X166798Y331200D01*
X46400Y335998D02*
Y331000D01*
X47400Y330000D01*
X49399D01*
X50399Y331000D01*
Y335998D01*
X56397Y330000D02*
X52398D01*
X56397Y333999D01*
Y334998D01*
X55397Y335998D01*
X53398D01*
X52398Y334998D01*
X202300Y229800D02*
Y235798D01*
X205299D01*
X206299Y234798D01*
Y232799D01*
X205299Y231799D01*
X202300D01*
X204299D02*
X206299Y229800D01*
X208298Y235798D02*
X212297D01*
Y234798D01*
X208298Y230800D01*
Y229800D01*
X19400Y39300D02*
Y45298D01*
X22399D01*
X23399Y44298D01*
Y42299D01*
X22399Y41299D01*
X19400D01*
X21399D02*
X23399Y39300D01*
X28397D02*
Y45298D01*
X25398Y42299D01*
X29397D01*
X180000Y177600D02*
Y183598D01*
X182999D01*
X183999Y182598D01*
Y180599D01*
X182999Y179599D01*
X180000D01*
X181999D02*
X183999Y177600D01*
X185998Y182598D02*
X186998Y183598D01*
X188997D01*
X189997Y182598D01*
Y181599D01*
X188997Y180599D01*
X187997D01*
X188997D01*
X189997Y179599D01*
Y178600D01*
X188997Y177600D01*
X186998D01*
X185998Y178600D01*
X98400Y293800D02*
Y299798D01*
X101399D01*
X102399Y298798D01*
Y296799D01*
X101399Y295799D01*
X98400D01*
X100399D02*
X102399Y293800D01*
X108397D02*
X104398D01*
X108397Y297799D01*
Y298798D01*
X107397Y299798D01*
X105398D01*
X104398Y298798D01*
X193400Y287100D02*
Y293098D01*
X196399D01*
X197399Y292098D01*
Y290099D01*
X196399Y289099D01*
X193400D01*
X195399D02*
X197399Y287100D01*
X199398D02*
X201397D01*
X200398D01*
Y293098D01*
X199398Y292098D01*
X6700Y93100D02*
Y99098D01*
X8699Y97099D01*
X10699Y99098D01*
Y93100D01*
X12698Y99098D02*
Y93100D01*
Y95099D01*
X16697Y99098D01*
X13698Y96099D01*
X16697Y93100D01*
X18696D02*
X20696D01*
X19696D01*
Y99098D01*
X18696Y98098D01*
X122300Y129998D02*
Y124000D01*
X126299D01*
X132297Y128998D02*
X131297Y129998D01*
X129298D01*
X128298Y128998D01*
Y127999D01*
X129298Y126999D01*
X131297D01*
X132297Y125999D01*
Y125000D01*
X131297Y124000D01*
X129298D01*
X128298Y125000D01*
X134296Y124000D02*
X136295D01*
X135296D01*
Y129998D01*
X134296Y128998D01*
X12100Y198398D02*
Y192400D01*
X16099D01*
X22097Y198398D02*
X18098D01*
Y192400D01*
X22097D01*
X18098Y195399D02*
X20097D01*
X24096Y198398D02*
Y192400D01*
X27095D01*
X28095Y193400D01*
Y197398D01*
X27095Y198398D01*
X24096D01*
X30094Y197398D02*
X31094Y198398D01*
X33093D01*
X34093Y197398D01*
Y196399D01*
X33093Y195399D01*
X32094D01*
X33093D01*
X34093Y194399D01*
Y193400D01*
X33093Y192400D01*
X31094D01*
X30094Y193400D01*
X94700Y331598D02*
Y325600D01*
X98699D01*
X104697Y331598D02*
X100698D01*
Y325600D01*
X104697D01*
X100698Y328599D02*
X102697D01*
X106696Y331598D02*
Y325600D01*
X109695D01*
X110695Y326600D01*
Y330598D01*
X109695Y331598D01*
X106696D01*
X116693Y325600D02*
X112694D01*
X116693Y329599D01*
Y330598D01*
X115693Y331598D01*
X113694D01*
X112694Y330598D01*
X181800Y316998D02*
Y311000D01*
X185799D01*
X191797Y316998D02*
X187798D01*
Y311000D01*
X191797D01*
X187798Y313999D02*
X189797D01*
X193796Y316998D02*
Y311000D01*
X196795D01*
X197795Y312000D01*
Y315998D01*
X196795Y316998D01*
X193796D01*
X199794Y311000D02*
X201794D01*
X200794D01*
Y316998D01*
X199794Y315998D01*
X141199Y69498D02*
X139199D01*
X140199D01*
Y64500D01*
X139199Y63500D01*
X138200D01*
X137200Y64500D01*
X143198Y63500D02*
X145197D01*
X144198D01*
Y69498D01*
X143198Y68498D01*
X148196Y63500D02*
X150196D01*
X149196D01*
Y69498D01*
X148196Y68498D01*
X269499Y104498D02*
X267499D01*
X268499D01*
Y99500D01*
X267499Y98500D01*
X266500D01*
X265500Y99500D01*
X271498D02*
X272498Y98500D01*
X274497D01*
X275497Y99500D01*
Y103498D01*
X274497Y104498D01*
X272498D01*
X271498Y103498D01*
Y102499D01*
X272498Y101499D01*
X275497D01*
X273899Y299798D02*
X271899D01*
X272899D01*
Y294800D01*
X271899Y293800D01*
X270900D01*
X269900Y294800D01*
X275898Y298798D02*
X276898Y299798D01*
X278897D01*
X279897Y298798D01*
Y297799D01*
X278897Y296799D01*
X279897Y295799D01*
Y294800D01*
X278897Y293800D01*
X276898D01*
X275898Y294800D01*
Y295799D01*
X276898Y296799D01*
X275898Y297799D01*
Y298798D01*
X276898Y296799D02*
X278897D01*
X239399Y124398D02*
X237399D01*
X238399D01*
Y119400D01*
X237399Y118400D01*
X236400D01*
X235400Y119400D01*
X241398Y124398D02*
X245397D01*
Y123398D01*
X241398Y119400D01*
Y118400D01*
X227299Y230498D02*
X225299D01*
X226299D01*
Y225500D01*
X225299Y224500D01*
X224300D01*
X223300Y225500D01*
X233297Y230498D02*
X231297Y229498D01*
X229298Y227499D01*
Y225500D01*
X230298Y224500D01*
X232297D01*
X233297Y225500D01*
Y226499D01*
X232297Y227499D01*
X229298D01*
X49499Y194498D02*
X47499D01*
X48499D01*
Y189500D01*
X47499Y188500D01*
X46500D01*
X45500Y189500D01*
X55497Y194498D02*
X51498D01*
Y191499D01*
X53497Y192499D01*
X54497D01*
X55497Y191499D01*
Y189500D01*
X54497Y188500D01*
X52498D01*
X51498Y189500D01*
X40999Y104498D02*
X38999D01*
X39999D01*
Y99500D01*
X38999Y98500D01*
X38000D01*
X37000Y99500D01*
X45997Y98500D02*
Y104498D01*
X42998Y101499D01*
X46997D01*
X13999Y337198D02*
X11999D01*
X12999D01*
Y332200D01*
X11999Y331200D01*
X11000D01*
X10000Y332200D01*
X15998Y336198D02*
X16998Y337198D01*
X18997D01*
X19997Y336198D01*
Y335199D01*
X18997Y334199D01*
X17997D01*
X18997D01*
X19997Y333199D01*
Y332200D01*
X18997Y331200D01*
X16998D01*
X15998Y332200D01*
X205799Y77098D02*
X203799D01*
X204799D01*
Y72100D01*
X203799Y71100D01*
X202800D01*
X201800Y72100D01*
X211797Y71100D02*
X207798D01*
X211797Y75099D01*
Y76098D01*
X210797Y77098D01*
X208798D01*
X207798Y76098D01*
X77699Y83698D02*
X75699D01*
X76699D01*
Y78700D01*
X75699Y77700D01*
X74700D01*
X73700Y78700D01*
X79698Y77700D02*
X81697D01*
X80698D01*
Y83698D01*
X79698Y82698D01*
X24699Y69598D02*
X23699Y70598D01*
X21700D01*
X20700Y69598D01*
Y65600D01*
X21700Y64600D01*
X23699D01*
X24699Y65600D01*
X29697Y64600D02*
Y70598D01*
X26698Y67599D01*
X30697D01*
X166599Y312598D02*
X165599Y313598D01*
X163600D01*
X162600Y312598D01*
Y308600D01*
X163600Y307600D01*
X165599D01*
X166599Y308600D01*
X168598Y312598D02*
X169598Y313598D01*
X171597D01*
X172597Y312598D01*
Y311599D01*
X171597Y310599D01*
X170597D01*
X171597D01*
X172597Y309599D01*
Y308600D01*
X171597Y307600D01*
X169598D01*
X168598Y308600D01*
D14*
X136700Y327300D02*
Y337800D01*
X147700D01*
X136700Y295800D02*
Y297300D01*
Y295800D02*
X147700D01*
Y337800D01*
X11500Y143200D02*
Y153700D01*
X22500D01*
X11500Y111700D02*
Y113200D01*
Y111700D02*
X22500D01*
Y153700D01*
M02*
