G04*
G04 #@! TF.GenerationSoftware,Altium Limited,Altium Designer,22.3.1 (43)*
G04*
G04 Layer_Color=8421504*
%FSLAX25Y25*%
%MOIN*%
G70*
G04*
G04 #@! TF.SameCoordinates,7998B177-6A3A-43FF-968B-635B49023C71*
G04*
G04*
G04 #@! TF.FilePolarity,Positive*
G04*
G01*
G75*
%ADD15R,0.06200X0.04750*%
G04:AMPARAMS|DCode=16|XSize=48.82mil|YSize=23.23mil|CornerRadius=5.81mil|HoleSize=0mil|Usage=FLASHONLY|Rotation=90.000|XOffset=0mil|YOffset=0mil|HoleType=Round|Shape=RoundedRectangle|*
%AMROUNDEDRECTD16*
21,1,0.04882,0.01161,0,0,90.0*
21,1,0.03720,0.02323,0,0,90.0*
1,1,0.01161,0.00581,0.01860*
1,1,0.01161,0.00581,-0.01860*
1,1,0.01161,-0.00581,-0.01860*
1,1,0.01161,-0.00581,0.01860*
%
%ADD16ROUNDEDRECTD16*%
%ADD17R,0.04400X0.07100*%
%ADD18R,0.03150X0.03150*%
%ADD19R,0.05906X0.04724*%
%ADD20R,0.07100X0.04400*%
%ADD21R,0.06300X0.05500*%
%ADD22R,0.05500X0.06300*%
G04:AMPARAMS|DCode=23|XSize=57.87mil|YSize=11.02mil|CornerRadius=1.38mil|HoleSize=0mil|Usage=FLASHONLY|Rotation=0.000|XOffset=0mil|YOffset=0mil|HoleType=Round|Shape=RoundedRectangle|*
%AMROUNDEDRECTD23*
21,1,0.05787,0.00827,0,0,0.0*
21,1,0.05512,0.01102,0,0,0.0*
1,1,0.00276,0.02756,-0.00413*
1,1,0.00276,-0.02756,-0.00413*
1,1,0.00276,-0.02756,0.00413*
1,1,0.00276,0.02756,0.00413*
%
%ADD23ROUNDEDRECTD23*%
G04:AMPARAMS|DCode=24|XSize=63.39mil|YSize=23.23mil|CornerRadius=2.9mil|HoleSize=0mil|Usage=FLASHONLY|Rotation=0.000|XOffset=0mil|YOffset=0mil|HoleType=Round|Shape=RoundedRectangle|*
%AMROUNDEDRECTD24*
21,1,0.06339,0.01742,0,0,0.0*
21,1,0.05758,0.02323,0,0,0.0*
1,1,0.00581,0.02879,-0.00871*
1,1,0.00581,-0.02879,-0.00871*
1,1,0.00581,-0.02879,0.00871*
1,1,0.00581,0.02879,0.00871*
%
%ADD24ROUNDEDRECTD24*%
D15*
X172000Y196450D02*
D03*
X152800D02*
D03*
X172000Y183750D02*
D03*
X152800D02*
D03*
X132700Y196700D02*
D03*
X113500D02*
D03*
X132700Y184000D02*
D03*
X113500D02*
D03*
X183600Y255850D02*
D03*
X164400D02*
D03*
X183600Y243150D02*
D03*
X164400D02*
D03*
X152100Y255850D02*
D03*
X132900D02*
D03*
X152100Y243150D02*
D03*
X132900D02*
D03*
X120600Y255850D02*
D03*
X101400D02*
D03*
X120600Y243150D02*
D03*
X101400D02*
D03*
X89200Y255750D02*
D03*
X70000D02*
D03*
X89200Y243050D02*
D03*
X70000D02*
D03*
D16*
X39700Y287355D02*
D03*
X43440Y279047D02*
D03*
X35960D02*
D03*
D17*
X150000Y220000D02*
D03*
X138200D02*
D03*
X24000Y260300D02*
D03*
X35800D02*
D03*
X140100Y163700D02*
D03*
X151900D02*
D03*
X80900Y335000D02*
D03*
X69100D02*
D03*
X215600Y206300D02*
D03*
X203800D02*
D03*
X221000Y120200D02*
D03*
X209200D02*
D03*
X38100Y21700D02*
D03*
X49900D02*
D03*
X100000Y286900D02*
D03*
X111800D02*
D03*
X34100Y57600D02*
D03*
X22300D02*
D03*
X203900Y222900D02*
D03*
X215700D02*
D03*
D18*
X145905Y190000D02*
D03*
X140000D02*
D03*
D19*
X183008Y135494D02*
D03*
X208992Y147306D02*
D03*
Y135494D02*
D03*
X183008Y147306D02*
D03*
D20*
X16900Y215200D02*
D03*
Y203400D02*
D03*
X196300Y281500D02*
D03*
Y269700D02*
D03*
X165600Y302000D02*
D03*
Y290200D02*
D03*
X182900Y172000D02*
D03*
Y160200D02*
D03*
X22400Y21900D02*
D03*
Y33700D02*
D03*
D21*
X17100Y173300D02*
D03*
Y185100D02*
D03*
X99700Y319500D02*
D03*
Y307700D02*
D03*
D22*
X183900Y302000D02*
D03*
X195700D02*
D03*
D23*
X51535Y323937D02*
D03*
Y321969D02*
D03*
Y320000D02*
D03*
Y318032D02*
D03*
Y316063D02*
D03*
X68465D02*
D03*
Y318032D02*
D03*
Y320000D02*
D03*
Y321969D02*
D03*
Y323937D02*
D03*
D24*
X165492Y323740D02*
D03*
Y320000D02*
D03*
Y316260D02*
D03*
X174508D02*
D03*
Y320000D02*
D03*
Y323740D02*
D03*
M02*
