G04*
G04 #@! TF.GenerationSoftware,Altium Limited,Altium Designer,22.3.1 (43)*
G04*
G04 Layer_Color=16711935*
%FSLAX25Y25*%
%MOIN*%
G70*
G04*
G04 #@! TF.SameCoordinates,BE9DF307-5FBB-4082-8082-0A4452DDA755*
G04*
G04*
G04 #@! TF.FilePolarity,Negative*
G04*
G01*
G75*
%ADD53C,0.07800*%
%ADD54O,0.04737X0.08674*%
%ADD55O,0.04737X0.07099*%
%ADD56C,0.03162*%
%ADD57C,0.03556*%
%ADD58C,0.03950*%
%ADD59C,0.06800*%
%ADD60C,0.07296*%
%ADD61O,0.15761X0.08674*%
%ADD62O,0.07887X0.13792*%
%ADD63C,0.03300*%
D53*
X210558Y73777D02*
D03*
Y63777D02*
D03*
Y93777D02*
D03*
Y83777D02*
D03*
X153113Y247018D02*
D03*
X163113D02*
D03*
X133113D02*
D03*
X143113D02*
D03*
X25612Y259031D02*
D03*
Y269031D02*
D03*
Y239031D02*
D03*
Y249031D02*
D03*
X95989Y259090D02*
D03*
Y269090D02*
D03*
Y239090D02*
D03*
Y249090D02*
D03*
X253086Y15642D02*
D03*
X263086D02*
D03*
X233086D02*
D03*
X243086D02*
D03*
X217383Y241574D02*
D03*
Y231574D02*
D03*
Y261574D02*
D03*
Y251574D02*
D03*
X193171Y242212D02*
D03*
Y232212D02*
D03*
Y262212D02*
D03*
Y252212D02*
D03*
X187271Y16002D02*
D03*
X177271D02*
D03*
X207271D02*
D03*
X197271D02*
D03*
X244769Y337300D02*
D03*
X234769D02*
D03*
X264769D02*
D03*
X254769D02*
D03*
X126906Y124917D02*
D03*
Y134916D02*
D03*
X136906Y124917D02*
D03*
Y134916D02*
D03*
X146906Y124917D02*
D03*
Y134916D02*
D03*
D54*
X198002Y335529D02*
D03*
X162568D02*
D03*
D55*
X198002Y308757D02*
D03*
X162569D02*
D03*
D56*
X181861Y311906D02*
D03*
X178711D02*
D03*
X185010D02*
D03*
X175562D02*
D03*
X183436Y314662D02*
D03*
X177136D02*
D03*
X186585D02*
D03*
X173987D02*
D03*
X189735D02*
D03*
X170837D02*
D03*
D57*
X168278Y311906D02*
D03*
X192294D02*
D03*
D58*
X165621Y314662D02*
D03*
X194951D02*
D03*
D59*
X272635Y207718D02*
D03*
Y197718D02*
D03*
Y187718D02*
D03*
Y177718D02*
D03*
Y167718D02*
D03*
Y157718D02*
D03*
Y147718D02*
D03*
Y137718D02*
D03*
Y127718D02*
D03*
Y117718D02*
D03*
X242635Y207718D02*
D03*
Y197718D02*
D03*
Y187718D02*
D03*
Y177718D02*
D03*
Y167718D02*
D03*
Y157718D02*
D03*
Y147718D02*
D03*
Y137718D02*
D03*
Y127718D02*
D03*
Y117718D02*
D03*
X272635Y101718D02*
D03*
Y91718D02*
D03*
Y81718D02*
D03*
Y71718D02*
D03*
Y61718D02*
D03*
Y51718D02*
D03*
Y41718D02*
D03*
Y31718D02*
D03*
X52635Y171718D02*
D03*
Y161718D02*
D03*
Y151718D02*
D03*
Y141718D02*
D03*
Y131718D02*
D03*
Y121718D02*
D03*
Y111718D02*
D03*
Y101718D02*
D03*
X22635Y171718D02*
D03*
Y161718D02*
D03*
Y151718D02*
D03*
Y141718D02*
D03*
Y131718D02*
D03*
Y121718D02*
D03*
Y111718D02*
D03*
Y101718D02*
D03*
Y81718D02*
D03*
Y71718D02*
D03*
Y61718D02*
D03*
Y51718D02*
D03*
Y41718D02*
D03*
Y31718D02*
D03*
X52635Y81718D02*
D03*
Y71718D02*
D03*
Y61718D02*
D03*
Y51718D02*
D03*
Y41718D02*
D03*
Y31718D02*
D03*
X242635D02*
D03*
Y41718D02*
D03*
Y51718D02*
D03*
Y61718D02*
D03*
Y71718D02*
D03*
Y81718D02*
D03*
Y91718D02*
D03*
Y101718D02*
D03*
D60*
X122763Y338520D02*
D03*
X112763D02*
D03*
X102763D02*
D03*
D61*
X25661Y291690D02*
D03*
Y315312D02*
D03*
D62*
X7354Y301533D02*
D03*
D63*
X178541Y295877D02*
D03*
X189678Y298631D02*
D03*
X189567Y302855D02*
D03*
X179301Y303027D02*
D03*
X182637Y301968D02*
D03*
X230753Y245923D02*
D03*
X230778Y251745D02*
D03*
X176779Y102963D02*
D03*
X218598Y305923D02*
D03*
X200404Y297984D02*
D03*
X273877Y238543D02*
D03*
X264267Y238661D02*
D03*
X110186Y206809D02*
D03*
X101760Y207262D02*
D03*
X69156Y247386D02*
D03*
X73758Y240191D02*
D03*
X209720Y37357D02*
D03*
X214151Y42096D02*
D03*
X211644Y293607D02*
D03*
X216279Y273001D02*
D03*
X211789Y282345D02*
D03*
X190093Y280684D02*
D03*
X187673Y290492D02*
D03*
X208717Y338752D02*
D03*
X156504Y262816D02*
D03*
X169391Y302873D02*
D03*
X202087Y167351D02*
D03*
X127540Y101234D02*
D03*
X116683Y101096D02*
D03*
X66755Y144368D02*
D03*
X67196Y152749D02*
D03*
X76116Y144074D02*
D03*
X73708Y136866D02*
D03*
X52635Y141718D02*
D03*
X85200Y137733D02*
D03*
X175275Y43346D02*
D03*
X174693Y56527D02*
D03*
X36943Y17037D02*
D03*
X37046Y27384D02*
D03*
X160190Y64783D02*
D03*
X161075Y71383D02*
D03*
X242635Y207718D02*
D03*
X85351Y126382D02*
D03*
X242635Y187718D02*
D03*
X98957Y138090D02*
D03*
X98663Y126820D02*
D03*
X242635Y197718D02*
D03*
X93250Y137598D02*
D03*
Y126991D02*
D03*
X39884Y133798D02*
D03*
X35787Y140651D02*
D03*
X112299Y67737D02*
D03*
X173766Y107452D02*
D03*
X156782Y89351D02*
D03*
X179973Y97753D02*
D03*
X177496Y74565D02*
D03*
X82886Y77552D02*
D03*
X249759Y270218D02*
D03*
X226822Y277240D02*
D03*
X244973Y260512D02*
D03*
X234687Y284352D02*
D03*
X249185Y305114D02*
D03*
X294527Y316982D02*
D03*
X147616Y327463D02*
D03*
X57524Y267949D02*
D03*
X66735Y261237D02*
D03*
X82446Y299562D02*
D03*
X137899Y281632D02*
D03*
X126811Y297894D02*
D03*
X118434Y303561D02*
D03*
X73546Y315243D02*
D03*
M02*
