M48
;Layer_Color=9474304
;FILE_FORMAT=2:5
INCH,LZ
;TYPE=PLATED
T1F00S00C0.01300
T2F00S00C0.01575
T3F00S00C0.01969
T6F00S00C0.04000
T7F00S00C0.04331
;TYPE=NON_PLATED
T9F00S00C0.03150
%
T01
X0036943Y0017037
X0037046Y0027384
X0175275Y0043346
X020972Y0037357
X0214151Y0042096
X0242635Y0187718
Y0197718
Y0207718
X0202087Y0167351
X0173766Y0107452
X0176779Y0102963
X0179973Y0097753
X0177496Y0074565
X0161075Y0071383
X016019Y0064783
X0174693Y0056527
X0156782Y0089351
X012754Y0101234
X0116683Y0101096
X0112299Y0067737
X0082886Y0077552
X0085351Y0126382
X009325Y0126991
X0098663Y012682
X0098957Y013809
X009325Y0137598
X00852Y0137733
X0073708Y0136866
X0076116Y0144074
X0066755Y0144368
X0067196Y0152749
X010176Y0207262
X0110186Y0206809
X0052635Y0141718
X0035787Y0140651
X0039884Y0133798
X0073758Y0240191
X0069156Y0247386
X0066735Y0261237
X0057524Y0267949
X0082446Y0299562
X0073546Y0315243
X0118434Y0303561
X0126811Y0297894
X0137899Y0281632
X0156504Y0262816
X0190093Y0280684
X0187673Y0290492
X0189678Y0298631
X0189567Y0302855
X0182637Y0301968
X0179301Y0303027
X0178541Y0295877
X0169391Y0302873
X0200404Y0297984
X0211644Y0293607
X0211789Y0282345
X0208717Y0338752
X0147616Y0327463
X0218598Y0305923
X0249185Y0305114
X0234687Y0284352
X0226822Y027724
X0216279Y0273001
X0230778Y0251745
X0230753Y0245923
X0244973Y0260512
X0249759Y0270218
X0264267Y0238661
X0273877Y0238543
X0294527Y0316982
T02
X0170837Y0314662
X0173987
X0177136
X0175562Y0311906
X0178711
X0181861
X018501
X0183436Y0314662
X0186585
X0189735
T03
X0168278Y0311906
X0192294
T06
X0177271Y0016002
X0187271
X0197271
X0207271
X0233086Y0015642
X0243086
X0253086
X0263086
X0210558Y0063777
Y0073777
Y0083777
Y0093777
X0025612Y0239031
Y0249031
Y0259031
Y0269031
X0095989Y026909
Y025909
Y024909
Y023909
X0133113Y0247018
X0143113
X0153113
X0163113
X0193171Y0242212
Y0232212
Y0252212
Y0262212
X0217383Y0261574
Y0251574
Y0241574
Y0231574
X0234769Y03373
X0244769
X0254769
X0264769
T07
X0022635Y0031718
Y0041718
Y0051718
X0052635
Y0041718
Y0031718
X0242635
Y0041718
Y0051718
X0272635
Y0041718
Y0031718
Y0061718
Y0071718
Y0081718
Y0091718
Y0101718
Y0117718
Y0127718
Y0137718
Y0147718
Y0157718
Y0167718
Y0177718
Y0187718
Y0197718
Y0207718
X0242635
Y0197718
Y0187718
Y0177718
Y0167718
Y0157718
Y0147718
Y0137718
Y0127718
Y0117718
Y0101718
Y0091718
Y0081718
Y0071718
Y0061718
X0146906Y0124917
X0136906
X0126906
Y0134916
X0136906
X0146906
X0052635Y0131718
Y0141718
Y0151718
Y0161718
Y0171718
X0022635
Y0161718
Y0151718
Y0141718
Y0131718
Y0121718
Y0111718
Y0101718
Y0081718
Y0071718
Y0061718
X0052635
Y0071718
Y0081718
Y0101718
Y0111718
Y0121718
X0102763Y033852
X0112763
X0122763
T09
X0165621Y0314662
X0194951
M30
