G04*
G04 #@! TF.GenerationSoftware,Altium Limited,Altium Designer,22.3.1 (43)*
G04*
G04 Layer_Color=65535*
%FSLAX25Y25*%
%MOIN*%
G70*
G04*
G04 #@! TF.SameCoordinates,BE9DF307-5FBB-4082-8082-0A4452DDA755*
G04*
G04*
G04 #@! TF.FilePolarity,Positive*
G04*
G01*
G75*
%ADD10C,0.00600*%
%ADD11C,0.01000*%
%ADD12C,0.00394*%
%ADD13C,0.01575*%
%ADD14C,0.01500*%
%ADD15C,0.00800*%
%ADD16C,0.00900*%
%ADD17C,0.00500*%
D10*
X206398Y305383D02*
G03*
X206398Y305383I-707J0D01*
G01*
X110104Y298259D02*
G03*
X110104Y298259I-707J0D01*
G01*
X41308Y234116D02*
G03*
X41308Y234116I-806J0D01*
G01*
X250333Y257475D02*
X254134D01*
X250333Y250475D02*
X254134D01*
X195918Y92753D02*
Y96553D01*
X188918Y92753D02*
Y96553D01*
X212663Y308929D02*
X219663D01*
X212663Y314329D02*
X219663D01*
X234253Y311424D02*
Y319324D01*
X227653Y311324D02*
Y319224D01*
X217381Y164369D02*
X225281D01*
X217281Y170969D02*
X225181D01*
X205333Y170174D02*
X212333D01*
X205333Y164773D02*
X212333D01*
X219564Y38857D02*
X226564D01*
X219564Y44257D02*
X226564D01*
X218429Y29164D02*
X225429D01*
X218429Y34564D02*
X225429D01*
X164183Y70304D02*
X175183D01*
X164183Y78704D02*
X175183D01*
X88714Y81738D02*
X99714D01*
X88714Y73338D02*
X99714D01*
X110881Y76366D02*
Y84266D01*
X104281Y76266D02*
Y84166D01*
X240973Y299517D02*
Y306517D01*
X246374Y299517D02*
Y306517D01*
X228253Y300072D02*
Y307072D01*
X233653Y300072D02*
Y307072D01*
X239564Y281858D02*
X246564D01*
X239564Y287258D02*
X246564D01*
X233866Y263418D02*
X240866D01*
X233866Y258018D02*
X240866D01*
X131176Y302862D02*
Y313862D01*
X122776Y302862D02*
Y313862D01*
X141281Y305184D02*
Y313084D01*
X134681Y305084D02*
Y312984D01*
X121943Y331039D02*
X129843D01*
X122043Y324439D02*
X129943D01*
X136448Y324968D02*
X143448D01*
X136448Y330368D02*
X143448D01*
X73121Y261397D02*
Y272397D01*
X81521Y261397D02*
Y272397D01*
X203457Y329284D02*
X210457D01*
X203457Y334684D02*
X210457D01*
X107090Y299559D02*
Y325959D01*
X92490Y299559D02*
X107090D01*
X92490D02*
Y325959D01*
X107090D01*
X58770Y319236D02*
X69770D01*
X58770Y310836D02*
X69770D01*
X240373Y311582D02*
Y319482D01*
X246973Y311683D02*
Y319583D01*
X142263Y286190D02*
Y297189D01*
X133863Y286190D02*
Y297189D01*
X159080Y269197D02*
Y276197D01*
X153680Y269197D02*
Y276197D01*
X153254Y279416D02*
Y287316D01*
X159854Y279516D02*
Y287416D01*
X57237Y298814D02*
Y306714D01*
X63837Y298914D02*
Y306814D01*
X120965Y83133D02*
Y85133D01*
X122965D01*
X151858Y82734D02*
Y84734D01*
X149858D02*
X151858D01*
X149688Y54678D02*
X151688D01*
Y56678D01*
X121465Y54633D02*
Y56633D01*
Y54633D02*
X123465D01*
X48002Y264716D02*
X55002D01*
X48002Y229716D02*
X55002D01*
X53502Y240216D02*
X54802D01*
X53502Y254216D02*
X54802D01*
X47402D02*
X48802D01*
X47402Y240216D02*
X48802D01*
X50202Y245516D02*
X51802D01*
X51002Y243916D02*
Y245516D01*
X61502Y237216D02*
Y257216D01*
X41502Y237216D02*
Y257216D01*
X53502Y240216D02*
Y254216D01*
X48802Y240216D02*
Y254216D01*
X48844Y247218D02*
X50244D01*
X51844Y247168D02*
X53444D01*
X79916Y276533D02*
Y283533D01*
X74516Y276533D02*
Y283533D01*
X67113Y304074D02*
X78113D01*
X67113Y295674D02*
X78113D01*
X69471Y264949D02*
Y271949D01*
X64071Y264949D02*
Y271949D01*
X163408Y104670D02*
X170408D01*
X163408Y110070D02*
X170408D01*
X177052Y88021D02*
Y95021D01*
X182452Y88021D02*
Y95021D01*
X278925Y321197D02*
X289925D01*
X278925Y312797D02*
X289925D01*
D11*
X193441Y303816D02*
G03*
X193441Y303816I-557J0D01*
G01*
X259065Y309842D02*
G03*
X259065Y309842I-1000J0D01*
G01*
X130657Y343016D02*
G03*
X130657Y343016I-394J0D01*
G01*
X159983Y58633D02*
G03*
X159983Y58633I-1118J0D01*
G01*
X220058Y93300D02*
Y94027D01*
X218558Y92527D02*
Y95027D01*
X216031Y93777D02*
X217057D01*
Y91527D02*
Y96027D01*
X220058Y83300D02*
Y84027D01*
X218558Y82527D02*
Y85027D01*
X216031Y83777D02*
X217057D01*
Y81527D02*
Y86027D01*
X220058Y73300D02*
Y74027D01*
X218558Y72527D02*
Y75027D01*
X216031Y73777D02*
X217057D01*
Y71527D02*
Y76027D01*
X132863Y256518D02*
X133590D01*
X131863Y255018D02*
X134363D01*
X133113Y252492D02*
Y253518D01*
X130863D02*
X135363D01*
X142863Y256518D02*
X143590D01*
X141863Y255018D02*
X144363D01*
X143113Y252492D02*
Y253518D01*
X140863D02*
X145363D01*
X152863Y256518D02*
X153590D01*
X151863Y255018D02*
X154363D01*
X153113Y252492D02*
Y253518D01*
X150863D02*
X155363D01*
X16112Y238781D02*
Y239508D01*
X17612Y237781D02*
Y240281D01*
X19112Y239031D02*
X20139D01*
X19112Y236781D02*
Y241281D01*
X16112Y248781D02*
Y249508D01*
X17612Y247781D02*
Y250281D01*
X19112Y249031D02*
X20139D01*
X19112Y246781D02*
Y251281D01*
X16112Y258781D02*
Y259508D01*
X17612Y257781D02*
Y260281D01*
X19112Y259031D02*
X20139D01*
X19112Y256781D02*
Y261281D01*
X86489Y238840D02*
Y239568D01*
X87989Y237840D02*
Y240340D01*
X89489Y239090D02*
X90516D01*
X89489Y236840D02*
Y241340D01*
X86489Y248840D02*
Y249568D01*
X87989Y247840D02*
Y250340D01*
X89489Y249090D02*
X90516D01*
X89489Y246840D02*
Y251340D01*
X86489Y258840D02*
Y259568D01*
X87989Y257840D02*
Y260340D01*
X89489Y259090D02*
X90516D01*
X89489Y256840D02*
Y261340D01*
X240836Y9142D02*
X245336D01*
X243086D02*
Y10169D01*
X241836Y7642D02*
X244336D01*
X242608Y6142D02*
X243336D01*
X250836Y9142D02*
X255336D01*
X253086D02*
Y10169D01*
X251836Y7642D02*
X254336D01*
X252608Y6142D02*
X253336D01*
X260836Y9142D02*
X265336D01*
X263086D02*
Y10169D01*
X261836Y7642D02*
X264336D01*
X262609Y6142D02*
X263336D01*
X229253Y309024D02*
X232653D01*
X210883Y249324D02*
Y253824D01*
Y251574D02*
X211910D01*
X209383Y250324D02*
Y252824D01*
X207883Y251324D02*
Y252052D01*
X210883Y239324D02*
Y243824D01*
Y241574D02*
X211910D01*
X209383Y240324D02*
Y242824D01*
X207883Y241324D02*
Y242052D01*
X210883Y229324D02*
Y233824D01*
Y231574D02*
X211910D01*
X209383Y230324D02*
Y232824D01*
X207883Y231324D02*
Y232052D01*
X186671Y249962D02*
Y254462D01*
Y252212D02*
X187698D01*
X185171Y250962D02*
Y253462D01*
X183671Y251962D02*
Y252689D01*
X186671Y239962D02*
Y244462D01*
Y242212D02*
X187698D01*
X185171Y240962D02*
Y243462D01*
X183671Y241962D02*
Y242689D01*
X186671Y229962D02*
Y234462D01*
Y232212D02*
X187698D01*
X185171Y230962D02*
Y233462D01*
X183671Y231962D02*
Y232689D01*
X198002Y312817D02*
Y345174D01*
Y347733D01*
X162490Y344468D02*
Y347733D01*
Y312776D02*
Y344468D01*
X164865Y305804D02*
X167775D01*
X192639D02*
X195705D01*
X162569Y347733D02*
X198002Y347733D01*
X162530Y316513D02*
X198086Y316556D01*
X206794Y6502D02*
X207521D01*
X206021Y8002D02*
X208521D01*
X207271Y9502D02*
Y10529D01*
X205021Y9502D02*
X209521D01*
X196794Y6502D02*
X197521D01*
X196021Y8002D02*
X198521D01*
X197271Y9502D02*
Y10529D01*
X195021Y9502D02*
X199521D01*
X186794Y6502D02*
X187521D01*
X186021Y8002D02*
X188521D01*
X187271Y9502D02*
Y10529D01*
X185021Y9502D02*
X189521D01*
X267635Y212718D02*
X277635D01*
Y122718D02*
Y212718D01*
X267635Y122718D02*
X277635D01*
X267635Y112718D02*
Y202718D01*
Y112718D02*
X277635D01*
Y202718D01*
X267635Y122718D02*
Y212718D01*
X237635D02*
X247635D01*
Y122718D02*
Y212718D01*
X237635Y122718D02*
X247635D01*
X237635Y112718D02*
Y202718D01*
Y112718D02*
X247635D01*
Y202718D01*
X237635Y122718D02*
Y212718D01*
X267635Y106718D02*
X277635D01*
Y26718D02*
Y106718D01*
X267635Y26718D02*
X277635D01*
X267635D02*
Y106718D01*
Y36718D02*
X277635D01*
X214981Y165969D02*
Y169369D01*
X264292Y327800D02*
X265019D01*
X263519Y329300D02*
X266019D01*
X264769Y330800D02*
Y331827D01*
X262519Y330800D02*
X267019D01*
X254292Y327800D02*
X255019D01*
X253519Y329300D02*
X256019D01*
X254769Y330800D02*
Y331827D01*
X252519Y330800D02*
X257019D01*
X244292Y327800D02*
X245019D01*
X243519Y329300D02*
X246019D01*
X244769Y330800D02*
Y331827D01*
X242519Y330800D02*
X247019D01*
X136281Y302784D02*
X139681D01*
X132243Y326039D02*
Y329439D01*
X241973Y309282D02*
X245374D01*
X154855Y277116D02*
X158255D01*
X96763Y333520D02*
X127763D01*
X96763D02*
Y344020D01*
X127763Y333520D02*
Y344020D01*
X96763D02*
X127763D01*
X25661Y315190D02*
Y315222D01*
X58837Y296514D02*
X62237D01*
X47635Y166718D02*
X57635D01*
Y96718D02*
Y176718D01*
X47635D02*
X57635D01*
X47635Y96718D02*
Y176718D01*
Y96718D02*
X57635D01*
X17635Y166718D02*
X27635D01*
Y96718D02*
Y176718D01*
X17635D02*
X27635D01*
X17635Y96718D02*
Y176718D01*
Y96718D02*
X27635D01*
X22635Y86718D02*
X27635D01*
Y76718D02*
Y86718D01*
X17635Y26718D02*
Y76718D01*
Y26718D02*
X27635D01*
Y76718D01*
X17635D02*
X27635D01*
X17635D02*
Y86718D01*
X22635D01*
X151906Y119916D02*
Y137417D01*
X149406Y139917D02*
X151906Y137417D01*
X121906Y139917D02*
X149406D01*
X141905Y129917D02*
X151906D01*
X141905D02*
Y139917D01*
X121906Y119916D02*
X151906D01*
X121906D02*
Y139917D01*
X52635Y86718D02*
X57635D01*
Y76718D02*
Y86718D01*
X47635Y26718D02*
Y76718D01*
Y26718D02*
X57635D01*
Y76718D01*
X47635D02*
X57635D01*
X47635D02*
Y86718D01*
X52635D01*
X237635Y36718D02*
X247635D01*
X237635Y26718D02*
Y106718D01*
Y26718D02*
X247635D01*
Y106718D01*
X237635D02*
X247635D01*
X118893Y214877D02*
Y208879D01*
X121892D01*
X122891Y209879D01*
Y210878D01*
Y211878D01*
X121892Y212878D01*
X118893D01*
X124891D02*
Y208879D01*
Y210878D01*
X125891Y211878D01*
X126890Y212878D01*
X127890D01*
X134888Y214877D02*
Y208879D01*
X131889D01*
X130889Y209879D01*
Y211878D01*
X131889Y212878D01*
X134888D01*
X136887Y213878D02*
X137887Y214877D01*
X139886D01*
X140886Y213878D01*
Y212878D01*
X139886Y211878D01*
X138886D01*
X139886D01*
X140886Y210878D01*
Y209879D01*
X139886Y208879D01*
X137887D01*
X136887Y209879D01*
X142885Y207879D02*
X146884D01*
X152882Y208879D02*
X148883D01*
X152882Y212878D01*
Y213878D01*
X151882Y214877D01*
X149883D01*
X148883Y213878D01*
X154881D02*
X155881Y214877D01*
X157880D01*
X158880Y213878D01*
Y209879D01*
X157880Y208879D01*
X155881D01*
X154881Y209879D01*
Y213878D01*
X164878Y208879D02*
X160879D01*
X164878Y212878D01*
Y213878D01*
X163878Y214877D01*
X161879D01*
X160879Y213878D01*
X170876Y208879D02*
X166877D01*
X170876Y212878D01*
Y213878D01*
X169876Y214877D01*
X167877D01*
X166877Y213878D01*
X172875Y207879D02*
X176874D01*
X178873Y213878D02*
X179873Y214877D01*
X181872D01*
X182872Y213878D01*
Y209879D01*
X181872Y208879D01*
X179873D01*
X178873Y209879D01*
Y213878D01*
X184871D02*
X185871Y214877D01*
X187871D01*
X188870Y213878D01*
Y212878D01*
X187871Y211878D01*
X186871D01*
X187871D01*
X188870Y210878D01*
Y209879D01*
X187871Y208879D01*
X185871D01*
X184871Y209879D01*
X190869Y207879D02*
X194868D01*
X196868Y213878D02*
X197867Y214877D01*
X199867D01*
X200866Y213878D01*
Y212878D01*
X199867Y211878D01*
X198867D01*
X199867D01*
X200866Y210878D01*
Y209879D01*
X199867Y208879D01*
X197867D01*
X196868Y209879D01*
X202866Y208879D02*
X204865D01*
X203865D01*
Y214877D01*
X202866Y213878D01*
X207864Y207879D02*
X211863D01*
X213862Y212878D02*
X215861Y208879D01*
X217861Y212878D01*
X223859Y208879D02*
X219860D01*
X223859Y212878D01*
Y213878D01*
X222859Y214877D01*
X220860D01*
X219860Y213878D01*
X15626Y10698D02*
X14626Y11698D01*
X12627D01*
X11627Y10698D01*
Y6699D01*
X12627Y5700D01*
X14626D01*
X15626Y6699D01*
Y8699D01*
X13627D01*
X20625Y11698D02*
X18625D01*
X17626Y10698D01*
Y6699D01*
X18625Y5700D01*
X20625D01*
X21624Y6699D01*
Y10698D01*
X20625Y11698D01*
X23623D02*
Y5700D01*
X27622D01*
X29622Y11698D02*
Y5700D01*
X32621D01*
X33620Y6699D01*
Y10698D01*
X32621Y11698D01*
X29622D01*
X39618D02*
X35620D01*
Y5700D01*
X39618D01*
X35620Y8699D02*
X37619D01*
X41618Y5700D02*
Y11698D01*
X45616Y5700D01*
Y11698D01*
X53614Y5700D02*
Y9698D01*
X55613Y11698D01*
X57613Y9698D01*
Y5700D01*
Y8699D01*
X53614D01*
X59612Y5700D02*
Y11698D01*
X62611D01*
X63611Y10698D01*
Y8699D01*
X62611Y7699D01*
X59612D01*
X61611D02*
X63611Y5700D01*
X65610Y11698D02*
Y5700D01*
X68609D01*
X69609Y6699D01*
Y10698D01*
X68609Y11698D01*
X65610D01*
X71608D02*
Y6699D01*
X72608Y5700D01*
X74607D01*
X75607Y6699D01*
Y11698D01*
X77606D02*
X79605D01*
X78606D01*
Y5700D01*
X77606D01*
X79605D01*
X82604D02*
Y11698D01*
X86603Y5700D01*
Y11698D01*
X91602D02*
X89602D01*
X88603Y10698D01*
Y6699D01*
X89602Y5700D01*
X91602D01*
X92601Y6699D01*
Y10698D01*
X91602Y11698D01*
X100599D02*
Y7699D01*
X102598Y5700D01*
X104597Y7699D01*
Y11698D01*
X110595Y5700D02*
X106597D01*
X110595Y9698D01*
Y10698D01*
X109596Y11698D01*
X107596D01*
X106597Y10698D01*
X118593Y8699D02*
X122591D01*
X130589Y11698D02*
X134588D01*
X132588D01*
Y5700D01*
X136587Y11698D02*
Y10698D01*
X138586Y8699D01*
X140586Y10698D01*
Y11698D01*
X138586Y8699D02*
Y5700D01*
X142585D02*
Y11698D01*
X145584D01*
X146584Y10698D01*
Y8699D01*
X145584Y7699D01*
X142585D01*
X152582Y11698D02*
X148583D01*
Y5700D01*
X152582D01*
X148583Y8699D02*
X150583D01*
X164578Y10698D02*
X163578Y11698D01*
X161579D01*
X160579Y10698D01*
Y6699D01*
X161579Y5700D01*
X163578D01*
X164578Y6699D01*
X142054Y171347D02*
X138055D01*
Y165349D01*
X142054D01*
X138055Y168348D02*
X140054D01*
X148052Y170347D02*
X147052Y171347D01*
X145053D01*
X144053Y170347D01*
Y166349D01*
X145053Y165349D01*
X147052D01*
X148052Y166349D01*
X154050Y171347D02*
X150051D01*
Y165349D01*
X154050D01*
X150051Y168348D02*
X152050D01*
X156049Y165349D02*
Y171347D01*
X160048Y165349D01*
Y171347D01*
X172044D02*
X168045D01*
Y168348D01*
X170045Y169348D01*
X171044D01*
X172044Y168348D01*
Y166349D01*
X171044Y165349D01*
X169045D01*
X168045Y166349D01*
X174043Y171347D02*
X178042D01*
Y170347D01*
X174043Y166349D01*
Y165349D01*
X180041Y170347D02*
X181041Y171347D01*
X183040D01*
X184040Y170347D01*
Y169348D01*
X183040Y168348D01*
X182041D01*
X183040D01*
X184040Y167348D01*
Y166349D01*
X183040Y165349D01*
X181041D01*
X180041Y166349D01*
X186039Y170347D02*
X187039Y171347D01*
X189038D01*
X190038Y170347D01*
Y166349D01*
X189038Y165349D01*
X187039D01*
X186039Y166349D01*
Y170347D01*
X155435Y183267D02*
X154435Y184267D01*
X152436D01*
X151436Y183267D01*
Y179268D01*
X152436Y178269D01*
X154435D01*
X155435Y179268D01*
X157434Y184267D02*
Y179268D01*
X158434Y178269D01*
X160433D01*
X161433Y179268D01*
Y184267D01*
X169430D02*
Y178269D01*
X172429D01*
X173429Y179268D01*
Y180268D01*
X172429Y181268D01*
X169430D01*
X172429D01*
X173429Y182267D01*
Y183267D01*
X172429Y184267D01*
X169430D01*
X176428Y178269D02*
X178427D01*
X179427Y179268D01*
Y181268D01*
X178427Y182267D01*
X176428D01*
X175428Y181268D01*
Y179268D01*
X176428Y178269D01*
X181426Y182267D02*
Y179268D01*
X182426Y178269D01*
X185425D01*
Y182267D01*
X187424Y178269D02*
X189424D01*
X188424D01*
Y184267D01*
X187424D01*
X196421D02*
Y178269D01*
X193422D01*
X192423Y179268D01*
Y181268D01*
X193422Y182267D01*
X196421D01*
X201420Y178269D02*
X199420D01*
X198421Y179268D01*
Y181268D01*
X199420Y182267D01*
X201420D01*
X202419Y181268D01*
Y180268D01*
X198421D01*
X204419Y182267D02*
Y178269D01*
Y180268D01*
X205418Y181268D01*
X206418Y182267D01*
X207418D01*
X131632Y224216D02*
X135631D01*
X133632D01*
Y218217D01*
X138630Y222216D02*
X140630D01*
X141629Y221217D01*
Y218217D01*
X138630D01*
X137631Y219217D01*
X138630Y220217D01*
X141629D01*
X143629Y224216D02*
Y218217D01*
Y221217D01*
X144628Y222216D01*
X146628D01*
X147627Y221217D01*
Y218217D01*
X152626D02*
X150626D01*
X149627Y219217D01*
Y221217D01*
X150626Y222216D01*
X152626D01*
X153625Y221217D01*
Y220217D01*
X149627D01*
X155625Y222216D02*
Y218217D01*
Y220217D01*
X156624Y221217D01*
X157624Y222216D01*
X158624D01*
X167621Y224216D02*
Y219217D01*
X168621Y218217D01*
X170620D01*
X171620Y219217D01*
Y224216D01*
X173619Y216218D02*
X174619D01*
X175618Y217218D01*
Y222216D01*
X179617Y216218D02*
X180617D01*
X181616Y217218D01*
Y222216D01*
X186615D02*
X188614D01*
X189614Y221217D01*
Y218217D01*
X186615D01*
X185615Y219217D01*
X186615Y220217D01*
X189614D01*
X191613Y218217D02*
X193612D01*
X192613D01*
Y222216D01*
X191613D01*
X196611Y218217D02*
Y222216D01*
X199610D01*
X200610Y221217D01*
Y218217D01*
X202609Y222216D02*
Y219217D01*
X203609Y218217D01*
X204609Y219217D01*
X205609Y218217D01*
X206608Y219217D01*
Y222216D01*
X209607D02*
X211607D01*
X212606Y221217D01*
Y218217D01*
X209607D01*
X208608Y219217D01*
X209607Y220217D01*
X212606D01*
X214606Y218217D02*
X216605D01*
X215605D01*
Y224216D01*
X214606D01*
X220604Y222216D02*
X222603D01*
X223603Y221217D01*
Y218217D01*
X220604D01*
X219604Y219217D01*
X220604Y220217D01*
X223603D01*
X192598Y56350D02*
Y59015D01*
Y57683D01*
X196597D01*
Y60348D02*
X192598D01*
Y62348D01*
X193265Y63014D01*
X194598D01*
X195264Y62348D01*
Y60348D01*
X195931Y64347D02*
X196597Y65013D01*
Y66346D01*
X195931Y67013D01*
X193265D01*
X192598Y66346D01*
Y65013D01*
X193265Y64347D01*
X193931D01*
X194598Y65013D01*
Y67013D01*
X197264Y68346D02*
Y71012D01*
X192598Y72344D02*
X196597Y75010D01*
X192598D02*
X196597Y72344D01*
X192598Y76343D02*
Y79009D01*
Y77676D01*
X196597D01*
Y80342D02*
X193931D01*
X192598Y81675D01*
X193931Y83008D01*
X196597D01*
X194598D01*
Y80342D01*
X192598Y84341D02*
X196597D01*
Y87006D01*
X130877Y239159D02*
X133543D01*
X132210D01*
Y235160D01*
X134876D02*
Y239159D01*
X136875D01*
X137542Y238492D01*
Y237160D01*
X136875Y236493D01*
X134876D01*
X138875Y238492D02*
X139541Y239159D01*
X140874D01*
X141541Y238492D01*
Y237826D01*
X140874Y237160D01*
X141541Y236493D01*
Y235827D01*
X140874Y235160D01*
X139541D01*
X138875Y235827D01*
Y236493D01*
X139541Y237160D01*
X138875Y237826D01*
Y238492D01*
X139541Y237160D02*
X140874D01*
X142874Y234494D02*
X145539D01*
X146872Y239159D02*
X149538Y235160D01*
Y239159D02*
X146872Y235160D01*
X150871Y239159D02*
X153537D01*
X152204D01*
Y235160D01*
X154870D02*
Y237826D01*
X156203Y239159D01*
X157536Y237826D01*
Y235160D01*
Y237160D01*
X154870D01*
X158868Y239159D02*
Y235160D01*
X161534D01*
X189500Y106200D02*
Y112198D01*
X192499D01*
X193499Y111198D01*
Y109199D01*
X192499Y108199D01*
X189500D01*
X191499D02*
X193499Y106200D01*
X195498D02*
X197497D01*
X196498D01*
Y112198D01*
X195498Y111198D01*
X203496Y106200D02*
Y112198D01*
X200496Y109199D01*
X204495D01*
X244700Y260900D02*
Y266898D01*
X247699D01*
X248699Y265898D01*
Y263899D01*
X247699Y262899D01*
X244700D01*
X246699D02*
X248699Y260900D01*
X250698D02*
X252697D01*
X251698D01*
Y266898D01*
X250698Y265898D01*
X255696D02*
X256696Y266898D01*
X258696D01*
X259695Y265898D01*
Y264899D01*
X258696Y263899D01*
X257696D01*
X258696D01*
X259695Y262899D01*
Y261900D01*
X258696Y260900D01*
X256696D01*
X255696Y261900D01*
X258370Y7774D02*
X261036D01*
X259703D01*
Y3776D01*
X262369D02*
Y7774D01*
X264368D01*
X265035Y7108D01*
Y5775D01*
X264368Y5109D01*
X262369D01*
X266368Y7774D02*
X269033D01*
Y7108D01*
X266368Y4442D01*
Y3776D01*
X270366Y3109D02*
X273032D01*
X277031Y7108D02*
X276364Y7774D01*
X275031D01*
X274365Y7108D01*
Y4442D01*
X275031Y3776D01*
X276364D01*
X277031Y4442D01*
X278364Y7774D02*
Y3776D01*
Y5775D01*
X281030D01*
Y7774D01*
Y3776D01*
X282363Y7774D02*
X285028D01*
X283695D01*
Y3776D01*
X286361Y7774D02*
X289027Y3776D01*
Y7774D02*
X286361Y3776D01*
X171500Y29899D02*
X174166D01*
X172833D01*
Y25900D01*
X175499D02*
Y29899D01*
X177498D01*
X178165Y29232D01*
Y27899D01*
X177498Y27233D01*
X175499D01*
X182163Y29899D02*
X180830Y29232D01*
X179497Y27899D01*
Y26566D01*
X180164Y25900D01*
X181497D01*
X182163Y26566D01*
Y27233D01*
X181497Y27899D01*
X179497D01*
X183496Y25234D02*
X186162D01*
X190161Y29232D02*
X189494Y29899D01*
X188161D01*
X187495Y29232D01*
Y26566D01*
X188161Y25900D01*
X189494D01*
X190161Y26566D01*
X191494Y29899D02*
Y25900D01*
Y27899D01*
X194159D01*
Y29899D01*
Y25900D01*
X195492D02*
Y29899D01*
X197492D01*
X198158Y29232D01*
Y27899D01*
X197492Y27233D01*
X195492D01*
X196825D02*
X198158Y25900D01*
X199491Y29899D02*
X202157Y25900D01*
Y29899D02*
X199491Y25900D01*
X179573Y255840D02*
Y253174D01*
Y254507D01*
X175574D01*
Y251841D02*
X179573D01*
Y249842D01*
X178906Y249175D01*
X177574D01*
X176907Y249842D01*
Y251841D01*
X179573Y245177D02*
Y247842D01*
X177574D01*
X178240Y246509D01*
Y245843D01*
X177574Y245177D01*
X176241D01*
X175574Y245843D01*
Y247176D01*
X176241Y247842D01*
X174908Y243844D02*
Y241178D01*
X179573Y239845D02*
X175574D01*
Y237845D01*
X176241Y237179D01*
X178906D01*
X179573Y237845D01*
Y239845D01*
X177574Y235846D02*
Y233180D01*
X231998Y248898D02*
Y246233D01*
Y247565D01*
X228000D01*
Y244900D02*
X231998D01*
Y242900D01*
X231332Y242234D01*
X229999D01*
X229332Y242900D01*
Y244900D01*
X228000Y238902D02*
X231998D01*
X229999Y240901D01*
Y238235D01*
X227333Y236902D02*
Y234236D01*
X231998Y232904D02*
X228000D01*
Y230904D01*
X228666Y230238D01*
X231332D01*
X231998Y230904D01*
Y232904D01*
X229999Y228905D02*
Y226239D01*
X231332Y227572D02*
X228666D01*
X155834Y96780D02*
X156500D01*
X157833Y98112D01*
X156500Y99445D01*
X155834D01*
X157833Y98112D02*
X159833D01*
Y103444D02*
Y100778D01*
X157167Y103444D01*
X156500D01*
X155834Y102778D01*
Y101445D01*
X156500Y100778D01*
X227608Y276500D02*
Y275833D01*
X228941Y274500D01*
X230274Y275833D01*
Y276500D01*
X228941Y274500D02*
Y272501D01*
X231607D02*
X232940D01*
X232273D01*
Y276500D01*
X231607Y275833D01*
X200640Y345664D02*
Y342332D01*
X201306Y341665D01*
X202639D01*
X203305Y342332D01*
Y345664D01*
X207304Y344998D02*
X206638Y345664D01*
X205305D01*
X204638Y344998D01*
Y344331D01*
X205305Y343665D01*
X206638D01*
X207304Y342998D01*
Y342332D01*
X206638Y341665D01*
X205305D01*
X204638Y342332D01*
X208637Y345664D02*
Y341665D01*
X210636D01*
X211303Y342332D01*
Y342998D01*
X210636Y343665D01*
X208637D01*
X210636D01*
X211303Y344331D01*
Y344998D01*
X210636Y345664D01*
X208637D01*
X212636Y341665D02*
X213969D01*
X213302D01*
Y345664D01*
X212636Y344998D01*
X118500Y95799D02*
Y92466D01*
X119167Y91800D01*
X120499D01*
X121166Y92466D01*
Y95799D01*
X125164Y91800D02*
X122499D01*
X125164Y94466D01*
Y95132D01*
X124498Y95799D01*
X123165D01*
X122499Y95132D01*
X266329Y317183D02*
Y312185D01*
X267329Y311185D01*
X269328D01*
X270328Y312185D01*
Y317183D01*
X272327Y311185D02*
X274327D01*
X273327D01*
Y317183D01*
X272327Y316183D01*
X107602Y287614D02*
Y284948D01*
Y286281D01*
X103603D01*
Y283615D02*
X107602D01*
Y281616D01*
X106936Y280949D01*
X105603D01*
X104936Y281616D01*
Y283615D01*
X106936Y279616D02*
X107602Y278950D01*
Y277617D01*
X106936Y276951D01*
X106269D01*
X105603Y277617D01*
Y278284D01*
Y277617D01*
X104936Y276951D01*
X104270D01*
X103603Y277617D01*
Y278950D01*
X104270Y279616D01*
X102937Y275618D02*
Y272952D01*
X106936Y271619D02*
X107602Y270953D01*
Y269620D01*
X106936Y268953D01*
X106269D01*
X105603Y269620D01*
Y270286D01*
Y269620D01*
X104936Y268953D01*
X104270D01*
X103603Y269620D01*
Y270953D01*
X104270Y271619D01*
X107602Y267620D02*
X104936D01*
X103603Y266287D01*
X104936Y264954D01*
X107602D01*
X106936Y263621D02*
X107602Y262955D01*
Y261622D01*
X106936Y260956D01*
X106269D01*
X105603Y261622D01*
Y262289D01*
Y261622D01*
X104936Y260956D01*
X104270D01*
X103603Y261622D01*
Y262955D01*
X104270Y263621D01*
X268120Y343252D02*
X270786D01*
X269453D01*
Y339254D01*
X272119D02*
Y343252D01*
X274118D01*
X274785Y342586D01*
Y341253D01*
X274118Y340586D01*
X272119D01*
X278784Y339254D02*
X276118D01*
X278784Y341919D01*
Y342586D01*
X278117Y343252D01*
X276784D01*
X276118Y342586D01*
X280117Y338587D02*
X282782D01*
X284115Y343252D02*
Y339920D01*
X284782Y339254D01*
X286115D01*
X286781Y339920D01*
Y343252D01*
X290780Y342586D02*
X290113Y343252D01*
X288780D01*
X288114Y342586D01*
Y341919D01*
X288780Y341253D01*
X290113D01*
X290780Y340586D01*
Y339920D01*
X290113Y339254D01*
X288780D01*
X288114Y339920D01*
X292113Y343252D02*
Y339254D01*
X294112D01*
X294778Y339920D01*
Y340586D01*
X294112Y341253D01*
X292113D01*
X294112D01*
X294778Y341919D01*
Y342586D01*
X294112Y343252D01*
X292113D01*
X7037Y249791D02*
Y252457D01*
Y251124D01*
X11035D01*
Y253790D02*
X7037D01*
Y255789D01*
X7703Y256455D01*
X9036D01*
X9703Y255789D01*
Y253790D01*
X11035Y257788D02*
Y259121D01*
Y258455D01*
X7037D01*
X7703Y257788D01*
X11702Y261121D02*
Y263786D01*
X7037Y267785D02*
Y266452D01*
Y267119D01*
X10369D01*
X11035Y266452D01*
Y265786D01*
X10369Y265119D01*
X11035Y269118D02*
X8370D01*
X7037Y270451D01*
X8370Y271784D01*
X11035D01*
X9036D01*
Y269118D01*
X7703Y275782D02*
X7037Y275116D01*
Y273783D01*
X7703Y273117D01*
X10369D01*
X11035Y273783D01*
Y275116D01*
X10369Y275782D01*
X7037Y277116D02*
X11035D01*
X9703D01*
X7037Y279781D01*
X9036Y277782D01*
X11035Y279781D01*
X43066Y271332D02*
X42399Y271999D01*
X41066D01*
X40400Y271332D01*
Y270666D01*
X41066Y269999D01*
X42399D01*
X43066Y269333D01*
Y268666D01*
X42399Y268000D01*
X41066D01*
X40400Y268666D01*
X44399Y271999D02*
Y268000D01*
X45732Y269333D01*
X47065Y268000D01*
Y271999D01*
X51063Y268000D02*
X48397D01*
X51063Y270666D01*
Y271332D01*
X50397Y271999D01*
X49064D01*
X48397Y271332D01*
X84331Y342736D02*
X83331Y343735D01*
X81332D01*
X80332Y342736D01*
Y341736D01*
X81332Y340736D01*
X83331D01*
X84331Y339737D01*
Y338737D01*
X83331Y337737D01*
X81332D01*
X80332Y338737D01*
X86330Y343735D02*
Y337737D01*
X88330Y339737D01*
X90329Y337737D01*
Y343735D01*
X92328Y337737D02*
X94328D01*
X93328D01*
Y343735D01*
X92328Y342736D01*
X215045Y325644D02*
X211047D01*
Y327643D01*
X211713Y328310D01*
X213046D01*
X213713Y327643D01*
Y325644D01*
Y326977D02*
X215045Y328310D01*
Y329643D02*
Y330976D01*
Y330309D01*
X211047D01*
X211713Y329643D01*
X215045Y335641D02*
Y332975D01*
X212380Y335641D01*
X211713D01*
X211047Y334974D01*
Y333641D01*
X211713Y332975D01*
X215194Y315887D02*
Y319886D01*
X217193D01*
X217860Y319219D01*
Y317886D01*
X217193Y317220D01*
X215194D01*
X216527D02*
X217860Y315887D01*
X219193D02*
X220526D01*
X219859D01*
Y319886D01*
X219193Y319219D01*
X222525Y315887D02*
X223858D01*
X223191D01*
Y319886D01*
X222525Y319219D01*
X226294Y297043D02*
Y300042D01*
X227794D01*
X228293Y299542D01*
Y298543D01*
X227794Y298043D01*
X226294D01*
X227294D02*
X228293Y297043D01*
X229293D02*
X230293D01*
X229793D01*
Y300042D01*
X229293Y299542D01*
X231792D02*
X232292Y300042D01*
X233292D01*
X233791Y299542D01*
Y297543D01*
X233292Y297043D01*
X232292D01*
X231792Y297543D01*
Y299542D01*
X240661Y295875D02*
Y298874D01*
X242161D01*
X242661Y298374D01*
Y297375D01*
X242161Y296875D01*
X240661D01*
X241661D02*
X242661Y295875D01*
X243660Y296375D02*
X244160Y295875D01*
X245160D01*
X245660Y296375D01*
Y298374D01*
X245160Y298874D01*
X244160D01*
X243660Y298374D01*
Y297874D01*
X244160Y297375D01*
X245660D01*
X213635Y45551D02*
Y49550D01*
X215635D01*
X216301Y48883D01*
Y47550D01*
X215635Y46884D01*
X213635D01*
X214968D02*
X216301Y45551D01*
X217634Y48883D02*
X218300Y49550D01*
X219633D01*
X220300Y48883D01*
Y48217D01*
X219633Y47550D01*
X220300Y46884D01*
Y46217D01*
X219633Y45551D01*
X218300D01*
X217634Y46217D01*
Y46884D01*
X218300Y47550D01*
X217634Y48217D01*
Y48883D01*
X218300Y47550D02*
X219633D01*
X216554Y20550D02*
Y24549D01*
X218553D01*
X219220Y23882D01*
Y22549D01*
X218553Y21883D01*
X216554D01*
X217887D02*
X219220Y20550D01*
X220553Y24549D02*
X223218D01*
Y23882D01*
X220553Y21217D01*
Y20550D01*
X195039Y167348D02*
Y173346D01*
X198039D01*
X199038Y172347D01*
Y170347D01*
X198039Y169348D01*
X195039D01*
X197039D02*
X199038Y167348D01*
X205036Y173346D02*
X203037Y172347D01*
X201038Y170347D01*
Y168348D01*
X202037Y167348D01*
X204037D01*
X205036Y168348D01*
Y169348D01*
X204037Y170347D01*
X201038D01*
X75200Y286800D02*
Y290799D01*
X77199D01*
X77866Y290132D01*
Y288799D01*
X77199Y288133D01*
X75200D01*
X76533D02*
X77866Y286800D01*
X81865Y290799D02*
X79199D01*
Y288799D01*
X80532Y289466D01*
X81198D01*
X81865Y288799D01*
Y287466D01*
X81198Y286800D01*
X79865D01*
X79199Y287466D01*
X141858Y331354D02*
Y335352D01*
X143858D01*
X144524Y334686D01*
Y333353D01*
X143858Y332686D01*
X141858D01*
X143191D02*
X144524Y331354D01*
X147856D02*
Y335352D01*
X145857Y333353D01*
X148523D01*
X152895Y264141D02*
Y268140D01*
X154894D01*
X155561Y267473D01*
Y266140D01*
X154894Y265474D01*
X152895D01*
X154228D02*
X155561Y264141D01*
X156894Y267473D02*
X157560Y268140D01*
X158893D01*
X159559Y267473D01*
Y266807D01*
X158893Y266140D01*
X158227D01*
X158893D01*
X159559Y265474D01*
Y264807D01*
X158893Y264141D01*
X157560D01*
X156894Y264807D01*
X145080Y293595D02*
Y297593D01*
X147079D01*
X147745Y296927D01*
Y295594D01*
X147079Y294927D01*
X145080D01*
X146412D02*
X147745Y293595D01*
X151744D02*
X149078D01*
X151744Y296260D01*
Y296927D01*
X151078Y297593D01*
X149745D01*
X149078Y296927D01*
X67800Y307400D02*
Y313398D01*
X70799D01*
X71799Y312398D01*
Y310399D01*
X70799Y309399D01*
X67800D01*
X69799D02*
X71799Y307400D01*
X73798D02*
X75797D01*
X74798D01*
Y313398D01*
X73798Y312398D01*
X77113Y323212D02*
Y329210D01*
X80112D01*
X81111Y328210D01*
Y326211D01*
X80112Y325211D01*
X77113D01*
X87109Y328210D02*
X86110Y329210D01*
X84110D01*
X83111Y328210D01*
Y327210D01*
X84110Y326211D01*
X86110D01*
X87109Y325211D01*
Y324211D01*
X86110Y323212D01*
X84110D01*
X83111Y324211D01*
X89109Y323212D02*
X91108D01*
X90108D01*
Y329210D01*
X89109Y328210D01*
X44153Y337313D02*
Y343311D01*
X47152D01*
X48152Y342311D01*
Y340312D01*
X47152Y339312D01*
X44153D01*
X50151Y337313D02*
X52151D01*
X51151D01*
Y343311D01*
X50151Y342311D01*
X226445Y325613D02*
Y322614D01*
X228445D01*
X231444Y325613D02*
X229444D01*
Y322614D01*
X231444D01*
X229444Y324114D02*
X230444D01*
X232443Y325613D02*
Y322614D01*
X233943D01*
X234443Y323114D01*
Y325114D01*
X233943Y325613D01*
X232443D01*
X235442D02*
X237442D01*
Y325114D01*
X235442Y323114D01*
Y322614D01*
X241443Y325279D02*
Y322280D01*
X243443D01*
X246442Y325279D02*
X244442D01*
Y322280D01*
X246442D01*
X244442Y323779D02*
X245442D01*
X247441Y325279D02*
Y322280D01*
X248941D01*
X249441Y322779D01*
Y324779D01*
X248941Y325279D01*
X247441D01*
X252440D02*
X251440Y324779D01*
X250440Y323779D01*
Y322779D01*
X250940Y322280D01*
X251940D01*
X252440Y322779D01*
Y323279D01*
X251940Y323779D01*
X250440D01*
X206470Y162267D02*
Y156269D01*
X210469D01*
X216467Y162267D02*
X212468D01*
Y156269D01*
X216467D01*
X212468Y159268D02*
X214468D01*
X218466Y162267D02*
Y156269D01*
X221465D01*
X222465Y157268D01*
Y161267D01*
X221465Y162267D01*
X218466D01*
X228463D02*
X224464D01*
Y159268D01*
X226464Y160267D01*
X227463D01*
X228463Y159268D01*
Y157268D01*
X227463Y156269D01*
X225464D01*
X224464Y157268D01*
X119970Y323089D02*
Y319091D01*
X122636D01*
X126635Y323089D02*
X123969D01*
Y319091D01*
X126635D01*
X123969Y321090D02*
X125302D01*
X127968Y323089D02*
Y319091D01*
X129967D01*
X130633Y319757D01*
Y322423D01*
X129967Y323089D01*
X127968D01*
X133966Y319091D02*
Y323089D01*
X131966Y321090D01*
X134632D01*
X161436Y274973D02*
X165434D01*
Y277639D01*
X161436Y281638D02*
Y278972D01*
X165434D01*
Y281638D01*
X163435Y278972D02*
Y280305D01*
X161436Y282971D02*
X165434D01*
Y284970D01*
X164768Y285636D01*
X162102D01*
X161436Y284970D01*
Y282971D01*
X162102Y286969D02*
X161436Y287636D01*
Y288969D01*
X162102Y289635D01*
X162768D01*
X163435Y288969D01*
Y288302D01*
Y288969D01*
X164101Y289635D01*
X164768D01*
X165434Y288969D01*
Y287636D01*
X164768Y286969D01*
X135319Y318444D02*
Y314446D01*
X137985D01*
X141984Y318444D02*
X139318D01*
Y314446D01*
X141984D01*
X139318Y316445D02*
X140651D01*
X143316Y318444D02*
Y314446D01*
X145316D01*
X145982Y315112D01*
Y317778D01*
X145316Y318444D01*
X143316D01*
X149981Y314446D02*
X147315D01*
X149981Y317111D01*
Y317778D01*
X149314Y318444D01*
X147982D01*
X147315Y317778D01*
X52148Y293332D02*
Y289333D01*
X54814D01*
X58813Y293332D02*
X56147D01*
Y289333D01*
X58813D01*
X56147Y291333D02*
X57480D01*
X60146Y293332D02*
Y289333D01*
X62145D01*
X62811Y290000D01*
Y292665D01*
X62145Y293332D01*
X60146D01*
X64144Y289333D02*
X65477D01*
X64811D01*
Y293332D01*
X64144Y292665D01*
X52099Y186198D02*
X50099D01*
X51099D01*
Y181200D01*
X50099Y180200D01*
X49100D01*
X48100Y181200D01*
X54098Y180200D02*
X56097D01*
X55098D01*
Y186198D01*
X54098Y185198D01*
X59096D02*
X60096Y186198D01*
X62095D01*
X63095Y185198D01*
Y181200D01*
X62095Y180200D01*
X60096D01*
X59096Y181200D01*
Y185198D01*
X22099Y186198D02*
X20099D01*
X21099D01*
Y181200D01*
X20099Y180200D01*
X19100D01*
X18100Y181200D01*
X24098D02*
X25098Y180200D01*
X27097D01*
X28097Y181200D01*
Y185198D01*
X27097Y186198D01*
X25098D01*
X24098Y185198D01*
Y184199D01*
X25098Y183199D01*
X28097D01*
X272099Y222198D02*
X270099D01*
X271099D01*
Y217200D01*
X270099Y216200D01*
X269100D01*
X268100Y217200D01*
X274098Y221198D02*
X275098Y222198D01*
X277097D01*
X278097Y221198D01*
Y220199D01*
X277097Y219199D01*
X278097Y218199D01*
Y217200D01*
X277097Y216200D01*
X275098D01*
X274098Y217200D01*
Y218199D01*
X275098Y219199D01*
X274098Y220199D01*
Y221198D01*
X275098Y219199D02*
X277097D01*
X13599Y96198D02*
X11599D01*
X12599D01*
Y91200D01*
X11599Y90200D01*
X10600D01*
X9600Y91200D01*
X15598Y96198D02*
X19597D01*
Y95198D01*
X15598Y91200D01*
Y90200D01*
X126399Y149398D02*
X124399D01*
X125399D01*
Y144400D01*
X124399Y143400D01*
X123400D01*
X122400Y144400D01*
X132397Y149398D02*
X130397Y148398D01*
X128398Y146399D01*
Y144400D01*
X129398Y143400D01*
X131397D01*
X132397Y144400D01*
Y145399D01*
X131397Y146399D01*
X128398D01*
X242099Y222198D02*
X240099D01*
X241099D01*
Y217200D01*
X240099Y216200D01*
X239100D01*
X238100Y217200D01*
X248097Y222198D02*
X244098D01*
Y219199D01*
X246097Y220199D01*
X247097D01*
X248097Y219199D01*
Y217200D01*
X247097Y216200D01*
X245098D01*
X244098Y217200D01*
X43599Y96198D02*
X41599D01*
X42599D01*
Y91200D01*
X41599Y90200D01*
X40600D01*
X39600Y91200D01*
X48597Y90200D02*
Y96198D01*
X45598Y93199D01*
X49597D01*
X226199Y116698D02*
X224199D01*
X225199D01*
Y111700D01*
X224199Y110700D01*
X223200D01*
X222200Y111700D01*
X228198Y115698D02*
X229198Y116698D01*
X231197D01*
X232197Y115698D01*
Y114699D01*
X231197Y113699D01*
X230197D01*
X231197D01*
X232197Y112699D01*
Y111700D01*
X231197Y110700D01*
X229198D01*
X228198Y111700D01*
X256199Y116698D02*
X254199D01*
X255199D01*
Y111700D01*
X254199Y110700D01*
X253200D01*
X252200Y111700D01*
X262197Y110700D02*
X258198D01*
X262197Y114699D01*
Y115698D01*
X261197Y116698D01*
X259198D01*
X258198Y115698D01*
X107666Y91599D02*
X105000D01*
Y89599D01*
X106333D01*
X105000D01*
Y87600D01*
X108999Y91599D02*
Y87600D01*
X110998D01*
X111664Y88266D01*
Y88933D01*
X110998Y89599D01*
X108999D01*
X110998D01*
X111664Y90266D01*
Y90932D01*
X110998Y91599D01*
X108999D01*
X112997Y87600D02*
X114330D01*
X113664D01*
Y91599D01*
X112997Y90932D01*
X201287Y293793D02*
Y289794D01*
X203286D01*
X203953Y290460D01*
Y293126D01*
X203286Y293793D01*
X201287D01*
X205286Y289794D02*
X206619D01*
X205952D01*
Y293793D01*
X205286Y293126D01*
X170407Y68546D02*
X169741Y69213D01*
X168408D01*
X167742Y68546D01*
Y65881D01*
X168408Y65214D01*
X169741D01*
X170407Y65881D01*
X171740Y65214D02*
X173073D01*
X172407D01*
Y69213D01*
X171740Y68546D01*
X175073Y65214D02*
X176406D01*
X175739D01*
Y69213D01*
X175073Y68546D01*
X92066Y88332D02*
X91399Y88999D01*
X90066D01*
X89400Y88332D01*
Y85666D01*
X90066Y85000D01*
X91399D01*
X92066Y85666D01*
X93399Y85000D02*
X94732D01*
X94065D01*
Y88999D01*
X93399Y88332D01*
X96731D02*
X97397Y88999D01*
X98730D01*
X99397Y88332D01*
Y85666D01*
X98730Y85000D01*
X97397D01*
X96731Y85666D01*
Y88332D01*
X67466Y278532D02*
X66799Y279199D01*
X65466D01*
X64800Y278532D01*
Y275866D01*
X65466Y275200D01*
X66799D01*
X67466Y275866D01*
X68799D02*
X69465Y275200D01*
X70798D01*
X71465Y275866D01*
Y278532D01*
X70798Y279199D01*
X69465D01*
X68799Y278532D01*
Y277866D01*
X69465Y277199D01*
X71465D01*
X76641Y257098D02*
X75975Y257764D01*
X74642D01*
X73975Y257098D01*
Y254432D01*
X74642Y253765D01*
X75975D01*
X76641Y254432D01*
X77974Y257098D02*
X78641Y257764D01*
X79973D01*
X80640Y257098D01*
Y256431D01*
X79973Y255765D01*
X80640Y255098D01*
Y254432D01*
X79973Y253765D01*
X78641D01*
X77974Y254432D01*
Y255098D01*
X78641Y255765D01*
X77974Y256431D01*
Y257098D01*
X78641Y255765D02*
X79973D01*
X166766Y116732D02*
X166099Y117399D01*
X164767D01*
X164100Y116732D01*
Y114067D01*
X164767Y113400D01*
X166099D01*
X166766Y114067D01*
X168099Y117399D02*
X170765D01*
Y116732D01*
X168099Y114067D01*
Y113400D01*
X180466Y101632D02*
X179799Y102299D01*
X178466D01*
X177800Y101632D01*
Y98966D01*
X178466Y98300D01*
X179799D01*
X180466Y98966D01*
X184465Y102299D02*
X183132Y101632D01*
X181799Y100299D01*
Y98966D01*
X182465Y98300D01*
X183798D01*
X184465Y98966D01*
Y99633D01*
X183798Y100299D01*
X181799D01*
X238285Y255842D02*
X237618Y256508D01*
X236285D01*
X235619Y255842D01*
Y253176D01*
X236285Y252509D01*
X237618D01*
X238285Y253176D01*
X242283Y256508D02*
X239618D01*
Y254509D01*
X240950Y255175D01*
X241617D01*
X242283Y254509D01*
Y253176D01*
X241617Y252509D01*
X240284D01*
X239618Y253176D01*
X232070Y288867D02*
X231404Y289533D01*
X230071D01*
X229405Y288867D01*
Y286201D01*
X230071Y285535D01*
X231404D01*
X232070Y286201D01*
X235403Y285535D02*
Y289533D01*
X233403Y287534D01*
X236069D01*
X283599Y329498D02*
X282599Y330498D01*
X280600D01*
X279600Y329498D01*
Y325500D01*
X280600Y324500D01*
X282599D01*
X283599Y325500D01*
X285598Y329498D02*
X286598Y330498D01*
X288597D01*
X289597Y329498D01*
Y328499D01*
X288597Y327499D01*
X287597D01*
X288597D01*
X289597Y326499D01*
Y325500D01*
X288597Y324500D01*
X286598D01*
X285598Y325500D01*
X121223Y299547D02*
X120557Y300213D01*
X119224D01*
X118557Y299547D01*
Y296881D01*
X119224Y296214D01*
X120557D01*
X121223Y296881D01*
X125222Y296214D02*
X122556D01*
X125222Y298880D01*
Y299547D01*
X124555Y300213D01*
X123222D01*
X122556Y299547D01*
X63499Y327498D02*
X62499Y328498D01*
X60500D01*
X59500Y327498D01*
Y323500D01*
X60500Y322500D01*
X62499D01*
X63499Y323500D01*
X65498Y322500D02*
X67497D01*
X66498D01*
Y328498D01*
X65498Y327498D01*
D12*
X171373Y85393D02*
G03*
X171373Y85393I-197J0D01*
G01*
X248690Y277420D02*
G03*
X248690Y277420I-197J0D01*
G01*
D13*
X26349Y281490D02*
G03*
X26349Y281490I-787J0D01*
G01*
D14*
X205058Y57777D02*
Y99777D01*
X216057D01*
Y98277D02*
Y99777D01*
X205058Y57777D02*
X216057D01*
Y68277D01*
X127113Y241518D02*
X169113D01*
X127113D02*
Y252518D01*
X128613D01*
X169113Y241518D02*
Y252518D01*
X158613D02*
X169113D01*
X31112Y233031D02*
Y275031D01*
X20112Y233031D02*
X31112D01*
X20112D02*
Y234531D01*
Y275031D02*
X31112D01*
X20112Y264531D02*
Y275031D01*
X101489Y233090D02*
Y275090D01*
X90489Y233090D02*
X101489D01*
X90489D02*
Y234590D01*
Y275090D02*
X101489D01*
X90489Y264590D02*
Y275090D01*
X227086Y10142D02*
X237586D01*
X227086D02*
Y21142D01*
X267586Y10142D02*
X269086D01*
Y21142D01*
X227086D02*
X269086D01*
X211883Y257074D02*
Y267574D01*
X222883D01*
X211883Y225574D02*
Y227074D01*
Y225574D02*
X222883D01*
Y267574D01*
X187671Y257712D02*
Y268212D01*
X198671D01*
X187671Y226212D02*
Y227712D01*
Y226212D02*
X198671D01*
Y268212D01*
X171271Y21502D02*
X213271D01*
Y10502D02*
Y21502D01*
X211771Y10502D02*
X213271D01*
X171271D02*
Y21502D01*
Y10502D02*
X181771D01*
X228769Y342800D02*
X270769D01*
Y331800D02*
Y342800D01*
X269269Y331800D02*
X270769D01*
X228769D02*
Y342800D01*
Y331800D02*
X239269D01*
D15*
X208486Y304283D02*
X214391D01*
X208591Y291983D02*
X214497D01*
D16*
X263965Y307798D02*
X274865D01*
Y267680D02*
Y307798D01*
X263965Y267680D02*
X274865D01*
X263965D02*
Y307798D01*
D17*
X7944Y310300D02*
Y345537D01*
X35161Y288844D02*
X43378D01*
Y345537D01*
X7944D02*
X43378D01*
X7944Y288844D02*
X16961D01*
X7944D02*
Y293590D01*
X12827Y165819D02*
X12827Y166526D01*
X12120Y167233D01*
X11413D01*
X9999Y165819D01*
Y165112D01*
X10706Y164406D01*
X11413Y164406D01*
X12120Y165112D01*
X11413Y165819D01*
X11766Y163345D02*
X13887Y165466D01*
X13180Y161932D01*
X15301Y164052D01*
X16008Y163345D02*
X13887Y161225D01*
X14947Y160164D01*
X15654Y160164D01*
X17068Y161578D01*
Y162285D01*
X16008Y163345D01*
X282989Y117871D02*
X282944Y118576D01*
X282193Y119237D01*
X281488Y119191D01*
X280167Y117690D01*
X280212Y116985D01*
X280963Y116324D01*
X281669Y116370D01*
X282329Y117120D01*
X281578Y117780D01*
X282089Y115334D02*
X284070Y117586D01*
X283590Y114014D01*
X285571Y116265D01*
X286322Y115605D02*
X284341Y113353D01*
X285467Y112363D01*
X286172Y112408D01*
X287493Y113909D01*
X287448Y114614D01*
X286322Y115605D01*
X283066Y127937D02*
X282989Y128639D01*
X282208Y129264D01*
X281505Y129186D01*
X280256Y127625D01*
X280334Y126922D01*
X281115Y126298D01*
X281817Y126376D01*
X282442Y127156D01*
X281661Y127781D01*
X282285Y125361D02*
X284159Y127702D01*
X283847Y124111D01*
X285720Y126453D01*
X286501Y125829D02*
X284627Y123487D01*
X285798Y122550D01*
X286501Y122628D01*
X287750Y124189D01*
X287672Y124892D01*
X286501Y125829D01*
X283395Y138459D02*
X283325Y139162D01*
X282552Y139796D01*
X281849Y139727D01*
X280581Y138181D01*
X280650Y137477D01*
X281423Y136843D01*
X282127Y136913D01*
X282761Y137686D01*
X281988Y138320D01*
X282583Y135892D02*
X284485Y138211D01*
X284129Y134625D01*
X286031Y136944D01*
X286804Y136310D02*
X284902Y133991D01*
X286061Y133040D01*
X286765Y133109D01*
X288033Y134655D01*
X287963Y135359D01*
X286804Y136310D01*
X283741Y147813D02*
X283702Y148519D01*
X282958Y149187D01*
X282252Y149148D01*
X280918Y147659D01*
X280956Y146953D01*
X281700Y146286D01*
X282406Y146325D01*
X283073Y147069D01*
X282329Y147736D01*
X282817Y145285D02*
X284819Y147518D01*
X284306Y143951D01*
X286308Y146184D01*
X287052Y145517D02*
X285050Y143283D01*
X286167Y142282D01*
X286873Y142321D01*
X288207Y143810D01*
X288169Y144516D01*
X287052Y145517D01*
X283124Y157777D02*
X283124Y158484D01*
X282416Y159190D01*
X281709Y159189D01*
X280297Y157774D01*
X280298Y157067D01*
X281006Y156361D01*
X281712Y156362D01*
X282418Y157070D01*
X281711Y157776D01*
X282067Y155302D02*
X284185Y157425D01*
X283483Y153890D01*
X285601Y156013D01*
X286308Y155307D02*
X284190Y153184D01*
X285252Y152125D01*
X285959Y152126D01*
X287371Y153541D01*
X287370Y154248D01*
X286308Y155307D01*
X283071Y168020D02*
X282998Y168723D01*
X282222Y169353D01*
X281519Y169280D01*
X280259Y167728D01*
X280332Y167025D01*
X281108Y166395D01*
X281811Y166468D01*
X282441Y167244D01*
X281665Y167874D01*
X282272Y165450D02*
X284162Y167778D01*
X283825Y164190D01*
X285715Y166518D01*
X286491Y165888D02*
X284601Y163560D01*
X285765Y162615D01*
X286468Y162688D01*
X287728Y164240D01*
X287655Y164943D01*
X286491Y165888D01*
X283573Y178286D02*
X283470Y178986D01*
X282667Y179582D01*
X281968Y179479D01*
X280775Y177874D01*
X280878Y177174D01*
X281681Y176578D01*
X282380Y176681D01*
X282976Y177484D01*
X282174Y178080D01*
X282884Y175684D02*
X284673Y178091D01*
X284489Y174492D01*
X286278Y176899D01*
X287080Y176302D02*
X285292Y173895D01*
X286495Y173001D01*
X287195Y173104D01*
X288387Y174709D01*
X288284Y175408D01*
X287080Y176302D01*
X283661Y188594D02*
X283542Y189291D01*
X282727Y189869D01*
X282030Y189751D01*
X280873Y188120D01*
X280992Y187423D01*
X281807Y186845D01*
X282504Y186963D01*
X283082Y187779D01*
X282267Y188357D01*
X283030Y185977D02*
X284765Y188423D01*
X284661Y184820D01*
X286396Y187267D01*
X287211Y186688D02*
X285476Y184242D01*
X286699Y183375D01*
X287396Y183493D01*
X288553Y185124D01*
X288434Y185821D01*
X287211Y186688D01*
X282765Y198235D02*
X282640Y198931D01*
X281820Y199502D01*
X281124Y199378D01*
X279982Y197737D01*
X280106Y197041D01*
X280927Y196470D01*
X281623Y196595D01*
X282194Y197415D01*
X281373Y197986D01*
X282158Y195613D02*
X283871Y198074D01*
X283799Y194471D01*
X285512Y196932D01*
X286332Y196361D02*
X284619Y193900D01*
X285850Y193043D01*
X286545Y193168D01*
X287688Y194808D01*
X287563Y195504D01*
X286332Y196361D01*
X282019Y208167D02*
X281941Y208869D01*
X281161Y209494D01*
X280458Y209417D01*
X279208Y207857D01*
X279286Y207154D01*
X280066Y206529D01*
X280768Y206606D01*
X281394Y207386D01*
X280613Y208012D01*
X281236Y205591D02*
X283111Y207932D01*
X282796Y204341D01*
X284672Y206681D01*
X285452Y206056D02*
X283576Y203716D01*
X284747Y202778D01*
X285449Y202856D01*
X286699Y204416D01*
X286622Y205118D01*
X285452Y206056D01*
X229568Y208958D02*
X229077Y209466D01*
X228078Y209484D01*
X227569Y208993D01*
X227560Y208493D01*
X228051Y207984D01*
X229051Y207967D01*
X229542Y207458D01*
X229533Y206959D01*
X229025Y206468D01*
X228025Y206485D01*
X227534Y206994D01*
X232567Y208905D02*
X232076Y209414D01*
X231076Y209431D01*
X230568Y208940D01*
X230533Y206941D01*
X231024Y206433D01*
X232023Y206415D01*
X232532Y206906D01*
X233575Y209388D02*
X233523Y206389D01*
X235522Y206354D01*
X229494Y199030D02*
X228988Y199524D01*
X227989Y199511D01*
X227495Y199005D01*
X227501Y198506D01*
X228007Y198012D01*
X229007Y198024D01*
X229512Y197530D01*
X229519Y197031D01*
X229025Y196525D01*
X228025Y196513D01*
X227519Y197006D01*
X230488Y199542D02*
X230524Y196543D01*
X232024Y196561D01*
X232517Y197067D01*
X232493Y199066D01*
X231987Y199560D01*
X230488Y199542D01*
X233523Y196580D02*
X233499Y198579D01*
X234486Y199591D01*
X235498Y198603D01*
X235522Y196604D01*
X235504Y198103D01*
X233505Y198079D01*
X225457Y185734D02*
X225404Y187733D01*
X226378Y188758D01*
X227403Y187785D01*
X227455Y185787D01*
X227416Y187286D01*
X225417Y187233D01*
X228455Y185813D02*
X228376Y188811D01*
X229875Y188850D01*
X230388Y188363D01*
X230414Y187364D01*
X229927Y186851D01*
X228429Y186812D01*
X229428Y186838D02*
X230453Y185865D01*
X233373Y188941D02*
X231374Y188889D01*
X231453Y185891D01*
X233451Y185943D01*
X231413Y187390D02*
X232413Y187416D01*
X236371Y189020D02*
X234372Y188967D01*
X234411Y187468D01*
X235411Y187495D01*
X234411Y187468D01*
X234451Y185969D01*
X230759Y178871D02*
X230263Y179375D01*
X229264Y179384D01*
X228760Y178888D01*
X228743Y176889D01*
X229238Y176385D01*
X230238Y176376D01*
X230742Y176872D01*
X230750Y177871D01*
X229751Y177880D01*
X231737Y176363D02*
X231763Y179362D01*
X233736Y176346D01*
X233762Y179345D01*
X234762Y179336D02*
X234736Y176337D01*
X236235Y176324D01*
X236740Y176820D01*
X236757Y178819D01*
X236261Y179323D01*
X234762Y179336D01*
X229666Y165902D02*
X230665Y165922D01*
X230165Y165912D01*
X230105Y168911D01*
X229616Y168401D01*
X232114Y168451D02*
X232604Y168960D01*
X233604Y168981D01*
X234113Y168491D01*
X234123Y167991D01*
X233633Y167481D01*
X233134Y167471D01*
X233633Y167481D01*
X234143Y166992D01*
X234153Y166492D01*
X233664Y165982D01*
X232664Y165962D01*
X232154Y166452D01*
X231449Y156485D02*
X232449Y156509D01*
X231949Y156497D01*
X231879Y159495D01*
X231391Y158984D01*
X235946Y156590D02*
X233948Y156544D01*
X235900Y158589D01*
X235888Y159089D01*
X235377Y159577D01*
X234377Y159554D01*
X233889Y159042D01*
X229627Y148355D02*
X230134Y148848D01*
X231133Y148835D01*
X231640Y149328D01*
X232593Y145816D02*
X233593Y145803D01*
X233093Y145809D01*
X233133Y148808D01*
X232626Y148315D01*
X235092Y145783D02*
X236092Y145770D01*
X235592Y145776D01*
X235631Y148775D01*
X235125Y148282D01*
X228638Y138154D02*
X229132Y138659D01*
X230131Y138671D01*
X230625Y139176D01*
X231666Y135689D02*
X232665Y135701D01*
X232166Y135695D01*
X232130Y138694D01*
X231637Y138189D01*
X234136Y138218D02*
X234629Y138723D01*
X235629Y138735D01*
X236135Y138241D01*
X236158Y136242D01*
X235664Y135736D01*
X234665Y135724D01*
X234159Y136219D01*
X234136Y138218D01*
X231095Y128736D02*
X231581Y129249D01*
X232580Y129277D01*
X233066Y129790D01*
X234148Y126820D02*
X234661Y126334D01*
X235661Y126361D01*
X236146Y126874D01*
X236092Y128873D01*
X235578Y129359D01*
X234579Y129332D01*
X234093Y128818D01*
X234107Y128319D01*
X234620Y127833D01*
X236119Y127874D01*
X233633Y118391D02*
X234113Y118910D01*
X235112Y118949D01*
X235631Y118470D01*
X235651Y117970D01*
X235171Y117451D01*
X235690Y116971D01*
X235710Y116472D01*
X235230Y115953D01*
X234231Y115913D01*
X233712Y116393D01*
X233693Y116893D01*
X234172Y117412D01*
X233653Y117891D01*
X233633Y118391D01*
X234172Y117412D02*
X235171Y117451D01*
X282758Y102531D02*
X282689Y103234D01*
X281916Y103868D01*
X281212Y103799D01*
X279944Y102253D01*
X280014Y101550D01*
X280786Y100916D01*
X281490Y100985D01*
X282124Y101758D01*
X281351Y102392D01*
X281946Y99965D02*
X283848Y102283D01*
X283491Y98696D01*
X285394Y101015D01*
X286167Y100381D02*
X284264Y98062D01*
X285423Y97111D01*
X286127Y97180D01*
X287395Y98726D01*
X287326Y99430D01*
X286167Y100381D01*
X282482Y91601D02*
X282428Y92306D01*
X281669Y92956D01*
X280964Y92902D01*
X279663Y91384D01*
X279717Y90679D01*
X280476Y90029D01*
X281181Y90083D01*
X281831Y90842D01*
X281072Y91492D01*
X281615Y89053D02*
X283566Y91330D01*
X283133Y87752D01*
X285084Y90029D01*
X285843Y89378D02*
X283892Y87101D01*
X285030Y86125D01*
X285735Y86179D01*
X287036Y87697D01*
X286982Y88402D01*
X285843Y89378D01*
X282620Y82220D02*
X282559Y82924D01*
X281793Y83567D01*
X281089Y83505D01*
X279804Y81973D01*
X279865Y81269D01*
X280631Y80627D01*
X281335Y80688D01*
X281978Y81454D01*
X281212Y82097D01*
X281780Y79663D02*
X283707Y81960D01*
X283312Y78378D01*
X285239Y80675D01*
X286005Y80033D02*
X284077Y77735D01*
X285226Y76771D01*
X285930Y76833D01*
X287215Y78365D01*
X287154Y79069D01*
X286005Y80033D01*
X282618Y71802D02*
X282554Y72506D01*
X281786Y73146D01*
X281082Y73082D01*
X279802Y71546D01*
X279866Y70842D01*
X280634Y70202D01*
X281338Y70266D01*
X281978Y71034D01*
X281210Y71674D01*
X281786Y69243D02*
X283706Y71546D01*
X283322Y67962D01*
X285242Y70266D01*
X286010Y69626D02*
X284090Y67323D01*
X285242Y66363D01*
X285946Y66427D01*
X287226Y67962D01*
X287162Y68666D01*
X286010Y69626D01*
X282621Y61578D02*
X282560Y62282D01*
X281795Y62925D01*
X281091Y62865D01*
X279804Y61334D01*
X279865Y60630D01*
X280630Y59987D01*
X281334Y60048D01*
X281978Y60813D01*
X281213Y61456D01*
X281778Y59022D02*
X283708Y61317D01*
X283308Y57735D01*
X285238Y60030D01*
X286003Y59387D02*
X284073Y57091D01*
X285221Y56126D01*
X285925Y56187D01*
X287212Y57717D01*
X287151Y58422D01*
X286003Y59387D01*
X282401Y51598D02*
X282337Y52302D01*
X281569Y52942D01*
X280865Y52878D01*
X279585Y51342D01*
X279649Y50638D01*
X280417Y49998D01*
X281121Y50062D01*
X281761Y50830D01*
X280993Y51470D01*
X281569Y49038D02*
X283489Y51342D01*
X283105Y47758D01*
X285025Y50062D01*
X285793Y49422D02*
X283873Y47118D01*
X285025Y46158D01*
X285729Y46222D01*
X287009Y47758D01*
X286945Y48462D01*
X285793Y49422D01*
X282357Y42443D02*
X282251Y43142D01*
X281446Y43735D01*
X280747Y43629D01*
X279561Y42019D01*
X279668Y41320D01*
X280472Y40727D01*
X281171Y40833D01*
X281764Y41638D01*
X280959Y42231D01*
X281680Y39838D02*
X283458Y42253D01*
X283290Y38652D01*
X285068Y41067D01*
X285873Y40474D02*
X284095Y38060D01*
X285302Y37170D01*
X286001Y37276D01*
X287187Y38886D01*
X287081Y39585D01*
X285873Y40474D01*
X282633Y32798D02*
X282536Y33498D01*
X281738Y34101D01*
X281038Y34004D01*
X279832Y32409D01*
X279930Y31709D01*
X280727Y31106D01*
X281427Y31203D01*
X282030Y32001D01*
X281233Y32603D01*
X281923Y30202D02*
X283732Y32594D01*
X283518Y28996D01*
X285327Y31388D01*
X286124Y30786D02*
X284316Y28393D01*
X285512Y27489D01*
X286212Y27586D01*
X287418Y29181D01*
X287320Y29881D01*
X286124Y30786D01*
X59784Y170832D02*
X59684Y173829D01*
X61782Y170898D01*
X61683Y173896D01*
X64697Y173495D02*
X64180Y173978D01*
X63181Y173945D01*
X62698Y173429D01*
X62765Y171431D01*
X63281Y170948D01*
X64280Y170981D01*
X64763Y171497D01*
X59422Y161114D02*
X59308Y164111D01*
X61420Y161189D01*
X61307Y164186D01*
X64322Y163800D02*
X63804Y164280D01*
X62805Y164243D01*
X62324Y163724D01*
X62400Y161726D01*
X62918Y161246D01*
X63917Y161284D01*
X64398Y161802D01*
X59180Y150943D02*
X59189Y153942D01*
X60689Y153937D01*
X61187Y153436D01*
X61184Y152436D01*
X60682Y151938D01*
X59183Y151943D01*
X60182Y151940D02*
X61179Y150937D01*
X64188Y153926D02*
X62188Y153933D01*
X62179Y150934D01*
X64178Y150927D01*
X62183Y152433D02*
X63183Y152430D01*
X67185Y153417D02*
X66687Y153918D01*
X65687Y153921D01*
X65186Y153423D01*
X65184Y152923D01*
X65682Y152422D01*
X66682Y152419D01*
X67180Y151917D01*
X67179Y151418D01*
X66677Y150919D01*
X65677Y150923D01*
X65179Y151424D01*
X70186Y153907D02*
X68186Y153914D01*
X68177Y150915D01*
X70176Y150908D01*
X68181Y152414D02*
X69181Y152411D01*
X71185Y153904D02*
X73185Y153898D01*
X72185Y153901D01*
X72175Y150902D01*
X59418Y142787D02*
X59917Y143288D01*
X60916Y143290D01*
X61417Y142791D01*
X61418Y142291D01*
X60919Y141790D01*
X60419Y141789D01*
X60919Y141790D01*
X61419Y141291D01*
X61420Y140791D01*
X60921Y140291D01*
X59922Y140289D01*
X59421Y140788D01*
X62417Y142293D02*
X63420Y140295D01*
X64417Y142296D01*
X65416Y142798D02*
X65915Y143298D01*
X66914Y143300D01*
X67415Y142801D01*
X67416Y142301D01*
X66917Y141800D01*
X66417Y141799D01*
X66917Y141800D01*
X67418Y141301D01*
X67418Y140802D01*
X66919Y140301D01*
X65920Y140299D01*
X65419Y140798D01*
X60974Y134060D02*
X58975Y134085D01*
X58956Y132586D01*
X59962Y133073D01*
X60462Y133067D01*
X60955Y132561D01*
X60943Y131561D01*
X60437Y131068D01*
X59437Y131080D01*
X58944Y131586D01*
X61961Y133048D02*
X62936Y131036D01*
X63960Y133023D01*
X61179Y122567D02*
X60679Y123067D01*
X59679D01*
X59180Y122567D01*
Y120568D01*
X59679Y120068D01*
X60679D01*
X61179Y120568D01*
Y121568D01*
X60179D01*
X62179Y120068D02*
Y123067D01*
X64178Y120068D01*
Y123067D01*
X65178D02*
Y120068D01*
X66677D01*
X67177Y120568D01*
Y122567D01*
X66677Y123067D01*
X65178D01*
X60795Y113040D02*
X60316Y113560D01*
X59317Y113600D01*
X58797Y113121D01*
X58716Y111123D01*
X59195Y110604D01*
X60194Y110563D01*
X60713Y111042D01*
X60754Y112041D01*
X59755Y112082D01*
X61692Y110502D02*
X61814Y113499D01*
X63690Y110421D01*
X63811Y113417D01*
X64810Y113377D02*
X64688Y110380D01*
X66187Y110319D01*
X66706Y110798D01*
X66788Y112796D01*
X66309Y113316D01*
X64810Y113377D01*
X59256Y103330D02*
X59205Y101332D01*
X60179Y100307D01*
X61204Y101281D01*
X61255Y103280D01*
X62178Y100256D02*
X63177Y100231D01*
X62677Y100243D01*
X62728Y102242D01*
X62228Y102255D01*
X64676Y100193D02*
X64727Y102191D01*
X66226Y102153D01*
X66713Y101641D01*
X66675Y100142D01*
X12941Y176360D02*
X12941Y177067D01*
X12234Y177774D01*
X11527D01*
X10114Y176360D01*
Y175653D01*
X10820Y174946D01*
X11527Y174946D01*
X12234Y175653D01*
X11527Y176360D01*
X11881Y173886D02*
X14002Y176006D01*
X13295Y172472D01*
X15415Y174593D01*
X16122Y173886D02*
X14002Y171765D01*
X15062Y170705D01*
X15769Y170705D01*
X17182Y172118D01*
Y172825D01*
X16122Y173886D01*
X12597Y155777D02*
X12597Y156483D01*
X11890Y157190D01*
X11184D01*
X9770Y155777D01*
Y155070D01*
X10477Y154363D01*
X11184Y154363D01*
X11890Y155070D01*
X11184Y155777D01*
X11537Y153302D02*
X13658Y155423D01*
X12951Y151889D01*
X15071Y154009D01*
X15778Y153302D02*
X13658Y151182D01*
X14718Y150121D01*
X15425Y150121D01*
X16839Y151535D01*
Y152242D01*
X15778Y153302D01*
X13082Y145969D02*
X13082Y146676D01*
X12375Y147383D01*
X11668D01*
X10254Y145969D01*
Y145262D01*
X10961Y144555D01*
X11668Y144555D01*
X12375Y145262D01*
X11668Y145969D01*
X12021Y143495D02*
X14142Y145616D01*
X13435Y142081D01*
X15556Y144202D01*
X16262Y143495D02*
X14142Y141374D01*
X15202Y140314D01*
X15909Y140314D01*
X17323Y141728D01*
Y142435D01*
X16262Y143495D01*
X13687Y136162D02*
X13687Y136869D01*
X12980Y137575D01*
X12273D01*
X10859Y136162D01*
Y135455D01*
X11566Y134748D01*
X12273Y134748D01*
X12980Y135455D01*
X12273Y136162D01*
X12627Y133688D02*
X14747Y135808D01*
X14040Y132274D01*
X16161Y134395D01*
X16868Y133688D02*
X14747Y131567D01*
X15808Y130507D01*
X16514Y130507D01*
X17928Y131921D01*
Y132627D01*
X16868Y133688D01*
X12355Y125628D02*
X12355Y126335D01*
X11648Y127042D01*
X10941D01*
X9528Y125628D01*
Y124921D01*
X10234Y124214D01*
X10941Y124214D01*
X11648Y124921D01*
X10941Y125628D01*
X11295Y123154D02*
X13416Y125275D01*
X12709Y121740D01*
X14829Y123861D01*
X15536Y123154D02*
X13416Y121033D01*
X14476Y119973D01*
X15183Y119973D01*
X16596Y121387D01*
Y122093D01*
X15536Y123154D01*
X12443Y115761D02*
X12443Y116467D01*
X11736Y117174D01*
X11029D01*
X9616Y115761D01*
Y115054D01*
X10323Y114347D01*
X11029Y114347D01*
X11736Y115054D01*
X11029Y115761D01*
X11383Y113286D02*
X13503Y115407D01*
X12797Y111873D01*
X14917Y113993D01*
X15624Y113286D02*
X13503Y111166D01*
X14564Y110106D01*
X15271Y110106D01*
X16684Y111519D01*
Y112226D01*
X15624Y113286D01*
X12355Y105287D02*
X12355Y105994D01*
X11648Y106701D01*
X10941D01*
X9528Y105287D01*
Y104580D01*
X10234Y103873D01*
X10941Y103873D01*
X11648Y104580D01*
X10941Y105287D01*
X11295Y102813D02*
X13416Y104933D01*
X12709Y101399D01*
X14829Y103520D01*
X15536Y102813D02*
X13416Y100692D01*
X14476Y99632D01*
X15183Y99632D01*
X16596Y101046D01*
Y101752D01*
X15536Y102813D01*
X12816Y73071D02*
X12816Y73778D01*
X12109Y74485D01*
X11402D01*
X9988Y73071D01*
Y72364D01*
X10695Y71657D01*
X11402Y71657D01*
X12109Y72364D01*
X11402Y73071D01*
X11755Y70597D02*
X13876Y72718D01*
X13169Y69183D01*
X15290Y71304D01*
X15997Y70597D02*
X13876Y68476D01*
X14936Y67416D01*
X15643Y67416D01*
X17057Y68830D01*
Y69537D01*
X15997Y70597D01*
X12816Y83071D02*
X12816Y83778D01*
X12109Y84485D01*
X11402D01*
X9988Y83071D01*
Y82364D01*
X10695Y81657D01*
X11402Y81657D01*
X12109Y82364D01*
X11402Y83071D01*
X11755Y80597D02*
X13876Y82718D01*
X13169Y79183D01*
X15290Y81304D01*
X15997Y80597D02*
X13876Y78476D01*
X14936Y77416D01*
X15643Y77416D01*
X17057Y78830D01*
Y79537D01*
X15997Y80597D01*
X12523Y63071D02*
X12523Y63778D01*
X11816Y64485D01*
X11109D01*
X9695Y63071D01*
Y62364D01*
X10402Y61657D01*
X11109Y61657D01*
X11816Y62364D01*
X11109Y63071D01*
X11462Y60597D02*
X13583Y62718D01*
X12876Y59183D01*
X14997Y61304D01*
X15704Y60597D02*
X13583Y58476D01*
X14643Y57416D01*
X15350Y57416D01*
X16764Y58830D01*
Y59537D01*
X15704Y60597D01*
X12523Y53071D02*
X12523Y53778D01*
X11816Y54485D01*
X11109D01*
X9695Y53071D01*
Y52364D01*
X10402Y51657D01*
X11109Y51657D01*
X11816Y52364D01*
X11109Y53071D01*
X11462Y50597D02*
X13583Y52718D01*
X12876Y49183D01*
X14997Y51304D01*
X15704Y50597D02*
X13583Y48476D01*
X14643Y47416D01*
X15350Y47416D01*
X16764Y48830D01*
Y49537D01*
X15704Y50597D01*
X12523Y43071D02*
X12523Y43778D01*
X11816Y44485D01*
X11109D01*
X9695Y43071D01*
Y42364D01*
X10402Y41657D01*
X11109Y41657D01*
X11816Y42364D01*
X11109Y43071D01*
X11462Y40597D02*
X13583Y42718D01*
X12876Y39183D01*
X14997Y41304D01*
X15704Y40597D02*
X13583Y38476D01*
X14643Y37416D01*
X15350Y37416D01*
X16764Y38830D01*
Y39537D01*
X15704Y40597D01*
X12523Y33071D02*
X12523Y33778D01*
X11816Y34485D01*
X11109D01*
X9695Y33071D01*
Y32364D01*
X10402Y31657D01*
X11109Y31657D01*
X11816Y32364D01*
X11109Y33071D01*
X11462Y30597D02*
X13583Y32718D01*
X12876Y29183D01*
X14997Y31304D01*
X15704Y30597D02*
X13583Y28476D01*
X14643Y27416D01*
X15350Y27416D01*
X16764Y28830D01*
Y29537D01*
X15704Y30597D01*
X58894Y70178D02*
X58921Y72177D01*
X59935Y73163D01*
X60921Y72150D01*
X60894Y70151D01*
X60914Y71650D01*
X58915Y71677D01*
X61893Y70137D02*
X62893Y70124D01*
X62393Y70130D01*
X62433Y73129D01*
X61927Y72636D01*
X59395Y80184D02*
X59352Y82183D01*
X60330Y83204D01*
X61351Y82226D01*
X61394Y80227D01*
X61361Y81726D01*
X59363Y81683D01*
X62339Y82747D02*
X62828Y83258D01*
X63828Y83279D01*
X64338Y82790D01*
X64381Y80791D01*
X63892Y80281D01*
X62893Y80259D01*
X62382Y80748D01*
X62339Y82747D01*
X59095Y60571D02*
X59145Y62570D01*
X60170Y63544D01*
X61144Y62520D01*
X61093Y60521D01*
X61131Y62020D01*
X59132Y62071D01*
X64091Y60445D02*
X62093Y60496D01*
X64142Y62444D01*
X64155Y62943D01*
X63668Y63456D01*
X62668Y63481D01*
X62156Y62994D01*
X59095Y50265D02*
X59118Y52264D01*
X60129Y53252D01*
X61117Y52241D01*
X61094Y50241D01*
X61111Y51741D01*
X59112Y51764D01*
X62123Y52729D02*
X62628Y53223D01*
X63628Y53211D01*
X64122Y52705D01*
X64116Y52205D01*
X63610Y51711D01*
X63111Y51717D01*
X63610Y51711D01*
X64104Y51206D01*
X64099Y50706D01*
X63593Y50212D01*
X62593Y50224D01*
X62099Y50729D01*
X59095Y39558D02*
X59111Y41557D01*
X60119Y42549D01*
X61110Y41541D01*
X61094Y39541D01*
X61106Y41041D01*
X59107Y41057D01*
X63593Y39521D02*
X63618Y42520D01*
X62106Y41033D01*
X64105Y41016D01*
X65088Y39009D02*
X67088Y38992D01*
X70111Y41966D02*
X69616Y42470D01*
X68616Y42478D01*
X68112Y41983D01*
X68108Y41483D01*
X68603Y40979D01*
X69603Y40971D01*
X70099Y40467D01*
X70095Y39967D01*
X69591Y39471D01*
X68591Y39479D01*
X68095Y39983D01*
X71115Y42458D02*
X71090Y39459D01*
X72590Y39446D01*
X73094Y39942D01*
X73110Y41941D01*
X72615Y42445D01*
X71115Y42458D01*
X74089Y39434D02*
X74106Y41433D01*
X75114Y42425D01*
X76105Y41417D01*
X76089Y39417D01*
X76101Y40917D01*
X74102Y40933D01*
X59317Y29217D02*
X59311Y31216D01*
X60307Y32219D01*
X61310Y31223D01*
X61317Y29223D01*
X61312Y30723D01*
X59312Y30716D01*
X64306Y32232D02*
X62306Y32225D01*
X62311Y30726D01*
X63309Y31229D01*
X63809Y31231D01*
X64311Y30733D01*
X64314Y29733D01*
X63816Y29232D01*
X62816Y29228D01*
X62315Y29726D01*
X65317Y28737D02*
X67316Y28743D01*
X70305Y31752D02*
X69804Y32250D01*
X68804Y32247D01*
X68306Y31745D01*
X68308Y31246D01*
X68809Y30748D01*
X69809Y30751D01*
X70310Y30253D01*
X70312Y29753D01*
X69814Y29251D01*
X68814Y29248D01*
X68313Y29746D01*
X73304Y31762D02*
X72803Y32260D01*
X71803Y32257D01*
X71305Y31755D01*
X71312Y29756D01*
X71813Y29258D01*
X72813Y29261D01*
X73311Y29763D01*
X74302Y32265D02*
X74312Y29266D01*
X76312Y29273D01*
X231316Y29779D02*
X231368Y32778D01*
X232867Y32752D01*
X233358Y32243D01*
X233341Y31244D01*
X232832Y30753D01*
X231333Y30779D01*
X232332Y30762D02*
X233315Y29745D01*
X234366Y32726D02*
X236313Y29693D01*
X236365Y32691D02*
X234314Y29727D01*
X230950Y42988D02*
X232949D01*
X231949D01*
Y39989D01*
X233949Y42988D02*
X235948Y39989D01*
Y42988D02*
X233949Y39989D01*
X235516Y50538D02*
X233518Y50476D01*
X235454Y52536D01*
X235438Y53036D01*
X234923Y53520D01*
X233924Y53489D01*
X233440Y52974D01*
X230918Y62320D02*
X231426Y62812D01*
X232426Y62796D01*
X232933Y63288D01*
X233917Y62272D02*
X234425Y62764D01*
X235424Y62748D01*
X235916Y62240D01*
X235908Y61740D01*
X235400Y61249D01*
X234900Y61257D01*
X235400Y61249D01*
X235892Y60741D01*
X235884Y60241D01*
X235376Y59749D01*
X234377Y59765D01*
X233885Y60273D01*
X235373Y70824D02*
X235482Y73821D01*
X233929Y72377D01*
X235927Y72304D01*
X231374Y82793D02*
X231859Y83308D01*
X232858Y83338D01*
X233343Y83853D01*
X236355Y83443D02*
X234357Y83383D01*
X234402Y81884D01*
X235386Y82414D01*
X235886Y82428D01*
X236400Y81944D01*
X236430Y80945D01*
X235946Y80430D01*
X234946Y80400D01*
X234432Y80885D01*
X230794Y92707D02*
X231319Y93181D01*
X232318Y93129D01*
X232843Y93602D01*
X235812Y92947D02*
X234788Y92500D01*
X233737Y91553D01*
X233685Y90555D01*
X234158Y90030D01*
X235157Y89978D01*
X235682Y90451D01*
X235708Y90950D01*
X235235Y91475D01*
X233737Y91553D01*
X233396Y103479D02*
X235393Y103370D01*
X235366Y102871D01*
X233260Y100984D01*
X233232Y100484D01*
M02*
