G04*
G04 #@! TF.GenerationSoftware,Altium Limited,Altium Designer,22.3.1 (43)*
G04*
G04 Layer_Physical_Order=1*
G04 Layer_Color=255*
%FSLAX25Y25*%
%MOIN*%
G70*
G04*
G04 #@! TF.SameCoordinates,BE9DF307-5FBB-4082-8082-0A4452DDA755*
G04*
G04*
G04 #@! TF.FilePolarity,Positive*
G04*
G01*
G75*
%ADD10C,0.00600*%
%ADD11C,0.01000*%
%ADD20R,0.04400X0.07100*%
%ADD21R,0.07100X0.04400*%
%ADD22R,0.03937X0.02756*%
%ADD23R,0.02362X0.02756*%
%ADD24R,0.03150X0.03150*%
%ADD25R,0.01181X0.02756*%
%ADD26R,0.03150X0.03150*%
%ADD27R,0.04724X0.05511*%
%ADD28R,0.03937X0.05709*%
%ADD29R,0.03937X0.02953*%
%ADD30R,0.02756X0.02362*%
%ADD31R,0.05511X0.04724*%
%ADD32R,0.05709X0.03937*%
%ADD33R,0.06300X0.03300*%
%ADD34R,0.06300X0.12200*%
%ADD35O,0.08661X0.02400*%
%ADD36R,0.05800X0.02000*%
%ADD37R,0.02000X0.05800*%
%ADD38R,0.04724X0.05906*%
%ADD64C,0.00600*%
%ADD65C,0.02000*%
%ADD66C,0.07000*%
%ADD67O,0.03937X0.07874*%
%ADD68O,0.03937X0.06299*%
%ADD69C,0.02362*%
%ADD70C,0.02756*%
%ADD71C,0.03150*%
%ADD72C,0.06000*%
%ADD73C,0.06496*%
%ADD74O,0.14961X0.07874*%
%ADD75O,0.07087X0.12992*%
%ADD76C,0.02500*%
D10*
X241160Y248724D02*
G03*
X241149Y248724I9J-2550D01*
G01*
X215892Y237012D02*
G03*
X217383Y236774I1491J4563D01*
G01*
X145772Y130252D02*
G03*
X149332Y130775I1134J4664D01*
G01*
X183436Y294630D02*
X183535D01*
X179301Y298765D02*
X183436Y294630D01*
X172246Y299028D02*
X172743D01*
X178541Y295877D01*
X179301Y298765D02*
Y303027D01*
X172246Y299028D02*
X175364Y302146D01*
X169128Y295910D02*
X172246Y299028D01*
X193295Y294481D02*
X199348Y300534D01*
X192632Y296081D02*
X199259Y302708D01*
X185259Y299444D02*
Y302952D01*
X189678Y298631D02*
Y299137D01*
X188622Y296081D02*
X192632D01*
X187673Y290492D02*
X190062Y292881D01*
X185259Y299444D02*
X188622Y296081D01*
X182637Y299802D02*
Y301431D01*
X187959Y294481D02*
X193295D01*
X182637Y299802D02*
X187959Y294481D01*
X201586Y292881D02*
X204152Y290314D01*
X188510Y300305D02*
X189678Y299137D01*
X182369Y301699D02*
X182637Y301431D01*
X190062Y292881D02*
X201586D01*
X189567Y302855D02*
Y303228D01*
X188510Y300305D02*
X194594D01*
X186859Y301957D02*
X188510Y300305D01*
X194594D02*
X198597Y304308D01*
X191112Y304774D02*
Y307537D01*
X189567Y303228D02*
X191112Y304774D01*
Y307537D02*
Y308324D01*
X181270Y304664D02*
X182382Y303552D01*
Y302223D02*
X182637Y301968D01*
X182382Y302223D02*
Y303552D01*
X179301Y303027D02*
Y307537D01*
X183535Y294630D02*
X187673Y290492D01*
X185207Y305267D02*
X186859Y303615D01*
X185207Y305267D02*
Y307537D01*
X183238Y304973D02*
Y307537D01*
X186859Y301957D02*
Y303615D01*
X183238Y304973D02*
X185259Y302952D01*
X181270Y304664D02*
Y307537D01*
X224057Y245923D02*
X230753D01*
X223605Y246374D02*
X224057Y245923D01*
X217383Y246374D02*
X223605D01*
X227886Y248618D02*
X241149Y248724D01*
X227389Y248618D02*
X227886D01*
X241160Y248724D02*
X261703Y248794D01*
X264831Y251922D01*
X230778Y251745D02*
Y255702D01*
X235597Y260521D02*
Y260915D01*
X230778Y255702D02*
X235597Y260521D01*
X227214Y248794D02*
X227389Y248618D01*
X215619Y246550D02*
X215795Y246374D01*
X217383Y246374D01*
X227038Y248970D02*
X227214Y248794D01*
X215151Y247018D02*
X215619Y246550D01*
X163113Y247018D02*
X215151D01*
X235597Y255506D02*
Y260521D01*
X227038Y248970D02*
Y261260D01*
X263971Y285242D02*
X264831Y284382D01*
X260731Y275242D02*
X263231Y272742D01*
X258134Y253975D02*
Y261703D01*
X237688Y265754D02*
X256442D01*
X263231Y266800D02*
Y272742D01*
X257600Y266913D02*
Y270242D01*
X258134Y261703D02*
X263231Y266800D01*
X257600Y275242D02*
X260731D01*
X264831Y251922D02*
Y284382D01*
X256442Y265754D02*
X257600Y266913D01*
X236649Y254454D02*
X245854D01*
X246334Y253975D01*
X235597Y255506D02*
X236649Y254454D01*
X164026Y98618D02*
Y106060D01*
X191068Y100553D02*
X192418D01*
X186109Y105512D02*
X191068Y100553D01*
X174902Y104692D02*
X175723Y105512D01*
X170100Y104692D02*
X174902D01*
X164026Y98618D02*
X170100Y104692D01*
X164026Y98225D02*
Y98618D01*
X174701Y102599D02*
X176416D01*
X170720Y98618D02*
X174701Y102599D01*
X176416D02*
X176779Y102963D01*
X175723Y105512D02*
X186109D01*
X210137Y63356D02*
X210558Y63777D01*
X201871Y63708D02*
Y98428D01*
X202222Y63356D02*
X210137D01*
X201871Y63708D02*
X202222Y63356D01*
X199746Y100553D02*
X201871Y98428D01*
X192418Y100553D02*
X199746D01*
X179752Y89352D02*
X180351Y88753D01*
X192418D01*
X218332Y311629D02*
X218598Y311363D01*
Y305923D02*
Y311363D01*
X214043Y306782D02*
X214395Y307134D01*
X204093Y306782D02*
X214043D01*
X214395Y307134D02*
Y311629D01*
X199259Y302708D02*
X200019D01*
X200108Y300534D02*
X204075Y304501D01*
X199348Y300534D02*
X200108D01*
X206815Y297984D02*
X206914Y298083D01*
X200404Y297984D02*
X206815D01*
X198597Y304308D02*
X199356D01*
X205851Y308382D02*
X234769Y337300D01*
X203431Y308382D02*
X205851D01*
X204075Y304501D02*
X215608D01*
X200019Y302708D02*
X204093Y306782D01*
X199356Y304308D02*
X203431Y308382D01*
X215608Y304501D02*
X216008Y304101D01*
Y302030D02*
Y304101D01*
X273877Y238543D02*
X279746D01*
X291318Y250115D01*
Y289413D01*
X263261Y218465D02*
X270435Y225639D01*
Y299648D01*
X269841Y300242D02*
X270435Y299648D01*
X260981Y238661D02*
X264267D01*
X259094Y236774D02*
X260981Y238661D01*
X217383Y236774D02*
X259094D01*
X140389Y237012D02*
X215892D01*
X110186Y206809D02*
X140389Y237012D01*
X73758Y240191D02*
X101760Y212189D01*
Y207262D02*
Y212189D01*
X77321Y255551D02*
Y263157D01*
X69156Y247386D02*
X77321Y255551D01*
X290488Y290242D02*
X291318Y289413D01*
X281000Y290242D02*
X290488D01*
X257600Y300242D02*
X269841D01*
X253982D02*
X257600D01*
X214151Y42096D02*
X220357D01*
X220896Y41557D01*
X181671Y17190D02*
X201838Y37357D01*
X209720D01*
X219761Y28967D02*
Y32061D01*
X145103Y47149D02*
X204673D01*
X219761Y32061D01*
X178459Y17190D02*
X181671D01*
X177271Y16002D02*
X178459Y17190D01*
X219761Y28967D02*
X233086Y15642D01*
X175364Y302146D02*
Y307537D01*
X211644Y293607D02*
Y298696D01*
X213709Y300761D01*
X204152Y290314D02*
X215725D01*
X216077Y290666D01*
X213709Y300761D02*
X215153D01*
X216279Y272487D02*
X217483Y271283D01*
Y261674D02*
Y271283D01*
X216279Y272487D02*
Y273001D01*
X217383Y261574D02*
X217483Y261674D01*
X215153Y300761D02*
X216215Y301823D01*
X190093Y266083D02*
X193171Y263005D01*
Y262212D02*
Y263005D01*
X190093Y266083D02*
Y280684D01*
X201119Y262212D02*
X225476Y286568D01*
Y288241D01*
X227800Y290565D01*
X193171Y262212D02*
X201119D01*
X247635Y290565D02*
X249065Y289134D01*
X227800Y290565D02*
X247635D01*
X249065Y281240D02*
Y289134D01*
X250063Y280242D02*
X257600D01*
X249065Y281240D02*
X250063Y280242D01*
X217420Y261611D02*
X226686D01*
X227038Y261260D01*
X257600Y285242D02*
X263971D01*
X216077Y294204D02*
X216215Y294342D01*
X216077Y290666D02*
Y294204D01*
X216008Y302030D02*
X216215Y301823D01*
X208717Y331993D02*
X208726Y331984D01*
X208717Y331993D02*
Y338752D01*
X204789Y327602D02*
Y331984D01*
X204438Y327251D02*
X204789Y327602D01*
X189724Y327251D02*
X204438D01*
X177136Y314662D02*
X189724Y327251D01*
X156380Y270929D02*
X156504Y270805D01*
Y262816D02*
Y270805D01*
X156380Y274866D02*
Y280289D01*
X156554Y280464D01*
Y296106D02*
X156556Y296107D01*
X156554Y286369D02*
Y296106D01*
X122763Y338520D02*
X122787Y338544D01*
X153886D01*
X154238Y298425D02*
Y338193D01*
X153886Y338544D02*
X154238Y338193D01*
X156556Y296107D02*
X156753Y295910D01*
X154238Y298425D02*
X156556Y296107D01*
X156753Y295910D02*
X169128D01*
X169425Y302907D02*
Y307502D01*
X169391Y302873D02*
X169425Y302907D01*
Y307502D02*
X169459Y307537D01*
X192294Y309505D02*
Y311906D01*
X191112Y308324D02*
X192294Y309505D01*
X168278D02*
X169459Y308324D01*
X168278Y309505D02*
Y311906D01*
X169459Y307537D02*
Y308324D01*
X185129Y307614D02*
Y309706D01*
Y307614D02*
X185207Y307537D01*
X185010Y309825D02*
Y311906D01*
Y309825D02*
X185129Y309706D01*
X175364Y307537D02*
X175442Y307614D01*
Y311787D01*
X175562Y311906D01*
X217778Y142861D02*
X242635Y167718D01*
X144850Y142861D02*
X217778D01*
X136906Y134916D02*
X144850Y142861D01*
X98957Y138090D02*
X148585Y187718D01*
X242635D01*
X153369Y197718D02*
X242635D01*
X93250Y137598D02*
X153369Y197718D01*
X155185Y207718D02*
X242635D01*
X85200Y137733D02*
X155185Y207718D01*
X202087Y167351D02*
X206942D01*
X207065Y167473D01*
X142087Y130098D02*
X146906Y134916D01*
X219833D01*
X242635Y157718D01*
X141305Y126105D02*
X145453Y130252D01*
X225692Y130775D02*
X242635Y147718D01*
X145702Y130252D02*
X145772D01*
X149332Y130775D02*
X225692D01*
X145453Y130252D02*
X145702D01*
X226359Y126917D02*
X227160Y127718D01*
X135758Y86533D02*
Y91436D01*
X171238Y126917D02*
X226359D01*
X132658Y90599D02*
X170575Y128516D01*
X225696D01*
X227653Y130473D01*
X135758Y91436D02*
X171238Y126917D01*
X132658Y86533D02*
Y90599D01*
X227653Y130473D02*
X235390D01*
X227160Y127718D02*
X242635D01*
X235390Y130473D02*
X242635Y137718D01*
X127540Y105550D02*
X146906Y124917D01*
X127540Y101234D02*
Y105550D01*
X120395Y125195D02*
X124917Y129717D01*
X120457Y80633D02*
Y88770D01*
X121995Y89495D02*
X125657Y85833D01*
X121995Y113218D02*
X131705Y122928D01*
X123770Y111781D02*
X136906Y124917D01*
X120395Y88832D02*
X120457Y88770D01*
X123770Y90820D02*
Y111781D01*
X121995Y89495D02*
Y113218D01*
X123770Y90820D02*
X124557Y90033D01*
X120395Y88832D02*
Y125195D01*
X107581Y91994D02*
X107618Y92031D01*
X116683Y101096D02*
X116683D01*
X107618Y92031D02*
X116683Y101096D01*
X107581Y83022D02*
Y91994D01*
X257959Y60960D02*
Y215907D01*
X243703Y46705D02*
X257959Y60960D01*
X222352Y43473D02*
X225583Y46705D01*
X243703D01*
X222352Y43209D02*
Y43473D01*
X220896Y41754D02*
X222352Y43209D01*
X223454Y36018D02*
X262863D01*
X263261Y36416D01*
X266465Y295242D02*
X266817Y294891D01*
Y224766D02*
Y294891D01*
X257600Y295242D02*
X266465D01*
X257959Y215907D02*
X266817Y224766D01*
X263261Y36416D02*
Y218465D01*
X221217Y33780D02*
X223454Y36018D01*
X221217Y33516D02*
Y33780D01*
X219761Y32061D02*
X221217Y33516D01*
X44164Y88590D02*
X60163D01*
X77109Y105536D01*
Y110850D01*
X93250Y126991D01*
X43524Y87950D02*
X44164Y88590D01*
X43524Y45605D02*
Y87950D01*
X41043Y43310D02*
Y90320D01*
X85249Y125985D02*
X85351Y126086D01*
Y126382D01*
X41043Y43310D02*
X52635Y31718D01*
X41043Y90320D02*
X42081Y91358D01*
X43524Y45605D02*
X47412Y41718D01*
X52635D01*
X42081Y91358D02*
X60668D01*
X72828Y103517D01*
Y113859D01*
X85351Y126382D01*
X52635Y151718D02*
X62881D01*
X69737Y145700D01*
X80520Y134916D01*
X126906D01*
X45597Y158756D02*
X52635Y151718D01*
X45597Y158756D02*
Y234224D01*
Y234815D01*
X80336Y76495D02*
Y84253D01*
X98663Y102579D01*
Y126820D01*
X52635Y31718D02*
X117903D01*
X128058Y86533D02*
Y89456D01*
Y86533D02*
X128758Y85833D01*
X124557Y90033D02*
X127481D01*
X128058Y89456D01*
X152857Y64933D02*
X153007Y64783D01*
X160190D01*
X153008Y71383D02*
X161075D01*
X30684Y23521D02*
Y129767D01*
Y23521D02*
X31035Y23170D01*
X30684Y129767D02*
X52635Y151718D01*
X173484Y74565D02*
X177496D01*
X173424Y74504D02*
X173484Y74565D01*
X152857Y71233D02*
X153008Y71383D01*
X170720Y89169D02*
Y89563D01*
X159083Y77533D02*
X170720Y89169D01*
X152857Y77533D02*
X159083D01*
X131705Y129717D02*
X136906Y134916D01*
X80336Y76495D02*
X85599Y71233D01*
X120457D01*
X31035Y23170D02*
X111618D01*
X137557Y49110D01*
X157057Y57533D02*
Y60737D01*
X153502Y61089D02*
X156706D01*
X157057Y60737D01*
X152857Y61733D02*
X153502Y61089D01*
X40361Y237916D02*
Y262126D01*
X41401Y236877D02*
X43534D01*
X40361Y262126D02*
X48853Y270618D01*
X40361Y237916D02*
X41401Y236877D01*
X43534D02*
X45597Y234815D01*
X112299Y67737D02*
X120162D01*
X120457Y68033D01*
X137557Y49110D02*
Y52733D01*
X138258Y53433D01*
X135057Y48872D02*
Y53433D01*
X117903Y31718D02*
X135057Y48872D01*
X138094Y126105D02*
X141305D01*
X136906Y124917D02*
X138094Y126105D01*
X211002Y167473D02*
X218133D01*
X218328Y167669D01*
X224234D02*
X224282Y167718D01*
X242635D01*
X124917Y129717D02*
X131705D01*
X135299Y130098D02*
X142087D01*
X131705Y126505D02*
X135299Y130098D01*
X131705Y122928D02*
Y126505D01*
X131957Y85833D02*
X132658Y86533D01*
X142058Y93211D02*
X162094Y113248D01*
X222705Y111648D02*
X242635Y91718D01*
X164302Y117718D02*
X242635D01*
X162094Y113248D02*
X231105D01*
X242635Y101718D01*
X148357Y94986D02*
X163420Y110048D01*
X144557Y93448D02*
X162757Y111648D01*
X222705D01*
X138958Y92374D02*
X164302Y117718D01*
X163420Y110048D02*
X214305D01*
X242635Y81718D01*
X135057Y85833D02*
X135758Y86533D01*
X138958D02*
Y92374D01*
X142058Y86533D02*
Y93211D01*
X141358Y85833D02*
X142058Y86533D01*
X144557Y85833D02*
Y93448D01*
X148357Y86533D02*
Y94986D01*
X138258Y85833D02*
X138958Y86533D01*
X147658Y85833D02*
X148357Y86533D01*
X157057Y57533D02*
X160922Y53668D01*
X152857Y58633D02*
X159422Y52068D01*
X232985D02*
X242635Y61718D01*
X224585Y53668D02*
X242635Y71718D01*
X160922Y53668D02*
X224585D01*
X159422Y52068D02*
X232985D01*
X239805Y50349D02*
X241174Y51718D01*
X242635D01*
X147658Y52418D02*
X149726Y50349D01*
X142058Y50195D02*
X145103Y47149D01*
X146603Y48749D02*
X213900D01*
X149726Y50349D02*
X239805D01*
X145257Y50094D02*
X146603Y48749D01*
X213900D02*
X220896Y41754D01*
X147658Y52418D02*
Y53433D01*
X145257Y50094D02*
Y52733D01*
X144557Y53433D02*
X145257Y52733D01*
X224833Y41557D02*
X224994Y41718D01*
X242635D01*
X223698Y31864D02*
X223844Y31718D01*
X242635D01*
X142058Y50195D02*
Y52733D01*
X141358Y53433D02*
X142058Y52733D01*
X52635Y41718D02*
X125251D01*
X131957Y49633D02*
Y53433D01*
X128585Y47315D02*
Y53261D01*
X80601Y46963D02*
X128234D01*
X128585Y47315D01*
X131957Y49633D02*
X131967Y49623D01*
X125251Y41718D02*
X131967Y48434D01*
Y49623D01*
X128585Y53261D02*
X128758Y53433D01*
X52635Y51718D02*
X75846D01*
X80601Y46963D01*
X125596Y53371D02*
X125657Y53433D01*
X80661Y49166D02*
X125244D01*
X125596Y49517D02*
Y53371D01*
X125244Y49166D02*
X125596Y49517D01*
X68109Y61718D02*
X80661Y49166D01*
X52635Y61718D02*
X68109D01*
X60372Y71718D02*
X72757Y59333D01*
X52635Y71718D02*
X60372D01*
X72757Y59333D02*
X119757D01*
X120457Y58633D01*
X72619Y61733D02*
X120457D01*
X52635Y81718D02*
X72619Y61733D01*
X170720Y98224D02*
Y98618D01*
X170930Y89352D02*
X179752D01*
X170720Y89563D02*
X170930Y89352D01*
X164026Y106060D02*
X165139Y107173D01*
Y107370D01*
X152857Y90653D02*
X160430Y98225D01*
X164026D01*
X152857Y80633D02*
Y90653D01*
X156878Y89446D02*
X163910D01*
X179752Y93290D02*
Y97398D01*
X169117Y107411D02*
X173725D01*
X97954Y77538D02*
X107554D01*
X107581Y77510D01*
X120434D02*
X120457Y77533D01*
X107581Y77510D02*
X120434D01*
X90460Y77552D02*
X90474Y77538D01*
X82886Y77552D02*
X90460D01*
X245283Y295242D02*
X257600D01*
X238721Y301803D02*
X245283Y295242D01*
X230953Y301803D02*
X238721D01*
X243673Y301249D02*
X252976D01*
X253982Y300242D01*
X243673Y305186D02*
Y312630D01*
X230944Y312362D02*
X230953Y312354D01*
Y305741D02*
Y312354D01*
X237053Y262370D02*
Y265119D01*
X237688Y265754D01*
X288166Y316997D02*
X288180Y316982D01*
X294527D01*
X280685Y316997D02*
X281000Y316682D01*
X249185Y305114D02*
X249250Y305178D01*
X257536D02*
X257600Y305242D01*
X249250Y305178D02*
X257536D01*
X230944Y312362D02*
X230953Y312371D01*
X243673Y312630D02*
X243680Y312623D01*
X244833Y277473D02*
Y284558D01*
X244323Y276963D02*
X244833Y277473D01*
X244376Y270218D02*
X249759D01*
X244323Y270270D02*
X244376Y270218D01*
X235385Y277240D02*
X235662Y276963D01*
X226822Y277240D02*
X235385D01*
X234687Y284352D02*
X240691D01*
X240896Y284558D01*
X235597Y260915D02*
Y270206D01*
Y260915D02*
X237053Y262370D01*
X239739Y260512D02*
X244973D01*
X254469Y275242D02*
X257600D01*
X244323Y276963D02*
X252748D01*
X254469Y275242D01*
X235597Y270206D02*
X235661Y270270D01*
X239534Y260718D02*
X239739Y260512D01*
X236262Y261030D02*
X236299Y261066D01*
X48853Y270618D02*
X66771D01*
X141921Y327463D02*
X147616D01*
X141716Y327668D02*
X141921Y327463D01*
X137709Y327739D02*
X137779Y327668D01*
X128895Y327739D02*
X137709D01*
X112763Y337965D02*
X122990Y327739D01*
X112763Y337965D02*
Y338520D01*
X57408Y260208D02*
X57524Y260324D01*
Y267949D01*
X66735Y261237D02*
Y266645D01*
X66771Y266681D01*
X77302Y270618D02*
X77321Y270637D01*
X66771Y270618D02*
X77302D01*
X77321Y270637D02*
Y278160D01*
X77216Y278265D02*
X77321Y278160D01*
X77216Y287421D02*
X84996Y295201D01*
X77216Y282202D02*
Y287421D01*
X82740Y319398D02*
X91738Y328395D01*
X82740Y306121D02*
X84996Y303865D01*
Y295201D02*
Y303865D01*
X102638Y328395D02*
X112763Y338520D01*
X82740Y306121D02*
Y319398D01*
X91738Y328395D02*
X102638D01*
X76666Y299562D02*
X82446D01*
X138022Y295471D02*
Y306090D01*
X127008Y312069D02*
X137948D01*
X137981Y281714D02*
Y287867D01*
X126893Y297976D02*
Y304540D01*
X112440Y303610D02*
X118385D01*
X68217Y315243D02*
X73546D01*
X60537Y299861D02*
X68859D01*
D11*
X68010Y315036D02*
X68217Y315243D01*
X68859Y299861D02*
X68873Y299874D01*
X76353D02*
X76666Y299562D01*
D20*
X258134Y253975D02*
D03*
X246334D02*
D03*
D21*
X192418Y88753D02*
D03*
Y100553D02*
D03*
D22*
X216215Y301823D02*
D03*
Y298083D02*
D03*
Y294342D02*
D03*
X206914D02*
D03*
Y298083D02*
D03*
Y301823D02*
D03*
D23*
X214395Y311629D02*
D03*
X218332D02*
D03*
X211002Y167473D02*
D03*
X207065D02*
D03*
X220896Y41557D02*
D03*
X224833D02*
D03*
X219761Y31864D02*
D03*
X223698D02*
D03*
X244833Y284558D02*
D03*
X240896D02*
D03*
X235597Y260718D02*
D03*
X239534D02*
D03*
X137779Y327668D02*
D03*
X141716D02*
D03*
X204789Y331984D02*
D03*
X208726D02*
D03*
X169076Y107370D02*
D03*
X165139D02*
D03*
D24*
X230953Y318276D02*
D03*
Y312371D02*
D03*
X137981Y312036D02*
D03*
Y306131D02*
D03*
X243673Y312630D02*
D03*
Y318535D02*
D03*
X156554Y280464D02*
D03*
Y286369D02*
D03*
X60537Y299861D02*
D03*
Y305766D02*
D03*
D25*
X169459Y307537D02*
D03*
X171427D02*
D03*
X173396D02*
D03*
X175364D02*
D03*
X177333D02*
D03*
X179301D02*
D03*
X181270D02*
D03*
X183238D02*
D03*
X185207D02*
D03*
X187175D02*
D03*
X189144D02*
D03*
X191112D02*
D03*
D26*
X224234Y167669D02*
D03*
X218328D02*
D03*
X122990Y327739D02*
D03*
X128895D02*
D03*
D27*
X170720Y89563D02*
D03*
Y98224D02*
D03*
X164026Y89563D02*
D03*
Y98225D02*
D03*
D28*
X173424Y74504D02*
D03*
X165943D02*
D03*
X90474Y77538D02*
D03*
X97954D02*
D03*
X60530Y315036D02*
D03*
X68010D02*
D03*
X68873Y299874D02*
D03*
X76353D02*
D03*
X280685Y316997D02*
D03*
X288166D02*
D03*
D29*
X107581Y83022D02*
D03*
Y77510D02*
D03*
D30*
X243673Y305186D02*
D03*
Y301249D02*
D03*
X230953Y305741D02*
D03*
Y301803D02*
D03*
X156380Y270929D02*
D03*
Y274866D02*
D03*
X77216Y278265D02*
D03*
Y282202D02*
D03*
X66771Y270618D02*
D03*
Y266681D02*
D03*
X179752Y89352D02*
D03*
Y93290D02*
D03*
D31*
X244323Y276963D02*
D03*
X235662D02*
D03*
X244323Y270270D02*
D03*
X235661D02*
D03*
D32*
X126976Y312102D02*
D03*
Y304622D02*
D03*
X77321Y263157D02*
D03*
Y270637D02*
D03*
X138063Y295430D02*
D03*
Y287949D02*
D03*
D33*
X112390Y321859D02*
D03*
Y312759D02*
D03*
Y303659D02*
D03*
D34*
X87190Y312759D02*
D03*
D35*
X281000Y305242D02*
D03*
Y300242D02*
D03*
Y295242D02*
D03*
Y290242D02*
D03*
Y285242D02*
D03*
Y280242D02*
D03*
Y275242D02*
D03*
Y270242D02*
D03*
X257600D02*
D03*
Y275242D02*
D03*
Y280242D02*
D03*
Y285242D02*
D03*
Y290242D02*
D03*
Y295242D02*
D03*
Y300242D02*
D03*
Y305242D02*
D03*
D36*
X152857Y58633D02*
D03*
Y61733D02*
D03*
Y64933D02*
D03*
Y68033D02*
D03*
Y71233D02*
D03*
Y74333D02*
D03*
Y77533D02*
D03*
Y80633D02*
D03*
X120457D02*
D03*
Y77533D02*
D03*
Y74333D02*
D03*
Y71233D02*
D03*
Y68033D02*
D03*
Y64933D02*
D03*
Y61733D02*
D03*
Y58633D02*
D03*
D37*
X147658Y85833D02*
D03*
X144557D02*
D03*
X141358D02*
D03*
X138258D02*
D03*
X135057D02*
D03*
X131957D02*
D03*
X128758D02*
D03*
X125657D02*
D03*
Y53433D02*
D03*
X128758D02*
D03*
X131957D02*
D03*
X135057D02*
D03*
X138258D02*
D03*
X141358D02*
D03*
X144557D02*
D03*
X147658D02*
D03*
D38*
X57408Y234224D02*
D03*
X45597Y260208D02*
D03*
X57408D02*
D03*
X45597Y234224D02*
D03*
D64*
X145702Y130252D02*
D03*
D65*
X67196Y240297D02*
X95989Y269090D01*
X243673Y318535D02*
X279717D01*
X280685Y317567D01*
Y316997D02*
Y317567D01*
X231082Y318406D02*
X243544D01*
X230953Y318276D02*
X231082Y318406D01*
X243544D02*
X243673Y318535D01*
X223176Y317091D02*
X224362Y318276D01*
X230953D01*
X223176Y296911D02*
Y317091D01*
X216215Y298083D02*
X222005D01*
X223176Y287521D02*
Y296911D01*
X222005Y298083D02*
X223176Y296911D01*
X222005Y286350D02*
X223176Y287521D01*
X188995Y286350D02*
X222005D01*
X162070Y259425D02*
X188995Y286350D01*
X123161Y259425D02*
X162070D01*
X107272D02*
X123161D01*
X106100Y174059D02*
Y258254D01*
X76116Y144074D02*
X106100Y174059D01*
Y258254D02*
X107272Y259425D01*
X107618Y92031D02*
Y130541D01*
X60020Y141718D02*
X60849Y141718D01*
X66755Y144368D01*
X52635Y141718D02*
X60020D01*
X67196Y152749D02*
Y240297D01*
X52671Y131713D02*
X106447D01*
X52640D02*
X52671D01*
X61201Y123183D01*
X57783Y136866D02*
X73708D01*
X52635Y131718D02*
X57783Y136866D01*
X123161Y259425D02*
X148624Y284888D01*
Y313745D01*
X112390Y321859D02*
X140509D01*
X148624Y313745D01*
X35754Y140684D02*
Y258889D01*
X25612Y269031D02*
X35754Y258889D01*
Y140684D02*
X35787Y140651D01*
X59716Y93658D02*
X61201Y95143D01*
X38217Y93658D02*
X59716D01*
X61201Y95143D02*
Y123183D01*
X37046Y92486D02*
X38217Y93658D01*
X37046Y27416D02*
Y92486D01*
X106447Y131713D02*
X107618Y130541D01*
X162171Y30242D02*
X175275Y43346D01*
X162171Y30046D02*
Y30242D01*
X149163Y17037D02*
X162171Y30046D01*
X36943Y17037D02*
X149163D01*
X163187Y68033D02*
X174693Y56527D01*
X146682Y68033D02*
X163187D01*
X145333Y69382D02*
Y71039D01*
X148626Y74333D01*
X145333Y69382D02*
X146682Y68033D01*
X148626Y74333D02*
X152857D01*
X159429D02*
X159729Y74633D01*
X152857Y74333D02*
X159429D01*
X159729Y74633D02*
X165814D01*
X83129Y338520D02*
X102763D01*
X60530Y315036D02*
Y315922D01*
X83129Y338520D01*
X60534Y305770D02*
Y315033D01*
X60530Y315036D02*
X60534Y315033D01*
Y305770D02*
X60537Y305766D01*
X25661Y291690D02*
X39189D01*
X53266Y305766D01*
X60537D01*
X25612Y269031D02*
Y291641D01*
X25661Y291690D01*
X165814Y74633D02*
X165943Y74504D01*
X39789Y114563D02*
Y133703D01*
X39884Y133798D01*
X39789Y114563D02*
X52635Y101718D01*
X156782Y89351D02*
X156878Y89446D01*
X163910D02*
X164026Y89563D01*
X179752Y97398D02*
X179973Y97618D01*
Y97753D01*
X173725Y107411D02*
X173766Y107452D01*
X169076Y107370D02*
X169117Y107411D01*
X281000Y305242D02*
Y316682D01*
X112763Y322232D02*
Y337965D01*
X87190Y312759D02*
X112390D01*
X112719Y312431D01*
X87190Y309809D02*
X95989Y301010D01*
Y269090D02*
Y301010D01*
X87190Y309809D02*
Y312759D01*
X137981Y306131D02*
X138022Y306090D01*
Y295471D02*
X138063Y295430D01*
X126976Y312102D02*
X127008Y312069D01*
X137948D02*
X137981Y312036D01*
X112719Y312431D02*
X126647D01*
X126976Y312102D01*
X112390Y321859D02*
X112763Y322232D01*
X137899Y281632D02*
X137981Y281714D01*
Y287867D02*
X138063Y287949D01*
X126893Y304540D02*
X126976Y304622D01*
X126811Y297894D02*
X126893Y297976D01*
X112390Y303659D02*
X112440Y303610D01*
X118385D02*
X118434Y303561D01*
D66*
X210558Y73777D02*
D03*
Y63777D02*
D03*
Y93777D02*
D03*
Y83777D02*
D03*
X153113Y247018D02*
D03*
X163113D02*
D03*
X133113D02*
D03*
X143113D02*
D03*
X25612Y259031D02*
D03*
Y269031D02*
D03*
Y239031D02*
D03*
Y249031D02*
D03*
X95989Y259090D02*
D03*
Y269090D02*
D03*
Y239090D02*
D03*
Y249090D02*
D03*
X253086Y15642D02*
D03*
X263086D02*
D03*
X233086D02*
D03*
X243086D02*
D03*
X217383Y241574D02*
D03*
Y231574D02*
D03*
Y261574D02*
D03*
Y251574D02*
D03*
X193171Y242212D02*
D03*
Y232212D02*
D03*
Y262212D02*
D03*
Y252212D02*
D03*
X187271Y16002D02*
D03*
X177271D02*
D03*
X207271D02*
D03*
X197271D02*
D03*
X244769Y337300D02*
D03*
X234769D02*
D03*
X264769D02*
D03*
X254769D02*
D03*
X126906Y124917D02*
D03*
Y134916D02*
D03*
X136906Y124917D02*
D03*
Y134916D02*
D03*
X146906Y124917D02*
D03*
Y134916D02*
D03*
D67*
X198002Y335529D02*
D03*
X162568D02*
D03*
D68*
X198002Y308757D02*
D03*
X162569D02*
D03*
D69*
X181861Y311906D02*
D03*
X178711D02*
D03*
X185010D02*
D03*
X175562D02*
D03*
X183436Y314662D02*
D03*
X177136D02*
D03*
X186585D02*
D03*
X173987D02*
D03*
X189735D02*
D03*
X170837D02*
D03*
D70*
X168278Y311906D02*
D03*
X192294D02*
D03*
D71*
X165621Y314662D02*
D03*
X194951D02*
D03*
D72*
X272635Y207718D02*
D03*
Y197718D02*
D03*
Y187718D02*
D03*
Y177718D02*
D03*
Y167718D02*
D03*
Y157718D02*
D03*
Y147718D02*
D03*
Y137718D02*
D03*
Y127718D02*
D03*
Y117718D02*
D03*
X242635Y207718D02*
D03*
Y197718D02*
D03*
Y187718D02*
D03*
Y177718D02*
D03*
Y167718D02*
D03*
Y157718D02*
D03*
Y147718D02*
D03*
Y137718D02*
D03*
Y127718D02*
D03*
Y117718D02*
D03*
X272635Y101718D02*
D03*
Y91718D02*
D03*
Y81718D02*
D03*
Y71718D02*
D03*
Y61718D02*
D03*
Y51718D02*
D03*
Y41718D02*
D03*
Y31718D02*
D03*
X52635Y171718D02*
D03*
Y161718D02*
D03*
Y151718D02*
D03*
Y141718D02*
D03*
Y131718D02*
D03*
Y121718D02*
D03*
Y111718D02*
D03*
Y101718D02*
D03*
X22635Y171718D02*
D03*
Y161718D02*
D03*
Y151718D02*
D03*
Y141718D02*
D03*
Y131718D02*
D03*
Y121718D02*
D03*
Y111718D02*
D03*
Y101718D02*
D03*
Y81718D02*
D03*
Y71718D02*
D03*
Y61718D02*
D03*
Y51718D02*
D03*
Y41718D02*
D03*
Y31718D02*
D03*
X52635Y81718D02*
D03*
Y71718D02*
D03*
Y61718D02*
D03*
Y51718D02*
D03*
Y41718D02*
D03*
Y31718D02*
D03*
X242635D02*
D03*
Y41718D02*
D03*
Y51718D02*
D03*
Y61718D02*
D03*
Y71718D02*
D03*
Y81718D02*
D03*
Y91718D02*
D03*
Y101718D02*
D03*
D73*
X122763Y338520D02*
D03*
X112763D02*
D03*
X102763D02*
D03*
D74*
X25661Y291690D02*
D03*
Y315312D02*
D03*
D75*
X7354Y301533D02*
D03*
D76*
X178541Y295877D02*
D03*
X189678Y298631D02*
D03*
X189567Y302855D02*
D03*
X179301Y303027D02*
D03*
X182637Y301968D02*
D03*
X230753Y245923D02*
D03*
X230778Y251745D02*
D03*
X176779Y102963D02*
D03*
X218598Y305923D02*
D03*
X200404Y297984D02*
D03*
X273877Y238543D02*
D03*
X264267Y238661D02*
D03*
X110186Y206809D02*
D03*
X101760Y207262D02*
D03*
X69156Y247386D02*
D03*
X73758Y240191D02*
D03*
X209720Y37357D02*
D03*
X214151Y42096D02*
D03*
X211644Y293607D02*
D03*
X216279Y273001D02*
D03*
X211789Y282345D02*
D03*
X190093Y280684D02*
D03*
X187673Y290492D02*
D03*
X208717Y338752D02*
D03*
X156504Y262816D02*
D03*
X169391Y302873D02*
D03*
X202087Y167351D02*
D03*
X127540Y101234D02*
D03*
X116683Y101096D02*
D03*
X66755Y144368D02*
D03*
X67196Y152749D02*
D03*
X76116Y144074D02*
D03*
X73708Y136866D02*
D03*
X52635Y141718D02*
D03*
X85200Y137733D02*
D03*
X175275Y43346D02*
D03*
X174693Y56527D02*
D03*
X36943Y17037D02*
D03*
X37046Y27384D02*
D03*
X160190Y64783D02*
D03*
X161075Y71383D02*
D03*
X242635Y207718D02*
D03*
X85351Y126382D02*
D03*
X242635Y187718D02*
D03*
X98957Y138090D02*
D03*
X98663Y126820D02*
D03*
X242635Y197718D02*
D03*
X93250Y137598D02*
D03*
Y126991D02*
D03*
X39884Y133798D02*
D03*
X35787Y140651D02*
D03*
X112299Y67737D02*
D03*
X173766Y107452D02*
D03*
X156782Y89351D02*
D03*
X179973Y97753D02*
D03*
X177496Y74565D02*
D03*
X82886Y77552D02*
D03*
X249759Y270218D02*
D03*
X226822Y277240D02*
D03*
X244973Y260512D02*
D03*
X234687Y284352D02*
D03*
X249185Y305114D02*
D03*
X294527Y316982D02*
D03*
X147616Y327463D02*
D03*
X57524Y267949D02*
D03*
X66735Y261237D02*
D03*
X82446Y299562D02*
D03*
X137899Y281632D02*
D03*
X126811Y297894D02*
D03*
X118434Y303561D02*
D03*
X73546Y315243D02*
D03*
M02*
